<svg xmlns="http://www.w3.org/2000/svg" viewBox="0 0 504 145"><title>Artboard 1 cópia</title><path d="M184.18459,66.262l-8.7681-13.4321h-.7612V63.2913c.562.06008,1.1323.1309,1.707.2217a11.91763,11.91763,0,0,1,1.6172.3569V66.262h-11.1709V63.9129a19.049,19.049,0,0,1,3.8579-.6216V39.3079a18.91031,18.91031,0,0,1-3.8579-.6216V36.3362h3.46q.8847,0,3.0117-.0879,2.12685-.08565,4.876-.0874a18.47994,18.47994,0,0,1,4.08.4224,9.19823,9.19823,0,0,1,3.2139,1.35108,6.4128,6.4128,0,0,1,2.1074,2.41552,8.82059,8.82059,0,0,1,.1099,6.8682,7.54454,7.54454,0,0,1-1.7959,2.5068,9.33352,9.33352,0,0,1-2.7271,1.729,11.35823,11.35823,0,0,1-3.3911.8403c.3291.418.6641.8521,1.0069,1.312.3442.4561.664.9248.9643,1.3941l5.6558,8.2446c.499.063,1.0478.1343,1.6382.2202.5918.0918,1.1816.21,1.7739.355V66.262Zm-1.7881-25.625a8.865,8.865,0,0,0-4.9658-1.1519c-.5381,0-1.0313.0049-1.4761.024-.4502.0151-.8823.0371-1.2993.0649V49.7703c.2373.0298.581.0518,1.0283.0649.4497.0181.9707.024,1.5669.024a7.6909,7.6909,0,0,0,5.0571-1.4873,4.79069,4.79069,0,0,0,1.792-3.877,4.31986,4.31986,0,0,0-1.7031-3.8579" style="fill:#8d8d8e"/><path d="M192.91939,66.2625V63.91338a19.269,19.269,0,0,1,3.856-.62308V39.30838a19.17073,19.17073,0,0,1-3.856-.62108V36.3387h19.2842v6.9155h-2.8384q-.22335-1.01805-.354-1.9966c-.0888-.6484-.1616-1.2231-.2197-1.729h-8.0249v9.84378h6.3838c.0869-.56208.1748-1.09278.2642-1.59718a11.87177,11.87177,0,0,1,.3549-1.4609h2.4829v9.0859h-2.4829a21.89366,21.89366,0,0,1-.6191-3.0596h-6.3838V62.9842h8.0679c.0581-.59482.1382-1.2056.2441-1.84182q.1524-.95217.376-1.97508h2.8379v7.0952Z" style="fill:#8d8d8e"/><path d="M237.44629,48.97338a9.60114,9.60114,0,0,1-2.4028,3.146,10.99591,10.99591,0,0,1-3.6441,2.062,14.13237,14.13237,0,0,1-4.6489.73h-1.2451a8.22049,8.22049,0,0,1-1.2012-.08588v8.4648a19.33049,19.33049,0,0,1,3.855.62108V66.2625h-11.7017V63.91138a19.35865,19.35865,0,0,1,3.8589-.62108V39.30838a19.21552,19.21552,0,0,1-3.8589-.62008V36.3362h3.2798c.354,0,.8281-.00582,1.4199-.021q.88485-.0204,1.9522-.0649,1.062-.0447,2.2368-.06692c.7842-.01318,1.5449-.022,2.2842-.022q5.2287,0,7.957,2.36872a8.066,8.066,0,0,1,2.7251,6.4082,9.27684,9.27684,0,0,1-.8662,4.03508m-5.0361-7.936q-1.69485-1.50732-5.21-1.50928h-1.5581c-.4497,0-.8906.0171-1.3379.044V51.3675c.3862.0556.7861.104,1.2012.1338.415.0278.832.0439,1.249.0439a8.26,8.26,0,0,0,5.3667-1.71,5.55607,5.55607,0,0,0,1.979-4.498,5.455,5.455,0,0,0-1.6899-4.29982" style="fill:#8d8d8e"/><path d="M268.10449,39.0872c-.5059.0874-1.01949.1631-1.5537.22118V54.8685q0,5.9457-2.9932,8.8872-2.9853,2.9502-8.93159,2.94968a15.473,15.473,0,0,1-5.69531-.88578,8.3537,8.3537,0,0,1-3.4151-2.3711,8.23518,8.23518,0,0,1-1.6621-3.37112,16.8372,16.8372,0,0,1-.4429-3.87888V39.30838c-.5312-.05808-1.059-.13378-1.5712-.22118a11.01578,11.01578,0,0,1-1.4869-.356V36.3387h10.5938v2.3925a13.22555,13.22555,0,0,1-1.729.356c-.6196.0874-1.2266.1631-1.815.22118V55.8885a12.95208,12.95208,0,0,0,.3091,2.9028,5.39986,5.39986,0,0,0,3.4468,3.9702,10.23114,10.23114,0,0,0,3.7109.5747q3.9126,0,5.8038-1.83982,1.88955-1.84062,1.8906-6.35988V39.30838c-.5918-.05808-1.1914-.13378-1.7979-.22118a15.29007,15.29007,0,0,1-1.749-.356V36.3387h10.5918v2.3925a13.24665,13.24665,0,0,1-1.5039.356m-13.7432-5.0996-1.5947-2.2173,6.293-4.91892,1.9951,2.747Z" style="fill:#8d8d8e"/><path d="M295.14549,60.2351a7.47477,7.47477,0,0,1-1.7959,2.96728,9.97685,9.97685,0,0,1-3.5488,2.28372,15.367,15.367,0,0,1-5.7383.9082c-.8877,0-2.0156-.02192-3.3936-.06492q-2.0565-.06807-4.2304-.06738h-3.8584V63.91338a19.20037,19.20037,0,0,1,3.8584-.62308V39.30838a19.239,19.239,0,0,1-3.8584-.62008V36.3382h3.7695c1.0606,0,2.3643-.023,3.90041-.0669,1.53419-.043,3.207-.06592,5.00779-.06592q4.92045,0,7.3135,1.90772a6.36427,6.36427,0,0,1,2.3965,5.2749,6.85634,6.85634,0,0,1-1.4844,4.2773,7.689,7.689,0,0,1-3.8799,2.6822v.0888a8.08433,8.08433,0,0,1,2.7041.9287,6.33172,6.33172,0,0,1,2.9717,3.6592,7.61525,7.61525,0,0,1,.3545,2.28218,10.08976,10.08976,0,0,1-.4883,2.92872m-4.6787-18.0009a3.36589,3.36589,0,0,0-1.0107-1.461,4.78766,4.78766,0,0,0-1.919-.955,11.41139,11.41139,0,0,0-2.99709-.3331c-.71481,0-1.42381.00928-2.125.022-.69921.0171-1.36421.0381-1.98731.0669v9.6651c.417.02728.8467.0449,1.2969.0449h1.4756a9.62392,9.62392,0,0,0,5.6543-1.377,4.48289,4.48289,0,0,0,1.9023-3.8579,5.59414,5.59414,0,0,0-.29-1.8149m.20021,12.7661a4.685,4.685,0,0,0-1.68561-1.5733,7.72293,7.72293,0,0,0-2.5478-.8427,19.87623,19.87623,0,0,0-3.2139-.2442h-1.3291c-.26659,0-.5342.00828-.7988.022-.2666.0171-.4873.0249-.6641.0249V62.8475c.4151.0605.9375.1127,1.57331.1577.63379.0429,1.38179.0649,2.23829.0649q3.67965,0,5.3642-1.57272a5.30464,5.30464,0,0,0,1.6836-4.05718,4.47226,4.47226,0,0,0-.62009-2.4399" style="fill:#8d8d8e"/><path d="M299.13479,66.2625V63.9456a19.21636,19.21636,0,0,1,3.8554-.6143V39.3533a18.9968,18.9968,0,0,1-3.8554-.6221V36.3816h11.7031v2.3496a18.99641,18.99641,0,0,1-3.8565.6221V62.9842h7.67c.0595-.59482.1474-1.23682.26661-1.9307.11619-.6953.249-1.396.39739-2.1069h2.792v7.3159Z" style="fill:#8d8d8e"/><path d="M319.97069,66.2625V63.91338a19.23307,19.23307,0,0,1,3.8564-.62308V39.30838a19.13528,19.13528,0,0,1-3.8564-.62108V36.3387h11.7031v2.3486a19.1428,19.1428,0,0,1-3.8584.62108V63.2903a19.24053,19.24053,0,0,1,3.8584.62308V66.2625Z" style="fill:#8d8d8e"/><path d="M353.88379,44.14038q-.21975-1.10877-.3545-2.105c-.0889-.665-.1641-1.29588-.2227-1.88418a14.071,14.071,0,0,0-2.2382-.4219,21.92435,21.92435,0,0,0-2.19439-.10792,9.06722,9.06722,0,0,0-4.20991.91012,8.13462,8.13462,0,0,0-2.9258,2.48488,10.712,10.712,0,0,0-1.707,3.73292,18.43156,18.43156,0,0,0-.5567,4.64008q0,5.46183,2.4619,8.52792,2.45805,3.063,7.9141,3.0639a16.71856,16.71856,0,0,0,3.6553-.4189,14.53749,14.53749,0,0,0,3.3037-1.1318l.2646,3.7231a26.93565,26.93565,0,0,1-3.8994,1.0869,22.03713,22.03713,0,0,1-4.3457.41988q-6.87013,0-10.3486-3.85588-3.48345-3.85845-3.4834-10.728a22.57978,22.57978,0,0,1,.8672-6.4063,13.74151,13.74151,0,0,1,2.6796-5.0976,12.33439,12.33439,0,0,1,4.5879-3.3501,16.6685,16.6685,0,0,1,6.626-1.1949,26.26992,26.26992,0,0,1,3.5274.2417q1.79145.2403,3.4794.6309v7.24018Z" style="fill:#8d8d8e"/><path d="M377.95409,66.2625V63.91338a13.22436,13.22436,0,0,1,1.708-.355c.6035-.08788,1.2041-.16208,1.794-.22318l-1.7266-4.789h-12.5479l-1.7275,4.789q.8847.09165,1.79391.22318a13.21012,13.21012,0,0,1,1.70709.355V66.2625H358.582v-2.395c.41309-.0904.86229-.1812,1.35349-.28712a10.25354,10.25354,0,0,1,1.3497-.20118l9.9326-27.0405h4.789l9.9727,27.0405a10.31226,10.31226,0,0,1,1.3506.20118c.4883.10592.9385.19672,1.3535.28712v2.395Zm-3.1455-21.41312c-.2959-.76508-.5498-1.51508-.7549-2.23928-.207-.7216-.3974-1.46972-.5762-2.24072h-.0869c-.1777.74322-.3779,1.48682-.60059,2.24072q-.33107,1.1316-.77541,2.2842l-3.7675,10.37408h10.417Z" style="fill:#8d8d8e"/><path d="M189.01859,89.8016a9.232,9.232,0,0,1-2.3272,3.3071,11.17477,11.17477,0,0,1-3.7031,2.1958,14.07371,14.07371,0,0,1-4.875.79688h-.8858a6.03334,6.03334,0,0,1-1.0234-.09088v6.4302c.6812.0601,1.3452.1319,1.9971.21968q.97695.13713,1.8613.31112v3.5923h-13.4771v-3.5923c.5918-.1157,1.212-.2197,1.8648-.31112.647-.08778,1.314-.15958,1.9932-.21968V80.7615c-.6792-.05812-1.3462-.1318-1.9932-.2217-.6528-.0893-1.273-.18942-1.8648-.3125V76.6375h3.4581c.354,0,.8486-.0059,1.4868-.021q.9492-.02268,2.105-.0649,1.1535-.0477,2.414-.0669c.8452-.0171,1.6489-.021,2.416-.021q5.5437,0,8.4458,2.416a8.40767,8.40767,0,0,1,2.9043,6.84568,10.42672,10.42672,0,0,1-.7968,4.07622m-6.479-7.2681a5.97512,5.97512,0,0,0-4.3272-1.32912h-1.0239c-.3262,0-.6533.01512-.9844.04342v9.97558a10.61945,10.61945,0,0,0,1.6953.13432,6.72835,6.72835,0,0,0,4.3272-1.417,4.69367,4.69367,0,0,0,1.6479-3.813,4.85529,4.85529,0,0,0-1.3349-3.5942" style="fill:#8d8d8e"/><path d="M219.07619,97.82838a15.20674,15.20674,0,0,1-3.125,4.99072,13.38743,13.38743,0,0,1-4.6338,3.1441,15.01386,15.01386,0,0,1-5.7188,1.0849,15.81063,15.81063,0,0,1-5.9843-1.042,10.812,10.812,0,0,1-4.2569-3.0131,12.99482,12.99482,0,0,1-2.5268-4.7647,21.59452,21.59452,0,0,1-.8433-6.25,18.01057,18.01057,0,0,1,1.1523-6.64992,14.72464,14.72464,0,0,1,3.1509-4.96428,13.62461,13.62461,0,0,1,4.6529-3.127,14.902,14.902,0,0,1,5.6728-1.085,16.00743,16.00743,0,0,1,5.4751.90528,11.45,11.45,0,0,1,4.3242,2.771,12.69814,12.69814,0,0,1,2.8159,4.67872,20.05169,20.05169,0,0,1,.9942,6.67428,18.0885,18.0885,0,0,1-1.1494,6.647m-7.0498-13.853a7.05837,7.05837,0,0,0-5.941-2.63918,7.48894,7.48894,0,0,0-2.9912.6231,7.01923,7.01923,0,0,0-2.5288,1.8608,9.41908,9.41908,0,0,0-1.75,3.124,13.28849,13.28849,0,0,0-.666,4.4141,18.54511,18.54511,0,0,0,.4649,4.3223,9.26454,9.26454,0,0,0,1.4433,3.2788,6.75856,6.75856,0,0,0,2.46,2.1069,7.58081,7.58081,0,0,0,3.479.752,7.812,7.812,0,0,0,2.9048-.5752,7.0897,7.0897,0,0,0,2.5932-1.8199,9.332,9.332,0,0,0,1.8628-3.166,13.56327,13.56327,0,0,0,.709-4.6308q0-5.01138-2.04-7.65092" style="fill:#8d8d8e"/><path d="M240.44189,106.5618l-7.314-12.3657h-.7988v8.2446c.4116.0581.85691.1192,1.3311.1773a6.97032,6.97032,0,0,1,1.3715.311v3.6328H222.709V102.972c.58979-.1192,1.20989-.2202,1.86079-.3111.6499-.0859,1.314-.1621,1.9971-.2202V80.762c-.6831-.0581-1.3472-.1323-1.9971-.2192-.6509-.0899-1.271-.1958-1.86079-.3111V76.638h3.458c.29389,0,.75189-.0039,1.37209-.022.625-.0151,1.3466-.0361,2.1718-.0659.83011-.0264,1.7139-.0483,2.66311-.0674q1.41584-.0234,2.792-.022a19.77893,19.77893,0,0,1,4.478.4654,9.70019,9.70019,0,0,1,3.41169,1.4648,6.724,6.724,0,0,1,2.19631,2.5908,8.88906,8.88906,0,0,1,.77389,3.9014,7.64055,7.64055,0,0,1-1.9282,5.2988,9.15082,9.15082,0,0,1-5.11669,2.8159c.26609.355.52289.7159.77289,1.087q.3765.55215.731,1.083l4.6118,7.229c.8862.145,1.8584.312,2.9262.4873v3.6777Zm-5.896-25.3569q-.6225,0-1.1992.0229a6.94824,6.94824,0,0,0-1.0176.1079v8.6451a7.12675,7.12675,0,0,0,.8398.0673c.357.0176.7559.022,1.2002.022a6.2742,6.2742,0,0,0,4.1206-1.2143,4.12738,4.12738,0,0,0,1.4634-3.3477q0-4.3023-5.4072-4.3032" style="fill:#8d8d8e"/><path d="M273.42289,85.0623H269.167c-.11821-.6792-.22171-1.3232-.31061-1.9282-.0878-.605-.1621-1.1909-.2216-1.752h-4.6084v21.0581c.6787.0591,1.3457.1319,1.9931.22118q.9741.13488,1.8623.31112v3.5908h-13.4765v-3.5908q.8877-.1758,1.8623-.31112.97562-.13392,1.9951-.22118V81.3821h-4.5674c-.0596.5611-.1308,1.147-.2197,1.752-.0879.605-.1943,1.249-.3115,1.9282h-4.2578V76.6385h24.5166Z" style="fill:#8d8d8e"/><path d="M301.92869,80.8069V95.1248q0,6.1626-3.1699,9.0439-3.16695,2.8836-9.1973,2.8814a16.0887,16.0887,0,0,1-5.7881-.877,8.75772,8.75772,0,0,1-3.52339-2.373,8.23719,8.23719,0,0,1-1.77151-3.4673,16.803,16.803,0,0,1-.4883-4.0986V80.8069a17.68,17.68,0,0,1-2.7949-.4858V76.681h11.75v3.6401a9.16781,9.16781,0,0,1-1.5976.3091c-.5625.0576-1.0928.1157-1.5948.1767V95.8768a11.717,11.717,0,0,0,.2666,2.5952,4.99146,4.99146,0,0,0,.9502,2.041,4.39646,4.39646,0,0,0,1.8858,1.3291,8.51912,8.51912,0,0,0,3.05951.4639q3.32518,0,4.83009-1.5728,1.50437-1.57545,1.5088-5.3853V80.8069q-.7983-.0915-1.6172-.1767a9.09581,9.09581,0,0,1-1.5742-.3091V76.681h11.6133v3.6401a17.74721,17.74721,0,0,1-2.7471.4858" style="fill:#8d8d8e"/><path d="M333.89059,94.7923c-.415.0757-.8281.1396-1.2412.2007v10.1533a26.78378,26.78378,0,0,1-4.9209,1.37208,29.78944,29.78944,0,0,1-5.4092.48682,18.33326,18.33326,0,0,1-6.3408-1.0201,12.83888,12.83888,0,0,1-4.7178-2.9248,12.59544,12.59544,0,0,1-2.9502-4.6313,17.47543,17.47543,0,0,1-1.01949-6.1421,17.797,17.797,0,0,1,1.15329-6.5347,14.35968,14.35968,0,0,1,3.30371-5.0771,14.78425,14.78425,0,0,1,5.23149-3.3052,19.24093,19.24093,0,0,1,6.8896-1.1748,30.42971,30.42971,0,0,1,4.1924.2881,38.471,38.471,0,0,1,4.1436.8208v8.0239h-4.4326a18.59027,18.59027,0,0,1-.3311-1.8388c-.0752-.5772-.1406-1.1602-.1982-1.753a16.05807,16.05807,0,0,0-1.8418-.332,16.44679,16.44679,0,0,0-1.8418-.1108,11.38707,11.38707,0,0,0-4.0108.6889,8.79542,8.79542,0,0,0-3.1679,2.0147,9.35084,9.35084,0,0,0-2.086,3.2802,12.406,12.406,0,0,0-.75189,4.48q0,4.782,2.48339,7.4239a9.20008,9.20008,0,0,0,7.0459,2.6391,12.97006,12.97006,0,0,0,3.8144-.5342v-6.25c-.67869-.0556-1.34669-.1338-1.9951-.2216a16.08747,16.08747,0,0,1-1.8193-.3531V90.8689h12.0595v3.6812c-.413.0879-.8281.1709-1.2412.2422" style="fill:#8d8d8e"/><path d="M363.85549,80.8069V95.1248q0,6.1626-3.166,9.0439-3.17145,2.8836-9.2002,2.8814a16.0738,16.0738,0,0,1-5.7862-.877,8.74162,8.74162,0,0,1-3.5244-2.373,8.23774,8.23774,0,0,1-1.7724-3.4673,16.94527,16.94527,0,0,1-.4854-4.0986V80.8069a17.64484,17.64484,0,0,1-2.79689-.4858V76.681h11.75v3.6401a9.156,9.156,0,0,1-1.59671.3091q-.84225.0864-1.5957.1767V95.8768a11.77329,11.77329,0,0,0,.2657,2.5952,4.98176,4.98176,0,0,0,.9531,2.041,4.39248,4.39248,0,0,0,1.8848,1.3291,8.521,8.521,0,0,0,3.0586.4639q3.32655,0,4.83-1.5728,1.50735-1.57545,1.5088-5.3853V80.8069q-.7983-.0915-1.6172-.1767a9.10111,9.10111,0,0,1-1.5732-.3091V76.681h11.6123v3.6401a17.7308,17.7308,0,0,1-2.749.4858" style="fill:#8d8d8e"/><path d="M369.17679,106.5618V102.972c.5918-.1192,1.2119-.2251,1.8613-.3072.6494-.0898,1.3154-.166,1.9932-.2246V80.764c-.6778-.063-1.3438-.1319-1.9932-.2212-.6494-.0909-1.2695-.1958-1.8613-.3106V76.638h20.3945v7.5361h-4.3027c-.0889-.562-.1709-1.1001-.2422-1.6191-.0762-.5122-.1397-.979-.1993-1.3931h-6.0292v7.978h4.831a20.40385,20.40385,0,0,1,.5322-2.437h3.6787v8.999h-3.6787a6.73514,6.73514,0,0,1-.3349-1.1948c-.0703-.417-.1397-.8281-.1973-1.2451h-4.831v8.645h6.0722c.0586-.5.126-1.0097.1992-1.5278.0713-.5191.169-1.0703.2871-1.6641h4.2989v7.8467Z" style="fill:#8d8d8e"/><path d="M411.97849,101.1868a9.11766,9.11766,0,0,1-2.3281,3.0894,10.87492,10.87492,0,0,1-3.6592,2.042,15.00684,15.00684,0,0,1-4.8535.7319,29.55937,29.55937,0,0,1-6.8242-.7451V98.3641h4.3867c.1182.644.2139,1.269.2891,1.8588.0742.5918.1386,1.1372.1972,1.6402a9.85251,9.85251,0,0,0,2.085.2226,7.22724,7.22724,0,0,0,3.8584-.9336,3.27638,3.27638,0,0,0,1.5058-3.019,2.81226,2.81226,0,0,0-.9531-2.2432,9.15678,9.15678,0,0,0-2.3935-1.4419c-.96-.414-1.99909-.812-3.125-1.1992a13.26283,13.26283,0,0,1-3.125-1.5537,8.28689,8.28689,0,0,1-2.3955-2.5112,7.53124,7.53124,0,0,1-.9532-4.02,8.76231,8.76231,0,0,1,.7539-3.6592,7.718,7.718,0,0,1,2.1963-2.8438,10.61138,10.61138,0,0,1,3.5235-1.8442,15.59027,15.59027,0,0,1,4.7402-.667,31.73714,31.73714,0,0,1,3.2168.1582,25.42609,25.42609,0,0,1,3.081.501v7.6308h-4.3916a32.39211,32.39211,0,0,1-.4863-3.415c-.1767-.0249-.40719-.0557-.70119-.0859-.29391-.0279-.57321-.0459-.83981-.0459a5.68027,5.68027,0,0,0-3.7187,1.0229,3.27191,3.27191,0,0,0-1.21,2.6211,2.70769,2.70769,0,0,0,.9492,2.1548,9.152,9.152,0,0,0,2.4092,1.4424q1.45455.621,3.1113,1.2417a15.01309,15.01309,0,0,1,3.1143,1.6001,8.34918,8.34918,0,0,1,2.4101,2.4629,7.03841,7.03841,0,0,1,.9493,3.8413,9.18591,9.18591,0,0,1-.8194,3.9067" style="fill:#8d8d8e"/><path d="M433.14749,106.5623V102.972c.4726-.0889.9892-.1748,1.5507-.2627.5606-.0923,1.0909-.167,1.5957-.2232l-1.2861-3.5488h-10.9053l-1.2412,3.5488q.753.0843,1.5948.2232c.5605.0879,1.0791.1738,1.5527.2627v3.5903H414.748V102.972a7.45031,7.45031,0,0,1,1.15529-.2847,10.88484,10.88484,0,0,1,1.1953-.1582l9.1309-25.8911h7.0498l9.3105,25.8911a11.14869,11.14869,0,0,1,1.1963.1582,7.40805,7.40805,0,0,1,1.1504.2847v3.5903Zm-2.2198-19.5054c-.2939-.7978-.55069-1.5708-.7744-2.3276q-.32955-1.1316-.5996-2.416h-.041c-.17769.77-.3809,1.5757-.6025,2.416a24.49337,24.49337,0,0,1-.8174,2.5478l-2.5723,7.1412h8.0703Z" style="fill:#8d8d8e"/><path d="M94.38125,16.188C71.47217,23.57014,59.85,43.0378,59.85,73.06853v45.54366s3.83145-29.2748,34.53122-37.71611Z" style="fill:#8d8d8e"/><path d="M96.93358,24.79028S114.3708,18.18287,139.18344,16.78c0,0-.0774,20.7302-.74054,37.56767-2.09347,53.20931-49.63882,25.87088-72.93618,54.16759C70.18228,96.26693,86.08211,87.553,96.93358,85.40873Z" style="fill:#8d8d8e"/><path d="M90.50345,100.766s-25.27113,2.05246-27.428,16.464c-1.70112,11.29642,27.428,11.59247,27.428,11.59247Z" style="fill:#8d8d8e"/><path d="M60.93159,58.35189C66.1636,46.13414,75.02646,33.632,94.38125,25.80532V16.188C75.4633,22.287,64.2663,36.64278,60.93159,58.35189" style="fill:#8d8d8e"/><path d="M76.37256,45.11726h0a.02291.02291,0,0,0,.01484-.00718h.02027c.00765-.01346.01308-.01346.02884-.01346h.02829a.02156.02156,0,0,1,.014-.00635.042.042,0,0,0,.02829-.00719h.00672a.37785.37785,0,0,0,.08551-.01438,2.34654,2.34654,0,0,1,.33835-.02073H76.979c.09942,0,.21193.00636.33254.01263.02018.0081.049.0081.07012.01529l.00636.00719c.071.00719.14844.01354.22584.027a.37982.37982,0,0,1,.08366.01446,2.295,2.295,0,0,0,.247.04229c.02874.00719.05712.0153.08587.02064h.00636c.08459.02166.17682.04322.26813.06386.30324.07113.63486.17009.98666.28352.02875.00534.06385.01981.09988.027a.04748.04748,0,0,0,.02746.00718.69275.69275,0,0,0,.0985.03594c.00765.00544.01483.00544.02119.01447.10615.027.211.07012.30683.1043.02608.00728.03953.00728.0598.01447.02885.00718.05621.02156.085.02875a.20746.20746,0,0,1,.05621.02884.19642.19642,0,0,1,.08458.027c.0423.01438.09224.02875.13361.0423a.29533.29533,0,0,0,.07113.02874c.02746.00719.05713.02074.0774.02792.02921.00719.04764.02157.0774.02875a.46041.46041,0,0,1,.08459.03419c.02875,0,.04229.01446.06385.02165.04948.02156.10569.04229.15563.06293a.07109.07109,0,0,0,.03511.01447c.04137.02156.08283.02875.126.04948a.16976.16976,0,0,0,.05722.02064c.03418.01447.0773.02884.1196.04321.014.01355.02791.01355.04911.02166.04763.01971.11241.04856.16189.0692V44.9913c-.18981.04138-.38055.0774-.5628.11878-.16328.036-.33245.07739-.4949.11342-.04856-.01437-.0985-.036-.14844-.04948-.02027-.00719-.04957-.01354-.06883-.02073a.31165.31165,0,0,0-.07113-.02875c-.0211-.00728-.04948-.01446-.08459-.02792a.11228.11228,0,0,0-.04994-.01354.288.288,0,0,0-.08458-.03511.14383.14383,0,0,0-.05621-.01529c-.37345-.126-.72617-.23211-1.05143-.32388h-.01493a.18233.18233,0,0,1-.08274-.02166c-.01484,0-.01484,0-.0211-.00718a.43043.43043,0,0,1-.09224-.01346.00622.00622,0,0,0-.00636-.00635.72578.72578,0,0,0-.10034-.02249c-.00765,0-.00765,0-.01207-.00626.00442.00626.00442.00626.01207.00626.04322-.01345.08643-.02782.12872-.04229a.00629.00629,0,0,0,.00673-.00627,1.03718,1.03718,0,0,1,.13361-.0351.02509.02509,0,0,1,.01446-.00719,1.207,1.207,0,0,1,.14126-.0504c.0985-.027.18981-.05575.29559-.08274v-.00811a.99962.99962,0,0,0,.14844-.04229h.00718c.64251-.18991,1.3462-.37253,2.11457-.54263v-.6344a.021.021,0,0,0-.01345.00728c.00719-.00728.01345-.00728.01345-.01539V42.3683c-.3729.35189-.73962.719-1.08608,1.08617a22.46928,22.46928,0,0,0-2.30438.72525,22.268,22.268,0,0,1,16.10458-8.686l.0891-.59294a22.7878,22.7878,0,0,0-17.13177,9.56867,1.36047,1.36047,0,0,0-.72617.19709c0,.01346,0,.02064-.00719.02064l-.33291.60022a.53024.53024,0,0,0-.02654.28886.54732.54732,0,0,1,.4503-.459" style="fill:#fff"/><path d="M77.70613,44.5117a.04975.04975,0,0,0,.02746.00719.04975.04975,0,0,1-.02746-.00719" style="fill:#fff"/><path d="M93.782,37.404a20.23343,20.23343,0,0,0-10.33,3.96284h-.95155a20.79745,20.79745,0,0,1,11.36479-4.562Z" style="fill:#fff"/><path d="M74.26472,48.947a.61709.61709,0,0,1,.022-.38875l.28841-.54262a.05014.05014,0,0,0,.00718-.02064.78442.78442,0,0,1,.387-.11343h.03594a.73655.73655,0,0,1,.12734-.01437,4.98126,4.98126,0,0,1,.50567.04321,10.17664,10.17664,0,0,1,1.30565.30951c.17682.04948.36765.11342.56511.17636.06975.01446.13361.04229.20336.063a.76918.76918,0,0,1,.10624.036c.03593.00719.06966.02875.0985.03594a.57307.57307,0,0,0,.10568.027l.00765.00719a.71221.71221,0,0,0,.09859.036h.00627c.036.01345.06929.02792.09942.04137h.00673c.036.01437.06975.02165.10393.036,0,.00718.00765.00718.00765.00718.03649.00719.0716.027.1067.03419h.00848a.2985.2985,0,0,0,.10486.04321h.00626a.55634.55634,0,0,0,.10624.04137s0,.00811.00719.00811a.35583.35583,0,0,1,.0985.03511h.01308c.03686.02156.072.02875.09942.04948a.02951.02951,0,0,1,.022.00627.78409.78409,0,0,1,.099.02884c.00635.00718.00635.01437.01446.01437a.619.619,0,0,0,.09758.02792c.00765.00811.014.00811.02119.01345.03511.01529.06386.02165.09712.036.009.00719.01622.00719.02119.01437.03778.01346.06524.02156.10035.03419.01483,0,.0175.0081.02653.0081.03686.02074.0657.02793.094.0423.00543.00627.02027.00627.02792.00627a.57815.57815,0,0,0,.09085.036.08529.08529,0,0,0,.036.01346.19488.19488,0,0,0,.09131.036.036.036,0,0,0,.02838.01355.68639.68639,0,0,0,.09988.04229.03139.03139,0,0,0,.02654.01345.669.669,0,0,1,.09223.036.05384.05384,0,0,0,.03511.01345c.02829.01437.05713.02166.08458.036l.04045.02064a.37717.37717,0,0,1,.08689.036.1281.1281,0,0,1,.04856.01345.38954.38954,0,0,0,.085.03511.28058.28058,0,0,0,.04229.02073c.02921.01529.05713.02156.08459.036a.14219.14219,0,0,1,.04229.02875c.02875.00718.06386.02072.08505.02791a.15685.15685,0,0,0,.04856.02064.48806.48806,0,0,0,.0832.036.14932.14932,0,0,0,.05133.02884.46461.46461,0,0,1,.0774.03419c.01842,0,.0351.01437.0562.02156a.29681.29681,0,0,1,.0774.03418.14066.14066,0,0,1,.05713.02156.63124.63124,0,0,1,.099.04322c.01354.00719.02119.00719.03289.02073a.58477.58477,0,0,0,.143.04856v.67761a42.20564,42.20564,0,0,0-4.11709-1.6287c-.19165-.07021-.38331-.1278-.56557-.17636h.00811a9.529,9.529,0,0,0-1.30565-.28979.15991.15991,0,0,1-.05538-.00626h-.00718c-.01392,0-.03511-.00719-.049-.00719h-.05713c-.00811,0-.01438,0-.01438-.00811H75.124a.093.093,0,0,1-.03373-.00543h-.15516c-.06349,0-.13545,0-.19977.00543-.21644.02156-.40717.12144-.47066.48771" style="fill:#fff"/><path d="M81.18173,72.05985a20.32317,20.32317,0,0,0,12.59387,5.9451l.08956.60021a20.92868,20.92868,0,0,1-15.21651-8.61131,4.24658,4.24658,0,0,1,.76395.036,21.95759,21.95759,0,0,0,1.72,1.98861c.02119.02064.0351.02783.04911.04137" style="fill:#fff"/><path d="M96.32793,34.85928v-.35991a.04868.04868,0,0,1,.02027-.04229.05511.05511,0,0,1,.036-.01529h.48633c.04229,0,.06348.02156.06348.05758V34.88a22.86747,22.86747,0,0,1,17.45114,9.737,3.66823,3.66823,0,0,1,.692.40847.02443.02443,0,0,1,.02028.00719s.35272.593.45122.7199a.217.217,0,0,1-.0985.31669c.07555-.05574.11241-.126-.11343-.31669a1.89409,1.89409,0,0,0-.23211-.16917.40261.40261,0,0,1-.05086-.036c-.02654-.01253-.04045-.027-.06883-.04137a8.86239,8.86239,0,0,0-1.05779-.51471c-.04266-.02156-.07915-.02874-.11241-.04948-.00765,0-.00765-.00719-.01484-.00719-.0351-.01529-.07021-.02791-.1125-.04229a.02528.02528,0,0,0-.01484-.00718c-.03464-.01438-.06975-.02793-.112-.04137a.84416.84416,0,0,1-.12015-.04322c-.00719,0-.01659-.00719-.02111-.00719a1.16435,1.16435,0,0,1-.11969-.04229.66578.66578,0,0,0-.11969-.04229.02711.02711,0,0,0-.01484-.00719.69543.69543,0,0,1-.11969-.04146c-.00672-.00719-.01391-.00719-.0211-.01438-.08505-.02156-.16871-.0504-.25375-.0774a.02994.02994,0,0,1-.02212-.00718.58113.58113,0,0,1-.126-.0423h-.00764c-.04138-.01529-.09307-.02967-.126-.04312h-.00764c-.04856-.01354-.09178-.02792-.13545-.04229a.02322.02322,0,0,0-.01935-.00728c-.04229-.00719-.09085-.027-.13453-.03419a.76758.76758,0,0,1-.1336-.0504h-.0153c-.049-.01345-.09712-.027-.13941-.03418-.009-.00719-.009-.00719-.0176-.00719-.37751-.11333-.75722-.21957-1.15353-.3095a1.39123,1.39123,0,0,0-.20068-.04322c-.05989-.02156-.12375-.036-.18631-.05759a1.57251,1.57251,0,0,1-.19074-.03418h-.00718c-.06745-.02156-.12642-.03511-.18539-.0504h-.00452V42.36111c.373.35272.72617.7118,1.07171,1.07889.85664.22584,1.63542.47149,2.29138.71272A22.23321,22.23321,0,0,0,96.934,35.48649v1.28317a20.91619,20.91619,0,0,1,11.89562,4.6188h-.95919A20.30005,20.30005,0,0,0,96.934,37.369v4.00422h-.60611V34.85928Z" style="fill:#fff"/><path d="M115.72373,46.69022a1.64282,1.64282,0,0,1,.46651.3095s.27532.47334.33788.58584a.222.222,0,0,1-.16106.30407c.08459-.02875.1759-.13407-.05713-.27624-.06256-.03419-.1336-.07012-.198-.10523-.01391-.00718-.01972-.01354-.02783-.01354a15.97779,15.97779,0,0,0-2.68778-.98795v.00719c-.27541-.0774-.55571-.1548-.85894-.23312v-.00627c-.78192-.19792-1.65027-.40127-2.5798-.59929V45.048c.11251.02073.23128.04865.33835.07657h.02119c.02829.00719.06339.01438.09085.02156a.07471.07471,0,0,1,.036.01438c.02018,0,.05529.00635.08413.00635.00359.00719.0211.00719.0292.00719a.60844.60844,0,0,0,.09049.02064c.01483,0,.0211.00811.03593.00811a.77362.77362,0,0,1,.07648.02073c.02212,0,.0293.00719.04948.00719.02212.00719.04994.01437.0774.02064a.10617.10617,0,0,1,.04994.00811.22593.22593,0,0,0,.07021.01262c.03557.0153.07832.02156.113.036a.03765.03765,0,0,1,.027.00719.47316.47316,0,0,1,.10025.01437c.00728.00719.02119.00719.0351.01437.02839.00719.05713.00719.08459.01355.014.00719.02248.01529.036.01529.02792.00535.05528.00535.08412.01263.01438.008.0211.008.03465.01437l.085.02156a.03652.03652,0,0,1,.02829.00719c.0351.00719.06394.01355.09859.01981a.03038.03038,0,0,1,.02156.00719c.03464.00719.07067.01529.10578.02248h.01391a.34914.34914,0,0,0,.11877.03511c.30508.0774.6074.1548.89663.23219.04322.01438.09095.02157.12689.03511a2.74686,2.74686,0,0,1,.26822.071c.1336.04229.2533.07021.38054.10624.409.126.78063.25284,1.12036.36525a8.19313,8.19313,0,0,1,.88945.35272.24216.24216,0,0,0,.04229.01447Z" style="fill:#fff"/><path d="M94.36052,34.88a.69282.69282,0,0,1-.09942.01346c.02515-.00719.071-.00719.09942-.01346" style="fill:#fff"/><path d="M72.48177,57.19652v-.5921A.01855.01855,0,0,1,72.4862,56.59a1.05864,1.05864,0,0,1,.36129-.45168,22.68053,22.68053,0,0,1,1.573-6.93045.05924.05924,0,0,0,.00986-.036.34231.34231,0,0,0,.0387-.07012.95191.95191,0,0,1,.04994-.11877v-.00811c.02838-.07113.06339-.15572.09675-.23312a.15632.15632,0,0,1,.03013-.05575,4.12926,4.12926,0,0,1,.54843.19074,21.96073,21.96073,0,0,0-1.71863,6.83868,10.67862,10.67862,0,0,1,1.36011-.64158,20.90062,20.90062,0,0,1,1.46708-5.48531,4.95187,4.95187,0,0,1,.44412.47242c-.12734.30416-.23984.60555-.3541.92317a.10746.10746,0,0,1-.01262.036,20.11209,20.11209,0,0,0-.91691,3.81431,34.54183,34.54183,0,0,1,5.12678-1.36139c.24611-.05575.5066-.099.76119-.14034V53.967c-.21865.04229-.43049.0774-.64242.11969-.05537.01438-.10485.02165-.16871.03511H80.533a.81081.81081,0,0,0-.1548.02883.02651.02651,0,0,1-.0212.00719.52047.52047,0,0,0-.15562.03419h-.01392a1.221,1.221,0,0,0-.16871.03593h-.009c-.05445.00636-.1044.02074-.1642.02792-.00359,0-.00359.00719-.00995.00719a1.564,1.564,0,0,1-.15562.03511c-.00765,0-.014.00718-.0212.00718-.049.01355-.10707.02074-.16152.03511h-.00811c-.049.01437-.11241.02884-.16871.04229H79.3141a.9464.9464,0,0,0-.16327.036h-.014a1.3656,1.3656,0,0,1-.16106.04137h-.00811l-.17636.0423c-.05713.01437-.10569.02874-.16917.04321h-.00673c-.05713.01437-.10569.035-.15563.04312a.02365.02365,0,0,1-.014.00544,1.23189,1.23189,0,0,0-.16826.04321,1.41677,1.41677,0,0,0-.16963.04138h-.00765a1.34526,1.34526,0,0,0-.162.04948H77.9234c-.04856.00718-.0985.02791-.15387.04229h-.00811c-.11149.02884-.22492.07113-.33743.099-.05712.02073-.11241.02884-.16189.04948h-.00765c-.0563.01354-.10753.0351-.162.04948h-.00765a1.22545,1.22545,0,0,1-.15572.04865c-.05713.01437-.11241.03594-.16107.0504h-.00718c-.05621.01346-.10615.03419-.15609.04856h-.00544c-.10568.03511-.21192.06386-.31042.10615h-.00719a1.05018,1.05018,0,0,0-.15609.04948h-.00811c-.04773.01354-.08956.03511-.139.04957H75.969c-.09666.04137-.20244.06929-.30278.10523,0,.00636-.005.00636-.005.00636-.0423.01437-.09178.02874-.13444.04312l-.009.00718c-.04727.01355-.09675.03428-.13812.04865-.21958.07823-.41667.15563-.61459.24658a.90322.90322,0,0,0-.09131.03593.02031.02031,0,0,0-.014.00719c-.02828.00719-.05712.02792-.0774.02792a.02624.02624,0,0,0-.01483.00811c-.06339.027-.1196.05574-.1759.08274h-.00719a.818.818,0,0,1-.09315.04322h-.00452c-.02875.01437-.05795.02884-.08587.04229-.02746.01354-.05713.02792-.08367.04229a.69663.69663,0,0,1-.0774.03511l-.01483.00719c-.02119.01354-.05713.02791-.0774.04229h-.00719a1.69441,1.69441,0,0,1-.1548.0774h-.00672c-.022.01437-.04948.036-.07068.0504h-.00672c-.04948.027-.09942.05574-.14172.08274a.47738.47738,0,0,0-.07021.036h-.00719a.46979.46979,0,0,1-.07288.04948,3.07244,3.07244,0,0,0-.5687.44357c-.01437.00728-.0211.02257-.03557.036-.12642.126-.31.29605-.20464.41574a.15755.15755,0,0,1-.11878-.14761" style="fill:#fff"/><path d="M94.38079,36.76966V34.49937a.05718.05718,0,0,1,.05713-.05758h.5007c.03464,0,.04948.02156.04948.05758v6.8738l-.60731-.00636Z" style="fill:#fff"/><path d="M114.22273,71.29858a.37817.37817,0,0,1-.04856.34553s-.18354.3095-.25551.40856a.50306.50306,0,0,1-.39418.24648c.04865-.02783.41621-.05575.2052-.61367a.80659.80659,0,0,0-.07067-.16733,2.78783,2.78783,0,0,0-.24694-.39593h.00718a10.15848,10.15848,0,0,0-.88188-.97358c-.13361-.13415-.27441-.26822-.43013-.40855-.88087-.817-2.101-1.82663-3.63029-2.982.09767-.19083.1899-.39594.28075-.593a44.19511,44.19511,0,0,1,4.23862,3.48324,2.75145,2.75145,0,0,1,.21193.21958c.00673.00534.01391.00534.01391.01253.01392.02165.04137.036.05621.05676a.05861.05861,0,0,0,.01493.01345.24657.24657,0,0,1,.04855.05759.02257.02257,0,0,1,.01392.00627c.014.02073.036.04229.04773.05675.00857,0,.00857.00719.01575.01438.01392.02156.03594.0351.0423.0504a.02771.02771,0,0,1,.01391.02064.15742.15742,0,0,1,.049.04865s.00811.00811.01447.00811a.46291.46291,0,0,1,.04994.0621v.00719a.876.876,0,0,1,.10209.11334l.00857.01354a.46315.46315,0,0,0,.05169.05666c0,.00719,0,.00719.00636.00719a.27772.27772,0,0,0,.03593.04948c.00636.00719.00636.01438.01355.02073a2.88247,2.88247,0,0,1,.35226.57138.11342.11342,0,0,0,.01483.03593.00617.00617,0,0,0,.00627.00636c0,.0153.00728.02064.00728.02792a.03876.03876,0,0,1,.00672.02156.6429.6429,0,0,1,.02829.09178" style="fill:#fff"/><path d="M113.57313,71.88349a1.95468,1.95468,0,0,1-.16106.19792l-.00857.00627c-.04137.05676-.09.11969-.14.18364a22.79938,22.79938,0,0,1-16.32184,8.25223v.35189a.06383.06383,0,0,1-.02211.04948c-.00673,0-.02018.02156-.049.02156h-.48633a.06409.06409,0,0,1-.0563-.071V74.71879c.21193,0,.409-.01529.61376-.0351v3.37166a20.41013,20.41013,0,0,0,13.05007-5.86779.134.134,0,0,1,.0293-.02248,1.70681,1.70681,0,0,1,.14125-.1466c.00627-.00811.01263-.00811.01263-.01447.41657-.42376.81656-.86023,1.19987-1.32629.211.05667.41528.12771.60519.19074a20.92056,20.92056,0,0,1-15.03831,7.7718V79.945a22.22642,22.22642,0,0,0,16.195-8.45568,2.8194,2.8194,0,0,1,.43648.39418" style="fill:#fff"/><path d="M118.45417,59.19149c-.00765.10615-.00765.21229-.02156.31761a22.71235,22.71235,0,0,1-2.27121,8.27841.90317.90317,0,0,1,.086.77565s-.19074.27532-.283.42284c-.09131.13323-.12734.198-.28389.21782a.5083.5083,0,0,0,.21276-.60648,1.09518,1.09518,0,0,0-.04764-.17636h-.00857a1.10574,1.10574,0,0,0-.16106-.28886,7.254,7.254,0,0,0-.60648-.79639h-.00719c-.0176-.02874-.03511-.04137-.049-.06477h-.00811a.33535.33535,0,0,0-.05538-.07556v-.00719c-.27439-.297-.57948-.61366-.93173-.94574,0-.00627-.00636-.00627-.0153-.00627-.02608-.036-.0621-.06394-.08956-.099H113.906c-.10615-.10615-.21865-.20419-.33291-.31043-.00544-.00719-.01262-.00719-.01262-.01345a1.25312,1.25312,0,0,1-.099-.09177.021.021,0,0,0-.01447-.00719c-.11149-.10624-.23883-.21239-.35944-.31679a.02893.02893,0,0,1-.00627-.02155c-.04275-.02884-.07832-.063-.11343-.09178-.00672,0-.01575-.01446-.01575-.01446-.1255-.10523-.25146-.21147-.3788-.3167l-.022-.02165a.69457.69457,0,0,0-.10486-.08449c-.00765-.00728-.01391-.01447-.02156-.02074-.04229-.036-.07924-.06385-.126-.09988V64.72c-.09315-.07114-.17682-.14854-.26187-.21866a.0911.0911,0,0,1-.02745-.02165c-.04322-.027-.07832-.05574-.11518-.08366-.00857-.0153-.01935-.02249-.027-.02249a.70464.70464,0,0,0-.12144-.09721l-.01216-.01437c-.0423-.036-.09178-.0774-.14264-.11343a1.22791,1.22791,0,0,0-.12421-.098c-.01483-.01529-.03234-.02156-.03593-.036a.57259.57259,0,0,1-.10624-.08366c-.00894,0-.0211-.01437-.03511-.02156-.035-.02884-.07058-.05759-.11333-.09177-.00811-.01447-.02027-.01447-.02921-.02166-.04819-.03418-.09767-.07012-.14-.10614,0-.00719,0-.00719-.00672-.00719-.04137-.03419-.08367-.06837-.13545-.11159a.10747.10747,0,0,0-.04137-.02884,1.2396,1.2396,0,0,0-.09767-.0773.12786.12786,0,0,1-.0423-.036c-.03593-.027-.071-.04856-.10614-.0774a.06534.06534,0,0,0-.03686-.02792c-.04681-.0351-.09675-.0774-.139-.11241-.009,0-.009-.00728-.014-.01447-.04229-.02783-.08541-.06293-.13536-.09177l-.03418-.03419c-.03465-.02874-.07067-.04948-.10845-.07822-.01124-.01355-.03243-.02074-.04727-.03511a.6149.6149,0,0,1-.10034-.0774c-.0117-.01438-.03326-.02165-.04681-.036a.59322.59322,0,0,1-.14125-.11333c.04054-.24565.0774-.49315.09859-.75317a47.54649,47.54649,0,0,1,4.54721,3.701,20.229,20.229,0,0,0,1.43925-5.25946.6387.6387,0,0,0,.014-.11251v-.00718c.01391-.08459.02018-.15563.03593-.233v-.0423c.00636-.063.01309-.13323.02027-.20519.00627-.027.00627-.06929.01392-.10523.00359-.04948.00359-.10624.0117-.1548a.93168.93168,0,0,1,.01668-.14125v-.09095a.73586.73586,0,0,0,.01391-.13489c0-.03511.00719-.0774.00719-.11251,0-.036.00682-.07021.00682-.10614.00718-.08459.01437-.16835.0211-.26012a3.789,3.789,0,0,1,.58584,0,20.85369,20.85369,0,0,1-1.734,7.41006,10.16088,10.16088,0,0,1,.92326,1.05825,22.05444,22.05444,0,0,0,2.07946-8.22893,3.73442,3.73442,0,0,1,.579.23939" style="fill:#fff"/><path d="M118.80689,56.59v.60648a.1442.1442,0,0,1-.12052.14761c.09177-.09177-.02248-.23938-.12642-.35272a.67342.67342,0,0,1-.05713-.05583c-.02027-.01438-.02838-.03594-.04865-.04322a2.66172,2.66172,0,0,0-.579-.44983H117.868a.33269.33269,0,0,0-.05621-.04322.025.025,0,0,0-.014-.00719c-.01345-.00635-.03686-.02073-.05713-.02884a.02271.02271,0,0,0-.01345-.00534.27874.27874,0,0,0-.063-.036l-.00719-.00719c-.02295-.01354-.04414-.02073-.06349-.03418l-.00672-.00811a.3302.3302,0,0,1-.07151-.04229h-.00672c-.02746-.01355-.05041-.027-.06976-.03511l-.00764-.00719a.51125.51125,0,0,1-.06976-.0351.02288.02288,0,0,1-.01483-.00719.5037.5037,0,0,1-.07021-.0351c-.00811,0-.00811-.00719-.01391-.00719a.673.673,0,0,0-.08008-.03511l-.00451-.00718a.32519.32519,0,0,1-.07113-.03511h-.00719c-.02746-.01345-.05621-.02792-.0868-.04229h-.01078c-.02212-.01438-.04994-.02792-.07832-.04322H116.916a.5.5,0,0,0-.08366-.03418h-.00719a.36061.36061,0,0,0-.08505-.04856.00794.00794,0,0,1-.00811-.00811.17544.17544,0,0,1-.0832-.02792.00707.00707,0,0,1-.00728-.00719c-.22492-.09177-.46513-.19073-.71217-.28251-.049-.01437-.10034-.02791-.14171-.04229-.0059-.00636-.0059-.00636-.01391-.00636-.04147-.01437-.09316-.03593-.1337-.0503-.00627,0-.00627,0-.00627-.00636a1.17273,1.17273,0,0,1-.14844-.04949h-.00764a1.334,1.334,0,0,1-.14716-.05574h-.00672c-.04322-.01446-.09454-.036-.149-.04957a.95354.95354,0,0,0-.14752-.04948h-.01391c-.09951-.035-.2052-.071-.30416-.10615h-.01355c-.0562-.01437-.10614-.0351-.14751-.04229a.02675.02675,0,0,0-.01484-.00627c-.04957-.01446-.10578-.036-.1548-.0504h-.00811a1.30672,1.30672,0,0,1-.15479-.04865h-.00673c-.05805-.01438-.10486-.03594-.1548-.04948h-.022c-.04137-.02064-.09758-.02875-.14752-.04948h-.01355c-.10614-.02783-.21865-.07012-.32618-.099h-.01216c-.04948-.01438-.09942-.027-.15563-.04229h-.01483c-.05538-.02074-.10486-.02792-.162-.04948h-.00672a1.12473,1.12473,0,0,0-.16918-.04138,1.05278,1.05278,0,0,0-.16871-.04321s-.00765,0-.00765-.00544a1.33943,1.33943,0,0,1-.162-.04312h-.01576a1.54525,1.54525,0,0,0-.16014-.036l-.00949-.00718c-.054-.01355-.11113-.027-.1665-.03511l-.00765-.00719a.66675.66675,0,0,1-.16282-.04137h-.014a1.20821,1.20821,0,0,0-.16107-.036h-.01391c-.059-.01345-.11333-.02792-.16963-.04229h-.00719c-.05169-.01437-.10615-.02156-.16244-.03511a.0359.0359,0,0,1-.01659-.00718,1.21078,1.21078,0,0,1-.15167-.03511.07489.07489,0,0,0-.0234-.00719c-.054-.00718-.10394-.02156-.15388-.02792h-.00719a1.65218,1.65218,0,0,0-.1759-.03593H111.099a.665.665,0,0,0-.162-.03419c-.00626,0-.01391,0-.01391-.00719a1.04641,1.04641,0,0,0-.16291-.02883h-.0058c-.059-.01346-.113-.02073-.16918-.03511-.20474-.04229-.41666-.0774-.62767-.11333v-.64067c.2533.04138.50033.09178.74737.14034a33.41426,33.41426,0,0,1,5.13212,1.36867,20.0868,20.0868,0,0,0-1.89637-6.15573c-.2052-.40939-.422-.81886-.64739-1.22014a.00719.00719,0,0,1-.00765-.00719c-.01355-.00728-.02212-.036-.02838-.04865.10486,0,.34553-.01529.66987-.00811a20.85223,20.85223,0,0,1,2.53842,7.67193,10.98307,10.98307,0,0,1,1.36011.64158,22.07908,22.07908,0,0,0-2.36832-8.17216q.36915.06344.754.16908v-.00627c.02838.07021.06349.13407.09187.20428a22.44659,22.44659,0,0,1,2.14331,8.228,1.04074,1.04074,0,0,1,.36037.45168" style="fill:#fff"/><path d="M118.80689,58.55709v.6344c0,.099-.10707.15563-.152.19073.1161-.12688-.01124-.30324-.06744-.36626a1.03734,1.03734,0,0,0-.113-.135.59524.59524,0,0,1-.063-.06293c0-.00719-.00627-.00719-.01438-.01355-.02967-.02782-.06385-.05666-.09131-.08458a4.64565,4.64565,0,0,0-.40939-.28878,8.353,8.353,0,0,0-1.26879-.64969c-.044-.02165-.08459-.03418-.12688-.05667-.13361-.05676-.27578-.10532-.41658-.162-.014-.00636-.04146-.02073-.04146-.02073a36.245,36.245,0,0,0-5.42274-1.49547c-.22722-.03418-.44495-.0774-.66232-.12688v-.6344c.2533.04948.50033.09177.75363.14762.05713.00718.12062.02155.18447.03593.02119,0,.03511.00719.05538.00719a.84192.84192,0,0,0,.12771.02792c.02027,0,.04994.01354.06846.01354a.75075.75075,0,0,0,.12144.02156c.0211.00719.04727.01438.071.02156.03511.00719.06929.01355.10394.02074a.16572.16572,0,0,0,.07832.01345c.036.01529.06929.01529.09675.02884a.13194.13194,0,0,1,.08053.01437c.04045.00719.06883.01438.10569.02074.02792.0081.0563.01529.0774.02156a.67976.67976,0,0,1,.10614.02073c.0212.00719.05446.01437.0774.02156a.21672.21672,0,0,1,.09767.02156c.02829.00728.05621.00728.0774.01447a.7891.7891,0,0,1,.09583.027.30464.30464,0,0,1,.081.0153c.035.00627.0634.01345.0985.02064a.59052.59052,0,0,1,.071.02165.53908.53908,0,0,1,.10486.02783.25175.25175,0,0,0,.06478.00636.41324.41324,0,0,0,.11877.03593.13786.13786,0,0,1,.05805.01355,1.1034,1.1034,0,0,1,.14.04229c.00765,0,.0211,0,.027.00719a1.3988,1.3988,0,0,1,.17138.036h.0212a1.10976,1.10976,0,0,0,.13987.04137.18994.18994,0,0,0,.04994.01437c.04137.01355.0774.02156.11205.03511a.13376.13376,0,0,1,.05712.01437.28391.28391,0,0,0,.10532.02073.24727.24727,0,0,0,.06339.02875.314.314,0,0,1,.09767.02792.34517.34517,0,0,1,.06386.01355c.02921.008.06348.01529.0927.02156l.06293.02156a.51026.51026,0,0,0,.09186.02884.20515.20515,0,0,0,.06386.01345.4994.4994,0,0,0,.09131.03511.18135.18135,0,0,1,.06164.01437.741.741,0,0,1,.09316.02792.10883.10883,0,0,1,.05307.02073.25811.25811,0,0,1,.10255.02875.115.115,0,0,1,.05446.01438.7464.7464,0,0,0,.10034.027c.01484.00728.036.01447.04949.02166a.55917.55917,0,0,1,.10531.03593.10847.10847,0,0,1,.03953.00636.97943.97943,0,0,1,.12237.04229c.00764,0,.00764.00719.02119.00719.09223.02875.1899.06385.283.099a.02651.02651,0,0,1,.02119.00718.74258.74258,0,0,0,.11969.03511.08347.08347,0,0,0,.035.02074.32753.32753,0,0,1,.09859.03593.086.086,0,0,1,.04183.00719c.02921.01354.058.02073.08551.03428a.43008.43008,0,0,1,.049.01437c.02469.01437.05712.02156.08458.03593.22584.0774.445.162.64877.24658a.37029.37029,0,0,0,.0423.01981c.0211.00811.04229.01437.06339.02248.01484.00636.02884.01354.04276.02073.02119.01345.04588.02156.07067.03594a.045.045,0,0,1,.02783.00635c.02745.01346.06348.02792.09094.0423a.13091.13091,0,0,1,.03594.01437.54676.54676,0,0,1,.06394.02792.05293.05293,0,0,0,.02746.0153.31868.31868,0,0,1,.06164.027c.0094,0,.023.01438.03778.01438.0211.00719.03419.02073.05621.02792.00672.00811.02119.00811.03326.01345a.45938.45938,0,0,1,.05178.036.05919.05919,0,0,0,.03465.00718c.02156.01438.04994.02875.0621.036.00719,0,.0153.00627.02295.00627.02746.01437.0562.02792.08366.04229.00765.00719.01392.00719.02875.01438.01447.00718.03511.02073.04865.02791.01484.00719.022.0153.03594.02074.014.008.02884.01529.04229.02156.00682.00718.02792.01437.03151.02156.01843.00718.03244.01446.04589.02073.014.00627.02212.01345.02792.01345a.2871.2871,0,0,1,.04229.02884c.01576.00719.0211.01438.03511.02064a3.94724,3.94724,0,0,1,.60694.42385.18086.18086,0,0,0,.04275.0423.84567.84567,0,0,1,.25413.37345" style="fill:#fff"/><path d="M72.81966,58.881h0c-.04229.0504-.0774.08459-.11343.135-.04229.063-.18308.23938-.06339.36626-.04994-.0351-.16107-.09177-.16107-.19073v-.62a.03028.03028,0,0,1,.00443-.01438.91712.91712,0,0,1,.24122-.35991.22934.22934,0,0,0,.05-.04957,3.58009,3.58009,0,0,1,.60555-.42284c.00627-.00728.01346-.00728.022-.01354a.40438.40438,0,0,1,.05538-.036c.00811-.00719.0153-.00719.022-.01437a.14532.14532,0,0,0,.05446-.027.1108.1108,0,0,0,.02294-.01438.13112.13112,0,0,1,.05621-.02073c.00719-.008.01354-.01345.022-.02156.02027-.00719.04147-.02073.06349-.02792,0-.00718.01124-.01437.02027-.01437.0211-.01438.04358-.02156.06385-.03511h.0212c.05436-.02792.11241-.05667.1723-.09177.00894-.00811.0247-.00811.0247-.01345a.37777.37777,0,0,1,.07113-.02884c.01345-.00719.0211-.00719.02829-.01438a.27294.27294,0,0,0,.06072-.03418c.01575,0,.02976,0,.02976-.00811a.495.495,0,0,1,.071-.02792.13855.13855,0,0,1,.02654-.01437.5663.5663,0,0,1,.08551-.036l.01483-.01346c.07021-.02884.14125-.05666.211-.0855,0-.00544.00764-.00544.00764-.00544.2182-.08541.445-.17719.68434-.26095a.6879.6879,0,0,1,.07648-.03593c.01483-.00719.036-.00719.04994-.01437.02838-.01355.05713-.02074.08551-.03428a.11446.11446,0,0,1,.049-.00719.48805.48805,0,0,1,.12688-.04948c.049-.01345.09039-.03511.14033-.04948.01447,0,.02211-.00719.036-.00719a.59353.59353,0,0,1,.10568-.04137c.014-.00811.03511-.01529.04912-.02165.02828-.00719.0562-.02156.09177-.02875a.43216.43216,0,0,1,.05621-.02156.36579.36579,0,0,0,.0832-.02792.44128.44128,0,0,0,.058-.01354c.02746-.00719.06349-.02157.09-.02875a.43467.43467,0,0,0,.058-.02166.53559.53559,0,0,0,.08947-.027.18279.18279,0,0,1,.06441-.01438.2158.2158,0,0,1,.08228-.02875c.03013-.00635.04506-.02073.06616-.02073.036-.00811.06349-.01345.09048-.02156a.27644.27644,0,0,1,.06607-.02073.46567.46567,0,0,0,.0833-.03511.2246.2246,0,0,0,.0715-.01345.48305.48305,0,0,0,.09039-.02884.30171.30171,0,0,0,.06441-.02156c.02874-.00627.06385-.01355.09223-.02156a.35073.35073,0,0,0,.06293-.01355.306.306,0,0,1,.09675-.02792.49727.49727,0,0,0,.06524-.02156.765.765,0,0,0,.11343-.02792.12348.12348,0,0,1,.04763-.01437c.04819-.01355.09316-.02792.12734-.03511a.08136.08136,0,0,1,.036-.00718,1.28782,1.28782,0,0,1,.16954-.04856h.01935a1.16325,1.16325,0,0,1,.14807-.036.48274.48274,0,0,1,.058-.02073c.027-.00719.07012-.02249.10523-.02875a.26094.26094,0,0,1,.06349-.01355.30763.30763,0,0,0,.11333-.03593.106.106,0,0,0,.06349-.01438c.0351-.00543.06929-.01354.10522-.01981.02746-.0081.04994-.01446.07114-.02165.03464-.00719.06339-.01437.0985-.02064a.31087.31087,0,0,1,.07555-.0153c.03787-.00718.07289-.02073.10127-.027.02745-.00719.05445-.00719.07472-.01447a.434.434,0,0,1,.10117-.02156c.02608-.00719.05713-.01437.07648-.02156a.637.637,0,0,1,.10707-.02073.56183.56183,0,0,0,.07648-.02156c.036-.00636.06892-.01355.1067-.02074a.13317.13317,0,0,1,.07648-.01437c.03418-.01355.06385-.01355.09942-.02884a.137.137,0,0,0,.0738-.01345c.03953-.00719.07372-.01355.10975-.02074.02745-.00718.05445-.01437.07555-.02156a.54591.54591,0,0,0,.11518-.02156c.02027,0,.04865-.01354.0774-.01354.03418-.00719.0738-.01438.11969-.02792.02027,0,.04137-.00719.06386-.00719a1.64508,1.64508,0,0,1,.18317-.03593c.24611-.05585.5066-.09814.76119-.14762v.6344c-.22584.04948-.45168.08459-.66987.12688a35.92336,35.92336,0,0,0-5.42191,1.49547c-.19792.07739-.39594.15479-.57856.23219a8.02373,8.02373,0,0,0-1.28455.65688,3.05619,3.05619,0,0,0-.48541.36618c-.02746.02791-.06348.05666-.09131.08366" style="fill:#fff"/><path d="M76.50709,70.31782a.18985.18985,0,0,0,.063.31042.45936.45936,0,0,1-.2673-.17553c-.058-.099-.25459-.40939-.25459-.40939v-.0351a.51015.51015,0,0,1,.13361-.25376c.00765-.00811.00765-.02156.01483-.02156a.00674.00674,0,0,1,.00673-.00719,2.46819,2.46819,0,0,1,.45942-.3869c.01391-.00728.02423-.02166.0481-.036h.00626c.02212-.01437.036-.02792.05086-.02792a.01906.01906,0,0,1,.00636-.01345,1.07908,1.07908,0,0,0,.11334-.07206h.00764a.24594.24594,0,0,0,.05621-.03418l.00728-.00719c.02018-.01437.03419-.02875.05621-.02875l.00451-.00718a.56517.56517,0,0,1,.13536-.06929l.00728-.00811c.02248-.01263.04266-.02073.06385-.03419l.00811-.00718a2.17343,2.17343,0,0,1,.30951-.162,2.16792,2.16792,0,0,0,.25375-.1278c.16918-.07113.3518-.14761.548-.22584.06441-.02792.13637-.05667.21285-.09095.036-.00718.071-.02874.10707-.035,0-.00811.00544-.00811.00544-.00811.07822-.02792.14936-.05584.22676-.08458h.00626a.56047.56047,0,0,1,.10707-.03419c.00627-.00719.00627-.00719.02027-.00719.06883-.02884.14844-.05676.224-.0855h.02119a.475.475,0,0,1,.10035-.03511.03532.03532,0,0,1,.02653-.00719c.08007-.02884.1548-.05583.23487-.0774.01392-.00718.02064-.00718.02783-.01437a.48953.48953,0,0,1,.09859-.02792.07293.07293,0,0,0,.02875-.01345c.08366-.01447.162-.0504.24657-.07021a.07479.07479,0,0,1,.03419-.00719.35123.35123,0,0,0,.09223-.036h.04322A1.0935,1.0935,0,0,1,80.33586,67.8c.90834-.25911,1.79557-.47868,2.69405-.67577.10532.19709.211.395.32443.58492-.99522.19709-1.94677.43638-2.87225.70636-1.42893.3869-3.4837,1.21839-3.975,1.90227" style="fill:#fff"/><path d="M75.51776,68.887a.23486.23486,0,0,1-.19442-.09178c-.02875-.05667-.26813-.4796-.26813-.4796-.01032-.00626-.01032-.02073-.01032-.02792A.65325.65325,0,0,1,75.21,67.9494a22.65855,22.65855,0,0,1-2.36925-8.75791,3.85877,3.85877,0,0,1,.5687-.2322A22.61,22.61,0,0,0,75.6662,67.5625a7.3015,7.3015,0,0,1,1.15049-.61367A20.80967,20.80967,0,0,1,74.702,58.71272a2.94694,2.94694,0,0,1,.58538.00719,20.26674,20.26674,0,0,0,2.07319,8.00216,23.41532,23.41532,0,0,1,2.425-.81795c.7833-.22584,1.58687-.43638,2.41246-.61993.06791.197.14715.39409.23211.58483-.86061.1899-1.69256.40137-2.496.64158a.46017.46017,0,0,0-.13453.02792.03741.03741,0,0,0-.02792.00811.67779.67779,0,0,1-.12688.04137c-.00673,0-.01484,0-.01484.00719a1.07331,1.07331,0,0,0-.12734.0351.019.019,0,0,1-.01354.00719c-.04137.00719-.08588.02156-.13361.02884-.00672.01438-.01391.01438-.0211.01438-.09131.02792-.18354.05574-.2673.08993h-.022c-.04184.02165-.09316.02884-.13269.0504h-.00857a.84647.84647,0,0,0-.1336.0504h-.00636c-.04994.01981-.09306.027-.14171.04865-.09989.03419-.18982.06293-.28113.098h-.00857c-.2322.0927-.4643.17009-.67623.26813-.19709.08551-.373.15572-.54981.24031a.53843.53843,0,0,0-.0774.03594h-.0094a.54837.54837,0,0,0-.07565.03418c-.02828.01447-.0562.02792-.08366.04321-.13361.06211-.26095.126-.38147.18991-.02119.01345-.04229.02783-.06348.04229h-.00765a.213.213,0,0,0-.0634.03419h-.00543a.34847.34847,0,0,1-.06386.03593c-.11342.07021-.21192.126-.306.18991a1.85526,1.85526,0,0,0-.46246.42376c0,.01446-.009.01981-.01668.02791,0,.00636-.00534.01355-.00534.02074h-.00636a.40059.40059,0,0,0-.071.17636c.00626.0504.03593.07823.11066.10615" style="fill:#fff"/><path d="M94.14684,80.50826h0a22.77938,22.77938,0,0,1-17.37245-9.91512c-.02746-.0423-.06975-.099-.09767-.14761v-.00811a5.61126,5.61126,0,0,1,.55746-.21866A22.23911,22.23911,0,0,0,94.064,79.93062Z" style="fill:#fff"/><path d="M94.9881,80.55147v.324c0,.035-.01484.071-.04948.071h-.5007a.0717.0717,0,0,1-.05713-.071V74.68912c.20557.01438.40939.02967.60731.04322v5.81913Z" style="fill:#fff"/><path d="M77.95316,44.17972a22.27114,22.27114,0,0,1,16.10458-8.686l-.19258,1.31109a20.79056,20.79056,0,0,0-11.36479,4.562H81.34362V42.3683c-.3729.35189-.73962.719-1.08608,1.08525a22.68528,22.68528,0,0,0-2.30438.72617m37.50419,3.36355a9.76531,9.76531,0,0,0-1.53021-.14043,20.842,20.842,0,0,1,2.53842,7.671,10.98307,10.98307,0,0,1,1.36011.64158,22.07908,22.07908,0,0,0-2.36832-8.17216M96.934,36.76966a20.90978,20.90978,0,0,1,11.89562,4.6188h1.12791v.97182c.373.35355.72617.71263,1.07171,1.07972.85664.225,1.63542.47241,2.29138.71272A22.23444,22.23444,0,0,0,96.934,35.48557ZM78.64865,69.99385a5.19217,5.19217,0,0,0-1.41447.22676,22.24255,22.24255,0,0,0,16.82983,9.71l-.19885-1.32454a20.93264,20.93264,0,0,1-15.21651-8.61223m18.293,8.64733V79.945a22.22327,22.22327,0,0,0,16.195-8.45568,5.14978,5.14978,0,0,0-1.15665-.62085,20.92182,20.92182,0,0,1-15.03831,7.77272m-20.125-11.69327A20.80163,20.80163,0,0,1,74.702,58.7118a4.82975,4.82975,0,0,0-1.29257.24749,22.601,22.601,0,0,0,2.25674,8.60228,7.45773,7.45773,0,0,1,1.15049-.61366m38.05574-.82513a10.06712,10.06712,0,0,1,.92326,1.05825,22.05444,22.05444,0,0,0,2.07946-8.22893,5.10621,5.10621,0,0,0-1.2687-.2403,20.85863,20.85863,0,0,1-1.734,7.411M74.83573,55.07385a20.891,20.891,0,0,1,1.46708-5.48531,3.84154,3.84154,0,0,0-1.10856-.71179,21.96073,21.96073,0,0,0-1.71863,6.83868,10.67862,10.67862,0,0,1,1.36011-.64158" style="fill:#8d8d8e"/><path d="M115.10508,45.58341a18.42724,18.42724,0,0,0-5.147-1.77806v1.24179a31.44143,31.44143,0,0,1,5.78817,1.65745Z" style="fill:#8d8d8e"/><path d="M80.28638,45.2235c.33881-.0774.69107-.162,1.0577-.2322V43.82156a30.12556,30.12556,0,0,0-2.991.8161" style="fill:#8d8d8e"/><path d="M81.3509,53.967c-.21828.04229-.43012.0774-.642.11969-3.22229.62-6.83149,1.7565-7.86809,2.80655a.59286.59286,0,0,1-.11251.09813V58.198c.90935-.89525,4.01822-2.003,7.86183-2.76508.24694-.05585.50743-.09906.76082-.14762Z" style="fill:#8d8d8e;fill-rule:evenodd"/><path d="M118.45463,56.89328c-1.0366-1.05-4.64036-2.1857-7.86893-2.80655-.20566-.04321-.41666-.0774-.62766-.1125v1.31108c.25329.04948.4994.09177.75362.14844,3.82878.76036,6.92281,1.8609,7.84875,2.75616v-1.1985a.9342.9342,0,0,1-.10578-.09813" style="fill:#8d8d8e;fill-rule:evenodd"/><path d="M82.43062,65.869q-1.29105.28485-2.497.64158c-1.93866.54981-4.03978,1.41-4.44336,2.07319a.03486.03486,0,0,1-.01262.02074l.70461,1.14993c.43058-.52908,1.8761-1.30473,4.154-1.95442.90834-.25911,1.79558-.47868,2.69313-.67577a10.99952,10.99952,0,0,1-.59883-1.25525" style="fill:#8d8d8e;fill-rule:evenodd"/><rect x="94.9881" y="34.75313" width="1.33947" height="6.62003" style="fill:#fff"/><path d="M95.63014,74.74579c-.21275,0-.43233-.00626-.64241-.01345v6.00811h1.33983V74.71787c-.23671.02166-.46522.02792-.69742.02792" style="fill:#fff;fill-rule:evenodd"/><path d="M115.676,68.13212c-.8818-1.38213-3.175-3.34826-5.90151-5.40164a14.19266,14.19266,0,0,1-1.01633,3.43459c3.03239,2.25591,5.134,4.11045,5.43628,5.04173l1.69929-2.60946a1.13769,1.13769,0,0,0-.21773-.46522" style="fill:#8d8d8e;fill-rule:evenodd"/><path d="M81.34408,46.28885a14.12741,14.12741,0,0,0-4.36458-1.24171h-.04183a2.05577,2.05577,0,0,0-.56557.071l-1.40867,2.76334c.04865,0,.112-.01437.16826-.01437,1.09289,0,3.32844.75584,6.21958,2.03182Z" style="fill:#8d8d8e;fill-rule:evenodd"/><path d="M109.95757,47.04294V49.638c1.55084-.31134,2.91187-.64969,3.98358-.952-.211-.43822-.44413-.86116-.68388-1.276a9.75478,9.75478,0,0,1,2.95407.30232v-.00627c.02884.07021.06349.13407.09223.20428.014,0,.02746-.01437.04147-.01437a.08679.08679,0,0,0,.04229-.01447c.071-.03418.14844-.13314-.0774-.26813-.06256-.03419-.126-.07012-.198-.10523a18.20223,18.20223,0,0,0-3.5741-1.22742c.0212.02792.04147.06395.06349.09813-.741.21958-1.62151.45887-2.64374.66407m8.7288,10.30119c.09223-.09177-.022-.23938-.12642-.35272v.37429a.41648.41648,0,0,0,.14033-.02157ZM115.478,46.04863c.05722-.04948.06257-.12688-.14079-.29605a1.87174,1.87174,0,0,0-.23257-.16917l.282.50033a.21308.21308,0,0,0,.09131-.03511M115.4965,69.211h.06607a.4081.4081,0,0,0,.1337-.01355.53447.53447,0,0,0,.19746-.60012Zm3.16784-10.09692h-.00949V59.1069a.03063.03063,0,0,0-.00359-.01354c-.00719,0-.00719,0-.00719-.00719l-.00672-.00719v-.01437h-.01355v-.00636l-.00857-.00811V59.043l-.00626-.00719V59.0295h-.01392s0-.01354-.00728-.01354a.1197.1197,0,0,1-.0211-.02875c-.0211-.02165-.05178-.05584-.07832-.08459a1.13836,1.13836,0,0,0-.16152-.162,7.52857,7.52857,0,0,0-1.82709-1.01587c-.14079-.06394-.30231-.11877-.45711-.18271v.23938a51.87507,51.87507,0,0,1-6.08506,1.38932v1.30473c0,.40137-.02294.80449-.05712,1.19858a55.66774,55.66774,0,0,0,5.95909-1.25525c.07648-.56419.126-1.13473.16107-1.7061a4.73075,4.73075,0,0,1,2.43356.47877c-.00719.10615-.00719.21229-.0211.31761a2.09463,2.09463,0,0,0,.23846-.14125.25909.25909,0,0,0,0-.24031s-.00719,0-.00719-.01345M113.7576,71.771h0c0-.0153-.00728-.02073-.00728-.0423a.33959.33959,0,0,0-.02018-.04321.85665.85665,0,0,0-.07113-.16733,7.47867,7.47867,0,0,0-1.55177-1.77806c-.00626-.00719-.01345-.01438-.01345-.02156,0,0-.01391,0-.01391-.00544v.00544A45.73137,45.73137,0,0,0,108.476,66.7581a14.43449,14.43449,0,0,1-7.24134,6.84587,54.27642,54.27642,0,0,0,5.97983-.83149c.60648-.09177,1.62824-.31043,2.77725-.58667.48006-.47868.94528-.979,1.383-1.50809a4.49323,4.49323,0,0,1,2.19786,1.20577c-.10347.135-.2169.26814-.33383.41566h.16512a.46071.46071,0,0,0,.14079-.01438c.07915-.027.3307-.0774.21958-.50752-.00673,0-.00673,0-.00673-.00626" style="fill:#8d8d8e"/><path d="M75.99911,45.84436a1.0572,1.0572,0,0,1-.071-.27533.53248.53248,0,0,1,.44449-.45177ZM72.72825,57.3657v-.37429c-.10614.12053-.21183.261-.12724.35272a.33149.33149,0,0,0,.12724.02157M94.38162,34.88a1.41662,1.41662,0,0,1-.23524.01346l-.37124,2.524c.20474-.03511.40183-.04856.60648-.06385ZM74.39206,49.28438c.08413-.20336.16153-.40127.25376-.59837A4.00953,4.00953,0,0,1,76.74647,50.061a12.98391,12.98391,0,0,0-.4643,1.26151c.79675.69107,1.8316,1.48109,3.10979,2.39717.39317-.09178.78689-.16918,1.19766-.24657.24694-.05575.50789-.099.76128-.14034V50.57566c-1.53693-.68388-2.89077-1.22743-3.99076-1.59267h-.00627c-.014-.00811-.036-.00811-.05178-.0153a.45843.45843,0,0,0-.05446-.02073h-.01391a8.2127,8.2127,0,0,0-2.29857-.49314c-.06395,0-.13453,0-.19931.00543-.01262,0-.01935,0-.02663.00811h-.04229a.31135.31135,0,0,1-.03593.00719v.00626c-.16964.04322-.3096.15664-.36581.46615a.20717.20717,0,0,1-.00765-.06385.34488.34488,0,0,0,.00765.08458,1.9791,1.9791,0,0,0,.12688.31669M81.3509,60.44674v-1.276a51.80139,51.80139,0,0,1-6.08515-1.38932v-.23938c-.23883.09177-.45794.18271-.67079.27532-.189.07739-.37207.162-.5417.23938l-.01392.01437a.24444.24444,0,0,0-.0351.01447,4.79152,4.79152,0,0,0-1.09281.71078.74958.74958,0,0,0-.1067.09906.85575.85575,0,0,1-.07648.09177.10632.10632,0,0,1-.022.02875l-.00672.01354h-.00719v.00627h-.00673a.02211.02211,0,0,1-.00728.01437v.01447H72.6644V59.079l-.00811.00719H72.651v.00719l-.00857.00626v.01447h-.00719v.01345H72.6257v.01438a.0364.0364,0,0,0-.00359.01446l-.00719.00719v.01437l-.00765.00627v.00811c-.00626.00719-.00626.00719-.00626.01262v.0153H72.5929v.08458l.00811.00627v.01529h.00626l.00765.01355v.00719h.00719a.02162.02162,0,0,0,.00359.01437V59.375a2.07153,2.07153,0,0,0,.23625.13406c-.00765-.10532-.014-.21146-.02119-.31678a4.6961,4.6961,0,0,1,2.44711-.47241c.02745.57054.0774,1.13472.1547,1.69891A53.5612,53.5612,0,0,0,81.408,61.67407a11.24009,11.24009,0,0,1-.05713-1.22733M94.14638,80.50826c.08053.00718.14844.01529.23524.02165V78.06253c-.20465-.01529-.40174-.03593-.60648-.05758ZM85.5535,70.50855c-.04995-.0504-.09132-.09177-.14126-.14042-2.15778-.32481-4.36458-.74055-6.64887-1.26336a.77668.77668,0,0,1-.071-.08275,5.34106,5.34106,0,0,0-2.18432,1.2958.18922.18922,0,0,0,.06164.31042h-.01308c.1125.04948.22584.0927.32443.13407-.07113-.11343-.13453-.21147-.20474-.32489a5.10542,5.10542,0,0,1,2.73588-.40755,18.17773,18.17773,0,0,0,1.77,2.03,60.13676,60.13676,0,0,0,8.736,1.45953,14.92433,14.92433,0,0,1-4.36458-3.01083m-10.07582-1.904a.4228.4228,0,0,0-.071.17636c.00764.0504.03593.07823.11158.10615-.02119,0-.03335-.00719-.04773-.00719a.86031.86031,0,0,0,.19166.01437Z" style="fill:#8d8d8e"/><path d="M95.5802,74.94288A14.504,14.504,0,0,1,81.13262,60.7778V41.28941h28.90189V60.7778A14.50541,14.50541,0,0,1,95.5802,74.94288" style="fill:#fff"/><path d="M82.09817,42.25589V60.7778a13.48825,13.48825,0,0,0,26.97,0V42.25589ZM103.60439,60.7778a8.02284,8.02284,0,0,1-16.03483,0V47.72046h16.03483Z" style="fill:#8d8d8e"/><path d="M86.66031,46.49939H86.604l-.12863-1.22733a.31239.31239,0,0,0,.29015-.30232.30359.30359,0,0,0-.3095-.30324h-.03511l-.03511-.557h.13361a.05518.05518,0,0,0,.05713-.05584v-.38783h-.18447v.19709h-.246v-.19709h-.20428v.19709h-.247v-.19709h-.1759v.38064a.06612.06612,0,0,0,.05529.063h.13452l-.02782.557h-.34646l-.06523-1.1842h.10126c.035,0,.05436-.0153.05436-.05667v-.38691h-.1817v.18171h-.24878v-.18171h-.1877v.18171H84.552v-.18171h-.17682v.38691a.06832.06832,0,0,0,.058.05667h.08864l-.06081,1.1842h-.34553l-.03594-.557h.13453a.0624.0624,0,0,0,.06339-.05584v-.38783h-.17682v.19709h-.26094v-.19709h-.18982v.19709h-.26048v-.19709h-.17682v.38064a.06872.06872,0,0,0,.06966.063h.12015l-.02792.557h-.02829a.30414.30414,0,0,0-.3118.30324.30761.30761,0,0,0,.28213.297l-.11794,1.23267h-.0562a.31218.31218,0,0,0-.30416.30416.30432.30432,0,0,0,.30416.29513h3.51789a.30548.30548,0,0,0,.31042-.29513.31312.31312,0,0,0-.31042-.30416m-2.58929,0a1.2992,1.2992,0,0,1,.83416-1.2687,1.29677,1.29677,0,0,1,.8256,1.2687Z" style="fill:#fff;fill-rule:evenodd"/><path d="M97.39918,46.49939h-.07731l-.11343-1.22733a.30546.30546,0,0,0,.283-.30232.3016.3016,0,0,0-.30324-.30324h-.04229l-.035-.557h.13988c.02967,0,.04819-.02074.04819-.05584v-.38783h-.167v.19709h-.26905v-.19709h-.18263v.19709h-.2614v-.19709H96.2474v.38064a.07712.07712,0,0,0,.059.063H96.44l-.03594.557H96.0657l-.06349-1.1842h.08864c.032,0,.068-.0153.068-.05667v-.38691H95.982v.18171h-.26094v-.18171h-.18226v.18171H95.277v-.18171h-.1759v.38691c0,.02073.02792.04948.06386.05667h.09859l-.0657,1.1842H94.854l-.04229-.557h.12642c.0293,0,.07067-.02074.07067-.05584v-.38783H94.8181v.19709h-.2533v-.19709H94.388v.19709h-.26731v-.19709h-.16954v.38064a.06727.06727,0,0,0,.05713.063h.13361l-.036.557h-.02829a.30227.30227,0,0,0-.3096.30324.3072.3072,0,0,0,.28168.297l-.12688,1.23267h-.04229a.301.301,0,0,0-.30232.30416.29358.29358,0,0,0,.30232.29513h3.51872a.29683.29683,0,0,0,.29559-.29513.30473.30473,0,0,0-.29559-.30416m-2.60136,0a1.30533,1.30533,0,0,1,.83232-1.2687,1.31863,1.31863,0,0,1,.83822,1.2687Z" style="fill:#fff;fill-rule:evenodd"/><path d="M108.02527,46.49939h-.0563l-.12688-1.22733a.3104.3104,0,0,0,.28168-.30232.30331.30331,0,0,0-.30951-.30324h-.036l-.02746-.557h.12642a.05571.05571,0,0,0,.05713-.05584v-.38783h-.17719v.19709h-.26058v-.19709h-.19073v.19709h-.2533v-.19709h-.17728v.38064a.06788.06788,0,0,0,.06395.063h.12688l-.02746.557h-.33254l-.07961-1.1842h.10172c.03465,0,.0634-.0153.0634-.05667v-.38691h-.1759v.18171h-.26362v-.18171h-.18134v.18171h-.26094v-.18171H105.732v.38691c0,.02073.0292.04948.06523.05667h.09132l-.0634,1.1842H105.472l-.02119-.557h.12559c.022,0,.06523-.02074.06523-.05584v-.38783h-.19082v.19709h-.2533v-.19709H105.014v.19709h-.26048v-.19709h-.1759v.38064a.06684.06684,0,0,0,.05713.063h.13268l-.0351.557h-.02875a.30064.30064,0,0,0-.02921.60022l-.11076,1.23267h-.06339a.3048.3048,0,0,0-.29605.30416.29692.29692,0,0,0,.29605.29513h3.52508a.29464.29464,0,0,0,.30323-.29513.3021.3021,0,0,0-.30323-.30416m-2.59647,0a1.30783,1.30783,0,0,1,.82734-1.2687h.014a1.32463,1.32463,0,0,1,.83094,1.2687Z" style="fill:#fff;fill-rule:evenodd"/><path d="M86.66031,57.56279H86.604l-.12863-1.23369a.29209.29209,0,0,0,.29015-.29513.30931.30931,0,0,0-.3095-.31135h-.03511l-.03511-.54345h.13361a.05771.05771,0,0,0,.05713-.063v-.3869h-.18447v.19617h-.246v-.19617h-.20428v.19617h-.247v-.19617h-.1759v.3869a.06692.06692,0,0,0,.05529.063h.13452l-.02782.54345h-.34646l-.06523-1.17693h.10126a.05109.05109,0,0,0,.05436-.05759v-.387h-.1817v.1899h-.24878v-.1899h-.1877v.1899H84.552v-.1899h-.17682v.38063a.06857.06857,0,0,0,.058.06395h.08864l-.06081,1.17693h-.34553l-.03594-.54345h.13453a.06415.06415,0,0,0,.06339-.063v-.3869h-.17682v.19617h-.26094v-.19617h-.18982v.19617h-.26048v-.19617h-.17682v.3869a.06938.06938,0,0,0,.06966.063h.12015l-.02792.54345h-.02829a.30367.30367,0,0,0-.02967.60648l-.11794,1.23369h-.0562a.3018.3018,0,0,0-.30416.30324.29379.29379,0,0,0,.30416.2825h3.51789a.29526.29526,0,0,0,.31042-.2825.303.303,0,0,0-.31042-.30324m-2.58929,0a1.30126,1.30126,0,0,1,.83416-1.26972,1.29884,1.29884,0,0,1,.8256,1.26972Z" style="fill:#fff;fill-rule:evenodd"/><path d="M108.02527,57.56279h-.0563l-.12688-1.23369a.28964.28964,0,0,0,.28168-.29513.309.309,0,0,0-.30951-.31135h-.036l-.02746-.54345h.12642a.05822.05822,0,0,0,.05713-.063v-.3869h-.17719v.19617h-.26058v-.19617h-.19073v.19617h-.2533v-.19617h-.17728v.3869a.06861.06861,0,0,0,.06395.063h.12688l-.02746.54345h-.33254l-.07961-1.17693h.10172a.05836.05836,0,0,0,.0634-.05759v-.387h-.1759v.1899h-.26362v-.1899h-.18134v.1899h-.26094v-.1899H105.732v.38063a.07652.07652,0,0,0,.06523.06395h.09132l-.0634,1.17693H105.472l-.02119-.54345h.12559a.0688.0688,0,0,0,.06523-.063v-.3869h-.19082v.19617h-.2533v-.19617H105.014v.19617h-.26048v-.19617h-.1759v.3869a.06764.06764,0,0,0,.05713.063h.13268l-.0351.54345h-.02875a.30388.30388,0,0,0-.02921.60648l-.11076,1.23369h-.06339a.29484.29484,0,0,0-.29605.30324.28637.28637,0,0,0,.29605.2825h3.52508a.28466.28466,0,0,0,.30323-.2825.29281.29281,0,0,0-.30323-.30324m-2.59647,0a1.30994,1.30994,0,0,1,.82734-1.26972h.014a1.32678,1.32678,0,0,1,.83094,1.26972Z" style="fill:#fff;fill-rule:evenodd"/><path d="M89.78217,67.20885l-.04045.04948-.94529-.78283a.30363.30363,0,0,0-.0211-.41566.32184.32184,0,0,0-.436,0l-.02921.035-.40091-.359.02027-.02156.07067-.0774c.02156-.01446.02783-.0504,0-.08459l-.26776-.27541-.12734.12061.13369.1548-.18354.18355-.13278-.14936-.14171.1278.14171.14033-.19258.18355-.11784-.13407-.13453.12688.26187.26721a.07874.07874,0,0,0,.09757,0l.06165-.062.03059-.036.35908.4022-.24114.23219-.88724-.77473.08542-.05583c.02027-.02876.027-.072,0-.0927l-.26988-.2744-.139.126.139.14125-.18134.17728-.13361-.135-.13637.135.13637.126-.18354.19709-.13453-.1395-.13093.126.27172.26813a.07466.07466,0,0,0,.09132,0l.072-.07012.78063.88-.238.2474-.41657-.35272.02156-.02792.07067-.06293a.07625.07625,0,0,0,.00673-.09177l-.28214-.27542-.11969.12781.13453.12595-.17719.198-.13324-.14853-.14218.14126.14218.13416-.17728.17543-.14079-.126-.12642.11877.26721.27532a.08719.08719,0,0,0,.09223,0l.07021-.0774.0212-.01438.36036.3941-.014.02884a.28975.28975,0,0,0,0,.43011.32762.32762,0,0,0,.41574.02783l.77473.94575-.04229.04948a.29544.29544,0,0,0,0,.42293.31171.31171,0,0,0,.43777,0l2.4894-2.48977a.305.305,0,0,0,0-.42118.30125.30125,0,0,0-.43961-.0153m-1.83068,1.84736a1.30872,1.30872,0,0,1-.30416-1.48828,1.28729,1.28729,0,0,1,1.48837.30324Z" style="fill:#fff;fill-rule:evenodd"/><path d="M101.1218,67.22332a.306.306,0,0,0,0,.422l2.48977,2.48977a.311.311,0,0,0,.43731,0,.30705.30705,0,0,0,0-.42293l-.04948-.04948.78965-.94575a.31922.31922,0,0,0,.408-.02783.28961.28961,0,0,0,0-.43011l-.01391-.02884.35318-.3941.032.01438.06653.0774a.0824.0824,0,0,0,.09048,0l.26905-.27532-.12641-.11969-.13637.12687-.18134-.17543.12688-.13416-.12688-.14209-.13361.14936-.18354-.198.1336-.12688-.11969-.12688-.27486.27542a.06592.06592,0,0,0,0,.09177l.07021.06293.0211.02884-.41528.3518-.23349-.24565.78238-.8818.07205.07012c.02654.02073.07012.02073.08367,0l.26813-.26813-.11969-.12688-.13453.14135-.18354-.198.1336-.126-.1336-.135-.12688.135-.1971-.1782.14-.14033-.12642-.126-.27449.2744c-.02783.02073-.01391.06394.00811.0927l.06837.05583-.88724.77565-.233-.23311.35908-.4022.022.036.06386.06294c.02746.02165.07565.02165.08376,0l.282-.26814-.13268-.1278-.13637.135-.1759-.18355.13545-.14033-.13545-.1278-.13278.14936-.18355-.18355.14089-.1548-.13324-.12061-.26905.27541a.05462.05462,0,0,0,0,.08459l.06348.0774.02921.02156-.395.35816-.03511-.03419a.3252.3252,0,0,0-.43859,0,.30618.30618,0,0,0-.02027.41566l-.95109.78283-.03557-.05031a.30042.30042,0,0,0-.43777.0153m1.08608.64785a1.27439,1.27439,0,0,1,1.48109-.30324,1.31544,1.31544,0,0,1-.30324,1.48828Z" style="fill:#fff;fill-rule:evenodd"/><path d="M96.56732,64.45178a.3491.3491,0,0,0-.33789.34553.34475.34475,0,0,0,.33789.36627.35663.35663,0,0,0,.35226-.36627.36264.36264,0,0,0-.35226-.34553" style="fill:#fff;fill-rule:evenodd"/><path d="M94.643,64.46625a.34913.34913,0,0,0,0,.69825.34926.34926,0,1,0,0-.69825" style="fill:#fff;fill-rule:evenodd"/><path d="M95.5802,54.1281a1.83856,1.83856,0,0,0,1.784-1.895V49.69377h-3.5611v2.53934a1.83756,1.83756,0,0,0,1.77714,1.895" style="fill:#8d8d8e"/><path d="M95.079,50.69535a.41362.41362,0,0,0-.4081-.40948.40951.40951,0,0,0,0,.81887.4136.4136,0,0,0,.4081-.40939" style="fill:#fff;fill-rule:evenodd"/><path d="M95.98876,51.61226a.41022.41022,0,0,0-.40856-.40948.40552.40552,0,0,0,0,.81076.40851.40851,0,0,0,.40856-.40128" style="fill:#fff;fill-rule:evenodd"/><path d="M96.89894,52.51387a.4054.4054,0,0,0-.81076,0,.4054.4054,0,1,0,.81076,0" style="fill:#fff;fill-rule:evenodd"/><path d="M96.49711,51.10474a.40944.40944,0,1,0-.40939-.40939.40781.40781,0,0,0,.40939.40939" style="fill:#fff;fill-rule:evenodd"/><path d="M94.67094,52.92418a.41379.41379,0,0,0,.4081-.41031.40793.40793,0,0,0-.4081-.4022.401.401,0,0,0-.40173.4022.40688.40688,0,0,0,.40173.41031" style="fill:#fff;fill-rule:evenodd"/><path d="M95.5802,60.27038a1.83953,1.83953,0,0,0,1.784-1.896v-2.5456h-3.5611v2.5456a1.83854,1.83854,0,0,0,1.77714,1.896" style="fill:#fff"/><path d="M95.079,56.83661a.41288.41288,0,0,0-.4081-.40855.406.406,0,0,0-.40173.40855.40028.40028,0,0,0,.40173.40128.4072.4072,0,0,0,.4081-.40128" style="fill:#fff;fill-rule:evenodd"/><path d="M95.98876,57.74633a.404.404,0,0,0-.40856-.4022.39571.39571,0,0,0-.395.4022.3896.3896,0,0,0,.395.395.398.398,0,0,0,.40856-.395" style="fill:#fff;fill-rule:evenodd"/><path d="M96.89894,58.66324a.4054.4054,0,1,0-.40183.40137.40739.40739,0,0,0,.40183-.40137" style="fill:#fff;fill-rule:evenodd"/><path d="M96.49711,57.23789a.40137.40137,0,0,0,.40137-.40128.4054.4054,0,1,0-.40137.40128" style="fill:#fff;fill-rule:evenodd"/><path d="M94.67094,59.06461a.40539.40539,0,1,0,0-.81076.4054.4054,0,0,0,0,.81076" style="fill:#fff;fill-rule:evenodd"/><path d="M90.67263,60.27038a1.83548,1.83548,0,0,0,1.77714-1.896v-2.5456H88.88959v2.5456a1.83417,1.83417,0,0,0,1.783,1.896" style="fill:#8d8d8e"/><path d="M90.15792,56.83661a.40262.40262,0,0,0-.40183-.40855.40912.40912,0,0,0-.40441.40855.40344.40344,0,0,0,.40441.40128.397.397,0,0,0,.40183-.40128" style="fill:#fff;fill-rule:evenodd"/><path d="M91.07437,57.74633a.40493.40493,0,0,0-.80984,0,.405.405,0,0,0,.80984,0" style="fill:#fff;fill-rule:evenodd"/><path d="M91.98408,58.66324a.40268.40268,0,0,0-.40542-.40847.40492.40492,0,1,0,0,.80984.40175.40175,0,0,0,.40542-.40137" style="fill:#fff;fill-rule:evenodd"/><path d="M91.57912,57.23789a.39864.39864,0,0,0,.40542-.40128.40419.40419,0,0,0-.40542-.40855.409.409,0,0,0-.40671.40855.40341.40341,0,0,0,.40671.40128" style="fill:#fff;fill-rule:evenodd"/><path d="M89.75609,59.06461a.4054.4054,0,0,0,0-.81076.40538.40538,0,0,0,0,.81076" style="fill:#fff;fill-rule:evenodd"/><path d="M100.49459,60.27038a1.845,1.845,0,0,0,1.79115-1.896v-2.5456H98.72556v2.5456a1.82821,1.82821,0,0,0,1.769,1.896" style="fill:#8d8d8e"/><path d="M99.98708,56.83661a.4022.4022,0,1,0-.404.40128.39774.39774,0,0,0,.404-.40128" style="fill:#fff;fill-rule:evenodd"/><path d="M100.90407,57.74633a.40586.40586,0,0,0-.81168,0,.406.406,0,0,0,.81168,0" style="fill:#fff;fill-rule:evenodd"/><path d="M101.81149,58.66324a.40056.40056,0,0,0-.40082-.40847.40493.40493,0,1,0,0,.80984.39957.39957,0,0,0,.40082-.40137" style="fill:#fff;fill-rule:evenodd"/><path d="M101.411,57.23789a.3962.3962,0,0,0,.40091-.40128.40179.40179,0,0,0-.40091-.40855.40862.40862,0,0,0-.40893.40855.40306.40306,0,0,0,.40893.40128" style="fill:#fff;fill-rule:evenodd"/><path d="M99.58349,59.06461a.40538.40538,0,0,0,0-.81076.40541.40541,0,0,0,0,.81076" style="fill:#fff;fill-rule:evenodd"/><path d="M95.5802,66.41256a1.84426,1.84426,0,0,0,1.784-1.89776V61.97731h-3.5611V64.5148a1.84329,1.84329,0,0,0,1.77714,1.89776" style="fill:#8d8d8e"/><path d="M95.079,62.9788a.41158.41158,0,0,0-.4081-.4022.40179.40179,0,0,0,0,.80357.41211.41211,0,0,0,.4081-.40137" style="fill:#fff;fill-rule:evenodd"/><path d="M95.98876,63.89478a.40934.40934,0,0,0-.40856-.40846.405.405,0,0,0,0,.80983.40791.40791,0,0,0,.40856-.40137" style="fill:#fff;fill-rule:evenodd"/><path d="M96.89894,64.79731a.40539.40539,0,0,0-.81076,0,.4054.4054,0,1,0,.81076,0" style="fill:#fff;fill-rule:evenodd"/><path d="M96.49711,63.38017a.40231.40231,0,1,0-.40939-.40137.40616.40616,0,0,0,.40939.40137" style="fill:#fff;fill-rule:evenodd"/><path d="M94.67094,65.20679a.41362.41362,0,0,0,.4081-.40948.40738.40738,0,0,0-.4081-.4022.40048.40048,0,0,0-.40173.4022.40669.40669,0,0,0,.40173.40948" style="fill:#fff;fill-rule:evenodd"/></svg>