<svg xmlns="http://www.w3.org/2000/svg" viewBox="0 0 445.19586 131.94375"><title>Artboard 56</title><path d="M208.16281,13.45183h1.7373v7.59169a9.36877,9.36877,0,0,1-.43835,3.15146,3.989,3.989,0,0,1-1.63387,1.88807,5.71184,5.71184,0,0,1-3.06049.734,6.20379,6.20379,0,0,1-3.02355-.63867,3.574,3.574,0,0,1-1.67919-1.83853,8.78945,8.78945,0,0,1-.50069-3.2963V13.45183h1.74162V21.035a7.58036,7.58036,0,0,0,.31417,2.52294,2.40734,2.40734,0,0,0,1.0877,1.25322,3.78143,3.78143,0,0,0,1.89858.43623A3.67473,3.67473,0,0,0,207.348,24.383a5.07094,5.07094,0,0,0,.81486-3.348Z" style="opacity:0.8"/><path d="M212.77043,26.58959V13.45183h1.791l6.88229,10.31708V13.45183h1.68309V26.58959h-1.78643l-6.90305-10.33148V26.58959Z" style="opacity:0.8"/><path d="M226.3529,26.58959V13.45183h1.73722V26.58959Z" style="opacity:0.8"/><path d="M229.69909,26.58959l5.05817-13.13776h1.86944l5.38089,13.13776h-1.977l-1.54249-3.9786h-5.50075l-1.43533,3.9786Zm3.16416-13.94246a2.143,2.143,0,0,1,.50442-1.49292,1.71633,1.71633,0,0,1,1.31123-.55652,3.68024,3.68024,0,0,1,1.51792.48833,2.08321,2.08321,0,0,0,.83138.27063.64282.64282,0,0,0,.45919-.155,1.39951,1.39951,0,0,0,.21083-.63063h1.1702a2.28269,2.28269,0,0,1-.52517,1.53232,1.62657,1.62657,0,0,1-1.23246.51289,3.31714,3.31714,0,0,1-1.49335-.50866,2.2285,2.2285,0,0,0-.88094-.31214A.66952.66952,0,0,0,234.23209,12a1.02176,1.02176,0,0,0-.18212.64714Zm.64079,8.54717H237.946l-1.36036-3.63766c-.42607-1.10837-.72381-2.01217-.93091-2.7275a15.92568,15.92568,0,0,1-.7111,2.51023Z" style="opacity:0.8"/><path d="M242.864,20.19563a7.15041,7.15041,0,0,1,1.7534-5.12678,6.01593,6.01593,0,0,1,4.54146-1.84869,6.262,6.262,0,0,1,3.27555.86865,5.595,5.595,0,0,1,2.22944,2.4213,7.82713,7.82713,0,0,1,.76108,3.53644,7.67954,7.67954,0,0,1-.8064,3.57159,5.385,5.385,0,0,1-2.27475,2.39037,6.53225,6.53225,0,0,1-3.18492.80851,6.19111,6.19111,0,0,1-3.32128-.89109,5.80268,5.80268,0,0,1-2.221-2.46323A7.41453,7.41453,0,0,1,242.864,20.19563Zm1.7949.02033a5.33763,5.33763,0,0,0,1.26973,3.74947,4.2291,4.2291,0,0,0,3.20152,1.35867,4.17337,4.17337,0,0,0,3.23819-1.371,5.58659,5.58659,0,0,0,1.26592-3.921,6.89293,6.89293,0,0,0-.52941-2.79993,4.21473,4.21473,0,0,0-3.946-2.51913,4.45224,4.45224,0,0,0-3.168,1.26973C245.10145,16.835,244.65886,18.24106,244.65886,20.216Z" style="opacity:0.8"/><path d="M262.81583,26.58959V13.45183h9.50053v1.551h-7.759v4.02434h7.27914V20.5696h-7.27914v4.47751h8.05249v1.54248Z" style="opacity:0.8"/><path d="M283.64483,13.45183h1.73687v7.59169a8.81461,8.81461,0,0,1-.45486,3.15146,3.79174,3.79174,0,0,1-1.61279,1.88807,5.74351,5.74351,0,0,1-3.06082.734,6.19478,6.19478,0,0,1-3.02355-.63867,3.59918,3.59918,0,0,1-1.68309-1.83853,8.80139,8.80139,0,0,1-.49637-3.2963V13.45183h1.7246V21.035a7.617,7.617,0,0,0,.327,2.52294,2.43154,2.43154,0,0,0,1.09185,1.25322,4.60659,4.60659,0,0,0,4.64489-.42819,5.12821,5.12821,0,0,0,.80631-3.348Z" style="opacity:0.8"/><path d="M288.302,26.58959V13.45183h5.82771a7.66106,7.66106,0,0,1,2.6677.35153,3.0107,3.0107,0,0,1,1.47641,1.249,3.84368,3.84368,0,0,1,.53745,1.98549,3.31428,3.31428,0,0,1-.90126,2.35734,4.64379,4.64379,0,0,1-2.80459,1.22018,4.32875,4.32875,0,0,1,1.05077.6535A9.29984,9.29984,0,0,1,297.608,23.01l2.27476,3.57964h-2.18412l-1.74112-2.7275c-.50442-.78988-.92244-1.39806-1.25321-1.81185a4.03218,4.03218,0,0,0-.8767-.87669,2.42475,2.42475,0,0,0-.79834-.35153,4.81155,4.81155,0,0,0-.96776-.06395H290.043v5.83152Zm1.741-7.33927h3.74312a5.58184,5.58184,0,0,0,1.85292-.24819,1.92935,1.92935,0,0,0,1.03425-.78776,2.12956,2.12956,0,0,0,.35534-1.17655,1.96383,1.96383,0,0,0-.68653-1.53062,3.13045,3.13045,0,0,0-2.1422-.59971H290.043Z" style="opacity:0.8"/><path d="M301.00778,20.19563a7.088,7.088,0,0,1,1.774-5.12678,5.9486,5.9486,0,0,1,4.52495-1.84869,6.239,6.239,0,0,1,3.27174.86865,5.66613,5.66613,0,0,1,2.23748,2.4213,7.94037,7.94037,0,0,1,.76108,3.53644,7.98758,7.98758,0,0,1-.78606,3.57159,5.6938,5.6938,0,0,1-2.29933,2.39037,6.60237,6.60237,0,0,1-3.18491.80851,6.21822,6.21822,0,0,1-3.32933-.89109,5.78442,5.78442,0,0,1-2.21293-2.46323A7.41717,7.41717,0,0,1,301.00778,20.19563Zm1.79057.02033a5.34133,5.34133,0,0,0,1.2782,3.74947,4.48546,4.48546,0,0,0,6.44394-.01229,5.568,5.568,0,0,0,1.26973-3.921,6.15022,6.15022,0,0,0-.57091-2.79993,4.00239,4.00239,0,0,0-1.57161-1.8614,4.20443,4.20443,0,0,0-2.34092-.65773,4.455,4.455,0,0,0-3.17221,1.26973C303.24093,16.835,302.79835,18.24106,302.79835,20.216Z" style="opacity:0.8"/><path d="M315.8227,26.58959V13.45183h4.96321a11.98025,11.98025,0,0,1,1.9893.12409,3.93912,3.93912,0,0,1,1.62168.61623,3.17758,3.17758,0,0,1,1.06263,1.26762,4.16829,4.16829,0,0,1,.38879,1.79278,3.99764,3.99764,0,0,1-1.07109,2.83762q-1.073,1.1632-3.82986,1.16427h-3.38321v5.33515Zm1.74145-6.88822h3.3954a3.6789,3.6789,0,0,0,2.40309-.62682,2.30482,2.30482,0,0,0,.69924-1.77033,2.26945,2.26945,0,0,0-.42607-1.39975,1.92486,1.92486,0,0,0-1.096-.78988,8.20628,8.20628,0,0,0-1.61754-.11181h-3.35813Z" style="opacity:0.8"/><path d="M328.11079,26.58959V13.45183h9.50857v1.551h-7.784v4.02434h7.2838V20.5696h-7.2838v4.47751h8.05725v1.54248Z" style="opacity:0.8"/><path d="M340.61792,26.58959V13.45183h1.71232V26.58959Z" style="opacity:0.8"/><path d="M343.9642,26.58959l5.05021-13.13776h1.86935l5.38471,13.13776h-1.97269L352.7532,22.611h-5.49694l-1.42253,3.9786ZM347.765,21.1943h4.45879L350.838,17.55664c-.4175-1.10837-.7238-2.01217-.92244-2.7275a16.37244,16.37244,0,0,1-.70686,2.51023Z" style="opacity:0.8"/><path d="M199.61776,92.685V79.54085h8.88429v1.559h-7.15123v4.05738h6.175v1.55518h-6.175V92.685Z" style="opacity:0.8"/><path d="M216.77393,92.685V91.27463a3.43611,3.43611,0,0,1-3.01084,1.62549,3.74855,3.74855,0,0,1-1.57594-.3312,2.61008,2.61008,0,0,1-1.08761-.79411,3.39993,3.39993,0,0,1-.48833-1.21171,7.22234,7.22234,0,0,1-.10715-1.49292V83.16793h1.617v5.27331a8.50057,8.50057,0,0,0,.10334,1.70427,1.74079,1.74079,0,0,0,.62851,1.00926,2.09086,2.09086,0,0,0,1.22865.368,2.6718,2.6718,0,0,0,1.35655-.37651,2.092,2.092,0,0,0,.914-1.02578,5.20146,5.20146,0,0,0,.25242-1.84869v-5.1039H218.23v9.517Z" style="opacity:0.8"/><path d="M220.74872,92.685v-9.517h1.44761v1.35231a3.4717,3.4717,0,0,1,3.04007-1.584,3.903,3.903,0,0,1,1.584.327,2.57637,2.57637,0,0,1,1.0838.80639,3.52594,3.52594,0,0,1,.50018,1.19943,11.23335,11.23335,0,0,1,.0831,1.55942V92.685h-1.62558v-5.7824a4.199,4.199,0,0,0-.17407-1.48445,1.53071,1.53071,0,0,0-.65731-.76955,2.0954,2.0954,0,0,0-1.12912-.2935,2.5806,2.5806,0,0,0-1.79109.6535,3.21135,3.21135,0,0,0-.7526,2.47339v5.203Z" style="opacity:0.8"/><path d="M237.13535,92.685V91.48554a2.95373,2.95373,0,0,1-2.65075,1.41458,3.83238,3.83238,0,0,1-2.1012-.6247,4.04211,4.04211,0,0,1-1.47684-1.74959,5.97648,5.97648,0,0,1-.52517-2.589,6.53189,6.53189,0,0,1,.47985-2.5852,3.7226,3.7226,0,0,1,3.54026-2.41536,3.15394,3.15394,0,0,1,2.6267,1.332v-4.7274h1.60855V92.685Zm-5.10772-4.74815a4.0404,4.0404,0,0,0,.78988,2.73386,2.2854,2.2854,0,0,0,1.79914.90168,2.352,2.352,0,0,0,1.81193-.86018,4.02759,4.02759,0,0,0,.72329-2.65126,4.49261,4.49261,0,0,0-.74837-2.87871,2.34532,2.34532,0,0,0-1.84869-.90168,2.25588,2.25588,0,0,0-1.79914.8767A4.36683,4.36683,0,0,0,232.02763,87.93682Z" style="opacity:0.8"/><path d="M240.57269,87.92835a4.89413,4.89413,0,0,1,1.47641-3.91253,4.42563,4.42563,0,0,1,2.982-1.07956,4.29611,4.29611,0,0,1,3.20957,1.29472,4.884,4.884,0,0,1,1.25312,3.561,6.60734,6.60734,0,0,1-.5416,2.89945,4.10277,4.10277,0,0,1-1.60906,1.63354,5.04548,5.04548,0,0,1-2.312.57515,4.22733,4.22733,0,0,1-3.23446-1.29048A5.122,5.122,0,0,1,240.57269,87.92835Zm1.66243,0a4.00276,4.00276,0,0,0,.79825,2.73809,2.52535,2.52535,0,0,0,1.99777.90592,2.49326,2.49326,0,0,0,2.002-.92243,4.05235,4.05235,0,0,0,.80639-2.77537,3.9675,3.9675,0,0,0-.80639-2.69235,2.60718,2.60718,0,0,0-2.002-.90168,2.54812,2.54812,0,0,0-1.99777.90168A4.02653,4.02653,0,0,0,242.23512,87.92835Z" style="opacity:0.8"/><path d="M250.74281,89.84777l1.58441-.24819a2.20517,2.20517,0,0,0,.7526,1.47641,2.73263,2.73263,0,0,0,1.70808.49637,2.42932,2.42932,0,0,0,1.65048-.46333,1.29288,1.29288,0,0,0,.554-1.0423,1.01742,1.01742,0,0,0-.47985-.8767,7.92821,7.92821,0,0,0-1.64582-.53787,13.82954,13.82954,0,0,1-2.46111-.7776,2.387,2.387,0,0,1-1.41457-2.18369,2.46327,2.46327,0,0,1,.29773-1.17063,3.02206,3.02206,0,0,1,.7903-.914,3.66144,3.66144,0,0,1,1.03806-.45911,4.99264,4.99264,0,0,1,1.37731-.21091,5.415,5.415,0,0,1,1.977.33924,2.49088,2.49088,0,0,1,1.25321.8767,3.56728,3.56728,0,0,1,.56244,1.44761l-1.58008.24395a1.75967,1.75967,0,0,0-.62437-1.14564,2.23324,2.23324,0,0,0-1.46413-.42564,2.60911,2.60911,0,0,0-1.58017.37609,1.09135,1.09135,0,0,0-.47562.86442.81543.81543,0,0,0,.20287.55439,1.43191,1.43191,0,0,0,.604.42607c.16941.07412.64494.19821,1.43481.41759a22.42614,22.42614,0,0,1,2.38233.73228,2.73284,2.73284,0,0,1,1.063.85594,2.38683,2.38683,0,0,1,.3888,1.4023,2.60134,2.60134,0,0,1-.47562,1.49292,2.8453,2.8453,0,0,1-1.35232,1.11684,4.818,4.818,0,0,1-2.00624.3888,4.56329,4.56329,0,0,1-2.82491-.75684A3.61175,3.61175,0,0,1,250.74281,89.84777Z" style="opacity:0.8"/><path d="M265.90122,92.685V79.54085h9.50053v1.559h-7.759v4.00782h7.27491v1.53867h-7.27491v4.49149h8.069V92.685Z" style="opacity:0.8"/><path d="M284.137,92.685V91.27463a3.4521,3.4521,0,0,1-3.02355,1.62549,3.70474,3.70474,0,0,1-1.56323-.3312,2.52085,2.52085,0,0,1-1.0838-.79411,3.27233,3.27233,0,0,1-.50019-1.21171,7.58148,7.58148,0,0,1-.10334-1.49292V83.16793H279.48v5.27331a7.45517,7.45517,0,0,0,.11171,1.70427,1.64261,1.64261,0,0,0,.6408,1.00926,2.02468,2.02468,0,0,0,1.20789.368,2.66627,2.66627,0,0,0,1.36079-.37651,2.06549,2.06549,0,0,0,.90983-1.02578,4.9978,4.9978,0,0,0,.26037-1.84869v-5.1039h1.61745v9.517Z" style="opacity:0.8"/><path d="M288.08676,92.685v-9.517h1.4599v1.43956a4.13541,4.13541,0,0,1,1.03425-1.332,1.76282,1.76282,0,0,1,1.02959-.33924,3.07733,3.07733,0,0,1,1.66276.53788l-.56235,1.49716a2.19278,2.19278,0,0,0-1.17453-.36381,1.58818,1.58818,0,0,0-.95547.32654,1.75763,1.75763,0,0,0-.60819.88093,6.51477,6.51477,0,0,0-.26461,1.87368V92.685Z" style="opacity:0.8"/><path d="M293.629,87.92835a4.88058,4.88058,0,0,1,1.47641-3.91253,4.42431,4.42431,0,0,1,2.99051-1.07956,4.28,4.28,0,0,1,3.20525,1.29472,4.90147,4.90147,0,0,1,1.25321,3.561,6.4773,6.4773,0,0,1-.55016,2.89945A4.0616,4.0616,0,0,1,300.3995,92.325a5.04952,5.04952,0,0,1-2.30356.57515,4.23734,4.23734,0,0,1-3.2387-1.29048A5.08826,5.08826,0,0,1,293.629,87.92835Zm1.65853,0a4.00322,4.00322,0,0,0,.79834,2.73809,2.65808,2.65808,0,0,0,4.01206-.01651,4.1634,4.1634,0,0,0,.78564-2.77537,3.98686,3.98686,0,0,0-.80258-2.69235,2.66346,2.66346,0,0,0-3.99512,0A4.027,4.027,0,0,0,295.28755,87.92835Z" style="opacity:0.8"/><path d="M304.44459,96.32051V83.16793h1.46413v1.23246a3.59914,3.59914,0,0,1,1.17867-1.08762,3.08653,3.08653,0,0,1,1.58441-.37651,3.80143,3.80143,0,0,1,3.561,2.41536A6.72,6.72,0,0,1,312.7,87.85424a6.494,6.494,0,0,1-.50866,2.62628,4.11624,4.11624,0,0,1-1.526,1.7949,4.02947,4.02947,0,0,1-2.10958.6247,3.17941,3.17941,0,0,1-1.43914-.3312,3.5265,3.5265,0,0,1-1.06305-.8767v4.62829Zm1.4599-8.33837a4.13722,4.13722,0,0,0,.74074,2.70929,2.30428,2.30428,0,0,0,3.6436-.025A4.34661,4.34661,0,0,0,311.0499,87.85a4.40714,4.40714,0,0,0-.73609-2.74233,2.24328,2.24328,0,0,0-3.619.07454A4.22519,4.22519,0,0,0,305.90449,87.98214Z" style="opacity:0.8"/><path d="M321.15819,89.60763l1.667.21939a3.98357,3.98357,0,0,1-1.44762,2.279,4.49461,4.49461,0,0,1-2.73385.79411,4.27457,4.27457,0,0,1-3.30477-1.29048,4.99973,4.99973,0,0,1-1.216-3.59828,5.25034,5.25034,0,0,1,1.24051-3.73888,4.44362,4.44362,0,0,1,6.32832-.025,5.22,5.22,0,0,1,1.20747,3.64783c0,.10757-.01642.25665-.01642.43835h-7.0933a3.4978,3.4978,0,0,0,.89364,2.40308,2.5761,2.5761,0,0,0,1.97711.83561,2.45082,2.45082,0,0,0,1.50511-.46333A2.848,2.848,0,0,0,321.15819,89.60763Zm-5.2856-2.58478h5.3271a3.12559,3.12559,0,0,0-.62893-1.80337,2.43694,2.43694,0,0,0-1.99735-.947,2.55432,2.55432,0,0,0-1.86554.75261A2.89793,2.89793,0,0,0,315.87259,87.02285Z" style="opacity:0.8"/><path d="M331.11358,92.685V91.27463a3.48923,3.48923,0,0,1-3.04006,1.62549,3.68565,3.68565,0,0,1-1.559-.3312,2.73005,2.73005,0,0,1-1.10456-.79411,3.46567,3.46567,0,0,1-.47138-1.21171,6.77568,6.77568,0,0,1-.116-1.49292V83.16793H326.44v5.27331a9.21806,9.21806,0,0,0,.10334,1.70427,1.7434,1.7434,0,0,0,.645,1.00926,2.024,2.024,0,0,0,1.21594.368,2.64647,2.64647,0,0,0,1.35274-.37651,1.99173,1.99173,0,0,0,.90178-1.02578,4.871,4.871,0,0,0,.27689-1.84869v-5.1039h1.609v9.517Z" style="opacity:0.8"/><path d="M334.4264,89.84777l1.60474-.24819a2.23984,2.23984,0,0,0,.753,1.47641,2.61172,2.61172,0,0,0,1.70808.49637,2.46883,2.46883,0,0,0,1.65429-.46333,1.33568,1.33568,0,0,0,.52941-1.0423.99935.99935,0,0,0-.48781-.8767,7.5056,7.5056,0,0,0-1.64211-.53787,13.9879,13.9879,0,0,1-2.45687-.7776,2.53772,2.53772,0,0,1-1.04653-.89321,2.57633,2.57633,0,0,1-.34306-1.29048,2.40551,2.40551,0,0,1,.28546-1.17063,2.75687,2.75687,0,0,1,.80639-.914,3.50639,3.50639,0,0,1,1.01731-.45911,4.966,4.966,0,0,1,1.38959-.21091,5.44716,5.44716,0,0,1,1.969.33924,2.52508,2.52508,0,0,1,1.25331.8767,3.05255,3.05255,0,0,1,.54583,1.44761l-1.57171.24395a1.7135,1.7135,0,0,0-.612-1.14564,2.283,2.283,0,0,0-1.46032-.42564,2.57808,2.57808,0,0,0-1.58822.37609,1.10126,1.10126,0,0,0-.48366.86442.78713.78713,0,0,0,.21091.55439,1.39666,1.39666,0,0,0,.60776.42607c.16983.07412.62894.19821,1.43109.41759,1.13336.31,1.9317.55016,2.38243.73228a2.53381,2.53381,0,0,1,1.05491.85594,2.24365,2.24365,0,0,1,.38032,1.4023,2.69849,2.69849,0,0,1-.44682,1.49292,3.05362,3.05362,0,0,1-1.36883,1.11684,4.78332,4.78332,0,0,1-2.002.3888,4.5785,4.5785,0,0,1-2.83719-.75684A3.80913,3.80913,0,0,1,334.4264,89.84777Z" style="opacity:0.8"/><path d="M199.57244,114.70066V101.57307h9.48791v1.5429h-7.7468v4.03662h7.26728v1.53867h-7.26728V113.162h8.05715v1.53866Z" style="opacity:0.8"/><path d="M210.9297,111.86347l1.58822-.24819a2.14784,2.14784,0,0,0,.75727,1.4726,2.529,2.529,0,0,0,1.70384.52517,2.56061,2.56061,0,0,0,1.667-.46334,1.37816,1.37816,0,0,0,.53754-1.063.96989.96989,0,0,0-.488-.85171,6.02045,6.02045,0,0,0-1.63387-.54593,16.73675,16.73675,0,0,1-2.46069-.77759,2.18562,2.18562,0,0,1-1.04238-.91439,2.27787,2.27787,0,0,1-.37219-1.27778,2.51734,2.51734,0,0,1,.28918-1.17062,2.67775,2.67775,0,0,1,.80258-.90169,3.4852,3.4852,0,0,1,1.0301-.47562,4.88535,4.88535,0,0,1,1.38527-.18593,5.43151,5.43151,0,0,1,1.97278.32273,2.70629,2.70629,0,0,1,1.2494.87246,3.49084,3.49084,0,0,1,.57049,1.46413l-1.58822.21939a1.66431,1.66431,0,0,0-.62852-1.14183,2.21177,2.21177,0,0,0-1.45989-.40912,2.65841,2.65841,0,0,0-1.58822.36381,1.07079,1.07079,0,0,0-.47181.85594.85925.85925,0,0,0,.2072.57091,1.4331,1.4331,0,0,0,.60767.4176,13.56973,13.56973,0,0,0,1.43109.418,17.29307,17.29307,0,0,1,2.39885.76107,2.29605,2.29605,0,0,1,1.0423.8352,2.26043,2.26043,0,0,1,.40107,1.3773,2.73416,2.73416,0,0,1-.4879,1.5302,2.98447,2.98447,0,0,1-1.35231,1.09227,4.91594,4.91594,0,0,1-2.002.39261,4.42671,4.42671,0,0,1-2.833-.7776A3.47881,3.47881,0,0,1,210.9297,111.86347Z" style="opacity:0.8"/><path d="M224.27669,113.27381l.22743,1.42262a6.72254,6.72254,0,0,1-1.22017.15755,2.96989,2.96989,0,0,1-1.3646-.28546,1.51836,1.51836,0,0,1-.66621-.74455,5.1752,5.1752,0,0,1-.20668-1.89824v-5.48042h-1.18714v-1.26126h1.18714V102.8428l1.60483-.98427v3.32552h1.6254v1.26126h-1.6254v5.57529a3.3151,3.3151,0,0,0,.08292.88516.69427.69427,0,0,0,.28927.31,1.09744,1.09744,0,0,0,.54169.10758A4.35962,4.35962,0,0,0,224.27669,113.27381Z" style="opacity:0.8"/><path d="M225.84044,114.70066v-9.51661h1.43905v1.45566a3.92693,3.92693,0,0,1,1.04229-1.33157,1.71453,1.71453,0,0,1,1.03392-.32273,3.23409,3.23409,0,0,1,1.65463.50442l-.56668,1.50564a2.336,2.336,0,0,0-1.17063-.34729,1.48622,1.48622,0,0,0-.95124.31425,1.68,1.68,0,0,0-.60818.89322,6.13839,6.13839,0,0,0-.27275,1.87791v4.9671Z" style="opacity:0.8"/><path d="M238.1984,114.70066v-1.38111a3.43707,3.43707,0,0,1-3.00652,1.60855,3.85705,3.85705,0,0,1-1.5845-.31426,2.5074,2.5074,0,0,1-1.07914-.81486,2.779,2.779,0,0,1-.50061-1.20747,8.70062,8.70062,0,0,1-.10334-1.48912v-5.91834h1.61279v5.29788a8.4981,8.4981,0,0,0,.11181,1.70426,1.61222,1.61222,0,0,0,.637.99232,2.01038,2.01038,0,0,0,1.22442.352,2.531,2.531,0,0,0,1.35231-.36846,2.03609,2.03609,0,0,0,.914-1.00884,5.19271,5.19271,0,0,0,.25666-1.86563v-5.10348h1.617v9.51661Z" style="opacity:0.8"/><path d="M245.70116,113.27381l.22743,1.42262a6.64357,6.64357,0,0,1-1.21161.15755,2.88254,2.88254,0,0,1-1.35665-.28546,1.56155,1.56155,0,0,1-.68653-.74455,5.36168,5.36168,0,0,1-.20711-1.89824v-5.48042h-1.1829v-1.26126h1.1829V102.8428l1.60474-.98427v3.32552h1.62973v1.26126h-1.62973v5.57529a3.3141,3.3141,0,0,0,.083.88516.72842.72842,0,0,0,.29351.31,1.14914,1.14914,0,0,0,.54592.10758A4.34136,4.34136,0,0,0,245.70116,113.27381Z" style="opacity:0.8"/><path d="M253.51817,114.70066v-1.38111a3.4552,3.4552,0,0,1-3.02355,1.60855,3.77872,3.77872,0,0,1-1.56746-.31426,2.53789,2.53789,0,0,1-1.08762-.81486,2.82714,2.82714,0,0,1-.49637-1.20747,8.70062,8.70062,0,0,1-.10334-1.48912v-5.91834h1.61278v5.29788a9.14488,9.14488,0,0,0,.09962,1.70426,1.62642,1.62642,0,0,0,.64918.99232,1.995,1.995,0,0,0,1.22441.352,2.56506,2.56506,0,0,0,1.35655-.36846,2.00266,2.00266,0,0,0,.89745-1.00884,5.24846,5.24846,0,0,0,.26471-1.86563v-5.10348h1.60906v9.51661Z" style="opacity:0.8"/><path d="M257.468,114.70066v-9.51661h1.44761v1.45566a3.875,3.875,0,0,1,1.03425-1.33157,1.74164,1.74164,0,0,1,1.02536-.32273,3.23,3.23,0,0,1,1.667.50442l-.5544,1.50564a2.43361,2.43361,0,0,0-1.17443-.34729,1.49691,1.49691,0,0,0-.96353.31425,1.68515,1.68515,0,0,0-.59581.89322,6.01122,6.01122,0,0,0-.2686,1.87791v4.9671Z" style="opacity:0.8"/><path d="M269.818,113.53046a5.67139,5.67139,0,0,1-1.73264,1.08338,4.79121,4.79121,0,0,1-1.77881.31426,3.45326,3.45326,0,0,1-2.41113-.76912,2.53512,2.53512,0,0,1-.84366-1.95627,2.74181,2.74181,0,0,1,1.16215-2.21292,3.6355,3.6355,0,0,1,1.15792-.52517,12.3917,12.3917,0,0,1,1.43533-.22743,15.0406,15.0406,0,0,0,2.8787-.56245v-.418a1.80631,1.80631,0,0,0-.4591-1.39383,2.67962,2.67962,0,0,0-1.83217-.54169,2.8147,2.8147,0,0,0-1.68342.3888,2.44029,2.44029,0,0,0-.79421,1.39806l-1.57975-.1944a3.72923,3.72923,0,0,1,.70729-1.63777,3.01222,3.01222,0,0,1,1.41839-.95124,6.10614,6.10614,0,0,1,2.16337-.33925,5.5113,5.5113,0,0,1,1.98083.29351,2.68025,2.68025,0,0,1,1.12912.69924,2.80451,2.80451,0,0,1,.48832,1.09566,8.88742,8.88742,0,0,1,.08259,1.5014v2.1676a20.283,20.283,0,0,0,.10757,2.82449,3.32655,3.32655,0,0,0,.40532,1.13335h-1.67928A2.8517,2.8517,0,0,1,269.818,113.53046Zm-.13214-3.586a12.40271,12.40271,0,0,1-2.6428.59125,7.30412,7.30412,0,0,0-1.39806.327,1.33442,1.33442,0,0,0-.64536.53364,1.32,1.32,0,0,0-.22752.76912,1.41471,1.41471,0,0,0,.49637,1.0838,2.13316,2.13316,0,0,0,1.42305.41336,3.50109,3.50109,0,0,0,1.65852-.39684,2.6107,2.6107,0,0,0,1.07119-1.12107,3.99513,3.99513,0,0,0,.26461-1.617Z" style="opacity:0.8"/><path d="M273.81776,103.426v-1.85292h1.60483V103.426Zm0,11.27467v-9.51661h1.60483v9.51661Z" style="opacity:0.8"/><path d="M277.25043,111.86347l1.58823-.24819a2.16063,2.16063,0,0,0,.753,1.4726,2.54558,2.54558,0,0,0,1.71232.52517,2.51126,2.51126,0,0,0,1.64582-.46334,1.34945,1.34945,0,0,0,.54592-1.063.96126.96126,0,0,0-.48781-.85171,5.88545,5.88545,0,0,0-1.64633-.54593,16.90542,16.90542,0,0,1-2.45264-.77759,2.27251,2.27251,0,0,1-1.04611-.91439,2.40073,2.40073,0,0,1-.35195-1.27778,2.29838,2.29838,0,0,1,.302-1.17062,2.4505,2.4505,0,0,1,.77768-.90169,3.40113,3.40113,0,0,1,1.038-.47562,4.80353,4.80353,0,0,1,1.3735-.18593,5.46235,5.46235,0,0,1,1.98082.32273,2.62182,2.62182,0,0,1,1.24941.87246,3.22978,3.22978,0,0,1,.54973,1.46413l-1.57551.21939a1.72093,1.72093,0,0,0-.62047-1.14183,2.19485,2.19485,0,0,0-1.45184-.40912,2.68316,2.68316,0,0,0-1.59246.36381,1.03964,1.03964,0,0,0-.46291.85594.92765.92765,0,0,0,.17788.57091,1.57327,1.57327,0,0,0,.62851.4176,12.90575,12.90575,0,0,0,1.43109.418,16.87307,16.87307,0,0,1,2.38233.76107,2.25742,2.25742,0,0,1,1.05882.8352,2.40343,2.40343,0,0,1,.393,1.3773,2.62739,2.62739,0,0,1-.47562,1.5302,3.032,3.032,0,0,1-1.36079,1.09227,4.95177,4.95177,0,0,1-1.99777.39261,4.46913,4.46913,0,0,1-2.84143-.7776A3.52385,3.52385,0,0,1,277.25043,111.86347Z" style="opacity:0.8"/><path d="M298.69989,111.65679l1.65853.20244a4.0168,4.0168,0,0,1-1.464,2.26248,4.32062,4.32062,0,0,1-2.73014.80639,4.3797,4.3797,0,0,1-3.30858-1.27354,5.03948,5.03948,0,0,1-1.22441-3.61522,5.21463,5.21463,0,0,1,1.23669-3.72617,4.19544,4.19544,0,0,1,3.218-1.32776,4.00266,4.00266,0,0,1,3.10614,1.2943,5.18261,5.18261,0,0,1,1.21171,3.66476c0,.09487,0,.22744-.00424.4176h-7.097a3.70586,3.70586,0,0,0,.89322,2.4196,2.65568,2.65568,0,0,0,1.98125.83138,2.48521,2.48521,0,0,0,1.51368-.47562A3.1764,3.1764,0,0,0,298.69989,111.65679Zm-5.30254-2.62247H298.708a3.31347,3.31347,0,0,0-.61209-1.80295,2.4523,2.4523,0,0,0-1.98548-.9182,2.57549,2.57549,0,0,0-1.886.74413A2.85194,2.85194,0,0,0,293.39735,109.03432Z" style="opacity:0.8"/><path d="M313.6639,114.70066v-1.19518a2.96857,2.96857,0,0,1-2.672,1.42262,3.67489,3.67489,0,0,1-2.09264-.62428,4.3002,4.3002,0,0,1-1.4726-1.74535,6.05239,6.05239,0,0,1-.52941-2.60976,6.73471,6.73471,0,0,1,.47562-2.581,3.7598,3.7598,0,0,1,3.55719-2.38234,3.12288,3.12288,0,0,1,1.52173.35958,3.25306,3.25306,0,0,1,1.10456.95124v-4.72316h1.59626v13.12759Zm-5.10814-4.75195a4.23294,4.23294,0,0,0,.77336,2.75419,2.37737,2.37737,0,0,0,1.81607.91015,2.28351,2.28351,0,0,0,1.80719-.8767,3.97491,3.97491,0,0,0,.74456-2.63475,4.56928,4.56928,0,0,0-.75261-2.87023,2.32556,2.32556,0,0,0-1.86935-.91016,2.21078,2.21078,0,0,0-1.79542.88517A4.3006,4.3006,0,0,0,308.55576,109.94871Z" style="opacity:0.8"/><path d="M324.21054,111.65679l1.667.20244a3.98748,3.98748,0,0,1-1.47259,2.26248,4.30082,4.30082,0,0,1-2.71311.80639,4.43694,4.43694,0,0,1-3.317-1.27354,5.09064,5.09064,0,0,1-1.21594-3.61522,5.21606,5.21606,0,0,1,1.2405-3.72617,4.15072,4.15072,0,0,1,3.20567-1.32776,4.07113,4.07113,0,0,1,3.11842,1.2943,5.16439,5.16439,0,0,1,1.21594,3.66476c0,.09487,0,.22744-.01652.4176H318.8255a3.77243,3.77243,0,0,0,.88517,2.4196,2.69891,2.69891,0,0,0,1.99768.83138,2.54309,2.54309,0,0,0,1.50944-.47562A3.09443,3.09443,0,0,0,324.21054,111.65679Zm-5.30212-2.62247h5.32287a3.24925,3.24925,0,0,0-.60818-1.80295,2.4645,2.4645,0,0,0-1.99735-.9182,2.61611,2.61611,0,0,0-1.88638.74413A2.92869,2.92869,0,0,0,318.90842,109.03432Z" style="opacity:0.8"/><path d="M333.504,114.70066V101.57307h1.74163v13.12759Z" style="opacity:0.8"/><path d="M338.10345,114.70066v-9.51661h1.45566v1.37688a3.37743,3.37743,0,0,1,3.02355-1.57552,3.88057,3.88057,0,0,1,1.58822.302,2.46971,2.46971,0,0,1,1.07957.81867,2.86289,2.86289,0,0,1,.5006,1.17486,9.87526,9.87526,0,0,1,.08268,1.57975v5.84H344.2289v-5.7862a4.232,4.232,0,0,0-.19016-1.46836,1.40408,1.40408,0,0,0-.66621-.76912,2.26225,2.26225,0,0,0-1.11641-.302,2.63981,2.63981,0,0,0-1.79109.662,3.25119,3.25119,0,0,0-.73609,2.48948v5.17421Z" style="opacity:0.8"/><path d="M350.95788,114.70066l-3.62708-9.51661h1.70808l2.04733,5.7159c.21524.62427.41759,1.25321.6247,1.92323.13214-.50485.335-1.12531.59124-1.83641l2.11763-5.80272h1.64633l-3.59032,9.51661Z" style="opacity:0.8"/><path d="M364.00722,111.65679l1.6669.20244a3.96828,3.96828,0,0,1-1.46031,2.26248,4.30446,4.30446,0,0,1-2.70887.80639,4.44983,4.44983,0,0,1-3.33357-1.27354,5.14514,5.14514,0,0,1-1.21213-3.61522,5.2701,5.2701,0,0,1,1.23669-3.72617,4.16878,4.16878,0,0,1,3.20567-1.32776,3.94049,3.94049,0,0,1,3.09343,1.2943,5.02115,5.02115,0,0,1,1.22441,3.66476c0,.09487,0,.22744-.00847.4176h-7.08474a3.70288,3.70288,0,0,0,.88094,2.4196,2.71268,2.71268,0,0,0,1.99777.83138,2.54273,2.54273,0,0,0,1.51791-.47562A3.20913,3.20913,0,0,0,364.00722,111.65679Zm-5.28188-2.62247h5.30678a3.38737,3.38737,0,0,0-.60395-1.80295,2.44583,2.44583,0,0,0-2.002-.9182,2.54918,2.54918,0,0,0-1.87749.74413A2.86776,2.86776,0,0,0,358.72534,109.03432Z" style="opacity:0.8"/><path d="M367.06371,111.86347l1.59246-.24819a2.31543,2.31543,0,0,0,.74413,1.4726,2.56426,2.56426,0,0,0,1.72884.52517,2.46783,2.46783,0,0,0,1.634-.46334,1.34587,1.34587,0,0,0,.54169-1.063.99862.99862,0,0,0-.47129-.85171,6.15672,6.15672,0,0,0-1.65439-.54593,18.03271,18.03271,0,0,1-2.46111-.77759,2.32752,2.32752,0,0,1-1.03382-.91439,2.36634,2.36634,0,0,1-.35576-1.27778,2.29421,2.29421,0,0,1,.302-1.17062,2.425,2.425,0,0,1,.79792-.90169,3.46255,3.46255,0,0,1,.997-.47562,5.103,5.103,0,0,1,1.41881-.18593,5.31771,5.31771,0,0,1,1.952.32273,2.61291,2.61291,0,0,1,1.25321.87246,3.09362,3.09362,0,0,1,.54179,1.46413l-1.55105.21939a1.65724,1.65724,0,0,0-.637-1.14183,2.21193,2.21193,0,0,0-1.44761-.40912,2.66553,2.66553,0,0,0-1.59246.36381,1.04866,1.04866,0,0,0-.47943.85594.907.907,0,0,0,.21092.57091,1.31033,1.31033,0,0,0,.62427.4176,11.1808,11.1808,0,0,0,1.41035.418,16.96065,16.96065,0,0,1,2.38656.76107,2.43226,2.43226,0,0,1,1.07543.8352,2.36062,2.36062,0,0,1,.36,1.3773,2.87448,2.87448,0,0,1-.46343,1.5302,3.05278,3.05278,0,0,1-1.36078,1.09227,4.8781,4.8781,0,0,1-1.99777.39261,4.39,4.39,0,0,1-2.82873-.7776A3.49819,3.49819,0,0,1,367.06371,111.86347Z" style="opacity:0.8"/><path d="M380.41461,113.27381l.21082,1.42262a6.43637,6.43637,0,0,1-1.19519.15755,3.05345,3.05345,0,0,1-1.37731-.28546,1.66281,1.66281,0,0,1-.6823-.74455,5.87276,5.87276,0,0,1-.18635-1.89824v-5.48042h-1.19095v-1.26126h1.19095V102.8428l1.60474-.98427v3.32552h1.62559v1.26126H378.789v5.57529a3.10668,3.10668,0,0,0,.07454.88516.71262.71262,0,0,0,.28546.31,1.17289,1.17289,0,0,0,.54592.10758A4.6002,4.6002,0,0,0,380.41461,113.27381Z" style="opacity:0.8"/><path d="M381.99045,103.426v-1.85292h1.60907V103.426Zm0,11.27467v-9.51661h1.60907v9.51661Z" style="opacity:0.8"/><path d="M386.05206,114.70066v-9.51661h1.46413v1.34384a3.26911,3.26911,0,0,1,2.8787-1.54248,3.23426,3.23426,0,0,1,1.73688.42184,2.48433,2.48433,0,0,1,.95971,1.24093,3.39379,3.39379,0,0,1,2.93631-1.66277,2.83045,2.83045,0,0,1,2.16337.78141,3.29819,3.29819,0,0,1,.78564,2.41155v6.52229h-1.62117V108.712a4.5402,4.5402,0,0,0-.153-1.38578,1.3434,1.3434,0,0,0-.56245-.68653,1.71442,1.71442,0,0,0-.96775-.26471,2.22768,2.22768,0,0,0-1.66267.67,2.89393,2.89393,0,0,0-.66206,2.14261v5.513h-1.63345v-6.17923a2.8234,2.8234,0,0,0-.38084-1.61279,1.566,1.566,0,0,0-1.30277-.53364,2.46545,2.46545,0,0,0-1.26126.36381,2.06214,2.06214,0,0,0-.83138,1.04653,5.9409,5.9409,0,0,0-.2647,1.9893v4.926Z" style="opacity:0.8"/><path d="M407.86914,111.65679l1.66709.20244a3.9593,3.9593,0,0,1-1.46846,2.26248,4.919,4.919,0,0,1-6.00135-.46715,4.99866,4.99866,0,0,1-1.25322-3.61522,5.22086,5.22086,0,0,1,1.25322-3.72617,4.47861,4.47861,0,0,1,6.33213-.03346,5.21842,5.21842,0,0,1,1.20789,3.66476c0,.09487,0,.22744-.01228.4176h-7.1181a3.96668,3.96668,0,0,0,.89312,2.4196,2.67529,2.67529,0,0,0,1.98972.83138,2.4982,2.4982,0,0,0,1.51792-.47562A2.986,2.986,0,0,0,407.86914,111.65679Zm-5.30635-2.62247h5.33557a3.38186,3.38186,0,0,0-.62046-1.80295,2.46218,2.46218,0,0,0-2.002-.9182,2.58855,2.58855,0,0,0-1.85673.74413A2.98585,2.98585,0,0,0,402.56279,109.03432Z" style="opacity:0.8"/><path d="M411.56271,114.70066v-9.51661h1.46836v1.37688a3.39917,3.39917,0,0,1,3.04016-1.57552,3.90157,3.90157,0,0,1,1.55509.302,2.4612,2.4612,0,0,1,1.08348.81867,3.3884,3.3884,0,0,1,.50856,1.17486,9.78023,9.78023,0,0,1,.09953,1.57975v5.84h-1.62973v-5.7862a4.20561,4.20561,0,0,0-.1944-1.46836,1.50127,1.50127,0,0,0-.66155-.76912,2.16932,2.16932,0,0,0-1.12521-.302,2.63118,2.63118,0,0,0-1.77.662,3.19859,3.19859,0,0,0-.753,2.48948v5.17421Z" style="opacity:0.8"/><path d="M425.29426,113.27381l.23971,1.42262a6.92052,6.92052,0,0,1-1.2117.15755,2.93458,2.93458,0,0,1-1.365-.28546,1.53363,1.53363,0,0,1-.6823-.74455,5.80418,5.80418,0,0,1-.20658-1.89824v-5.48042h-1.16225v-1.26126h1.16225V102.8428l1.61692-.98427v3.32552h1.609v1.26126h-1.609v5.57529a2.14,2.14,0,0,0,.0953.88516.57081.57081,0,0,0,.24818.31,1.28379,1.28379,0,0,0,.5832.10758A4.12478,4.12478,0,0,0,425.29426,113.27381Z" style="opacity:0.8"/><path d="M426.28277,109.94871a4.98144,4.98144,0,0,1,1.45989-3.921,4.49269,4.49269,0,0,1,2.99475-1.0423,4.23878,4.23878,0,0,1,3.20948,1.29049,4.845,4.845,0,0,1,1.249,3.54025,6.033,6.033,0,0,1-.56667,2.88675,3.80717,3.80717,0,0,1-1.59246,1.65047,4.73178,4.73178,0,0,1-2.29932.57473,4.254,4.254,0,0,1-3.218-1.27354A5.15316,5.15316,0,0,1,426.28277,109.94871Zm1.66276,0a4.03766,4.03766,0,0,0,.79411,2.75037,2.64916,2.64916,0,0,0,4.00359,0,4.27239,4.27239,0,0,0,.79844-2.79188,3.9962,3.9962,0,0,0-.79844-2.67583,2.66052,2.66052,0,0,0-4.00359-.00424A3.9063,3.9063,0,0,0,427.94553,109.94871Z" style="opacity:0.8"/><path d="M10,9V122.94375H182.66887V9ZM133.32394,42.2507l1.50184-3.0433,1.50184,3.0433,3.35873.488-2.43041,2.36893.57376,3.34511-3.00392-1.57936-3.00393,1.57936.57377-3.34511-2.43041-2.36893ZM50.1995,70.35139l.57376-3.34511-2.4304-2.36893,3.35873-.488,1.50184-3.0433,1.50184,3.0433,3.35872.488-2.4304,2.36893.57376,3.34511L53.20343,68.772ZM62.17972,91.25468l-3.00393-1.57936-3.00392,1.57936.57376-3.34512-2.4304-2.36892,3.35872-.488,1.50184-3.04329,1.50184,3.04329,3.35873.488L61.606,87.90956ZM61.606,45.1076l.57376,3.34511-3.00393-1.57936-3.00392,1.57936.57376-3.34511-2.4304-2.36893,3.35872-.488,1.50184-3.0433,1.50184,3.0433,3.35873.488ZM78.106,107.181l-3.00392-1.57936L72.09818,107.181l.57376-3.34512-2.4304-2.36892,3.35873-.488,1.50184-3.04329L76.604,100.979l3.35872.488-2.4304,2.36892Zm-.57376-77.99971L78.106,32.5264,75.10211,30.947,72.09818,32.5264l.57376-3.34512-2.4304-2.36892,3.35873-.488,1.50184-3.04329L76.604,26.32438l3.35872.488Zm21.47705,84.96747-3.00393-1.57936-3.00392,1.57936.57376-3.34512-2.43041-2.36892,3.35873-.488,1.50184-3.0433,1.50184,3.0433,3.35873.488-2.43041,2.36892ZM99.431,23.20892l.57376,3.34512-3.00392-1.57937L93.99686,26.554l.57376-3.34512L92.14022,20.84l3.35873-.488,1.50184-3.04329L98.50263,20.352l3.35872.488Zm16.97128,4.11086,1.50184-3.04329,1.50184,3.04329,3.35873.488-2.43041,2.36892.57376,3.34512-3.00392-1.57937-3.00392,1.57937.57376-3.34512-2.43041-2.36892Zm5.50116,79.86121-3.00392-1.57936-3.00393,1.57936.57376-3.34512-2.4304-2.36892,3.35872-.488,1.50185-3.04329,1.50184,3.04329,3.35872.488-2.4304,2.36892ZM137.8297,91.25468l-3.00392-1.57936-3.00393,1.57936.57377-3.34512-2.43041-2.36892,3.35873-.488,1.50184-3.04329,1.50184,3.04329,3.35873.488-2.43041,2.36892Zm4.977-21.89868-3.00392-1.57936L136.79883,69.356l.57376-3.34512L134.94218,63.642l3.35873-.488,1.50184-3.04329,1.50184,3.04329,3.35873.488-2.43041,2.36892Z"/></svg>