<svg xmlns="http://www.w3.org/2000/svg" style="fill:8d8d8e" viewBox="0 0 841.89 247.376"><path d="M248.916,193.61677h7.12939a5.37907,5.37907,0,0,1,3.7085,1.19141,4.19454,4.19454,0,0,1,1.33642,3.29883,4.84288,4.84288,0,0,1-1.33642,3.626,5.07487,5.07487,0,0,1-3.7085,1.3086q-3.11646-.01172-4.92334.02148v6.85254H248.916Zm2.20605,7.53907H255.502a3.66252,3.66252,0,0,0,2.51709-.72559,2.93864,2.93864,0,0,0,.79834-2.27832,2.42094,2.42094,0,0,0-.79834-2.0127,4.0257,4.0257,0,0,0-2.51709-.63769h-4.37988Z" style="fill:#8d8d8e"/><path d="M264.106,193.61677h7.584a6.03477,6.03477,0,0,1,3.94727,1.125,4.048,4.048,0,0,1,1.353,3.29883,4.17838,4.17838,0,0,1-1.4082,3.34863,5.09157,5.09157,0,0,1-.76514.53223l.36573.17774a3.15086,3.15086,0,0,1,1.5415,2.87109l.08837,2.97168a2.62778,2.62778,0,0,0,.18849,1.05371,1.35843,1.35843,0,0,0,.64355.55371v.35547h-2.71289a4.68216,4.68216,0,0,1-.17725-1.043q-.08862-.84228-.1333-1.873l-.04931-1.28613a2.982,2.982,0,0,0-.74268-2.168,3.29722,3.29722,0,0,0-2.2832-.64844h-5.23341v7.0293H264.106Zm2.20653,7.36231h5.45509a3.17508,3.17508,0,0,0,2.23974-.6709,2.80349,2.80349,0,0,0,.71-2.12305,2.60065,2.60065,0,0,0-.74854-2.0625,3.54275,3.54275,0,0,0-2.36719-.65429h-5.28907Z" style="fill:#8d8d8e"/><path d="M280.46045,209.9156V193.61677h11.91894V195.568H282.6665v4.97851h8.87061v1.95117H282.6665v5.4668h9.835v1.95117Z" style="fill:#8d8d8e"/><path d="M305.314,198.34041a3.25609,3.25609,0,0,0-1.21435-2.37891,4.54678,4.54678,0,0,0-2.87695-.83691,4.67841,4.67841,0,0,0-2.82715.7207,2.46594,2.46594,0,0,0-.96436,2.10644,1.62375,1.62375,0,0,0,.64307,1.40821,8.08891,8.08891,0,0,0,2.58349.9209l2.83887.67578a6.35132,6.35132,0,0,1,3.26026,1.60742,4.72722,4.72722,0,0,1-.70118,6.49805,7.27218,7.27218,0,0,1-4.55322,1.29687,7.57358,7.57358,0,0,1-4.99121-1.49707,4.99228,4.99228,0,0,1-1.75244-4.03516v-.12207h2.02881a3.42025,3.42025,0,0,0,1.28711,2.73829,5.433,5.433,0,0,0,3.42871.96484,5.6102,5.6102,0,0,0,3.08447-.69824,2.305,2.305,0,0,0,1.0542-2.05176,2.11344,2.11344,0,0,0-.69336-1.74024,7.73057,7.73057,0,0,0-2.7749-1.05371l-2.84229-.67675a6.50627,6.50627,0,0,1-3.0747-1.419,3.38372,3.38372,0,0,1-.91651-2.5166,4.64161,4.64161,0,0,1,1.59033-3.709,6.3575,6.3575,0,0,1,4.29444-1.36914,6.56636,6.56636,0,0,1,4.37793,1.375,5.01593,5.01593,0,0,1,1.73974,3.792Z" style="fill:#8d8d8e"/><path d="M310.86328,193.61677h2.20606V209.9156h-2.20606Z" style="fill:#8d8d8e"/><path d="M316.9502,193.61677h6.69726a6.08589,6.08589,0,0,1,4.93945,2.21192,9.0254,9.0254,0,0,1,1.835,5.94824,8.84573,8.84573,0,0,1-1.8794,5.93262,6.32026,6.32026,0,0,1-5.07227,2.20605h-6.52Zm2.20654,14.41407h4.03613a4.405,4.405,0,0,0,3.66455-1.62989,7.28878,7.28878,0,0,0,1.29151-4.624,7.5429,7.5429,0,0,0-1.2417-4.63965,4.1655,4.1655,0,0,0-3.52588-1.63574h-4.22461Z" style="fill:#8d8d8e"/><path d="M333.46,209.9156V193.61677h11.91895V195.568H335.666v4.97851h8.8706v1.95117H335.666v5.4668h9.835v1.95117Zm7.26221-21.08887,2.251,3.19336h-1.80761l-1.49658-2.1289-1.49707,2.1289h-1.80713l2.251-3.19336h2.10645Z" style="fill:#8d8d8e"/><path d="M350.5127,209.9156h-2.12891V193.61677h2.65039l8.16016,13.24512V193.61677h2.1289V209.9156h-2.417l-8.39355-13.29687Z" style="fill:#8d8d8e"/><path d="M378.52051,203.91755a7.53818,7.53818,0,0,1-2.31153,4.72852,6.85752,6.85752,0,0,1-4.78466,1.71289,6.73337,6.73337,0,0,1-5.37207-2.32226,9.26648,9.26648,0,0,1-2.001-6.25977,9.07975,9.07975,0,0,1,2.07861-6.26953,7.10243,7.10243,0,0,1,5.583-2.334,7.03142,7.03142,0,0,1,4.53467,1.419,5.85506,5.85506,0,0,1,2.1289,3.91406h-2.1289a3.88473,3.88473,0,0,0-1.50244-2.5,5.0207,5.0207,0,0,0-3.06543-.88183,4.75308,4.75308,0,0,0-3.90283,1.80175,7.50746,7.50746,0,0,0-1.45264,4.85059,7.79445,7.79445,0,0,0,1.34717,4.93457,4.6953,4.6953,0,0,0,3.90869,1.69629,4.43151,4.43151,0,0,0,3.14844-1.16992,5.90268,5.90268,0,0,0,1.66308-3.32032Z" style="fill:#8d8d8e"/><path d="M381.51416,193.61677h2.20605V209.9156h-2.20605Z" style="fill:#8d8d8e"/><path d="M392.23584,193.61677h2.51709l5.85449,16.29883h-2.36816l-1.66114-4.72363h-6.5083l-1.71191,4.72363h-2.27539Zm-1.46484,9.624h5.12988l-2.51367-7.2295h.00634Z" style="fill:#8d8d8e"/><path d="M409.05566,193.61677h6.69727a6.08589,6.08589,0,0,1,4.93945,2.21192,9.0254,9.0254,0,0,1,1.835,5.94824,8.84573,8.84573,0,0,1-1.87939,5.93262,6.32026,6.32026,0,0,1-5.07227,2.20605h-6.52Zm2.20655,14.41407h4.03613a4.405,4.405,0,0,0,3.66455-1.62989,7.28878,7.28878,0,0,0,1.2915-4.624,7.5429,7.5429,0,0,0-1.24169-4.63965,4.1655,4.1655,0,0,0-3.52588-1.63574h-4.22461Z" style="fill:#8d8d8e"/><path d="M426.69629,207.99177a9.91816,9.91816,0,0,1,0-12.44629,8.15989,8.15989,0,0,1,11.50391,0,9.93884,9.93884,0,0,1,0,12.44629,8.17183,8.17183,0,0,1-11.50391,0Zm9.85742-1.41406a8.1778,8.1778,0,0,0,0-9.61816,5.51565,5.51565,0,0,0-8.21582,0,8.1778,8.1778,0,0,0,0,9.61816,5.52547,5.52547,0,0,0,8.21582,0Z" style="fill:#8d8d8e"/><path d="M463.05371,203.91755a7.53911,7.53911,0,0,1-2.3125,4.72852A6.85379,6.85379,0,0,1,455.957,210.359a6.73271,6.73271,0,0,1-5.37207-2.32226,9.26653,9.26653,0,0,1-2.001-6.25977,9.07525,9.07525,0,0,1,2.07911-6.26953,7.89126,7.89126,0,0,1,10.11718-.915,5.85314,5.85314,0,0,1,2.12891,3.91406h-2.12891a3.88611,3.88611,0,0,0-1.50195-2.5,5.02274,5.02274,0,0,0-3.06641-.88183,4.75278,4.75278,0,0,0-3.90234,1.80175,7.50457,7.50457,0,0,0-1.45215,4.85059,7.79146,7.79146,0,0,0,1.34668,4.93457,4.69559,4.69559,0,0,0,3.9082,1.69629,4.43389,4.43389,0,0,0,3.14942-1.16992,5.90561,5.90561,0,0,0,1.66308-3.32032Z" style="fill:#8d8d8e"/><path d="M467.06641,207.99177a9.91812,9.91812,0,0,1,0-12.44629,8.15988,8.15988,0,0,1,11.5039,0,9.9388,9.9388,0,0,1,0,12.44629,8.17181,8.17181,0,0,1-11.5039,0Zm9.85742-1.41406a8.17785,8.17785,0,0,0,0-9.61816,5.51565,5.51565,0,0,0-8.21582,0,8.1778,8.1778,0,0,0,0,9.61816,5.52547,5.52547,0,0,0,8.21582,0Z" style="fill:#8d8d8e"/><path d="M485.50586,209.9156H483.377V193.61677h2.65039l8.16015,13.24512V193.61677h2.12892V209.9156h-2.417l-8.39355-13.29687Z" style="fill:#8d8d8e"/><path d="M509.70508,198.34041a3.259,3.259,0,0,0-1.21387-2.37891,4.55057,4.55057,0,0,0-2.877-.83691,4.6817,4.6817,0,0,0-2.82813.7207,2.46684,2.46684,0,0,0-.96386,2.10644,1.62341,1.62341,0,0,0,.64257,1.40821,8.093,8.093,0,0,0,2.584.9209l2.83887.67578a6.34944,6.34944,0,0,1,3.25976,1.60742,4.72828,4.72828,0,0,1-.70019,6.49805,7.27566,7.27566,0,0,1-4.55372,1.29687,7.5736,7.5736,0,0,1-4.99121-1.49707,4.99414,4.99414,0,0,1-1.75293-4.03516v-.12207h2.0293a3.42025,3.42025,0,0,0,1.28711,2.73829,5.432,5.432,0,0,0,3.42871.96484,5.61312,5.61312,0,0,0,3.085-.69824,2.30567,2.30567,0,0,0,1.05371-2.05176,2.11488,2.11488,0,0,0-.69336-1.74024,7.73007,7.73007,0,0,0-2.77539-1.05371l-2.84179-.67675a6.50842,6.50842,0,0,1-3.0752-1.419,3.38733,3.38733,0,0,1-.916-2.5166,4.64426,4.64426,0,0,1,1.58984-3.709,6.35971,6.35971,0,0,1,4.29492-1.36914,6.56547,6.56547,0,0,1,4.37793,1.375,5.018,5.018,0,0,1,1.74024,3.792Z" style="fill:#8d8d8e"/><path d="M515.14258,209.9156V193.61677h11.91991V195.568h-9.71288v4.97851h8.87012v1.95117h-8.87012v5.4668h9.835v1.95117Z" style="fill:#8d8d8e"/><path d="M530.06738,209.9156V193.61677h2.207v14.34766h8.25977v1.95117Z" style="fill:#8d8d8e"/><path d="M542.71875,193.61677h2.20605v6.68555h8.50489v-6.68555h2.20605V209.9156h-2.20605v-7.66211H544.9248v7.66211h-2.20605Z" style="fill:#8d8d8e"/><path d="M560.44727,207.99177a9.91812,9.91812,0,0,1,0-12.44629,8.15988,8.15988,0,0,1,11.5039,0,9.93884,9.93884,0,0,1,0,12.44629,8.17181,8.17181,0,0,1-11.5039,0Zm9.85742-1.41406a8.17785,8.17785,0,0,0,0-9.61816,5.51565,5.51565,0,0,0-8.21582,0,8.1778,8.1778,0,0,0,0,9.61816,5.52547,5.52547,0,0,0,8.21582,0Z" style="fill:#8d8d8e"/><path d="M583.17773,193.61677H589.874a6.08717,6.08717,0,0,1,4.94043,2.21192,9.03076,9.03076,0,0,1,1.835,5.94824,8.84591,8.84591,0,0,1-1.87988,5.93262,6.31958,6.31958,0,0,1-5.07226,2.20605h-6.51954Zm2.20606,14.41407h4.03613A4.40217,4.40217,0,0,0,593.084,206.401a7.28579,7.28579,0,0,0,1.292-4.624,7.54618,7.54618,0,0,0-1.24121-4.63965,4.16642,4.16642,0,0,0-3.52637-1.63574h-4.22461Z" style="fill:#8d8d8e"/><path d="M599.68652,209.9156V193.61677h11.91993V195.568h-9.7129v4.97851h8.87012v1.95117h-8.87012v5.4668h9.835v1.95117Z" style="fill:#8d8d8e"/><path d="M622.99316,209.9156h-2.13964V193.61677h3.17089l4.66211,13.8711h-.001l4.61914-13.8711h3.17187V209.9156h-2.14062v-13.793h-.00782l-4.59277,13.793h-2.1289l-4.6084-13.749h-.00489Z" style="fill:#8d8d8e"/><path d="M640.169,193.61677H642.375V209.9156H640.169Z" style="fill:#8d8d8e"/><path d="M648.27344,209.9156h-2.12891V193.61677h2.65039l8.16016,13.24512V193.61677h2.1289V209.9156h-2.417l-8.39355-13.29687Z" style="fill:#8d8d8e"/><path d="M662.876,193.61677H665.082V209.9156H662.876Z" style="fill:#8d8d8e"/><path d="M678.78223,198.34041a3.259,3.259,0,0,0-1.21387-2.37891,4.55057,4.55057,0,0,0-2.87695-.83691,4.6817,4.6817,0,0,0-2.82813.7207,2.46685,2.46685,0,0,0-.96387,2.10644,1.62342,1.62342,0,0,0,.64258,1.40821,8.093,8.093,0,0,0,2.584.9209l2.83886.67578a6.34948,6.34948,0,0,1,3.25977,1.60742,4.72827,4.72827,0,0,1-.7002,6.49805,7.27561,7.27561,0,0,1-4.55371,1.29687,7.57358,7.57358,0,0,1-4.99121-1.49707,4.99411,4.99411,0,0,1-1.75293-4.03516v-.12207h2.0293A3.42025,3.42025,0,0,0,671.543,207.443a5.432,5.432,0,0,0,3.42871.96484,5.61312,5.61312,0,0,0,3.085-.69824,2.30567,2.30567,0,0,0,1.05371-2.05176,2.11488,2.11488,0,0,0-.69336-1.74024,7.73007,7.73007,0,0,0-2.77539-1.05371l-2.8418-.67675a6.50842,6.50842,0,0,1-3.07519-1.419,3.38734,3.38734,0,0,1-.916-2.5166,4.64427,4.64427,0,0,1,1.58985-3.709,6.35968,6.35968,0,0,1,4.29492-1.36914,6.56547,6.56547,0,0,1,4.37793,1.375,5.018,5.018,0,0,1,1.74023,3.792Z" style="fill:#8d8d8e"/><path d="M688.10059,195.568h-5.51075v-1.95118h13.22754V195.568h-5.50976V209.9156h-2.207Z" style="fill:#8d8d8e"/><path d="M698.13574,193.61677h7.584a6.03654,6.03654,0,0,1,3.94726,1.125,4.04914,4.04914,0,0,1,1.35254,3.29883,4.17841,4.17841,0,0,1-1.4082,3.34863,5.11207,5.11207,0,0,1-.76465.53223l.36523.17774a3.15144,3.15144,0,0,1,1.541,2.87109l.08887,2.97168a2.62767,2.62767,0,0,0,.18847,1.05371,1.35851,1.35851,0,0,0,.64356.55371v.35547h-2.71289a4.732,4.732,0,0,1-.17774-1.043q-.08789-.84228-.13281-1.873l-.0498-1.28613a2.97776,2.97776,0,0,0-.74219-2.168,3.29806,3.29806,0,0,0-2.2832-.64844h-5.2334v7.0293h-2.20606Zm2.20606,7.36231h5.45508a3.17727,3.17727,0,0,0,2.24023-.6709,2.8052,2.8052,0,0,0,.709-2.12305,2.60048,2.60048,0,0,0-.748-2.0625,3.54277,3.54277,0,0,0-2.36719-.65429H700.3418Z" style="fill:#8d8d8e"/><path d="M715.62012,207.99177a9.91812,9.91812,0,0,1,0-12.44629,8.15988,8.15988,0,0,1,11.5039,0,9.9388,9.9388,0,0,1,0,12.44629,8.17181,8.17181,0,0,1-11.5039,0Zm9.85742-1.41406a8.1778,8.1778,0,0,0,0-9.61816,5.51565,5.51565,0,0,0-8.21582,0,8.1778,8.1778,0,0,0,0,9.61816,5.52547,5.52547,0,0,0,8.21582,0Z" style="fill:#8d8d8e"/><path d="M741.86035,198.34041a3.259,3.259,0,0,0-1.21387-2.37891,4.55055,4.55055,0,0,0-2.87695-.83691,4.68165,4.68165,0,0,0-2.82812.7207,2.46685,2.46685,0,0,0-.96387,2.10644,1.62342,1.62342,0,0,0,.64258,1.40821,8.093,8.093,0,0,0,2.584.9209l2.83887.67578a6.34944,6.34944,0,0,1,3.25976,1.60742,4.72825,4.72825,0,0,1-.70019,6.49805,7.27561,7.27561,0,0,1-4.55371,1.29687,7.57358,7.57358,0,0,1-4.99121-1.49707,4.99411,4.99411,0,0,1-1.75293-4.03516v-.12207H733.334a3.42025,3.42025,0,0,0,1.28711,2.73829,5.432,5.432,0,0,0,3.42871.96484,5.61318,5.61318,0,0,0,3.085-.69824,2.3057,2.3057,0,0,0,1.05371-2.05176,2.11491,2.11491,0,0,0-.69336-1.74024,7.73015,7.73015,0,0,0-2.77539-1.05371l-2.8418-.67675a6.50842,6.50842,0,0,1-3.0752-1.419,3.38733,3.38733,0,0,1-.916-2.5166,4.64426,4.64426,0,0,1,1.58984-3.709,6.35971,6.35971,0,0,1,4.29492-1.36914,6.56543,6.56543,0,0,1,4.37793,1.375,5.018,5.018,0,0,1,1.74024,3.792Z" style="fill:#8d8d8e"/><path d="M504.01172,91.87117h-3.27246l-2.707-6.918H488.169l-2.668,6.918h-3.23633l9.34961-23.9043h3.04785Zm-7.06641-9.79444-3.84375-9.73144-3.80664,9.73144Z" style="fill:#8d8d8e"/><path d="M523.874,78.78914v13.082H521.169V89.337a7.00718,7.00718,0,0,1-5.71973,2.84228,8.54947,8.54947,0,0,1-7.60254-4.10937q-1.91895-2.91065-1.918-8.15088,0-5.23974,1.918-8.15039a8.67017,8.67017,0,0,1,7.73926-4.10986,8.43219,8.43219,0,0,1,4.09277.94189,14.25633,14.25633,0,0,1,3.78418,3.373L521.169,73.8575a11.278,11.278,0,0,0-2.791-2.58545,5.70286,5.70286,0,0,0-2.792-.63379,5.8204,5.8204,0,0,0-5.20508,2.73974q-1.43847,2.19214-1.43848,6.541,0,4.34985,1.43848,6.541a5.69734,5.69734,0,0,0,5.06836,2.73974,4.72224,4.72224,0,0,0,4.17871-2.46582,10.14876,10.14876,0,0,0,1.23242-5h-5.9248V78.78914Z" style="fill:#8d8d8e"/><path d="M544.21582,91.87117H528.668V67.96687h15.54785v2.94531H531.61328v7.05469h11.02734v2.94531H531.61328v8.01368h12.60254Zm-2.25977-26.541h-3.56152l-2.1582-3.52734-2.15723,3.52734h-3.56152l3.97265-5h3.49317Z" style="fill:#8d8d8e"/><path d="M565.27734,91.87117h-2.84277l-10.9248-17.90869V91.87117h-3.01368V67.96687h2.84668L562.332,85.91511V67.96687h2.94531Z" style="fill:#8d8d8e"/><path d="M586.9209,71.97371l-2.32813,1.88379a11.27846,11.27846,0,0,0-2.792-2.58545,5.622,5.622,0,0,0-2.75683-.63379,5.8204,5.8204,0,0,0-5.20508,2.73974q-1.43849,2.19214-1.43848,6.541,0,4.34985,1.43848,6.541a5.81838,5.81838,0,0,0,5.20508,2.73974,5.5038,5.5038,0,0,0,2.75683-.65039,11.83292,11.83292,0,0,0,2.792-2.56885l2.29395,1.88379a13.85092,13.85092,0,0,1-3.75,3.37305,8.4267,8.4267,0,0,1-4.09277.94189,8.66868,8.66868,0,0,1-7.73926-4.10937q-1.919-2.91065-1.918-8.15088,0-5.23974,1.918-8.15039a8.66907,8.66907,0,0,1,7.73926-4.10986,8.43219,8.43219,0,0,1,4.09277.94189A14.2713,14.2713,0,0,1,586.9209,71.97371Z" style="fill:#8d8d8e"/><path d="M594.31836,91.87117h-3.11719V67.96687h3.11719Z" style="fill:#8d8d8e"/><path d="M619.14746,91.87117H615.875l-2.707-6.918h-9.86328l-2.668,6.918h-3.23633L606.75,67.96687h3.04785Zm-7.06641-9.79444-3.84375-9.73144-3.80664,9.73144Z" style="fill:#8d8d8e"/><path d="M648.73535,74.7823a6.21968,6.21968,0,0,1-2.876,5.71875,10.0937,10.0937,0,0,1-5.24024,1.13037h-5.959V91.87117h-3.01368V67.96687h8.97266a10.0937,10.0937,0,0,1,5.24024,1.13037A6.18843,6.18843,0,0,1,648.73535,74.7823Zm-3.01367,0a3.46261,3.46261,0,0,0-1.47266-3.18506,7.165,7.165,0,0,0-3.62988-.68506h-5.959v7.77393h5.959a6.8756,6.8756,0,0,0,3.62988-.71924A3.4127,3.4127,0,0,0,645.72168,74.7823Z" style="fill:#8d8d8e"/><path d="M668.80469,91.87117h-3.27246l-2.707-6.918h-9.86329l-2.668,6.918h-3.23633l9.34961-23.9043h3.04785Zm-7.06641-9.79444-3.84375-9.73144-3.80664,9.73144Z" style="fill:#8d8d8e"/><path d="M689.28418,91.87117H685.79l-5.13672-8.39063a9.29679,9.29679,0,0,0-1.12988-1.60937,2.494,2.494,0,0,0-1.78125-.71924h-3.01367V91.87117h-3.01368V67.96687h8.39063a9.63227,9.63227,0,0,1,5.03418,1.09668,6.06551,6.06551,0,0,1,2.80859,5.5166,5.94118,5.94118,0,0,1-2.80859,5.48291,7.38754,7.38754,0,0,1-2.53418.9253q.26806.37719.60254.95947Zm-4.34961-17.29444a3.24141,3.24141,0,0,0-1.4043-3.01367,6.79166,6.79166,0,0,0-3.459-.65088h-5.34277v7.29444h5.37695a6.70459,6.70459,0,0,0,3.4248-.65039A3.20614,3.20614,0,0,0,684.93457,74.57673Z" style="fill:#8d8d8e"/><path d="M712.05762,91.87117h-3.27246l-2.707-6.918h-9.86328l-2.668,6.918h-3.23633l9.34961-23.9043H702.708Zm-7.06641-9.79444-3.84375-9.73144-3.80664,9.73144Z" style="fill:#8d8d8e"/><path d="M744.07812,91.87117h-3.27246l-2.707-6.918h-9.86328l-2.668,6.918h-3.23633l9.34961-23.9043h3.04786Zm-7.0664-9.79444L733.168,72.34529l-3.80664,9.73144Z" style="fill:#8d8d8e"/><path d="M504.627,129.10164h-3.01367V113.6905l-5.75293,15.41114h-2.63672l-5.71972-15.30811v15.30811h-3.01368v-23.9043h2.47266l7.5791,19.40771,7.24414-19.40771H504.627Z" style="fill:#8d8d8e"/><path d="M529.45605,117.14949q0,5.23974-1.918,8.15088a9.40788,9.40788,0,0,1-15.54786,0q-1.91894-2.91065-1.918-8.15088,0-5.23976,1.918-8.15039a9.40723,9.40723,0,0,1,15.54786,0Q529.45557,111.90975,529.45605,117.14949Zm-3.01367,0q0-4.3484-1.43847-6.541a6.38038,6.38038,0,0,0-10.4795,0q-1.43847,2.19215-1.43847,6.541,0,4.34985,1.43847,6.541a6.38036,6.38036,0,0,0,10.4795,0Q526.44238,121.49983,526.44238,117.14949Z" style="fill:#8d8d8e"/><path d="M552.332,117.14949a41.1336,41.1336,0,0,1-.27441,5.3081q-.5127,3.9734-3.38965,5.4795a13.85988,13.85988,0,0,1-6.4043,1.16455h-7.36328v-23.9043h7.36328a14.2257,14.2257,0,0,1,6.4043,1.13037q2.877,1.541,3.38965,5.51367A41.13894,41.13894,0,0,1,552.332,117.14949Zm-3.01367,0a39.78233,39.78233,0,0,0-.23926-4.93164q-.34276-2.53346-1.90137-3.30469a11.70674,11.70674,0,0,0-4.91406-.77051h-4.34961v17.97949h4.34961a11.942,11.942,0,0,0,4.91406-.75341q1.55861-.75294,1.90137-3.2876A40.28761,40.28761,0,0,0,549.31836,117.14949Z" style="fill:#8d8d8e"/><path d="M573.668,129.10164H558.12012v-23.9043H573.668v2.94531H561.06543v7.05469h11.02734v2.94531H561.06543v8.01367H573.668Z" style="fill:#8d8d8e"/><path d="M596.85352,129.10164h-3.49414l-5.13672-8.39063a9.29725,9.29725,0,0,0-1.12989-1.60937,2.49393,2.49393,0,0,0-1.78125-.71924h-3.01367v10.71924h-3.01367v-23.9043h8.39062A9.63224,9.63224,0,0,1,592.709,106.294a6.0655,6.0655,0,0,1,2.8086,5.5166,5.9412,5.9412,0,0,1-2.8086,5.48291,7.38718,7.38718,0,0,1-2.53418.92529q.26808.37721.60254.95948Zm-4.34961-17.29444a3.24141,3.24141,0,0,0-1.4043-3.01367,6.7917,6.7917,0,0,0-3.459-.65088h-5.34277v7.29444h5.37695a6.70463,6.70463,0,0,0,3.42481-.65039A3.20615,3.20615,0,0,0,592.50391,111.8072Z" style="fill:#8d8d8e"/><path d="M618.22168,129.10164h-2.84277L604.4541,111.193v17.90869h-3.01367v-23.9043h2.84668l10.98926,17.94824V105.19734h2.94531Z" style="fill:#8d8d8e"/><path d="M627.98242,129.10164h-3.11719v-23.9043h3.11719Z" style="fill:#8d8d8e"/><path d="M650.44824,129.10164H633.63281v-2.33936l12.84278-18.61963H634.832v-2.94531h15.61621v2.5l-12.77344,18.459h12.77344Z" style="fill:#8d8d8e"/><path d="M675.72168,129.10164h-3.27246l-2.707-6.918h-9.86328l-2.668,6.918h-3.23633l9.34961-23.9043h3.04785Zm-7.06641-9.79444-3.84375-9.73144-3.80664,9.73144Z" style="fill:#8d8d8e"/><path d="M696.47461,109.20418l-2.32813,1.88378a11.27858,11.27858,0,0,0-2.792-2.58544,5.622,5.622,0,0,0-2.75683-.63379,5.8204,5.8204,0,0,0-5.20508,2.73974q-1.43848,2.19215-1.43848,6.541,0,4.34985,1.43848,6.541a5.81837,5.81837,0,0,0,5.20508,2.73975,5.5038,5.5038,0,0,0,2.75683-.65039,11.83292,11.83292,0,0,0,2.792-2.56885l2.29395,1.88184q-3.10693,3.69433-6.17969,4.17285l.751,2.1001-2.33594,4.44824h-3.29687l3.082-4.52051-.71875-1.918a8.64607,8.64607,0,0,1-6.88379-4.07519q-1.91895-2.91065-1.918-8.15088,0-5.23976,1.918-8.15039a8.66908,8.66908,0,0,1,7.73926-4.10987,8.4322,8.4322,0,0,1,4.09277.9419A14.2713,14.2713,0,0,1,696.47461,109.20418Z" style="fill:#8d8d8e"/><path d="M721.44141,129.10164H718.169l-2.707-6.918h-9.86328l-2.668,6.918h-3.23632l9.34961-23.9043h3.04785Zm-4.82911-28.15088-.41113.51367a3.70239,3.70239,0,0,1-3.01369,1.67822,5.98377,5.98377,0,0,1-2.26072-.54785q-1.74609-.75293-2.08887-.83887a2.47207,2.47207,0,0,0-.582-.08593,1.42071,1.42071,0,0,0-1.06152.6167c-.06836.11425-.21778.31982-.44532.61621l-1.95214-1.5752q1.7124-2.19141,3.49316-2.19189a7.01312,7.01312,0,0,1,2.97949.89062,4.93264,4.93264,0,0,0,1.88379.582,1.24181,1.24181,0,0,0,.88965-.41113q.30908-.41089.61719-.82178ZM714.375,119.3072l-3.84375-9.73144-3.80664,9.73144Z" style="fill:#8d8d8e"/><path d="M744.00879,117.14949q0,5.23974-1.918,8.15088a9.40787,9.40787,0,0,1-15.54785,0q-1.91895-2.91065-1.918-8.15088,0-5.23976,1.918-8.15039a9.40722,9.40722,0,0,1,15.54785,0Q744.0083,111.90975,744.00879,117.14949Zm-3.01367,0q0-4.3484-1.43848-6.541a6.38037,6.38037,0,0,0-10.47949,0q-1.43849,2.19215-1.43848,6.541,0,4.34985,1.43848,6.541a6.38036,6.38036,0,0,0,10.47949,0Q740.99511,121.49983,740.99512,117.14949Z" style="fill:#8d8d8e"/><path d="M504.01172,166.39509h-3.27246l-2.707-6.918H488.169l-2.668,6.918h-3.23633l9.34961-23.90429h3.04785Zm-7.06641-9.79492-3.84375-9.73144-3.80664,9.73144Z" style="fill:#8d8d8e"/><path d="M524.45605,154.443a41.14545,41.14545,0,0,1-.27441,5.30859q-.5127,3.97266-3.38965,5.47949a13.86051,13.86051,0,0,1-6.40429,1.16406h-7.36329V142.4908h7.36329a14.23329,14.23329,0,0,1,6.40429,1.12988q2.877,1.541,3.38965,5.51367A41.15606,41.15606,0,0,1,524.45605,154.443Zm-3.01367,0a39.788,39.788,0,0,0-.23926-4.93165q-.34276-2.53418-1.90136-3.30468a11.70677,11.70677,0,0,0-4.91406-.77051h-4.34961V163.4156h4.34961a11.95176,11.95176,0,0,0,4.91406-.75293q1.55859-.75293,1.90136-3.28808A40.29328,40.29328,0,0,0,521.44238,154.443Z" style="fill:#8d8d8e"/><path d="M549.14746,166.39509h-3.01367V150.984l-5.75293,15.41113h-2.63672l-5.71973-15.30859v15.30859h-3.01367V142.4908h2.47266l7.57909,19.4082,7.24415-19.4082h2.84082Z" style="fill:#8d8d8e"/><path d="M557.67578,166.39509h-3.11719V142.4908h3.11719Z" style="fill:#8d8d8e"/><path d="M579.86719,166.39509h-2.84278l-10.9248-17.90918v17.90918h-3.01367V142.4908h2.84668L576.92188,160.439V142.4908h2.94531Z" style="fill:#8d8d8e"/><path d="M588.39453,166.39509h-3.11719V142.4908h3.11719Z" style="fill:#8d8d8e"/><path d="M610.85938,159.523a6.75807,6.75807,0,0,1-1.06153,3.625q-2.22656,3.624-7.53418,3.624-8.18555,0-9.48633-7.43164l2.9795-.51368q.54785,3.25342,2.84277,4.28028a8.96139,8.96139,0,0,0,3.66406.68554q3.59619,0,4.96582-2.18847a3.8887,3.8887,0,0,0,.61621-2.08594,3.48377,3.48377,0,0,0-2.29394-3.248,25.93512,25.93512,0,0,0-4.418-1.2998q-4.28173-1.02538-5.68555-2.32422a5.40927,5.40927,0,0,1-1.71191-4.06934,5.72576,5.72576,0,0,1,2.1914-4.54785,8.53031,8.53031,0,0,1,5.65137-1.6748q5.75244,0,8.04785,4.05469.17139.30615.68457,1.32812l-2.73925,1.26074a6.389,6.389,0,0,0-2.26075-2.88379,7.798,7.798,0,0,0-3.73242-.78027,5.78658,5.78658,0,0,0-3.69922.94043,2.89429,2.89429,0,0,0-1.12988,2.30762,2.36045,2.36045,0,0,0,.99316,2.08593,14.16926,14.16926,0,0,0,4.10938,1.43555,28.62784,28.62784,0,0,1,5.03418,1.50488A6.24277,6.24277,0,0,1,610.85938,159.523Z" style="fill:#8d8d8e"/><path d="M630.791,145.43611h-7.29493v20.959h-3.01367v-20.959h-7.29494V142.4908H630.791Z" style="fill:#8d8d8e"/><path d="M651.71582,166.39509h-3.49414l-5.13672-8.39062a9.31763,9.31763,0,0,0-1.12988-1.60938,2.4935,2.4935,0,0,0-1.78125-.71875h-3.01367v10.71875h-3.01368V142.4908h8.39063a9.62749,9.62749,0,0,1,5.03418,1.09668,6.06546,6.06546,0,0,1,2.80859,5.5166,5.94038,5.94038,0,0,1-2.80859,5.48242,7.38782,7.38782,0,0,1-2.53418.92578q.26806.37647.60254.959Zm-4.34961-17.29492a3.24193,3.24193,0,0,0-1.4043-3.01367,6.80287,6.80287,0,0,0-3.459-.65039h-5.34277V152.731h5.37695a6.69259,6.69259,0,0,0,3.4248-.65137A3.20508,3.20508,0,0,0,647.36621,149.10017Z" style="fill:#8d8d8e"/><path d="M674.5918,166.39509h-3.27246l-2.707-6.918H658.749l-2.668,6.918h-3.23632l9.34961-23.90429h3.04785Zm-7.06641-9.79492-3.84375-9.73144-3.80664,9.73144Z" style="fill:#8d8d8e"/><path d="M693.32422,145.43611H686.0293v20.959h-3.01368v-20.959H675.7207V142.4908h17.60352Z" style="fill:#8d8d8e"/><path d="M699.9668,166.39509h-3.11719V142.4908h3.11719Z" style="fill:#8d8d8e"/><path d="M722.05566,142.4908l-7.84277,23.90429h-2.70605L703.665,142.4908h3.17187l6.02344,18.47168,6.02344-18.47168Z" style="fill:#8d8d8e"/><path d="M745.10449,166.39509H741.832l-2.707-6.918h-9.86328l-2.668,6.918h-3.23633L732.707,142.4908h3.04785Zm-7.0664-9.79492-3.84375-9.73144-3.80664,9.73144Z" style="fill:#8d8d8e"/><path d="M172.92919,149.816c0,4.0468,2.03109,5.6322,5.27459,5.6322a29.12447,29.12447,0,0,0,5.30059-.60115v11.50318c-2.69911.78739-5.04113,1.89632-8.65816,1.89632-14.20229,0-16.45146-7.34707-16.94332-14.6119-6.22848,6.77775-15.81433,15.4513-34.4316,15.4513-17.48768,0-29.81457-10.96411-29.81457-27.43095,0-7.88085,2.38872-26.55017,28.93889-29.71093l26.33777-3.30557c3.90169-.57513,8.327-1.80344,8.327-11.353,0-9.94325-7.28027-15.46669-22.286-15.46669-18.22867,0-20.78314,11.10892-21.86607,18.40453H98.37193c.7306-22.6641,15.81924-31.63849,39.27088-31.63849,7.648,0,35.28638,2.16109,35.28638,26.52948V149.816m-15.9283-31.93407c-2.55951,2.00033-6.58042,3.44088-26.38426,5.97444-7.80338,1.11424-20.42042,3.477-20.42042,15.51868,0,10.33217,5.33178,16.52946,17.34258,16.52946,14.86585,0,29.4621-9.75171,29.4621-22.35321Z" style="fill:#8d8d8e"/><rect x="473.4116" y="68.18104" width="0.97947" height="98.73426" style="fill:#8d8d8e"/><path d="M439.03736,150.536V84.50784l-32.80954,16.38935H357.11221V117.2813H340.71752V150.536h16.39469V166.91h98.18507V150.536Zm-65.59307,0V117.2813h32.78353l.04139,33.2547Z" style="fill:#8d8d8e"/><path d="M265.08782,98.52389h2.13987l14.00066-14.016v0L298.05812,68.181H281.187v.01011c-6.62707.88078-12.14573,5.14035-16.12993,11.223l.03078,19.10971" style="fill:#8d8d8e"/><polyline points="406.223 100.897 439.037 84.508 406.243 117.302" style="fill:#8d8d8e"/><polygon points="422.488 84.508 406.228 100.897 406.228 117.281 439.037 84.508 422.488 84.508" style="fill:#8d8d8e"/><polygon points="313.986 84.508 313.986 68.181 313.882 68.181 297.581 84.446 297.581 166.915 307.421 166.915 313.986 166.915 330.21 166.915 330.21 84.508 313.986 84.508" style="fill:#8d8d8e"/><path d="M265.09843,166.35022H248.99928V100.62768c0-8.06761-3.14533-17.66916-14.94883-17.66916-9.08847,0-25.01623,5.793-25.01623,31.6491v51.7426H192.96584V71.34179h15.09952V84.87554h.35709c3.47164-5.20193,11.59126-16.29069,28.75264-16.29069,17.0834,0,22.55006,10.35286,25.23909,15.4826a40.34874,40.34874,0,0,1,2.68425-4.736v87.01881Z" style="fill:#8d8d8e"/><polygon points="297.581 84.508 281.218 84.508 281.218 98.524 265.098 98.524 281.218 83.705 298.053 68.181 302.628 68.181 313.981 68.181 297.581 84.508" style="fill:#8d8d8e"/><rect x="357.0756" y="68.18104" width="49.50984" height="16.35808" style="fill:#8d8d8e"/><polygon points="406.223 84.508 406.223 100.897 422.726 84.508 422.612 84.508 422.612 68.181 416.062 68.181 406.223 68.181 406.223 84.508" style="fill:#8d8d8e"/></svg>