<svg xmlns="http://www.w3.org/2000/svg" viewBox="0 0 841.88976 246.21959" style="fill:#8d8d8e"><title>Artboard 1 cópia</title><path d="M167.369,85.89041c.52758,7.75142-3.543,16.409-13.83306,18.27809-6.01777,1.09229-10.60816,1.90956-14.4226,2.58918-.50969.09087-1.00134.17852-1.48491.26479l-3.47432,14.63618c2.156-.39141,4.47314-.80442,7.191-1.28878,3.82485-.6824,8.42809-1.50227,14.46139-2.59734,15.7106-2.85345,25.89716-16.36584,24.76963-32.86385-.96316-14.0699-10.46757-28.50265-29.47171-34.657L147.90335,63.737C160.48339,68.12792,166.76855,77.11952,167.369,85.89041Z" style="fill:#8d8d8e"/><path d="M92.11409,117.77808c-.93442-7.32581-1.68825-22.84149,1.11156-34.47955,2.77491-11.53808,9.59442-23.22456,39.01648-22.286a58.60326,58.60326,0,0,1,8.7801.92809l3.194-13.45528a71.829,71.829,0,0,0-11.57583-1.27645c-29.62888-.944-46.57107,9.60829-52.25722,32.73175-3.5868,14.58593-2.54484,35.61211-.79054,52.71329A26.54124,26.54124,0,0,1,92.11409,117.77808Z" style="fill:#8d8d8e"/><path d="M173.9818,164.545a9.62786,9.62786,0,0,0-5.39551-1.47268l-42.53272-.14554c-.58182-.002-1.11989-.02725-1.68661-.03732l-3.259,13.72927c2.09494.08982,4.23986.154,6.49475.16177V176.779l40.38276.13817q4.28981.01471,6.23508-1.29147,1.94332-1.30818,1.959-5.87856Q176.19233,166.00273,173.9818,164.545Z" style="fill:#8d8d8e"/><path d="M129.99419,108.3989c-7.33744,1.35014-13.48808,2.60264-28.45683,5.84854a33.92684,33.92684,0,0,0-9.42327,3.53064A26.54124,26.54124,0,0,0,79.59264,132.654a28.54327,28.54327,0,0,0-1.35335,10.82712c.918,14.61275,12.496,30.96513,32.14777,32.48633,1.18793.09173,2.354.17374,3.50843.25081l3.236-13.63224c-1.87589-.11074-3.79057-.23719-5.76435-.38984a21.68463,21.68463,0,0,1-19.91549-19.61859c-.481-7.65968,4.05753-12.919,12.78043-14.81236,10.77939-2.33672,16.93012-3.62741,22.27373-4.67076,2.59318-.50631,4.99864-.95473,7.64832-1.43579l3.47432-14.63618C134.755,107.53485,132.31391,107.97208,129.99419,108.3989Z" style="fill:#8d8d8e"/><path d="M194.84585,211.01055a27.12089,27.12089,0,0,1-2.88548-.17357,8.75175,8.75175,0,0,1-3.1743-.96645,6.81876,6.81876,0,0,1-2.50916-2.31616,7.61951,7.61951,0,0,1-1.0102-4.20324V107.096a9.03978,9.03978,0,0,1,2.28144-6.04034,19.82926,19.82926,0,0,1,5.78276-4.44763,41.63656,41.63656,0,0,1,8.25651-3.19652,86.03112,86.03112,0,0,1,9.77354-2.10925c3.37772-.53044,6.84015-.92619,10.29078-1.17752,3.44577-.25133,6.77906-.37908,9.90754-.37908,6.01256,0,11.03437,1.14835,14.92657,3.41035a23.82479,23.82479,0,0,1,9.15423,9.59372,44.73484,44.73484,0,0,1,4.46776,14.46626,126.2399,126.2399,0,0,1,1.21848,18.2057v.83593a110.65678,110.65678,0,0,1-1.05185,15.69792,35.74263,35.74263,0,0,1-4.27267,12.90688,23.16814,23.16814,0,0,1-9.11535,8.78417c-3.88456,2.1162-9.03967,3.18958-15.32092,3.18958-2.53833,0-5.31133-.04166-8.24263-.125-2.957-.08609-5.92716-.29854-8.8293-.62764a75.65933,75.65933,0,0,1-8.56061-1.46634,35.74768,35.74768,0,0,1-6.43747-2.12731v32.7886a14.31452,14.31452,0,0,1-.22565,2.83549,3.92183,3.92183,0,0,1-.86092,1.88153,2.82488,2.82488,0,0,1-1.626.87619A11.52714,11.52714,0,0,1,194.84585,211.01055Zm31.66732-109.03983a68.662,68.662,0,0,0-10.61086.78455,49.71139,49.71139,0,0,0-8.71543,2.09814,21.66612,21.66612,0,0,0-5.79734,2.89381c-1.25666.95118-1.894,1.91624-1.894,2.8702v47.85611c.09581.922,1.3865,1.71073,2.45223,2.19535a32.79727,32.79727,0,0,0,6.88737,2.07593,97.14745,97.14745,0,0,0,9.61316,1.4108c3.5631.35964,7.18036.56932,10.75041.62347.45823.01806.88938.02778,1.31429.02778h0a24.54707,24.54707,0,0,0,5.87579-.67347,11.08667,11.08667,0,0,0,5.49462-3.28261,17.74277,17.74277,0,0,0,3.74153-7.24562,49.15486,49.15486,0,0,0,1.4726-12.7097v-9.36182a74.72568,74.72568,0,0,0-.86578-12.32922,33.0318,33.0318,0,0,0-2.40086-8.28568,15.62067,15.62067,0,0,0-3.486-5.01556,13.6116,13.6116,0,0,0-4.25809-2.64664,17.25323,17.25323,0,0,0-4.71007-1.07892C229.72427,102.04015,228.08782,101.97072,226.51317,101.97072Z" style="fill:#8d8d8e"/><path d="M307.22661,176.91946a59.80739,59.80739,0,0,1-14.8245-1.61353,33.7438,33.7438,0,0,1-10.57128-4.5851,24.8626,24.8626,0,0,1-6.9929-7.08177,33.10867,33.10867,0,0,1-3.98246-8.90637,54.68335,54.68335,0,0,1-1.8246-10.21719c-.30618-3.56866-.4617-7.27479-.4617-11.01563v-.33465c0-3.74084.15552-7.44558.4617-11.01423a54.80081,54.80081,0,0,1,1.8246-10.21858,33.14035,33.14035,0,0,1,3.98246-8.90637,24.90278,24.90278,0,0,1,6.9929-7.08038,33.74814,33.74814,0,0,1,10.57128-4.58649,59.80739,59.80739,0,0,1,14.8245-1.61353h.49989a60.29932,60.29932,0,0,1,14.86478,1.61353,33.23577,33.23577,0,0,1,10.57683,4.58788,25.66507,25.66507,0,0,1,6.98457,7.07482,32.4683,32.4683,0,0,1,4.02828,8.91054,54.688,54.688,0,0,1,1.82321,10.21858c.30688,3.57143.4624,7.27617.4624,11.01423v.33465c0,3.73807-.15552,7.44419-.4624,11.01563a54.7967,54.7967,0,0,1-1.82321,10.21719,32.38371,32.38371,0,0,1-4.02828,8.91192,25.66524,25.66524,0,0,1-6.98457,7.07483,33.20069,33.20069,0,0,1-10.57683,4.58649,60.29932,60.29932,0,0,1-14.86478,1.61353Zm-.586-75.11537c-5.21135,0-9.43542.66513-12.55417,1.97734a15.60255,15.60255,0,0,0-7.12065,5.7043,22.71819,22.71819,0,0,0-3.33816,9.42014,92.70025,92.70025,0,0,0-.82759,13.09433V134.583a92.70025,92.70025,0,0,0,.82759,13.09433,22.68313,22.68313,0,0,0,3.33816,9.41876,15.837,15.837,0,0,0,7.1262,5.74873c3.11459,1.33859,7.33588,2.01622,12.54862,2.01622h1.67186c5.21829,0,9.441-.66513,12.55278-1.97734a15.59834,15.59834,0,0,0,7.122-5.70291,23.16612,23.16612,0,0,0,3.384-9.4257,89.428,89.428,0,0,0,.86508-13.17209V132.0002a88.775,88.775,0,0,0-.86508-13.08878,23.17572,23.17572,0,0,0-3.38537-9.42708,15.60493,15.60493,0,0,0-7.12065-5.70291c-3.11737-1.31221-7.34143-1.97734-12.55278-1.97734Z" style="fill:#8d8d8e"/><path d="M362.28808,176.91946a13.62412,13.62412,0,0,1-4.7073-.75955,3.58628,3.58628,0,0,1-2.44946-3.63948V105.59214a8.75392,8.75392,0,0,1,1.83571-5.37381,16.44448,16.44448,0,0,1,4.78367-4.13381A34.79086,34.79086,0,0,1,368.595,93.0463a58.29313,58.29313,0,0,1,8.219-2.03428,83.28923,83.28923,0,0,1,8.85916-1.05393c2.33-.15274,4.65453-.22912,6.9082-.22912q.95187,0,1.89125.01805a38.92229,38.92229,0,0,1,8.25095,1.06921,21.16643,21.16643,0,0,1,5.82094,2.35226,10.56345,10.56345,0,0,1,3.52006,3.35482,7.565,7.565,0,0,1,1.16363,3.97273,6.85779,6.85779,0,0,1-.18885,1.56355,5.41343,5.41343,0,0,1-.68735,1.62186,3.8493,3.8493,0,0,1-1.57326,1.37886,5.60581,5.60581,0,0,1-2.53555.50406,5.94079,5.94079,0,0,1-2.94241-.69013q-1.02894-.57279-2.43141-1.2761a18.28208,18.28208,0,0,0-3.55616-1.23445,26.60979,26.60979,0,0,0-6.19307-.5596,64.29328,64.29328,0,0,0-12.5764.9845,30.2721,30.2721,0,0,0-7.23729,2.27033,7.9443,7.9443,0,0,0-3.18818,2.46057,3.94849,3.94849,0,0,0-.75678,1.74962v63.25132a3.61407,3.61407,0,0,1-.72484,2.34671,4.84893,4.84893,0,0,1-1.69685,1.30388,7.08329,7.08329,0,0,1-2.26478.61791A21.7693,21.7693,0,0,1,362.28808,176.91946Z" style="fill:#8d8d8e"/><path d="M457.0394,176.91946a56.55358,56.55358,0,0,1-10.42687-.97478,27.86826,27.86826,0,0,1-9.50762-3.61587,20.084,20.084,0,0,1-6.96236-7.34977c-1.76072-3.11459-2.65358-7.18453-2.65358-12.09455V102.91912c-.14857.00278-.29576.00416-.44295.00416q-.95812,0-1.869-.07914a7.62828,7.62828,0,0,1-2.89241-.79844,5.08713,5.08713,0,0,1-2.13148-2.12175,7.548,7.548,0,0,1-.76927-3.68947,6.87165,6.87165,0,0,1,.54016-2.9799,3.72293,3.72293,0,0,1,1.79821-1.79821,8.07185,8.07185,0,0,1,2.78966-.66374c.84981-.068,1.84821-.1097,2.97712-.1222V77.6858a3.48137,3.48137,0,0,1,2.47862-3.6492,15.13807,15.13807,0,0,1,4.67814-.66791,21.34467,21.34467,0,0,1,2.38836.13192,7.82045,7.82045,0,0,1,2.23284.56237,4.27885,4.27885,0,0,1,1.74267,1.33582,3.6683,3.6683,0,0,1,.70957,2.287V90.66488h26.265q1.23723,0,2.96879-.08193c.22634-.01111.4499-.01527.66929-.01527a12.11425,12.11425,0,0,1,2.86187.33048,6.95042,6.95042,0,0,1,3.01739,1.558,4.81979,4.81979,0,0,1,1.39969,3.77833,8.07088,8.07088,0,0,1-1.15807,4.17269,4.08134,4.08134,0,0,1-3.36871,2.23146c-.54849.05554-1.54549.0847-3.00628.0847h-29.649v47.29929a21.97027,21.97027,0,0,0,.99839,7.09982,10.12688,10.12688,0,0,0,2.97712,4.50178,12.33292,12.33292,0,0,0,5.1808,2.46474,34.00777,34.00777,0,0,0,7.75107.77205,23.9306,23.9306,0,0,0,7.10815-.89286,28.01841,28.01841,0,0,0,4.749-1.93429,26.08662,26.08662,0,0,0,3.12014-1.92874,4.79149,4.79149,0,0,1,2.82021-1.09282c1.95651,0,3.29511.54849,3.98107,1.62881a6.33877,6.33877,0,0,1,.91924,3.43952,7.47987,7.47987,0,0,1-1.98706,4.82254,17.87341,17.87341,0,0,1-5.16,4.03106,32.48227,32.48227,0,0,1-7.62471,2.87437A38.99415,38.99415,0,0,1,457.0394,176.91946Z" style="fill:#8d8d8e"/><path d="M518.36754,176.75283c-6.393,0-11.68909-1.04144-15.73959-3.09515a23.60477,23.60477,0,0,1-9.63954-8.86471,37.69428,37.69428,0,0,1-4.74339-13.78862,116.61776,116.61776,0,0,1-1.265-18.00576V93.72809a3.50115,3.50115,0,0,1,.72345-2.26339,4.47111,4.47111,0,0,1,1.72878-1.27611,7.02283,7.02283,0,0,1,2.26339-.52349c.77344-.05554,1.558-.08609,2.35782-.08609a15.95061,15.95061,0,0,1,4.71007.62347,3.35346,3.35346,0,0,1,2.44668,3.52978l-.16663,34.96867c0,6.35832.22217,11.90432.66374,16.4797a32.80024,32.80024,0,0,0,2.80355,11.18226,13.51439,13.51439,0,0,0,6.03478,6.2875c2.655,1.35664,6.32777,2.044,10.91426,2.044,4.642,0,8.63421-.08331,11.86405-.24856a79.28786,79.28786,0,0,0,7.9788-.74289,25.15742,25.15742,0,0,0,4.76839-1.12753,6.2621,6.2621,0,0,0,2.29255-1.35109,2.784,2.784,0,0,0,.79149-1.4955,13.44446,13.44446,0,0,0,.15691-2.09121V93.73226a3.50243,3.50243,0,0,1,.72345-2.26478,4.43419,4.43419,0,0,1,1.73018-1.27889,7.07669,7.07669,0,0,1,2.262-.52349c.77344-.05554,1.558-.08609,2.35781-.08609a16.19778,16.19778,0,0,1,4.66286.6193,3.36911,3.36911,0,0,1,2.49389,3.52978v69.4333a8.91992,8.91992,0,0,1-3.79638,7.54416,25.6102,25.6102,0,0,1-9.74924,3.97968,87.033,87.033,0,0,1-14.21214,1.68991C530.37461,176.62508,524.51479,176.75283,518.36754,176.75283Z" style="fill:#8d8d8e"/><path d="M611.94967,215.35543a89.514,89.514,0,0,1-18.046-1.56494,31.49668,31.49668,0,0,1-12.30423-5.11137,20.64713,20.64713,0,0,1-7.03872-9.21047,37.17665,37.17665,0,0,1-2.187-13.497,38.48678,38.48678,0,0,1,1.84265-12.54723,20.8526,20.8526,0,0,1,5.90842-8.94525,27.25893,27.25893,0,0,1,10.37271-5.43213,63.60083,63.60083,0,0,1,14.37877-2.24812v-8.2454a63.50552,63.50552,0,0,1-14.38016-2.24951,27.22441,27.22441,0,0,1-10.37132-5.43213,20.81441,20.81441,0,0,1-5.90981-8.94664,38.81034,38.81034,0,0,1-1.84126-12.62916,38.49856,38.49856,0,0,1,1.84265-12.54723,20.84888,20.84888,0,0,1,5.90842-8.94664,27.27767,27.27767,0,0,1,10.32966-5.43074,62.96926,62.96926,0,0,1,14.33851-2.24951V85.205a3.963,3.963,0,0,1,2.39391-3.86581,11.38246,11.38246,0,0,1,4.76284-.95118,11.25779,11.25779,0,0,1,4.63231.9484,3.95929,3.95929,0,0,1,2.44113,3.86859v4.9253a63.91065,63.91065,0,0,1,14.21631,2.36754A28.47156,28.47156,0,0,1,643.683,97.96466a20.87661,20.87661,0,0,1,6.04033,8.9022,37.1197,37.1197,0,0,1,1.8857,12.4292,38.86551,38.86551,0,0,1-1.83987,12.62916,20.72,20.72,0,0,1-5.95563,8.9508,27.23514,27.23514,0,0,1-10.37272,5.3877,64.436,64.436,0,0,1-14.33433,2.20507v8.337a65.0638,65.0638,0,0,1,14.17187,2.32588,27.70032,27.70032,0,0,1,10.40881,5.471,21.18535,21.18535,0,0,1,6.03617,8.94109,42.3326,42.3326,0,0,1-.30132,25.92483,20.64713,20.64713,0,0,1-7.03872,9.21047,31.52113,31.52113,0,0,1-12.34589,5.11137A90.178,90.178,0,0,1,611.94967,215.35543Zm0-47.0424a65.09269,65.09269,0,0,0-12.375.98589,19.0274,19.0274,0,0,0-7.65525,3.07293,11.29994,11.29994,0,0,0-3.94219,5.34882,24.78994,24.78994,0,0,0-1.20668,8.251,24.44,24.44,0,0,0,1.20529,8.20791,11.34,11.34,0,0,0,3.94358,5.30994,19.00746,19.00746,0,0,0,7.65525,3.07155,78.68263,78.68263,0,0,0,24.83341,0,19.40469,19.40469,0,0,0,7.70247-3.07571,11.22491,11.22491,0,0,0,3.97968-5.30578,24.44,24.44,0,0,0,1.20529-8.20791,20.62669,20.62669,0,0,0-1.47606-8.28012,12.50844,12.50844,0,0,0-4.4393-5.34187,21.34351,21.34351,0,0,0-7.81078-3.05072A59.50713,59.50713,0,0,0,611.94967,168.313Zm0-66.59226a64.99018,64.99018,0,0,0-12.375.9859,19.00746,19.00746,0,0,0-7.65525,3.07154,11.34,11.34,0,0,0-3.94358,5.30994,24.44,24.44,0,0,0-1.20529,8.20791,24.42,24.42,0,0,0,1.20529,8.20652,11.32631,11.32631,0,0,0,3.94358,5.30994,19.01363,19.01363,0,0,0,7.65525,3.07294,78.68263,78.68263,0,0,0,24.83341,0,19.40273,19.40273,0,0,0,7.70247-3.0771,11.21823,11.21823,0,0,0,3.97968-5.30578,24.42,24.42,0,0,0,1.20529-8.20652,20.643,20.643,0,0,0-1.47606-8.2815,12.50841,12.50841,0,0,0-4.4393-5.34188,20.8395,20.8395,0,0,0-7.80384-3.00628A62.02352,62.02352,0,0,0,611.94967,101.72077Z" style="fill:#8d8d8e"/><path d="M691.32383,176.91946c-6.89293,0-12.47086-1.0706-16.5769-3.18124a23.233,23.233,0,0,1-9.55761-8.78556,33.68131,33.68131,0,0,1-4.28378-12.92354,119.74939,119.74939,0,0,1-.96923-15.68821V135.505a94.169,94.169,0,0,1,1.85792-19.80675,39.37375,39.37375,0,0,1,5.9348-14.37183,25.6206,25.6206,0,0,1,10.4352-8.7078,36.52979,36.52979,0,0,1,15.1661-2.873c3.1868,0,6.4819.12775,9.79506.37908a76.68569,76.68569,0,0,1,9.71175,1.35248,47.64352,47.64352,0,0,1,8.92442,2.76189,26.3456,26.3456,0,0,1,7.41086,4.65592,21.16832,21.16832,0,0,1,5.03917,6.94708,23.04063,23.04063,0,0,1,1.869,9.61038v53.14105a7.63551,7.63551,0,0,1-.90674,3.92,7.06326,7.06326,0,0,1-2.44946,2.45085,9.69753,9.69753,0,0,1-3.55061,1.23584,26.81877,26.81877,0,0,1-4.09354.30132h-.1097l-5.39742-1.49551c-3.4173.28189-7.53722.67069-12.24868,1.15669A157.74333,157.74333,0,0,1,691.32383,176.91946Zm6.43469-75.11537a55.9129,55.9129,0,0,0-5.64181.28882,20.83,20.83,0,0,0-5.39048,1.28861,17.57418,17.57418,0,0,0-4.87253,2.88131,16.29933,16.29933,0,0,0-3.93664,5.06555,31.64246,31.64246,0,0,0-2.723,8.07321,57.154,57.154,0,0,0-1.02755,11.63077v8.53284a52.00642,52.00642,0,0,0,1.3497,13.093,17.44431,17.44431,0,0,0,3.90053,7.6011,12.92673,12.92673,0,0,0,6.33888,3.62281,37.73454,37.73454,0,0,0,9.07856.97895,110.607,110.607,0,0,0,13.80112-.91091c4.0255-.55682,7.70941-.98034,10.94481-1.25944a7.87775,7.87775,0,0,1,.86369-.04444c.29994,0,.61653.01528.947.04444.16524.01527.318.03193.45962.05V118.31572a33.37766,33.37766,0,0,0-.20274-3.51172,12.529,12.529,0,0,0-.98311-3.61309,12.99526,12.99526,0,0,0-2.32171-3.5034,13.51262,13.51262,0,0,0-4.14214-2.95351,28.673,28.673,0,0,0-6.66242-2.11065A49.98644,49.98644,0,0,0,697.75852,101.80409Z" style="fill:#8d8d8e"/><path d="M758.92,176.83615a13.61191,13.61191,0,0,1-4.7073-.761,3.58291,3.58291,0,0,1-2.44946-3.63947V60.72426c0-1.71351.36659-2.8577,1.12059-3.49784.72206-.61514,1.951-.90258,3.86442-.90258a15.85375,15.85375,0,0,1,2.99518.30827,9.90682,9.90682,0,0,1,2.99934,1.09281,6.85863,6.85863,0,0,1,2.31754,2.1287,6.06543,6.06543,0,0,1,.93313,3.46035V172.43573a3.61543,3.61543,0,0,1-.72484,2.34809,4.83388,4.83388,0,0,1-1.69824,1.30527,7.10328,7.10328,0,0,1-2.262.61653A21.81639,21.81639,0,0,1,758.92,176.83615Z" style="fill:#8d8d8e"/></svg>