<svg style="fill: #8d8d8e;" xmlns="http://www.w3.org/2000/svg" viewBox="0 0 377.01197 110.84761"><title>Artboard 1</title><path d="M38.88011,36.828a20.29107,20.29107,0,0,1-9.07206,5.51455,15.54524,15.54524,0,0,1-3.88724.49707A18.67686,18.67686,0,0,1,23.743,42.7107a16.07021,16.07021,0,0,1-9.72223-4.90056,16.66225,16.66225,0,0,1-.28331-23.56228q.14-.14334.28331-.28331A15.92693,15.92693,0,0,1,25.92081,8.997q6.87656,0,12.9593,5.94665L45.424,8.66831Q36.56325.00461,25.92081.00211A25.07025,25.07025,0,0,0,7.54306,7.67419,24.84051,24.84051,0,0,0,.00408,25.9218a24.91993,24.91993,0,0,0,7.539,18.31252,25.02864,25.02864,0,0,0,18.37775,7.60021,24.76432,24.76432,0,0,0,17.7847-7.09163c.57773-.50106,1.15173-1.02058,1.71846-1.57458Z"/><polygon points="159.468 50.714 150.476 50.714 150.476 19.375 139.038 50.714 130.642 50.714 119.205 19.244 119.205 50.714 110.215 50.714 110.215 1.194 122.181 1.194 134.808 35.903 147.503 1.194 159.468 1.194 159.468 50.714"/><path d="M205.41769,15.80691a13.34685,13.34685,0,0,1-4.95907,10.5765,16.33536,16.33536,0,0,1-11.10851,4.03135H177.05469V50.71354h-8.99294V1.19405h21.28836a16.56824,16.56824,0,0,1,11.04312,3.97042A13.58532,13.58532,0,0,1,205.41769,15.80691Zm-8.994,0a4.72826,4.72826,0,0,0-2.121-4.0314,7.95315,7.95315,0,0,0-4.90813-1.58756H177.05469v11.2369h12.33987a7.977,7.977,0,0,0,4.90813-1.5866,4.72813,4.72813,0,0,0,2.12106-4.03134Z"/><polygon points="247.596 50.714 211.959 50.714 211.959 1.194 247.596 1.194 247.596 10.188 220.952 10.188 220.952 21.425 241.777 21.425 241.777 30.415 220.952 30.415 220.952 41.721 247.596 41.721 247.596 50.714"/><polygon points="292.818 10.188 277.81 10.188 277.81 50.714 268.816 50.714 268.816 10.188 253.808 10.188 253.808 1.194 292.818 1.194 292.818 10.188"/><polygon points="334.798 50.714 299.164 50.714 299.164 1.194 334.798 1.194 334.798 10.188 308.154 10.188 308.154 21.425 328.98 21.425 328.98 30.415 308.154 30.415 308.154 41.721 334.798 41.721 334.798 50.714"/><path d="M67.13447,49.72739a23.99476,23.99476,0,0,1-6.66823-3.9894c.5675.4516,1.32755,1.04508,1.915,1.46471l.71386.47854A24.34961,24.34961,0,0,0,67.13447,49.72739ZM53.62214,36.75709c-.03847-.087-.0907-.20083-.13014-.28375A23.13059,23.13059,0,0,1,51.45935,25.9648a14.52033,14.52033,0,0,0,.08691,3.93047l.228,1.24386a25.2779,25.2779,0,0,0,1.06133,3.71967c.2438.59748.55774,1.39374.82624,1.98023-.014-.027-.02573-.058-.03969-.0819Zm-1.368-5.20529a10.24006,10.24006,0,0,1,5.2328-9.50048,22.00735,22.00735,0,0,1,17.03843-3.45689C66.28353,12.9365,60.77523,13.6988,60.73674,13.7208c-9.40078,5.28124-9.7098,11.51963-8.6505,17.47927.0642.34867.16988.80926.24083,1.157-.02174-.24078-.06123-.56448-.07294-.80526Zm1.44019-12.95537a17.80544,17.80544,0,0,1,4.61885-4.62784A9.58063,9.58063,0,0,0,56.025,14.652a20.23143,20.23143,0,0,0-2.44706,4.1243C53.61237,18.7183,53.65687,18.65041,53.69432,18.59643ZM51.258,26.73714a14.34642,14.34642,0,0,1,.71462-4.62587,22.66083,22.66083,0,0,1,3.2448-7.02769,7.57525,7.57525,0,0,0-3.27626,4.84966c-.12344.62842-.312,1.46167-.40765,2.09312A26.70765,26.70765,0,0,0,51.253,26.857l.03177.61748C51.27576,27.25266,51.261,26.95893,51.258,26.73714ZM58.53223,11.8924a14.74546,14.74546,0,0,1,4.26369-.34667A28.67867,28.67867,0,0,1,67.7,10.03008a22.78089,22.78089,0,0,0-4.37806-1.64951,23.34869,23.34869,0,0,0-4.80919,3.51183Zm-5.08466,3.70068a7.10343,7.10343,0,0,1,4.27637-3.48686,25.00646,25.00646,0,0,1,5.05423-3.85655c-2.90213-.63441-3.96643-.12886-3.97242-.12487a23.27583,23.27583,0,0,0-5.527,7.798c.05146-.09888.11464-.22876.16887-.32969Zm11.41947-7.81A39.39267,39.39267,0,0,1,68.94887,9.7853,38.41629,38.41629,0,0,1,87.768,11.4618C77.63378,1.44585,67.85211,6.14363,64.64,7.68919c.06691.03.16083.064.227.09392Zm-10.0947,5.08447a24.94768,24.94768,0,0,1,3.24383-4.35909,1.95537,1.95537,0,0,0-.30318.27976c-.41165.50755-.97715,1.16892-1.3653,1.69049-.612.90015-1.40275,2.11808-1.95051,3.05522C54.50982,13.33612,54.65674,13.06935,54.77234,12.86755ZM59.323,7.11369a1.23681,1.23681,0,0,1,.36345-.23976,26.01283,26.01283,0,0,1,9.50718-5.35521,19.2304,19.2304,0,0,0-5.3534,2.16308l-.58526.36463a25.39273,25.39273,0,0,0-3.934,3.07026l.002-.003Zm1.44321-.41158a15.38249,15.38249,0,0,1,3.27355.7603s2.55674-1.088,3.87553-1.53564a18.41982,18.41982,0,0,1,9.45-.73632A20.778,20.778,0,0,1,88.70162,11.7885a33.59551,33.59551,0,0,1,6.6,3.17314C83.20829-6.98661,66.90546,1.87445,60.45423,6.70707c.09392,0,.21935-.006.312-.005ZM94.83008,9.77032A36.45182,36.45182,0,0,1,98.907,17.74114a14.97037,14.97037,0,0,1,3.08668,4.01539,27.50783,27.50783,0,0,0-7.2714-12.13808c.035.044.07643.10594.10789.15187ZM76.87675.85532a26.2673,26.2673,0,0,1,7.89889,1.91525C82.02764.9852,80.04937.77337,76.626.83332A2.143,2.143,0,0,1,76.87675.85532ZM64.934,3.06532A29.75735,29.75735,0,0,1,79.21112.3058,11.877,11.877,0,0,0,76.27754.02307l-.21132.009A25.93592,25.93592,0,0,0,71.9961.52663a26.63844,26.63844,0,0,0-4.32758,1.27783c-.9132.39966-2.12033.95315-3.0098,1.40776.08292-.04195.19331-.10293.27526-.14687ZM86.92269,44.40119a2.314,2.314,0,0,1,.64193.044,2.10825,2.10825,0,0,0,.68986.036l-.09591.11786C83.534,49.8613,74.77888,53.92269,65.0279,48.81428a25.17169,25.17169,0,0,1-2.64667-1.61159,27.85137,27.85137,0,0,1-2.35539-1.84334,23.97345,23.97345,0,0,1-2.1303-2.10913,24.7276,24.7276,0,0,1-1.921-2.41084,25.91439,25.91439,0,0,1-4.20021-9.70028,26.26964,26.26964,0,0,1-.52131-4.28216,26.93249,26.93249,0,0,1,.28053-4.83062A27.36988,27.36988,0,0,1,52.8898,16.836a26.84717,26.84717,0,0,1,3.45791-6.35726c.77606-.96216,1.85684-2.206,2.70482-3.10122a27.10715,27.10715,0,0,1,4.20244-3.331,26.76824,26.76824,0,0,1,4.41357-2.242A26.0045,26.0045,0,0,1,83.2388.72846l.06819.019.32969.08594a26.45381,26.45381,0,0,1,8.295,3.80258c.5785.42862,1.165.87622,1.72645,1.32878a38.48708,38.48708,0,0,0-6.30581-3.49285,23.49871,23.49871,0,0,1,5.50556,4.73876c.41808.48954.52.61446.91263,1.116.14737.12789.15638.13393.16288.14088l.023.024c8.95845,8.57731,9.28813,16.655,9.01691,19.7273l.03346-.58751c-.003-.37864-.025-.88819-.05642-1.26887a20.683,20.683,0,0,1-1.01459,7.14458l.06092-.20078c2.305-8.2536-.19433-11.03208-2.39887-13.48691,2.01573,7.1366,2.0102,13.16617-.02348,18.43846-.23976.30273-.49153.59344-.75528.86921l.002-.006c1.695-4.99054,1.24089-11.211-1.10753-18.56635-.6359-1.98519-1.37922-4.15724-7.27943-6.71694a34.01539,34.01539,0,0,1,3.34251,5.38018c4.28711,8.68815,4.78965,17.14856,3.44439,21.33577l-.011.027c-.30974.24277-.63.46954-.96466.68838l.1264-.40663c1.71293-6.07955.62991-16.42029-5.64541-25.80982-3.24562-4.59087-16.746-4.66484-20.08445-4.27417C83.4658,18.64335,97.9473,30.52469,94.11923,42.456c-.3722.17781-.75831.33967-1.149.49354l.005-.015c2.98581-7.28643-1.4917-13.55582-5.11843-17.63612a78.95877,78.95877,0,0,0-16.58234-13.367c-2.01767-1.20089-2.01767-1.20089-5.94067-.064,3.84207.88124,8.97917,2.64165,14.63659,8.49638,15.67093,7.11358,11.72148,21.04211,8.284,24.11733-.21628.19183-.48156.10487-.76178.014a1.40856,1.40856,0,0,0-.57-.09392l.41066-.50356c3.37053-5.08141,2.37942-11.25485-2.651-16.51617a24.06871,24.06871,0,0,1,1.60209,4.81369C87.52114,39.2368,84.98395,42.6258,83.832,44.7119c-.37317.67339-1.149-.14288-1.64951-.16482a6.828,6.828,0,0,0,1.04559-.83724c3.7591-4.5769,1.19342-13.92152-3.18567-19.84019C68.2637,17.29155,50.66677,22.405,52.97074,34.6c1.88355,5.32917,12.36511,22.63263,29.21171,9.94705.50054.02194,1.28438.81524,1.32484.75032-1.461,2.38383-4.98707,5.46407-2.6129,3.15017.63865-.62346-1.04734.95213-2.229,1.50864a19.83215,19.83215,0,0,0,8.25733-5.555Zm6.04758-1.4517c.39066-.15387.77677-.31573,1.149-.49354l-.004.006v.004c-2.38388,4.94255-5.6919,7.42133-11.79738,8.84806l-.02676.006c.5273-.13086,1.23491-.28775,1.75617-.44162,3.401-1.20591,6.83387-2.99726,8.923-7.92887Zm3.278-1.68046c.33271-.22084.6539-.4496.96859-.69038l-.13336.4096a10.2644,10.2644,0,0,1-3.11118,4.65486c-.59247.46857-1.37226,1.097-1.98621,1.53462l.49456-.3637a10.56558,10.56558,0,0,0,2.24146-2.38286A11.69958,11.69958,0,0,0,96.22376,41.339.67349.67349,0,0,1,96.24827,41.269ZM98.817,39.133c.26375-.28177.51753-.57047.75529-.87224l-.01095.025a15.90415,15.90415,0,0,1-3.64774,5.52008l.20379-.2218A13.98268,13.98268,0,0,0,98.727,39.35776,1.3602,1.3602,0,0,1,98.817,39.133Z"/><path d="M72.399,51.08119a26.34412,26.34412,0,0,0,5.67717.63645,21.77,21.77,0,0,0,4.215-.39766c.12441-.03.25377-.06092.39189-.09289l-.08789.019a25.85887,25.85887,0,0,1-9.39756-.10492c-.26451-.016-.529-.036-.79856-.06Zm11.40055-.11587-1.02262.23777c-.15208.038-.3032.07392-.45906.1109ZM65.0279,48.81424l.19029.09791a.293.293,0,0,1-.03243-.018C65.13256,48.86915,65.08008,48.83815,65.0279,48.81424Zm15.99387-.5675c-.11464.10389-.2043.20283-.35246.32872-.32267.25275-.56872.48356-.855.67139.10169.012.33173.04993.43537.06395.534-.24079,1.14421-.54055,1.79965-.9152-.27552-.037-.55379-.07791-.82527-.1219ZM63.67734,48.043c.539.33966.76107.45957,1.35057.7713-.17387-.0999-.32975-.18384-.46811-.26677C64.27958,48.39561,63.98432,48.22674,63.67734,48.043Zm25.74914-.085a16.54267,16.54267,0,0,1-4.60939.62043c-.46457,0-.92968-.018-1.39174-.049a18.96887,18.96887,0,0,1-1.78364.94118q1.01424.09291,1.93076.09192A16.48715,16.48715,0,0,0,88.0662,48.979a12.52167,12.52167,0,0,0,1.36029-1.02108Zm-26.14979-.1728c.14513.09591.27327.17684.38591.24574.22309.13091.50254.29373.89719.51656.04445.023.09392.052.13837.07392-.38611-.21582-.79776-.45056-1.12646-.65441l-.00675-.005c-.09965-.061-.19357-.11592-.28826-.17684ZM81.836,47.33652c-.13214.18785-.22406.52653-.41538.47957a12.21464,12.21464,0,0,0,1.23788.21479c.25552-.15484.513-.32467.7758-.50453-.46008-.036-.92691-.08993-1.39875-.15888Zm-19.25145-.003c.014.011.0267.018.03743.028a.1151.1151,0,0,1,.03274.021C62.633,47.36553,62.60929,47.35159,62.58459,47.33353Zm-.20334-.13086.64367.43461c-.13613-.09591-.27147-.18386-.4029-.27578C62.5451,47.3125,62.46622,47.26063,62.38125,47.20267Zm-.20328-.14885c.0622.051.13136.09689.20328.14885h0c-.06016-.04194-.12635-.09095-.19055-.13688a.042.042,0,0,0-.01274-.012Zm-.18262-.12691c.08593.06.17361.12389.27153.19484-.05044-.039-.10466-.07893-.15612-.11489C62.07132,46.97886,62.03182,46.95186,61.99535,46.92691Zm-.14711-.1149c.089.06594.17761.13188.26252.19485.02174.018.04547.032.06722.047-.1194-.089-.23-.1679-.32974-.24182Zm28.78512-.054a17.45573,17.45573,0,0,1-5.47358.84128c-.1044,0-.2063,0-.31271-.002-.26973.19183-.547.38263-.82823.56449.21228.009.42907.015.64637.015.33971,0,.68393-.012,1.03061-.041a20.85843,20.85843,0,0,0,4.36405-.76332C90.25471,47.17766,90.44706,46.96885,90.63336,46.758Zm2.38337-.41762a13.40307,13.40307,0,0,1-2.756,1.35082,13.30982,13.30982,0,0,1-1.39122,1.03607,13.88033,13.88033,0,0,0,3.21907-1.62248l.37313-.27577a.11826.11826,0,0,1,.022-.017c.20431-.18083.38069-.33766.533-.47158Zm.95566-.69734h0l-.33373.27373c-.03495.024-.07045.052-.10789.07693-.33669.26575-.70086.55451-1.04707.81826l-.003.002-.019.015c-.11239.08491-.22278.16686-.33169.24477C92.8624,46.5712,93.46181,46.07066,93.97239,45.64305Zm-33.85261-.20282c.11341.09888.22805.19781.34647.29771h0c.03345.031.071.054.10267.084-.12743-.10794-.2725-.22984-.44914-.38166ZM94.362,44.91769a14.28937,14.28937,0,0,1-2.80948,1.50562c-.20631.22784-.41363.44759-.62945.65941A12.58448,12.58448,0,0,0,93.833,45.5611a7.498,7.498,0,0,0,.529-.64342Zm-35.35771-.50755c.37516.37966.55973.53952,1.02154.94916-.0197-.019-.04143-.039-.06118-.057-.33844-.29971-.65841-.59943-.96036-.89218Zm-.16288-.16385c.05423.054.1084.10891.16288.16385a.96309.96309,0,0,0-.07122-.07392C58.90063,44.30322,58.86993,44.27322,58.84144,44.24629Zm.51431-.05294a19.66052,19.66052,0,0,0,4.142,3.07819A31.40659,31.40659,0,0,1,59.35575,44.19335Zm-1.5846-1.08206c.06522.078.13638.1529.20656.2328-.02573-.03294-.05443-.06292-.08215-.09392h0C57.85233,43.20317,57.80987,43.15825,57.77115,43.11129ZM96.6,43.01241a14.83306,14.83306,0,0,1-1.156,1.084c-.15883.2018-.32769.40463-.51753.61247A17.574,17.574,0,0,0,96.2388,43.446c.10241-.11888.22482-.26273.3612-.43358Zm-39.60963-.82829c.2882.37568.45307.56249.78076.92717C57.49389,42.79961,57.23615,42.49084,56.99039,42.18412Zm-.15388-.19183c.05121.065.10267.13091.15388.19183-.02573-.03-.05822-.06993-.08768-.10988C56.881,42.04524,56.85923,42.0193,56.83651,41.99229Zm31.57784-.09791a6.611,6.611,0,0,1-3.47387.75632,19.82788,19.82788,0,0,1-1.24662,1.88835h0c-.15986.28973-.34841.56847-.48253.80726.16082,0,.36115-.016.521-.016.82154,0,1.61882-.015,2.3891-.05494.27127-.27777.541-.56848.80128-.87422h0l.41066-.50356a12.43717,12.43717,0,0,0,1.081-2.0032Zm8.07778-1.48566a13.58558,13.58558,0,0,1-2.11711,1.137c-.073.30171-.15786.60843-.25577.91018-.3722.17781-.7583.33967-1.149.49354l.005-.015c.13587-.32969.25777-.66337.36115-.98809a16.86957,16.86957,0,0,1-3.74713.80025,7.17075,7.17075,0,0,1-1.33482,1.73448h0l-.09591.11786c-.16482.18784-.33818.3767-.516.56351a21.01648,21.01648,0,0,0,4.73625-.96215c.20635-.39461.40468-.80824.59149-1.25087.39067-.15387.77677-.31573,1.149-.49354l-.004.006v.004q-.33869.69985-.70291,1.33481a13.09009,13.09009,0,0,0,2.38188-1.31583c.14635-.34166.28273-.71734.42959-1.146a.6756.6756,0,0,1,.0245-.06992h-.003l.1264-.40663c.04148-.14691.0824-.29976.12041-.45363Zm-41.4058-.92517c.32273.54351.48054.77534.88819,1.35578-.08665-.13284-.17157-.25873-.24676-.37163-.12713-.19183-.25152-.37869-.37117-.5675C55.2532,39.74335,55.16527,39.60448,55.08633,39.48355Zm38.80512-.16675a29.53289,29.53289,0,0,1-3.53234,1.80635,12.411,12.411,0,0,1-.63093,1.37676,32.958,32.958,0,0,0,3.98142-1.9772C93.78955,40.11808,93.85247,39.71642,93.89145,39.3168Zm5.24129-1.21194a13.0192,13.0192,0,0,1-1.678,1.60358c-.07095.29971-.14685.58147-.23378.84522l-.011.027.004-.002-.1304.40959c-.07094.19787-.15284.43261-.25976.69841a14.12446,14.12446,0,0,0,1.62205-1.65953c.09591-.21378.19131-.43559.28124-.6694A1.3602,1.3602,0,0,1,98.817,39.133l.002-.006.002-.006c.11039-.33175.2193-.67442.31173-1.01613Zm-2.11511-.99206a24.99727,24.99727,0,0,1-2.27544,1.67647c-.012.38069-.03749.76435-.08091,1.147a24.85865,24.85865,0,0,0,2.228-1.61156c.05249-.39266.09494-.79826.12841-1.21189ZM53.5205,36.5233c.04542.10993.09391.21684.14133.31573-.014-.027-.02573-.058-.03969-.0819-.01274-.027-.02547-.052-.03847-.08195.2103.47558.36442.77928.68715,1.39374-.06123-.12389-.1174-.24078-.17187-.35168-.01673-.032-.03745-.06691-.05617-.1039-.02573-.05494-.1816-.34968-.38095-.77431-.03069-.06891-.06118-.14288-.0929-.21582C53.55022,36.59026,53.53548,36.5563,53.5205,36.5233Zm-.66316-1.61155c.07294.18088.15182.37567.23377.5785-.006-.018-.01473-.034-.02174-.053-.0642-.15786-.1331-.33669-.212-.52555Zm46.92828-.58643a19.24592,19.24592,0,0,1-1.92027,2.04314c-.01146.40565-.03744.79626-.06993,1.173a19.99165,19.99165,0,0,0,1.85181-1.93733c.05545-.42064.10292-.84527.13837-1.27885Zm-46.88409-.1129c.02072.12789.04246.25777.06921.38765a19.62371,19.62371,0,0,0,1.16391,2.59064A29.31676,29.31676,0,0,1,52.90153,34.21242Zm49.41335-2.12913c-.09494.35071-.19986.67242-.42662,1.36279l-.005.017v.008a16.15986,16.15986,0,0,1-1.8598,3.49986q-.20612.6519-.44914,1.28688l-.002.003-.011.025c-.08394.20584-.17285.40565-.25577.60049a22.18582,22.18582,0,0,0,2.2914-4.37909c.091-.27674.17085-.55651.23781-.84521-.067.28273-.14338.56346-.23377.83723l.005-.013c.10144-.26876.27925-.80527.32974-.97914h0c.02349-.07592.04343-.14983.06395-.22477.0979-.35568.20231-.75233.30222-1.146a.17113.17113,0,0,1,.013-.053ZM52.13744,31.4688c.06149.29372.13341.62244.18963.88818-.01775-.17182-.03949-.37966-.05622-.57747C52.22241,31.66758,52.17893,31.56369,52.13744,31.4688Zm33.79716-.67641c.11791.41864.23229.8802.34969,1.40274.0689.39067.12537.7733.17285,1.141h.07791a16.95745,16.95745,0,0,0,1.95726-.11192,14.83182,14.83182,0,0,0-1.08155-2.263c-.48607-.039-.97663-.095-1.47615-.16886Zm5.91018-.06093c-.40064.08292-.81125.14983-1.23389.19679a15.114,15.114,0,0,1,.47006,1.76042,14.71339,14.71339,0,0,0,1.48469-.54449C92.34333,31.66359,92.10358,31.19,91.84478,30.73146Zm10.8003-.11288c-.00251.015-.00752.029-.00951.04394-.011.06394-.027.13489-.03943.20778.002-.01795.00746-.03494.01048-.05294ZM51.42983,29.019a21.12495,21.12495,0,0,0,.34447,2.12008l-.228-1.24386c-.03448-.2348-.0642-.45558-.08891-.67339-.00777-.06993-.01974-.13786-.02752-.20283Zm-.02271-.35168c.01074.17883.03049.3657.05023.55451.05443.36564.12339.79027.2193,1.35379.05617.26876.12737.58545.221.94016q-.18209-.87228-.28826-1.75044c-.0909-.39563-.15883-.76834-.20231-1.098Zm44.98157-.25777a8.762,8.762,0,0,1-3.87246,2.15809c.23776.42856.45408.86322.65538,1.2968a12.72137,12.72137,0,0,0,3.41346-2.4448c-.05893-.33567-.12538-.67038-.19633-1.01009Zm6.52214-.52653a12.9272,12.9272,0,0,1-.74034,2.49376v.056c0-.022,0-.04-.002-.061l-.11239.26877a15.88132,15.88132,0,0,1-1.12646,2.09812c-.05744.48158-.12543.95316-.21132,1.4207A15.7762,15.7762,0,0,0,102.15,31.48981h0l.25326-.66741c.12537-.39562.27674-.88123.39414-1.4207C102.86336,28.86515,102.89784,28.36062,102.91083,27.883Zm-51.63308-.58346c.002.06291.004.11989.007.17483h0c.006.06691.00972.16385.0197.28775C51.29445,27.62128,51.28675,27.46643,51.27775,27.29958Zm51.719-.05295c-.015.13986-.02946.26877-.04644.38463-.012.48754-.0355.95315-.083,1.42572a7.70269,7.70269,0,0,0,.10594-.83822h0l.03346-.5875c0-.11387-.003-.24677-.01-.38463ZM51.253,26.85693h0c.01.15889.01575.30575.02476.44264-.004-.10093-.009-.20983-.01274-.31173-.004-.045-.007-.08794-.012-.13091Zm.16011-.38662c-.02271.27275-.03944.59446-.04445.96415.03847.55349.09868,1.077.16288,1.56956-.05719-.63742-.08492-1.28585-.08691-1.94723C51.42983,26.865,51.41986,26.66812,51.4131,26.47031Zm51.66157-.23377-.01847.50152c-.007.078-.016.14886-.024.21781-.004.22978-.007.44759-.019.65043.032-.46362.05242-.96016.06143-1.36976ZM98.758,24.1384a9.358,9.358,0,0,1-1.84533,3.70565c.08093.32872.15438.65743.22329.98314a11.73513,11.73513,0,0,0,1.97725-3.16213Q98.95367,24.91118,98.758,24.1384ZM52.40023,22.44593a12.35934,12.35934,0,0,0-.55476,2.195,17.83387,17.83387,0,0,0,.82629,3.27207,9.09549,9.09549,0,0,1,.69088-1.65253,17.79869,17.79869,0,0,1-.96241-3.81456Zm14.20123-1.38376A21.54374,21.54374,0,0,0,60.94009,22.3a25.595,25.595,0,0,0,1.16571,6.33732,23.23463,23.23463,0,0,0,2.10958,4.72975A24.91933,24.91933,0,0,0,76.50059,43.80473c-.20631-.008-.47983-.01-.68316-.017a37.22148,37.22148,0,0,1-4.78469-.46059C64.43442,39.38367,58.60543,32.48489,56.559,24.75884c-.11341.09193-.22406.18983-.3367.28672.09289.31475.18957.63047.29623.94614A32.87157,32.87157,0,0,0,69.47789,43.04243c-.08394-.017-.19433-.04-.28027-.057-1.7127-.36064-2.95559-.62342-7.8834-5.23127l-.33471-.32273-.13239-.12886L60.4,36.87l-.85775-.88522a33.38261,33.38261,0,0,1-5.55574-8.21564,9.37971,9.37971,0,0,0-.72859,1.62256A28.77843,28.77843,0,0,0,57.2204,35.744c.46708.5405,1.082,1.25987,1.56659,1.78042l.848.86619.44336.42361.09264.08793.10768.10992c.67416.63139,1.13823,1.057,1.97321,1.7664-.32068-.15084-.74807-.34171-1.065-.50054-5.12743-2.53474-7.37616-5.529-8.41745-7.46133.01274.36468.04246.74138.09065,1.121a17.8446,17.8446,0,0,0,6.72573,6.58511c.08865.056,11.125,6.26437,15.85948,7.717a19.97172,19.97172,0,0,0,2.06514-.83125,38.18353,38.18353,0,0,1-7.15379-3.00929,55.04181,55.04181,0,0,1,8.064,2.55769c.15188-.08291.304-.16487.45886-.24977A32.57769,32.57769,0,0,1,73.856,44.8548c2.62191.17986,5.05622.34672,7.30694.42964.33869-.23377.67713-.48259,1.01955-.73733h0a6.828,6.828,0,0,0,1.04559-.83724,6.67837,6.67837,0,0,0,.78879-1.19393c-5.45711-.95219-13.75214-5.14339-17.14887-13.90351a22.19509,22.19509,0,0,1-1.25563-4.88163c7.34716,6.18145,13.68171,8.912,18.83558,9.48446a26.0953,26.0953,0,0,0-.91591-2.90738A41.93682,41.93682,0,0,1,66.60145,21.0622ZM51.89969,20.151c-.04445.20283-.09192.41563-.13811.64342.02547-.1219.04619-.2458.071-.36069-.0395.18784-.078.38365-.11045.57047-.006.037-.014.072-.02168.10793.0669-.32472.13612-.66142.19929-.96113Zm.04149-.21781c-.0355.15586-.07121.3217-.10865.50054C51.86721,20.2679,51.90368,20.103,51.94118,19.9332Zm47.65661-.11392c.13341.48156.26278.95714.37819,1.42673.008-.29874.015-.62745.006-.99213-.12538-.14487-.25475-.29173-.38417-.4346Zm-47.50456-.45159c-.01.035-.0177.067-.0287.10093.004-.011.006-.023.011-.034.00573-.023.01069-.043.0177-.067Zm.40064-1.067a8.81344,8.81344,0,0,0-.41834,1.134c-.14917.59047-.27153,1.19291-.44136,2.07614a25.05816,25.05816,0,0,0-.33971,3.99139c.02772-.36667.06921-.71038.11862-1.0261a27.54337,27.54337,0,0,1,.2803-2.94832,14.97158,14.97158,0,0,0-.002,1.57759c.09765-.37368.19556-.70536.28125-.99413.11361-.33567.2173-.6494.31695-.94215a12.28146,12.28146,0,0,1,.20432-2.86841Zm3.3555-1.04605c-.11167.10788-.2213.21377-.326.32171a22.2715,22.2715,0,0,0,.28447,5.69784c.12139-.1019.23781-.19782.35245-.28872a21.80959,21.80959,0,0,1-.311-5.73083ZM53.23223,15.9928c-.11238.26672-.22507.54551-.34247.84322h0q.08586-.20379.16788-.39961C53.11182,16.29251,53.172,16.14463,53.23223,15.9928ZM56.245,14.55409c-.13812.05592-.212.09489-.22.09791,0,.003-.05724.0709-.1529.19679-.07719.42964-.14635.87724-.20728,1.33881.11735-.11689.22979-.22877.34442-.3387q.10077-.65037.23577-1.29481Zm2.06816-.5855c-.19833.04-.38591.07693-.55973.1219.0267.069.05919.13888.08988.21182l.001.002c.19157-.14088.34842-.2548.46883-.33572Zm3.50159-.28974c-.1511.5585-.28549,1.135-.40687,1.73448-.16784-.25081-.39891-.57753-.56076-.83125-.15284-.2348-.28825-.46162-.41839-.68741-.75631.43859-2.471.64445-2.08984,1.32479,1.55759,2.77552,1.91,3.54283,2.5557,4.93759,0,0,1.0593-.41562,1.99695-.75534a16.65494,16.65494,0,0,1,2.57269-.79928,27.91786,27.91786,0,0,1,.63968-4.18122A16.957,16.957,0,0,0,61.81475,13.67885Zm-7.34464-.26477c-.02374.041-.04921.083-.07295.1199h0a24.916,24.916,0,0,0-1.16493,2.45882,26.18307,26.18307,0,0,1,1.159-2.4359c.02675-.04793.05146-.09689.07893-.14287Zm43.08954-.54352c.14885.4696.28323.93817.41658,1.41278.27225,1.00706.4806,1.89929.64045,2.69356.12339.3167.2193.57247.29026.76429.37715.37169.70583.7134,1.00206,1.0371a21.36166,21.36166,0,0,0-.49253-3.11722A27.16976,27.16976,0,0,0,97.55965,12.87056Zm-30.52206-1.4897c-.47282.12988-1.0306.29076-1.70374.48657.44709.10293.91693.21383,1.39972.34872.09668-.28278.19761-.56254.304-.83529Zm-7.838-.1019c-.225.19484-.4541.40064-.6869.61344h.01954c.2795-.06292.555-.11689.82828-.16682-.05621-.15187-.11044-.30175-.16087-.44662Zm-2.85194-.80025-.00972.013ZM57.645,8.92209c-.2855.3257-.60219.69436-.93991,1.12.29127-.35271.60924-.73038.93494-1.102l.005-.018Zm.068-.13387c-.21709.24779-.45512.54049-.69191.83724C57.26384,9.3347,57.50763,9.042,57.713,8.78822Zm.06717-.012c-.04747.057-.09567.11192-.14011.1639h0C57.68447,8.88812,57.73267,8.8332,57.78014,8.77622Zm6.09951-.24774a21.40453,21.40453,0,0,0-1.381,3.00427c.09791.003.19658.007.29726.013a28.62791,28.62791,0,0,1,4.80642-1.49467c.00972-.019.01975-.036.02671-.053A27.9406,27.9406,0,0,0,63.87965,8.52848Zm-4.74321-.50356c-.078.018-.14016.036-.1906.051-.05217.07192-.10441.13586-.15085.19684.004-.027.01074-.063.01473-.089.004-.025.011-.045.01473-.06491l-.01872.006a16.48381,16.48381,0,0,0-1.43523,1.4447,26.77528,26.77528,0,0,0-1.01582,3.10321c.15009-.08292.307-.15587.46709-.22978.08093-.24779.16861-.49856.26452-.74732.03243.18681.06691.38463.11039.59144.17085-.06291.34943-.12685.52724-.18083.47686-.4566.91494-.8602,1.34832-1.23286a6.69464,6.69464,0,0,1-.306-2.33892c.12343-.17285.24682-.34171.3702-.50954Zm.10266-.82127-.1866.17387h0c.05647-.054.11463-.10491.16886-.15587A.13531.13531,0,0,0,59.2391,7.20365Zm.20528-.1908c-.0197.016-.03944.028-.05816.04593-.02374.022-.04349.039-.06523.058h0a.92266.92266,0,0,0-.08189.08691c.06916-.06691.13837-.12788.20528-.1908ZM60.9835,5.677c-.27352.2238-.551.46258-.87371.74832C60.45248,6.12664,60.73173,5.88786,60.9835,5.677Zm9.50821-.07392A24.415,24.415,0,0,0,64.64,7.6892c.06691.03.16083.064.227.09392,1.22289.50459,2.34142,1.06406,3.12618,1.48168a18.384,18.384,0,0,1,2.49851-3.66171Zm21.459-.88921a14.75275,14.75275,0,0,1,5.3747,7.4533,31.24733,31.24733,0,0,1,1.85679,2.59468A17.93739,17.93739,0,0,0,93.367,5.719c-.07694-.06-.15786-.1219-.23879-.18185C92.741,5.24439,92.34935,4.97363,91.95071,4.71388Zm-.019-.07791h0c.35818.26278.78982.58449,1.19644.90119.06292.04394.1264.09294.18932.13985q-.64966-.535-1.38575-1.041ZM62.66552,4.45412c-.51128.35368-.89217.61948-1.21214.85325-.15014.11489-.29224.22979-.43737.34667.47081-.37465.94864-.71636,1.63678-1.19291l.01273-.007Zm.58945-.40764c-.07618.052-.14712.09995-.21827.14891h.002C63.10785,4.14639,63.17879,4.09845,63.255,4.04648Zm.23383-.14584-.23383.14584c-.92691.61047-1.42147.95115-1.97245,1.38678.05622-.039.11264-.08092.17086-.1259.4698-.35567,1.00385-.72633,1.80159-1.26089h0Zm.35143-.19784q-.22782.1349-.49456.29173c-.10364.064-.2083.13387-.307.20084-.13715.09289-.26652.18379-.38591.26574A16.92972,16.92972,0,0,0,61.10688,5.704q.29151-.22329.5805-.4366A18.03955,18.03955,0,0,1,63.84023,3.7028Zm0-.021c-.11843.07289-.23378.14784-.35143.21879Zm.51128-.28974c-.00875.005-.01673.012-.02547.016l.01074-.008Zm25.41715-.10394c.034.021.06845.03795.10093.06.04246.022.08389.047.12834.069-.05545-.03-.11136-.06-.16584-.091l-.06343-.03795ZM64.76611,3.16126c-.03744.018-.06992.036-.10737.051h0c-.10093.06194-.2043.12087-.30722.17985q.21653-.12444.41459-.2308Zm.27552-.13689c-.08291.038-.16482.08092-.24375.11791l-.03177.019c.07122-.037.14042-.073.21736-.10794a.35462.35462,0,0,1,.05816-.029Zm.35946-.19382c-.11269.05294-.22135.10788-.32775.16584.04349-.022.09367-.047.14989-.073C65.28168,2.8905,65.34262,2.86149,65.40109,2.83055Zm.74531-.33869c-.16113.07391-.316.14783-.47481.22078a.47841.47841,0,0,0,.0709-.03c.13239-.06292.26953-.13085.40391-.1908ZM78.36618.79436c-.40765.005-.85376.012-1.3473.026.302.018.61.04394.91893.07693C78.07992.86129,78.22305.82634,78.36618.79436Zm-2.3889-.004a19.94952,19.94952,0,0,0-4.59608.5565A16.79721,16.79721,0,0,0,64.71291,7.1796c.85-.35465,2.312-.95111,3.2024-1.25286a19.688,19.688,0,0,1,2.98709-.76931A15.024,15.024,0,0,1,77.76124.94623c-.29026-.035-.58249-.065-.88446-.0909-.0752-.009-.17688-.017-.2508-.022.13514-.005.26354-.009.39291-.013-.34943-.018-.69713-.03-1.0416-.03ZM79.81337.14394h0c.82425.1109,1.34454.18185,1.73945.24379A17.27862,17.27862,0,0,0,79.81337.14394ZM76.98318.02306c-.24483,0-.52607.004-.85177.006a11.94274,11.94274,0,0,0-2.8589.56449A32.2292,32.2292,0,0,1,77.80466.27486c.46083,0,.9309.009,1.40647.031a11.92143,11.92143,0,0,0-2.228-.28273Zm.19954-.021c-.24379,0-.50254.008-.82726.015h.2685c.12538,0,.24278,0,.35921.006h.96358c-.28325-.013-.51728-.021-.764-.021Z"/><path d="M82.77691,51.20309l-.09392.024c-.13811.032-.26748.06292-.39189.09288a.12909.12909,0,0,1,.02675-.006h0C82.47372,51.277,82.62485,51.241,82.77691,51.20309ZM64.55979,48.54748c.13837.08292.29424.16687.46811.26677h0c.05218.02394.10466.05494.15786.07991-.1509-.0819-.31572-.17685-.4876-.27276C64.65371,48.59946,64.60424,48.5704,64.55979,48.54748Zm17.48956-.15187c-.65545.37465-1.26567.6744-1.79966.9152.47982.06992.94266.12287,1.392.15985a18.96639,18.96639,0,0,0,1.78364-.94118c-.46182-.029-.92093-.07791-1.376-.13387ZM63.6626,48.03093c.004.005.008.005.01473.012.307.1838.60224.35266.88246.50454-.39465-.22283-.67411-.38565-.89719-.51656Zm26.59809-.33966c-.27674.09791-.554.18681-.83422.26672a12.51743,12.51743,0,0,1-1.36024,1.02107c.27725-.07791.545-.16082.80327-.25173a13.30853,13.30853,0,0,0,1.39123-1.03607Zm-27.23578-.054c.02476.014.04824.031.07019.04394Zm20.40943-.1109c-.26278.17986-.52028.34969-.7758.50453.45011.06594.90117.10891,1.36029.13091.28124-.18186.5585-.37266.82823-.56449C84.383,47.58832,83.91018,47.56432,83.43434,47.52637Zm-5.92394-.11792a19.96955,19.96955,0,0,1-2.06514.83126c.06722.024.13413.044.20032.061a30.536,30.536,0,0,0,3.929.91417.84921.84921,0,0,0,.23976.032,6.058,6.058,0,0,0,.97438-.69538c.14712-.12687.23-.19286.34544-.29573a27.58122,27.58122,0,0,1-3.62375-.84726Zm-15.39966-.40161c.05146.036.10568.07592.15612.11489.03647.025.07791.056.11438.08094-.07192-.052-.14108-.09791-.20328-.14886-.02174-.015-.04548-.029-.06722-.047Zm30.351-.17785-.37313.27577.04143-.031C92.239,46.99585,92.34934,46.9139,92.46174,46.829Zm.022-.017a.11816.11816,0,0,0-.022.017l.019-.015Zm-13.60425-.10491c-.15485.0849-.307.16686-.45886.24978a24.19906,24.19906,0,0,0,2.87266.83426.96715.96715,0,0,0,.215.041,4.21574,4.21574,0,0,0,.44838-.49558c-.016.019-.19159-.012-.21628-.016a22.08388,22.08388,0,0,1-2.86094-.61349Zm12.67311-.28375c-.29972.12092-.60695.23382-.91919.3347-.18631.21085-.37864.41966-.57349.61446.29424-.09192.58249-.18385.86323-.28974C91.139,46.87092,91.34629,46.65117,91.5526,46.42333Zm1.97821-.4296c-.16983.11791-.34169.2348-.514.34668-.15234.13392-.32872.29075-.533.47158.3462-.26375.71038-.55251,1.04707-.81826Zm-33.45238-.58944c.01274.01.02547.023.04143.036.17664.15182.32171.27372.44914.38166-.03172-.03-.06922-.053-.10267-.084.13812.11592.29224.2348.4501.36069C60.70609,45.92477,60.44562,45.707,60.07843,45.40429Zm-.11367-.102c.01975.018.04149.038.06118.057h0c.01678.016.03448.03.05249.045C60.04093,45.37028,60.00323,45.33628,59.96476,45.30229Zm35.47936-1.20591c-.35066.29373-.70987.5675-1.082.82128a7.49952,7.49952,0,0,1-.529.64342c.37317-.26079.73636-.54653,1.09352-.85223.18984-.20784.35869-.41067.51753-.61247Zm-37.54848-.84624h0c.02772.031.05642.061.08215.09392q.40545.44511.86373.9022c.0285.027.05919.05694.09167.08993C58.69441,44.09142,58.38247,43.7647,57.89564,43.25014Zm26.1213-.73431a8.78341,8.78341,0,0,1-2.85393,2.7685c.71457.026,1.87254.06993,2.31191.054.04747-.002.74833-1.204.78378-1.26289a8.97758,8.97758,0,0,0,.71973-1.43064c.29776.032-.6449-.07494-.9616-.12885Zm10.10241-.06c-.3722.17781-.75831.33966-1.149.49354-.18681.44263-.38514.85626-.59149,1.25087.35369-.12386.69487-.25578,1.03356-.39962q.36425-.63542.70292-1.33481v-.004l.004-.006ZM97.29,42.237l-.24176.29271c-.14788.16385-.29326.32074-.4481.48259-.13638.17084-.25879.3147-.3612.43357C96.59014,43.06728,96.94182,42.66663,97.29,42.237Zm-2.91487-.69139c-.34268.14788-.69191.28273-1.03858.40063-.10338.32472-.22528.65841-.36115.9881l-.005.015c.39066-.15387.77677-.31573,1.149-.49354.09791-.30175.18283-.60847.25577-.91018Zm-4.0159-.42265c-.4571.20181-1.93872.76133-1.94477.77131a13.40409,13.40409,0,0,1-2.29293,3.381,8.29352,8.29352,0,0,0,1.52112-.1129h0A10.29909,10.29909,0,0,0,90.35921,41.123Zm-34.21774-.06092c.2193.30769.44838.61845.69513.93013.02272.027.04446.053.0662.08195C56.72094,41.83538,56.48415,41.52069,56.14147,41.06208Zm-.41373-.59428c.0752.1129.16011.23879.24677.37163h0c.05847.07893.11264.15188.16686.22283C55.99824,40.86245,55.8591,40.66362,55.72774,40.4678Zm41.727-.75933c-.31373.25275-.63646.48658-.96262.70035-.038.15387-.07894.30672-.12041.45363l-.1264.40663h.003a.67707.67707,0,0,0-.02449.06992c-.14686.42862-.28325.8043-.42959,1.146a12.7757,12.7757,0,0,0,1.02957-.79826c.10692-.2658.18882-.50054.25976-.69841l.13336-.40959-.007.002.011-.027c.08692-.26375.16283-.54551.23378-.84522ZM54.96867,39.2788c.04148.07494.08092.1419.11765.20482.07893.12093.16686.25981.27025.41665C55.22244,39.69146,55.09205,39.48664,54.96867,39.2788Zm39.77352-.48955c-.28528.18186-.5675.36069-.85074.52755-.039.39962-.1019.80128-.18185,1.20591.31173-.18283.63093-.37767.95167-.58648.04343-.38263.0689-.76629.08092-1.147Zm-40.07549-.007c.09766.16487.19833.33373.302.49656-.04522-.07193-.09065-.15781-.14513-.25076-.05616-.08292-.10563-.16584-.15685-.2458Zm45.35674-1.81136a12.5725,12.5725,0,0,1-.8907,1.134c-.09243.34171-.20134.68439-.31173,1.01613l-.002.006-.002.006a1.3602,1.3602,0,0,0-.08993.22477c-.08993.23382-.18533.45563-.28124.6694.29424-.35767.58049-.73534.85974-1.14094.08292-.19486.17183-.39465.25577-.6005l.01095-.025.002-.003q.24433-.63549.44915-1.28688Zm-2.15809-.60244c-.27526.25879-.5605.50555-.84772.74434-.03346.41363-.07592.81923-.1284,1.21189.30324-.25076.60694-.51052.90619-.78327.03249-.3767.05847-.76731.06993-1.173ZM53.27567,35.9378c.12344.29873.22135.53553.308.73733.013.03.02573.05494.03847.08195.014.02394.02573.05494.03969.0819-.04742-.09888-.09591-.20579-.14133-.31573.015.033.02972.067.04844.09991C53.47528,36.40739,53.37435,36.17356,53.27567,35.9378Zm-.44008-1.079c.12441.32473.28222.70537.44008,1.079-.06215-.14886-.13013-.31373-.2063-.50055.007.019.01576.03494.02174.053-.08195-.20283-.16083-.39762-.23377-.5785-.006-.018-.015-.03694-.02175-.053Zm49.16408-1.57656c-.02051.07494-.04046.14885-.06394.22477C101.95716,33.43309,101.97916,33.35718,101.99967,33.28224Zm-49.75756-.25076c.16886.63339.30124,1.01208.59348,1.82732C52.5521,33.99957,52.37449,33.46506,52.24211,33.03148Zm48.68752-.29276a17.99,17.99,0,0,1-1.144,1.5866c-.03546.43358-.08292.85822-.13837,1.27885a17.49171,17.49171,0,0,0,1.07106-1.44475c.08589-.46754.15388-.93913.21132-1.4207Zm1.38873-.67641-.00348.021a.17113.17113,0,0,0-.013.053C102.30588,32.10931,102.31288,32.08631,102.31836,32.06231ZM51.7743,31.1391a19.20286,19.20286,0,0,0,.46781,1.89234C52.12773,32.59581,51.9916,32.04033,51.7743,31.1391Zm38.83658-.21081a15.35274,15.35274,0,0,1-1.72045.093c-.483,0-.97664-.019-1.47969-.06a14.83088,14.83088,0,0,1,1.08155,2.263,15.33845,15.33845,0,0,0,2.58866-.53553,15.11546,15.11546,0,0,0-.47007-1.76042Zm12.02469-.26574c-.08493.42463-.1968.91417-.31721,1.39972.07842-.29469.15034-.61441.27777-1.19194C102.60861,30.79744,102.62457,30.72649,102.63557,30.66255Zm-10.11934-.09489c-.21731.0599-.44213.11688-.67141.16384.25879.45855.49856.93213.72087,1.41272.20728-.08793.4076-.18185.60592-.27976C92.97032,31.43088,92.754,30.99622,92.51623,30.56766ZM83.532,30.30785a26.09739,26.09739,0,0,1,.91591,2.90738,18.98214,18.98214,0,0,0,2.00923.12093c-.04747-.36769-.10395-.75032-.17285-1.141-.1174-.52254-.23178-.9841-.34969-1.40274q-1.18022-.17832-2.40261-.48458Zm-32.07465-1.086c.02471.21781.05443.43859.08891.67339l.228,1.24386h0l-.15689-.86123c.01775.09392.03648.19085.05924.29777-.09591-.56352-.16487-.98815-.2193-1.35379Zm-.08369-.7933c.01847.21981.03648.41061.05617.59047.00778.065.01975.1329.02752.20283-.01974-.18881-.03949-.37568-.05023-.55451C51.39416,28.58641,51.38446,28.5085,51.3737,28.42855Zm45.539-.58449c-.16584.19787-.34017.38565-.524.56551.07095.33971.1374.67442.19633,1.01009.19183-.19582.37613-.38964.551-.59247-.06891-.3257-.14236-.65441-.22329-.98313Zm6.03762-.2128c-.014.08691-.0265.17086-.03949.25178-.013.47758-.04748.98211-.11341,1.51866.02449-.1089.049-.22681.06992-.34472.04748-.47257.071-.93817.083-1.42572Zm-51.5057-.57446c.002.66137.02972,1.3098.08691,1.94723.0512.39465.10762.76931.16681,1.127-.01494-.06594-.03842-.15485-.05141-.22278-.01274-.048-.02747-.09694-.0375-.14287q.10681.87972.28826,1.75044a30.76014,30.76014,0,0,0,4.03436,9.04684,21.99022,21.99022,0,0,1-1.8331-2.84544c.05447.1109.11064.22779.17187.35168h0c.228.39568.40561.70736.55272.95914.40765.64142.91719,1.39773,1.33083,1.97321a30.06947,30.06947,0,0,0,5.13212,5.3812c-.12537-.09392-.24876-.18983-.37015-.28375.39987.32769.627.49553,1.079.82824.03646.025.076.052.1154.07995-.08491-.063-.17357-.12891-.26252-.19485.0997.07392.21034.15285.32974.24182a.0419.0419,0,0,1,.01273.012c-.0849-.06594-.17162-.12989-.26554-.20083.21132.15689.43036.31275.65943.46856.02472.018.04844.032.07019.049.24478.15889.44811.29276.62193.40269.09469.06092.18861.11586.28626.17684a24.89114,24.89114,0,0,1-5.49455-4.76372c.18359.1818.43133.4276.61794.60744A29.86271,29.86271,0,0,0,72.399,51.08129c.26953.024.534.044.79856.06a29.03926,29.03926,0,0,1-9.69977-3.86955,19.66121,19.66121,0,0,1-4.142-3.07819,29.9657,29.9657,0,0,1-2.40184-2.3709,28.5831,28.5831,0,0,1-2.81925-4.63184,19.62241,19.62241,0,0,1-1.16391-2.59064c-.02675-.12988-.04849-.25976-.06921-.38765-.05422-.15786-.10942-.31771-.16287-.48059.04148.069.08292.13888.12139.20579-.04819-.3796-.07791-.75631-.09065-1.121-.21029-.39261-.37317-.74332-.49855-1.037.01673.19781.03847.40565.05622.57747-.05622-.26574-.12814-.59446-.18962-.88818-.02947-.074-.05616-.14391-.08189-.20784a28.97274,28.97274,0,0,1-.61094-4.2042Zm-.17961-.06895c.00374.1019.00875.2108.01274.31173.009.16686.01673.32171.0267.46259.01274.17581.03648.4036.06921.66638C51.34093,28.04689,51.30747,27.59029,51.265,26.98785Zm51.7672-.032c-.013.10292-.02348.19883-.03545.29076.007.13786.01.27075.01.38462l-.03346.58751c.01545-.18784.02845-.39665.04-.61247.012-.20283.015-.42064.019-.65042ZM51.253,26.85691l.03177.61748c-.003-.05494-.005-.11192-.007-.17484C51.26876,27.16266,51.263,27.0158,51.253,26.85691Zm2.10964-.59645a9.09448,9.09448,0,0,0-.69088,1.65253c.1706.49256.36815.98511.58622,1.47866a9.37971,9.37971,0,0,1,.72859-1.62256C53.74856,27.2506,53.5432,26.74809,53.36263,26.26046ZM51.4131,24.47605c-.04942.31572-.0909.65943-.11863,1.0261,0,.67738.0267,1.32382.07417,1.93229.005-.36969.02174-.6914.04445-.96415C51.38639,25.83684,51.3844,25.17645,51.4131,24.47605Zm-.12635-.07791c-.03074.45262-.04651.85821-.04651,1.37078,0,.31269.008.66142.01275,1.088h0c.003-1.137.003-1.82134.03376-2.45877Zm4.8736-1.41272c-.11464.0909-.23106.18682-.35246.28871q.16566.88272.4144,1.77142c.11264-.09689.22329-.19479.3367-.28672C56.40614,24.17036,56.27175,23.57983,56.16035,22.98542Zm-4.62683-.95913c-.14314,1.06405-.21235,1.69545-.24677,2.37185C51.33018,23.8087,51.40712,23.13428,51.53352,22.02629Zm.75606-.85724c-.09965.29275-.20334.60648-.317.94215-.08568.28877-.1836.62045-.28125.99413.02472.51154.07792,1.02206.15408,1.53559a12.3602,12.3602,0,0,1,.55476-2.195c-.05841-.44458-.09289-.8712-.11064-1.27685Zm-.214-1.73443c-.005.011-.007.023-.011.034-.0582.22379-.11264.44759-.16487.68239-.06317.29971-.13239.63641-.19929.96113-.05147.27373-.10569.57549-.16687.91418.04445-.2258.08865-.48459.13812-.74736-.01172.07893-.02471.15387-.03745.23183.16983-.88323.29219-1.48567.44136-2.07614Zm13.38865-.83225A21.45174,21.45174,0,0,0,60.89459,20.157c.004.07592.004.15285.004.23081-.011.63339.005,1.27481.04149,1.91224a21.54374,21.54374,0,0,1,5.66137-1.23787c-.41164-.36565-.81749-.74031-1.21138-1.119C65.40507,19.4856,65.43053,19.043,65.46423,18.60237Zm33.15246-1.62552a27.04245,27.04245,0,0,1,.547,4.63783c.10942.17085.21331.33567.31874.50254-.10543-.16687-.20932-.33169-.31874-.50254a14.04224,14.04224,0,0,1-.40565,2.52373q.19482.77329.35521,1.52665a9.99907,9.99907,0,0,0,.74332-2.91839h0A12.23009,12.23009,0,0,0,99.976,21.246c-.11541-.46959-.24478-.94517-.37819-1.42673.12941.14287.25879.28973.38417.4346-.006-.44657-.02748-.94215-.07294-1.47564-.29623-.3237-.6249-.66541-1.00206-1.0371C98.836,17.54932,98.74009,17.29355,98.61669,16.97685Zm-45.559-.54049q-.08171.19627-.16788.39961h0c-.38115,1.155-.61492,1.85331-.79652,2.53172-.007.024-.012.044-.0177.067a8.81344,8.81344,0,0,1,.41834-1.134,8.34745,8.34745,0,0,1,.2063-.8732c.10865-.31675.224-.64545.35746-.99111Zm2.95159-.58751c-.11463.10993-.22707.22181-.34442.3387-.05949.45158-.10394.91217-.14139,1.38878.10466-.10794.21429-.21383.326-.32171.03846-.46862.08967-.93919.15985-1.40577Zm-1.52039-2.46777-.01872.033c-.02747.046-.05218.09494-.07893.14287.03473-.05892.06619-.12286.09765-.17581Zm2.33293-.93816c-.16011.07392-.317.14686-.46709.22978-.17387.66342-.34043,1.39277-.48258,2.176.09566-.12588.1529-.19382.1529-.19678.008-.003.08189-.042.22-.09792a20.31318,20.31318,0,0,1,.57676-2.11112Zm40.5036-.27577c.08292.23382.15883.46959.23429.70336A27.16821,27.16821,0,0,1,99.41654,15.661c-.06946-.2947-.1444-.59544-.23433-.89919A31.245,31.245,0,0,0,97.32542,12.16715Zm-41.38033-1.097c-.55374.82225-1.01382,1.52464-1.4562,2.31093C54.91854,12.66774,55.45253,11.81449,55.94509,11.07015Zm3.12721-.19679c-.43338.37266-.87146.77626-1.34832,1.23286-.17782.054-.3564.11791-.52725.18083a9.61506,9.61506,0,0,0,.55676,1.80339c.17382-.045.3614-.0819.55973-.1219-.12041.08092-.27726.19484-.46883.33572a7.15082,7.15082,0,0,0,.49456.91514c.63969-.44759,1.33353-.88619,2.08984-1.32478a14.80144,14.80144,0,0,1-1.06825-2.169c-.27326.04993-.54878.1039-.82828.16682h-.01949c.2328-.2128.46187-.4186.6869-.61344-.04748-.14088-.08891-.27572-.12738-.4056Zm-2.72456-.39465h0c-.12713.18681-.2655.38365-.40265.59144.12738-.18385.25681-.37864.39293-.57845Zm.01-.013-.01.013Zm11.24469-.41465A28.62773,28.62773,0,0,0,62.796,11.54573c-.10068-.006-.19935-.01-.29726-.013-.25076.67641-.48156,1.39078-.68388,2.14607a16.95743,16.95743,0,0,1,4.28916.74235q.26941-1.148.62966-2.205c-.48279-.13489-.95263-.24579-1.39972-.34872.67314-.19581,1.23091-.35669,1.70374-.48657.17684-.45757.36641-.90016.56474-1.3298ZM57.71307,8.78822c-.20535.25377-.44914.54648-.69191.83724-.232.29475-.46208.58745-.66343.84025.10769-.13586.22606-.27776.34744-.4236.33772-.42566.65441-.79432.93991-1.12.03948-.08093.06394-.12988.068-.13387Zm1.50837-1.56659c-.05423.051-.11239.1019-.16886.15586h0c-.39292.41363-.835.8992-1.27236,1.39871-.04747.057-.09566.11192-.14011.1639-.06118.13085-.1551.34667-.26953.6294a16.4829,16.4829,0,0,1,1.43515-1.4447l.01872-.006a1.88475,1.88475,0,0,1,.39692-.89719Zm.36242-.3367c-.06317.056-.13038.11187-.19755.17383.01873-.018.03846-.03.05816-.04594C59.49194,6.97182,59.53741,6.92688,59.58386,6.88493ZM61.00223,5.663c-.42534.33971-.849.70239-1.41845,1.22191.19233-.16886.36616-.32073.526-.45962.32273-.28574.60019-.52453.87371-.74833.007-.004.01274-.01.01872-.014Zm32.1259-.12589c.08093.06.16185.1219.23879.18185-.0175-.013-.03248-.029-.04947-.042C93.25453,5.63007,93.19105,5.58107,93.12813,5.53713ZM61.45335,5.30734c-.05821.045-.11464.08691-.17086.12589-.09166.07392-.18158.15188-.28027.22979.005-.002.00675-.009.01376-.009C61.16111,5.53714,61.30321,5.42224,61.45335,5.30734Zm.234-.04q-.2889.21277-.58049.4366a16.44567,16.44567,0,0,0-2.161,2.37186c.05044-.015.11264-.033.1906-.051a16.74,16.74,0,0,1,2.551-2.75751Zm9.215-.10993a19.68774,19.68774,0,0,0-2.98709.76931c-.89044.30175-2.35237.89821-3.2024,1.25286-.28723.42565-.56771.87622-.83324,1.34883A27.93727,27.93727,0,0,1,67.629,9.99806c.1174-.25075.23783-.49455.36417-.73334C67.20842,8.8471,66.08989,8.28763,64.867,7.783c-.0662-.03-.16011-.06394-.227-.09392A24.415,24.415,0,0,1,70.49171,5.603c.13612-.15085.27352-.30073.41066-.4456Zm-7.64743-1.111c-.79774.53456-1.33179.90522-1.80159,1.26089.32-.23377.70086-.49957,1.21214-.85325.11837-.08589.24478-.17285.37118-.25873C63.10781,4.14632,63.17876,4.09838,63.25493,4.04641Zm27.5673-.11685c.39865.25879.77382.51855,1.12847.78429.39864.25976.79028.53052,1.17746.82328-.40662-.3167-.83826-.63841-1.19644-.90119h0C91.604,4.42314,91.21188,4.17136,90.82223,3.92956Zm-27.33342-.029-.23384.14584c.04921-.02993.1017-.06093.14988-.0909.02774-.018.05545-.03494.084-.05494Zm.848-.50055-.01075.008c-.2685.15684-.56874.33368-.92118.54751a.66773.66773,0,0,0-.05919.039l.49456-.29173c.16487-.10092.32969-.19781.49656-.30273Zm25.5328-.052c.29425.17285.62392.37568.95264.58147-.26175-.16983-.54-.34069-.8243-.51251-.04445-.022-.08588-.047-.12834-.069ZM67.07032,2.0652c-.71385.31071-1.2084.53251-1.6692.76532-.05847.03094-.1194.06-.17785.09289-.05623.026-.1064.051-.14989.073-.09289.048-.18379.09791-.27546.14589.07893-.037.16083-.08.24375-.11791a.35462.35462,0,0,0-.05816.029c.24175-.11888.49752-.24375.759-.37066a.479.479,0,0,1-.0709.03c.15883-.073.31369-.14687.47481-.22078.30994-.14989.62367-.29174.92389-.42663Zm.59825-.26078h0c-.19157.08092-.39291.16686-.59825.26078C67.25392,1.98427,67.45025,1.89736,67.66857,1.80442Zm2.11062-.72235c-.638.17986-1.172.36969-2.11062.72235C68.66168,1.45575,69.26357,1.24592,69.77919,1.08207ZM77.01891.82032c-.12937.004-.25776.008-.3929.013.07392.005.17561.013.2508.022.302.02593.59421.05591.88446.0909.05918-.015.11837-.035.17658-.049-.309-.033-.617-.05893-.91893-.07693ZM71.99615.52659c-1.02456.2238-1.54582.34969-2.217.55548C70.33386.92421,70.95958.77735,71.99615.52659Zm2.03071-.3257c-.6537.06891-1.12052.15183-2.03071.3257C72.95954.36771,73.546.2678,74.02686.20089ZM76.06628.032c-.92492.045-1.376.07791-2.03942.16886C74.51441.148,75.10862.103,76.06628.032Zm.21131-.009-.21131.009c.05017-.003.10067-.005.1491-.005A.31608.31608,0,0,1,76.27759.023Zm1.2456,0h-.54a11.92247,11.92247,0,0,1,2.228.28273c-.47558-.022-.94564-.03095-1.40648-.03095A32.2322,32.2322,0,0,0,73.27256.5935a15.11953,15.11953,0,0,0-1.89131.75334,19.94937,19.94937,0,0,1,4.59607-.5565c.34447,0,.69217.012,1.04161.03.49354-.014.78952.019,1.19639.014A12.99187,12.99187,0,0,1,81.00607.49263a10.42622,10.42622,0,0,1,2.27144.24779l-.03867-.012h0c-.79355-.16384-1.29711-.26774-1.686-.34068-.39491-.06195-.9152-.1329-1.73945-.24379h0C78.93892.084,78.38589.044,77.94678.02306ZM76.624.017h-.2685c-.04645.006-.0909.006-.14012.01-.02675,0-.05545.002-.08394.002.3257-.002.60694-.006.85177-.006C76.86677.017,76.74937.017,76.624.017Z"/><path d="M249.95914,109.53263H212.6347L234.56848,83.56q3.90177-4.63985,3.907-7.87793a5.62857,5.62857,0,0,0-1.63556-4.20619,5.79772,5.79772,0,0,0-4.24168-1.6026q-6.5079,0-6.50864,7.812v.60146H214.33665v-.33567q0-8.4105,4.84214-13.1342,4.84364-4.72225,13.28808-4.72479,7.74132,0,12.61669,3.80458,5.34115,4.17678,5.3417,11.71949,0,6.54309-6.61108,13.82058L235.00163,99.151h14.95754Zm42.62817-23.60277q0,10.28679-4.00589,16.89382-4.83921,8.01182-14.453,8.01083a15.84616,15.84616,0,0,1-14.55542-8.24858q-3.97445-6.705-3.97248-17.12263,0-10.37963,3.97248-17.09266a15.867,15.867,0,0,1,14.55542-8.21257q9.87981,0,14.65332,8.38047Q292.59056,75.21794,292.58731,85.92986Zm-24.6698-.46657q0,15.39416,6.21091,15.39014,6.13773,0,6.14245-15.39014,0-15.38817-6.14245-15.39015-4.10858,0-5.50806,6.14145A44.97207,44.97207,0,0,0,267.91751,85.46329Zm66.46573,24.06934h-37.321L318.99652,83.56q3.90321-4.63985,3.90448-7.87793a5.61884,5.61884,0,0,0-1.63806-4.20619,5.796,5.796,0,0,0-4.23868-1.6026q-6.50643,0-6.50812,7.812v.60146H298.76529v-.33567q0-8.4105,4.83865-13.1342,4.84067-4.72225,13.287-4.72479,7.74422,0,12.61615,3.80458,5.34489,4.17678,5.34216,11.71949,0,6.54309-6.607,13.82058L319.42725,99.151h14.956Zm42.62869-23.60277q0,10.28679-4.0029,16.89382-4.84222,8.01182-14.455,8.01083a15.84556,15.84556,0,0,1-14.55542-8.24858q-3.97445-6.705-3.97446-17.12263,0-10.37963,3.97446-17.09266a15.86633,15.86633,0,0,1,14.55542-8.21257q9.87762,0,14.65332,8.38047,3.80808,6.6794,3.80459,17.39132Zm-24.66733-.46657q0,15.39416,6.20945,15.39014,6.14373,0,6.139-15.39014,0-15.38817-6.139-15.39015-4.11085,0-5.50858,6.14145a44.67991,44.67991,0,0,0-.70084,9.2487Z"/></svg>