<svg xmlns="http://www.w3.org/2000/svg" viewBox="0 0 551 110" fill="#8d8d8e"><path d="M23.5674,40.8804V63.1089a7.47166,7.47166,0,0,0,1.4824,4.9604,5.49822,5.49822,0,0,0,4.4492,1.7559,8.89962,8.89962,0,0,0,4.0918-.9717,14.30332,14.30332,0,0,0,3.6133-2.6763V40.8804H45.625v34.979H40.4775a2.06947,2.06947,0,0,1-2.1484-1.5342L37.75,71.5298a24.363,24.363,0,0,1-2.25,1.9941,13.61081,13.61081,0,0,1-2.4717,1.5342,13.882,13.882,0,0,1-2.8301.9888,14.15,14.15,0,0,1-3.2558.3579,12.413,12.413,0,0,1-5.0625-.9717,10.141,10.141,0,0,1-3.6992-2.7441,12.02228,12.02228,0,0,1-2.2676-4.2105,17.83951,17.83951,0,0,1-.7666-5.3696V40.8804Z"/><path d="M75.3877,47.6987a2.24433,2.24433,0,0,1-.7158.7671,1.85158,1.85158,0,0,1-.9541.2217,2.99992,2.99992,0,0,1-1.3125-.3408q-.7002-.34065-1.6201-.7671a14.82723,14.82723,0,0,0-2.0967-.7671,10.04753,10.04753,0,0,0-2.7783-.3408,6.47952,6.47952,0,0,0-3.9209,1.0566A3.28024,3.28024,0,0,0,60.5576,50.29a2.63236,2.63236,0,0,0,.7334,1.8921,6.5829,6.5829,0,0,0,1.9424,1.3467,18.93657,18.93657,0,0,0,2.7451,1.0396q1.53375.46065,3.1367,1.0058,1.6011.5457,3.1358,1.2446a10.94431,10.94431,0,0,1,2.7451,1.7725,7.803,7.803,0,0,1,2.6758,6.188,11.61668,11.61668,0,0,1-.9199,4.6538,10.23607,10.23607,0,0,1-2.6934,3.6816,12.6223,12.6223,0,0,1-4.3809,2.4209,20.39505,20.39505,0,0,1-9.5117.5455,20.81546,20.81546,0,0,1-3.3076-.9034,18.26392,18.26392,0,0,1-2.9316-1.3637,14.22717,14.22717,0,0,1-2.3692-1.7046L53.5,68.9043a2.75169,2.75169,0,0,1,.8867-.8862,2.48374,2.48374,0,0,1,1.2959-.3067,2.72589,2.72589,0,0,1,1.4824.4429q.69885.44385,1.6202.9546a14.4181,14.4181,0,0,0,2.164.9546,9.51857,9.51857,0,0,0,3.1543.4433,8.17241,8.17241,0,0,0,2.5733-.3579,5.43436,5.43436,0,0,0,1.7734-.9375,3.51936,3.51936,0,0,0,1.0225-1.3467,4.04156,4.04156,0,0,0,.3242-1.5854,2.82915,2.82915,0,0,0-.7334-2.0112,6.41515,6.41515,0,0,0-1.9434-1.3638,18.83706,18.83706,0,0,0-2.7607-1.04q-1.5528-.46-3.1709-1.0059a29.11646,29.11646,0,0,1-3.1709-1.2783,10.7932,10.7932,0,0,1-2.7617-1.8579,8.41747,8.41747,0,0,1-1.9434-2.7618,9.63983,9.63983,0,0,1-.7324-3.9545,10.07535,10.07535,0,0,1,.8525-4.0913,9.57516,9.57516,0,0,1,2.5059-3.3921,12.42951,12.42951,0,0,1,4.125-2.3184,17.17887,17.17887,0,0,1,5.7099-.8691,17.49453,17.49453,0,0,1,6.5801,1.1928,14.86767,14.86767,0,0,1,4.9434,3.1368Z"/><path d="M111.833,75.8594h-3.78421a4.07247,4.07247,0,0,1-1.875-.3579,2.30276,2.30276,0,0,1-1.0234-1.4493l-.75-2.4887a28.71257,28.71257,0,0,1-2.60739,2.0967,15.83543,15.83543,0,0,1-2.6426,1.5175,13.49962,13.49962,0,0,1-2.8975.9204,17.445,17.445,0,0,1-3.4101.3067,13.40357,13.40357,0,0,1-4.0908-.5982,8.80348,8.80348,0,0,1-3.2217-1.7959,8.14188,8.14188,0,0,1-2.0967-2.976,10.588,10.588,0,0,1-.75-4.1392,8.18671,8.18671,0,0,1,1.04-3.917,9.791,9.791,0,0,1,3.46-3.4883,22.09523,22.09523,0,0,1,6.4434-2.5825,41.1552,41.1552,0,0,1,9.9892-1.0268V53.8198q0-3.5376-1.4824-5.2387a5.41612,5.41612,0,0,0-4.3135-1.7007,10.44574,10.44574,0,0,0-3.4092.4775,13.20605,13.20605,0,0,0-2.3691,1.0737q-1.00635.597-1.8584,1.0743a3.76906,3.76906,0,0,1-1.875.477,2.43614,2.43614,0,0,1-1.4658-.4429,3.48284,3.48284,0,0,1-.9883-1.0913l-1.5342-2.6933a20.79935,20.79935,0,0,1,14.5576-5.523,14.07735,14.07735,0,0,1,5.47169,1.0059,11.63833,11.63833,0,0,1,4.0742,2.7954,11.98423,11.98423,0,0,1,2.5401,4.2788,16.45344,16.45344,0,0,1,.86911,5.4546ZM95.4688,70.6089a11.32786,11.32786,0,0,0,2.3857-.2349,9.11964,9.11964,0,0,0,2.0625-.7046,10.9742,10.9742,0,0,0,1.876-1.1577,16.95289,16.95289,0,0,0,1.8232-1.6279V61.0293a34.17619,34.17619,0,0,0-6.1533.4634,16.25364,16.25364,0,0,0-3.9717,1.1845,5.10514,5.10514,0,0,0-2.1308,1.6827,3.73913,3.73913,0,0,0-.6309,2.0942,3.69391,3.69391,0,0,0,1.3125,3.1934A5.65453,5.65453,0,0,0,95.4688,70.6089Z"/><path d="M120.21969,75.8594V25.1978h8.4209v19.978a16.5908,16.5908,0,0,1,4.7041-3.5283,13.56049,13.56049,0,0,1,6.1367-1.3125,11.34642,11.34642,0,0,1,9.3252,4.6025,16.457,16.457,0,0,1,2.6592,5.5571,27.98531,27.98531,0,0,1,.9375,7.6026,23.94578,23.94578,0,0,1-1.0576,7.2617,17.7672,17.7672,0,0,1-3.0166,5.7959,13.95268,13.95268,0,0,1-4.7393,3.8354,13.791,13.791,0,0,1-6.2216,1.3804,12.38853,12.38853,0,0,1-2.9317-.3237,10.059,10.059,0,0,1-4.4492-2.3184,17.21928,17.21928,0,0,1-1.79-1.8579l-.375,2.3525a2.1178,2.1178,0,0,1-.69929,1.2613,2.1739,2.1739,0,0,1-1.34661.375ZM136.584,46.8804a8.60429,8.60429,0,0,0-4.48341,1.1084,12.94456,12.94456,0,0,0-3.46,3.1191V66.7905a8.00225,8.00225,0,0,0,3.1192,2.4717,9.47687,9.47687,0,0,0,3.665.6992,8.04919,8.04919,0,0,0,3.4434-.7158,6.75132,6.75132,0,0,0,2.6084-2.1821,10.79812,10.79812,0,0,0,1.6533-3.6992,21.16562,21.16562,0,0,0,.57911-5.2671,23.416,23.416,0,0,0-.49421-5.1993,10.03975,10.03975,0,0,0-1.415-3.4604,5.59478,5.59478,0,0,0-2.2324-1.9434A6.96962,6.96962,0,0,0,136.584,46.8804Z"/><path d="M169.21,30.6865a4.788,4.788,0,0,1-.44341,2.0454,5.55674,5.55674,0,0,1-2.8975,2.813,5.27811,5.27811,0,0,1-2.1132.4258,5.07892,5.07892,0,0,1-2.0635-.4258,5.4738,5.4738,0,0,1-1.6875-1.1421,5.53438,5.53438,0,0,1-1.1416-1.6709,4.9553,4.9553,0,0,1-.4268-2.0454,5.283,5.283,0,0,1,.4268-2.1137,5.334,5.334,0,0,1,2.8291-2.8467,5.08759,5.08759,0,0,1,2.0635-.4263,5.287,5.287,0,0,1,2.1132.4263,5.64014,5.64014,0,0,1,1.7217,1.1421,5.502,5.502,0,0,1,1.1758,1.7046A5.10275,5.10275,0,0,1,169.21,30.6865Zm-1.26081,10.1939v34.979h-8.4209V40.8804Z"/><path d="M186.42679,25.1978V75.8594h-8.4209V25.1978Z"/><path d="M206.166,30.6865a4.80272,4.80272,0,0,1-.44331,2.0454,5.56344,5.56344,0,0,1-2.8985,2.813,5.27894,5.27894,0,0,1-2.1133.4258,5.0749,5.0749,0,0,1-2.0625-.4258,5.43236,5.43236,0,0,1-2.83-2.813,4.95458,4.95458,0,0,1-.4258-2.0454,5.28229,5.28229,0,0,1,.4258-2.1137,5.4147,5.4147,0,0,1,1.1425-1.7046,5.48328,5.48328,0,0,1,1.6875-1.1421,5.08357,5.08357,0,0,1,2.0625-.4263,5.28784,5.28784,0,0,1,2.1133.4263,5.62928,5.62928,0,0,1,1.7217,1.1421,5.50462,5.50462,0,0,1,1.1768,1.7046A5.11855,5.11855,0,0,1,206.166,30.6865Zm-1.26171,10.1939v34.979h-8.4209V40.8804Z"/><path d="M239.03129,75.8594a2.06951,2.06951,0,0,1-2.1485-1.5342l-.6816-3.375A20.97731,20.97731,0,0,1,233.917,73.166a14.39692,14.39692,0,0,1-2.57421,1.7046,13.36021,13.36021,0,0,1-2.96579,1.1079,14.25677,14.25677,0,0,1-3.42681.3921,11.39171,11.39171,0,0,1-9.3584-4.6533,16.58868,16.58868,0,0,1-2.6592-5.6084,28.3226,28.3226,0,0,1-.9375-7.6367,23.83108,23.83108,0,0,1,1.0576-7.2276,17.57373,17.57373,0,0,1,3.0342-5.7959,14.14582,14.14582,0,0,1,4.7383-3.8354,13.68286,13.68286,0,0,1,6.2051-1.3809,12.15034,12.15034,0,0,1,5.01171.9375,13.15791,13.15791,0,0,1,3.71579,2.5059V25.1978h8.4209V75.8594Zm-11.2168-6.1709a8.60915,8.60915,0,0,0,4.4658-1.0908,13.25077,13.25077,0,0,0,3.4775-3.1026V49.8125a8.2801,8.2801,0,0,0-3.1191-2.4546,9.198,9.198,0,0,0-3.6309-.7158,8.15786,8.15786,0,0,0-3.4609.7158,6.76583,6.76583,0,0,0-2.625,2.165,10.61745,10.61745,0,0,0-1.6533,3.6817,21.12253,21.12253,0,0,0-.5791,5.2676,23.35287,23.35287,0,0,0,.4941,5.1992,10.22146,10.22146,0,0,0,1.415,3.4775,5.38027,5.38027,0,0,0,2.25,1.9429A7.16053,7.16053,0,0,0,227.81449,69.6885Z"/><path d="M280.69239,75.8594h-3.7852a4.07814,4.07814,0,0,1-1.875-.3579,2.30147,2.30147,0,0,1-1.0224-1.4493l-.75-2.4887a28.71989,28.71989,0,0,1-2.6084,2.0967,15.86673,15.86673,0,0,1-2.6416,1.5175,13.52617,13.52617,0,0,1-2.8985.9204,17.42824,17.42824,0,0,1-3.4092.3067,13.39987,13.39987,0,0,1-4.0908-.5982,8.797,8.797,0,0,1-3.2217-1.7959,8.131,8.131,0,0,1-2.09659-2.976,10.56984,10.56984,0,0,1-.75-4.1392,8.18518,8.18518,0,0,1,1.039-3.917,9.80264,9.80264,0,0,1,3.461-3.4883,22.07229,22.07229,0,0,1,6.44329-2.5825,41.1562,41.1562,0,0,1,9.9893-1.0268V53.8198q0-3.5376-1.4834-5.2387a5.41255,5.41255,0,0,0-4.3125-1.7007,10.44157,10.44157,0,0,0-3.4092.4775,13.20284,13.20284,0,0,0-2.3691,1.0737q-1.00635.597-1.85839,1.0743a3.77181,3.77181,0,0,1-1.875.477,2.43645,2.43645,0,0,1-1.46591-.4429,3.487,3.487,0,0,1-.9892-1.0913l-1.5342-2.6933a20.80261,20.80261,0,0,1,14.5576-5.523,14.07982,14.07982,0,0,1,5.47271,1.0059,11.64845,11.64845,0,0,1,4.07419,2.7954,11.96773,11.96773,0,0,1,2.5391,4.2788,16.43048,16.43048,0,0,1,.8701,5.4546Zm-16.3653-5.2505a11.33855,11.33855,0,0,0,2.3868-.2349,9.13652,9.13652,0,0,0,2.0625-.7046,11.00521,11.00521,0,0,0,1.875-1.1577,17.05463,17.05463,0,0,0,1.8242-1.6279V61.0293a34.18741,34.18741,0,0,0-6.1543.4634,16.266,16.266,0,0,0-3.9717,1.1845,5.1175,5.1175,0,0,0-2.1308,1.6827,3.73812,3.73812,0,0,0-.6299,2.0942,3.6913,3.6913,0,0,0,1.3125,3.1934A5.65127,5.65127,0,0,0,264.32709,70.6089Z"/><path d="M313.59179,75.8594a2.06853,2.06853,0,0,1-2.1475-1.5342l-.6826-3.375a20.87765,20.87765,0,0,1-2.2842,2.2158,14.42449,14.42449,0,0,1-2.5732,1.7046,13.38689,13.38689,0,0,1-2.9668,1.1079,14.247,14.247,0,0,1-3.4258.3921,11.38815,11.38815,0,0,1-9.3584-4.6533,16.55488,16.55488,0,0,1-2.6592-5.6084,28.28676,28.28676,0,0,1-.9375-7.6367,23.8281,23.8281,0,0,1,1.0567-7.2276,17.57187,17.57187,0,0,1,3.0342-5.7959,14.14449,14.14449,0,0,1,4.7382-3.8354,13.68582,13.68582,0,0,1,6.2051-1.3809,12.147,12.147,0,0,1,5.0117.9375,13.14431,13.14431,0,0,1,3.7159,2.5059V25.1978h8.4209V75.8594ZM302.375,69.6885a8.61512,8.61512,0,0,0,4.46679-1.0908,13.26372,13.26372,0,0,0,3.4766-3.1026V49.8125a8.28037,8.28037,0,0,0-3.1192-2.4546,9.194,9.194,0,0,0-3.6308-.7158,8.15019,8.15019,0,0,0-3.46.7158,6.75868,6.75868,0,0,0-2.625,2.165,10.5997,10.5997,0,0,0-1.6543,3.6817,21.12726,21.12726,0,0,0-.57909,5.2676,23.35888,23.35888,0,0,0,.49409,5.1992,10.21946,10.21946,0,0,0,1.4151,3.4775,5.38027,5.38027,0,0,0,2.25,1.9429A7.16339,7.16339,0,0,0,302.375,69.6885Z"/><path d="M342.29689,40.335a16.99556,16.99556,0,0,1,6.0859,1.0566,13.32667,13.32667,0,0,1,4.7901,3.0855,14.10083,14.10083,0,0,1,3.1367,4.9775,18.79888,18.79888,0,0,1,1.125,6.7334,12.38978,12.38978,0,0,1-.085,1.5854,2.53437,2.53437,0,0,1-.30759.9883,1.242,1.242,0,0,1-.59671.5117,2.54591,2.54591,0,0,1-.9541.1534H333.876q.375,5.38695,2.89839,7.9096a9.03041,9.03041,0,0,0,6.6817,2.5225,11.57312,11.57312,0,0,0,3.5293-.4771,16.51686,16.51686,0,0,0,2.5908-1.0571q1.10745-.5793,1.9433-1.0566a3.26089,3.26089,0,0,1,1.6192-.4776,1.83011,1.83011,0,0,1,.8867.2046,1.96583,1.96583,0,0,1,.6475.5796l2.455,3.0684a14.0334,14.0334,0,0,1-3.1367,2.7446,17.583,17.583,0,0,1-3.6308,1.7729,19.898,19.898,0,0,1-3.8526.9375,27.6144,27.6144,0,0,1-3.8017.2725,18.69816,18.69816,0,0,1-6.7842-1.21,15.18563,15.18563,0,0,1-5.4551-3.58,16.78526,16.78526,0,0,1-3.6475-5.8638,22.68661,22.68661,0,0,1-1.33-8.0972,19.37115,19.37115,0,0,1,1.1591-6.7329,16.19169,16.19169,0,0,1,3.3243-5.4892,15.65686,15.65686,0,0,1,5.2841-3.6988A17.40962,17.40962,0,0,1,342.29689,40.335Zm.1709,6.0341a7.78812,7.78812,0,0,0-5.7617,2.0796,10.26091,10.26091,0,0,0-2.6592,5.898h15.8193a10.51214,10.51214,0,0,0-.4433-3.085,7.11812,7.11812,0,0,0-1.3643-2.54A6.45134,6.45134,0,0,0,345.74019,47,7.89352,7.89352,0,0,0,342.46779,46.3691Z"/><path d="M363.876,74.2231a2.22253,2.22253,0,0,1,.63079-1.5854,2.0548,2.0548,0,0,1,1.5518-.665,2.27077,2.27077,0,0,1,2.25,2.2504,2.053,2.053,0,0,1-.665,1.5508,2.22447,2.22447,0,0,1-1.585.6309,2.15446,2.15446,0,0,1-2.18259-2.1817Z"/><path d="M389.10449,41.9028a13.29778,13.29778,0,0,1,4.04.5796,11.6091,11.6091,0,0,1,3.2559,1.6026h8.1142v.1362a.42022.42022,0,0,1-.1699.3413.58942.58942,0,0,1-.375.1362l-6.6826.1363a9.538,9.538,0,0,1,2.335,3.3754,11.25788,11.25788,0,0,1,.8017,4.3296,11.38419,11.38419,0,0,1-.8017,4.3467,9.4704,9.4704,0,0,1-2.2842,3.3584,10.33551,10.33551,0,0,1-3.5625,2.1646,13.41666,13.41666,0,0,1-4.6709.7671,12.94318,12.94318,0,0,1-5.8633-1.2613,9.654,9.654,0,0,0-1.5683,1.0908,8.175,8.175,0,0,0-1.2276,1.2955,6.21487,6.21487,0,0,0-.8008,1.3979,3.63544,3.63544,0,0,0-.29,1.3638,3.23876,3.23876,0,0,0,1.0566,2.6079,6.8252,6.8252,0,0,0,2.79591,1.3467,20.48249,20.48249,0,0,0,3.95409.5625q2.2164.12,4.5352.2216,2.31735.1026,4.5342.3409a14.86855,14.86855,0,0,1,3.9541.938,6.86936,6.86936,0,0,1,2.7959,1.977,5.26932,5.26932,0,0,1,1.0566,3.4605A7.64033,7.64033,0,0,1,402.998,82.354a10.64873,10.64873,0,0,1-2.93261,3.2388,15.06617,15.06617,0,0,1-4.5683,2.25,20.04649,20.04649,0,0,1-5.9834.8354,22.47563,22.47563,0,0,1-5.9658-.7158,14.3149,14.3149,0,0,1-4.3643-1.9434,8.499,8.499,0,0,1-2.6758-2.8637,7.084,7.084,0,0,1-.9033-3.4776,6.93288,6.93288,0,0,1,1.9434-4.9262,12.649,12.649,0,0,1,5.25-3.188,6.93805,6.93805,0,0,1-3.0518-1.5171,3.82738,3.82738,0,0,1-1.1416-2.9829,3.97338,3.97338,0,0,1,.29-1.4322,7.01128,7.01128,0,0,1,.8008-1.4829,8.29113,8.29113,0,0,1,1.2442-1.3974,8.81735,8.81735,0,0,1,1.6533-1.1763,9.31385,9.31385,0,0,1-3.5625-3.6821,11.13773,11.13773,0,0,1-1.2442-5.3526,11.50228,11.50228,0,0,1,.7842-4.3129,9.297,9.297,0,0,1,2.2666-3.358,10.57328,10.57328,0,0,1,3.5635-2.1821A13.2641,13.2641,0,0,1,389.10449,41.9028Zm14.1826,36.6158a4.6604,4.6604,0,0,0-.9375-3.0513,6.12041,6.12041,0,0,0-2.5058-1.773,14.03366,14.03366,0,0,0-3.5792-.8691q-2.01255-.238-4.1933-.3579-2.18265-.1194-4.3301-.2217a28.77222,28.77222,0,0,1-3.9551-.4434,20.99,20.99,0,0,0-2.9658,1.3296,10.01815,10.01815,0,0,0-2.3349,1.7388,7.60691,7.60691,0,0,0-1.5176,2.1821,6.37226,6.37226,0,0,0,.375,5.8809,8.48269,8.48269,0,0,0,2.6084,2.6421,13.79094,13.79094,0,0,0,4.1084,1.7729,21.123,21.123,0,0,0,5.4541.648,19.08389,19.08389,0,0,0,5.1826-.6992,15.84593,15.84593,0,0,0,4.3975-1.9434,10.34738,10.34738,0,0,0,3.0517-2.9829A6.87328,6.87328,0,0,0,403.28709,78.5186Zm-14.1826-16.0235a12.77908,12.77908,0,0,0,4.4326-.7158,9.20314,9.20314,0,0,0,3.29-2.0288,8.79285,8.79285,0,0,0,2.0625-3.1533,11.099,11.099,0,0,0,.7159-4.0572,10.86611,10.86611,0,0,0-.7334-4.0571,8.86064,8.86064,0,0,0-2.0967-3.1533,9.36932,9.36932,0,0,0-3.3066-2.0288,13.65963,13.65963,0,0,0-8.7276,0,9.37277,9.37277,0,0,0-3.3076,2.0288,8.87385,8.87385,0,0,0-2.0967,3.1533,11.60355,11.60355,0,0,0,0,8.1143,8.87385,8.87385,0,0,0,2.0967,3.1533,9.36558,9.36558,0,0,0,3.3076,2.0288A12.55655,12.55655,0,0,0,389.10449,62.4951Z"/><path d="M424.35549,41.9028a14.88338,14.88338,0,0,1,6.2392,1.2447,12.70677,12.70677,0,0,1,4.585,3.4946,15.34321,15.34321,0,0,1,2.8125,5.4375,24.59409,24.59409,0,0,1,.9551,7.0742,24.24069,24.24069,0,0,1-.9551,7.0405,15.37242,15.37242,0,0,1-2.8125,5.4034,12.36639,12.36639,0,0,1-4.585,3.4604,16.72744,16.72744,0,0,1-12.4951,0,12.38737,12.38737,0,0,1-4.5683-3.4604,15.34,15.34,0,0,1-2.8125-5.4034,24.23763,24.23763,0,0,1-.9551-7.0405,24.591,24.591,0,0,1,.9551-7.0742,15.31121,15.31121,0,0,1,2.8125-5.4375,12.73079,12.73079,0,0,1,4.5683-3.4946A14.84535,14.84535,0,0,1,424.35549,41.9028Zm0,33.6836a14.20239,14.20239,0,0,0,6-1.1928,11.72584,11.72584,0,0,0,4.3134-3.3414,14.633,14.633,0,0,0,2.5909-5.1821,26.45007,26.45007,0,0,0,0-13.4492,14.98979,14.98979,0,0,0-2.5909-5.2334,11.74059,11.74059,0,0,0-4.3134-3.3921,15.51994,15.51994,0,0,0-12.0176,0,11.7698,11.7698,0,0,0-4.29589,3.3921,14.97233,14.97233,0,0,0-2.59081,5.2334,26.44742,26.44742,0,0,0,0,13.4492,14.61619,14.61619,0,0,0,2.59081,5.1821,11.75415,11.75415,0,0,0,4.29589,3.3414A14.17235,14.17235,0,0,0,424.35549,75.5864Z"/><path d="M443.03909,42.4487h.4775a.51833.51833,0,0,1,.4092.1534,1.09557,1.09557,0,0,1,.2041.3237l13.2969,30.6152c.0898.2046.1757.4092.2558.6138a3.98464,3.98464,0,0,1,.1875.6479,3.79512,3.79512,0,0,1,.1875-.6479q.11865-.3069.2549-.6138l13.2969-30.6152c.1582-.3179.3633-.4771.6133-.4771h.4775l-14.5234,33.4107h-.6143Z"/><path d="M473.72269,74.2231a2.22254,2.22254,0,0,1,.6308-1.5854,2.05482,2.05482,0,0,1,1.5518-.665,2.27094,2.27094,0,0,1,2.25,2.2504,2.05275,2.05275,0,0,1-.6651,1.5508,2.22407,2.22407,0,0,1-1.5849.6309,2.15447,2.15447,0,0,1-2.1826-2.1817Z"/><path d="M488.24509,88.1328V42.4487h.2051c.3174,0,.4775.1822.4775.5454l.1016,6.3413a17.71789,17.71789,0,0,1,5.4385-5.4379,12.94611,12.94611,0,0,1,7.00579-1.9947q6.47613,0,9.9209,4.1768,3.4425,4.1763,3.4434,12.8696a23.76481,23.76481,0,0,1-.9375,6.8018,16.26089,16.26089,0,0,1-2.7783,5.4887,13.107,13.107,0,0,1-4.586,3.6822,14.26388,14.26388,0,0,1-6.3584,1.3467,12.29013,12.29013,0,0,1-11.11419-5.9664V88.1328ZM501.47358,42.585a12.39529,12.39529,0,0,0-6.90429,2.0796,18.50113,18.50113,0,0,0-5.5058,5.7617V69.2114a13.35449,13.35449,0,0,0,4.875,4.9434,13.09449,13.09449,0,0,0,6.23919,1.4316,13.64232,13.64232,0,0,0,6.1026-1.2783,12.07423,12.07423,0,0,0,4.3125-3.5283,15.496,15.496,0,0,0,2.57422-5.2847,24.11165,24.11165,0,0,0,.85248-6.5459q0-8.3181-3.18748-12.3413Q507.64312,42.5855,501.47358,42.585Z"/><path d="M532.02048,76.4048a6.37374,6.37374,0,0,1-4.60248-1.6021q-1.67148-1.60245-1.67092-5.2846V44.5625h-5.5225c-.3193,0-.4775-.1138-.4775-.3413v-.2046l6-.1362.2724-13.4326a.65136.65136,0,0,1,.086-.3238.2751.2751,0,0,1,.2558-.1533h.2041V43.8804h11.3867v.6821h-11.3867V69.5181a8.50727,8.50727,0,0,0,.4258,2.8808,4.9995,4.9995,0,0,0,1.17682,1.9092,4.57883,4.57883,0,0,0,1.73828,1.0737,6.43443,6.43443,0,0,0,2.1142.3413,6.529,6.529,0,0,0,2.5059-.4433,10.01762,10.01762,0,0,0,1.8232-.9546,9.36951,9.36951,0,0,0,1.2109-.9546c.3067-.2949.5284-.4434.6651-.4434a.3949.3949,0,0,1,.27242.1368l.13578.1362a7.28968,7.28968,0,0,1-1.2442,1.2783,8.34572,8.34572,0,0,1-1.6025,1.023,9.0793,9.0793,0,0,1-1.8408.6645A8.04635,8.04635,0,0,1,532.02048,76.4048Z"/><line x1="12" y1="11.5" x2="359" y2="11.5" style="fill:none;stroke:#000;stroke-miterlimit:10"/><line x1="12" y1="99.5" x2="359" y2="99.5" style="fill:none;stroke:#000;stroke-miterlimit:10"/></svg>