<svg xmlns="http://www.w3.org/2000/svg" viewBox="0 0 141.73228 141.73228"><title>Artboard 11 copy 2</title><path d="M70.86612,63.69976a15.04126,15.04126,0,1,1,15.041-15.041A15.058,15.058,0,0,1,70.86612,63.69976Zm0-27.08252a12.04126,12.04126,0,1,0,12.041,12.0415A12.05479,12.05479,0,0,0,70.86612,36.61724Z" style="fill:#3778ff"/><path d="M97.7128,98.524a1.50008,1.50008,0,0,1-1.5-1.5V92.959a23.34065,23.34065,0,0,0-23.31445-23.314H68.8339A23.34066,23.34066,0,0,0,45.51944,92.959V97.024a1.5,1.5,0,0,1-3,0V92.959a26.34394,26.34394,0,0,1,26.31446-26.314h4.06445A26.34393,26.34393,0,0,1,99.2128,92.959V97.024A1.50007,1.50007,0,0,1,97.7128,98.524Z" style="fill:#3778ff"/><path d="M106.95694,58.628a12.50684,12.50684,0,1,1,12.50684-12.50684A12.52075,12.52075,0,0,1,106.95694,58.628Zm0-22.01367a9.50684,9.50684,0,1,0,9.50684,9.50683A9.51747,9.51747,0,0,0,106.95694,36.61431Z" style="fill:#3778ff"/><path d="M128.77921,86.93413a1.50007,1.50007,0,0,1-1.5-1.5v-3.3042A18.691,18.691,0,0,0,108.60929,63.46H105.3046a18.60519,18.60519,0,0,0-12.52051,4.85352,1.49988,1.49988,0,0,1-2.01562-2.22168A21.59721,21.59721,0,0,1,105.3046,60.46h3.30469a21.69428,21.69428,0,0,1,21.66992,21.66992v3.3042A1.50007,1.50007,0,0,1,128.77921,86.93413Z" style="fill:#3778ff"/><path d="M34.7753,58.628A12.50684,12.50684,0,1,1,47.28214,46.12114,12.52075,12.52075,0,0,1,34.7753,58.628Zm0-22.01367a9.50684,9.50684,0,1,0,9.50684,9.50683A9.51747,9.51747,0,0,0,34.7753,36.61431Z" style="fill:#3778ff"/><path d="M12.954,86.93413a1.50007,1.50007,0,0,1-1.5-1.5v-3.3042A21.69408,21.69408,0,0,1,33.123,60.46h3.30469a21.59721,21.59721,0,0,1,14.53613,5.63184,1.49989,1.49989,0,0,1-2.01563,2.22168A18.60515,18.60515,0,0,0,36.42765,63.46H33.123A18.6908,18.6908,0,0,0,14.454,82.12993v3.3042A1.50007,1.50007,0,0,1,12.954,86.93413Z" style="fill:#3778ff"/></svg>