<svg xmlns="http://www.w3.org/2000/svg" viewBox="0 0 141.73228 141.73228"><title>Artboard 14</title><path d="M122.9667,71.46343H18.76553a4.33935,4.33935,0,0,1-4.335-4.33447V65.03179a4.33977,4.33977,0,0,1,4.335-4.335H122.9667a4.33977,4.33977,0,0,1,4.335,4.335V67.129A4.33935,4.33935,0,0,1,122.9667,71.46343ZM18.76553,63.69683a1.33618,1.33618,0,0,0-1.335,1.335V67.129a1.33607,1.33607,0,0,0,1.335,1.33447H122.9667a1.33607,1.33607,0,0,0,1.335-1.33447V65.03179a1.33618,1.33618,0,0,0-1.335-1.335Z" style="fill:#3778ff"/><path d="M117.77139,123.12456a1.50007,1.50007,0,0,1-1.5-1.5V69.96343a1.5,1.5,0,0,1,3,0v51.66113A1.50007,1.50007,0,0,1,117.77139,123.12456Z" style="fill:#3778ff"/><path d="M23.96084,123.12456a1.50007,1.50007,0,0,1-1.5-1.5V69.96343a1.5,1.5,0,0,1,3,0v51.66113A1.50007,1.50007,0,0,1,23.96084,123.12456Z" style="fill:#3778ff"/><path d="M53.86319,123.12456a1.50007,1.50007,0,0,1-1.5-1.5V69.96343a1.5,1.5,0,0,1,3,0v51.66113A1.50007,1.50007,0,0,1,53.86319,123.12456Z" style="fill:#3778ff"/><path d="M53.86319,86.29888H23.96084a1.5,1.5,0,0,1,0-3H53.86319a1.5,1.5,0,0,1,0,3Z" style="fill:#3778ff"/><path d="M53.86319,101.13433H23.96084a1.5,1.5,0,0,1,0-3H53.86319a1.5,1.5,0,0,1,0,3Z" style="fill:#3778ff"/><path d="M40.95986,93.71636h-4.0957a1.5,1.5,0,1,1,0-3h4.0957a1.5,1.5,0,1,1,0,3Z" style="fill:#3778ff"/><path d="M40.95986,78.8814h-4.0957a1.5,1.5,0,0,1,0-3h4.0957a1.5,1.5,0,1,1,0,3Z" style="fill:#3778ff"/><path d="M119.84365,55.46929H75.6376a2.50263,2.50263,0,0,1-2.5-2.5V21.108a2.50263,2.50263,0,0,1,2.5-2.5h44.206a2.50263,2.50263,0,0,1,2.5,2.5V52.96929A2.50263,2.50263,0,0,1,119.84365,55.46929Zm-43.706-3h43.206V21.608H76.1376Z" style="fill:#3778ff"/><path d="M106.5585,63.69683H88.92276a1.50007,1.50007,0,0,1-1.5-1.5V53.96929a1.50007,1.50007,0,0,1,1.5-1.5H106.5585a1.50008,1.50008,0,0,1,1.5,1.5v8.22754A1.50008,1.50008,0,0,1,106.5585,63.69683Zm-16.13574-3H105.0585V55.46929H90.42276Z" style="fill:#3778ff"/><path d="M120.84365,47.15874H74.6376a1.5,1.5,0,0,1,0-3h46.206a1.5,1.5,0,0,1,0,3Z" style="fill:#3778ff"/><circle cx="97.7407" cy="49.43802" r="1.04653" style="fill:#3778ff"/><path d="M45.08,63.69683H32.744a1.5,1.5,0,0,1-1.48242-1.271l-2.09179-13.541a1.49986,1.49986,0,0,1,1.48242-1.729H47.17178a1.49986,1.49986,0,0,1,1.48242,1.729l-2.0918,13.541A1.5,1.5,0,0,1,45.08,63.69683Zm-11.0498-3h9.76367l1.62891-10.541H32.40127Z" style="fill:#3778ff"/><path d="M50.05166,50.15581H27.77236a1.5,1.5,0,1,1,0-3h22.2793a1.5,1.5,0,0,1,0,3Z" style="fill:#3778ff"/><path d="M38.912,50.15581a1.50007,1.50007,0,0,1-1.5-1.5V35.11431a1.5,1.5,0,0,1,3,0v13.5415A1.50007,1.50007,0,0,1,38.912,50.15581Z" style="fill:#3778ff"/><path d="M44.48233,42.65581c-3.74024,0-6.60645-3.41992-6.72657-3.56543a1.49951,1.49951,0,0,1,0-1.91015c.12012-.14551,2.98633-3.56543,6.72657-3.56543s6.60644,3.41992,6.72656,3.56543a1.502,1.502,0,0,1,0,1.91015C51.08877,39.23589,48.22256,42.65581,44.48233,42.65581Zm-3.43067-4.51953a5.8186,5.8186,0,0,0,3.43067,1.51953A5.81376,5.81376,0,0,0,47.913,38.1353a5.81412,5.81412,0,0,0-3.43066-1.5205A5.72121,5.72121,0,0,0,41.05166,38.13628Z" style="fill:#3778ff"/><path d="M33.3417,45.67632c-3.74023,0-6.60644-3.41992-6.72656-3.56543a1.502,1.502,0,0,1,0-1.91016c.12012-.1455,2.98633-3.56543,6.72656-3.56543s6.60645,3.41993,6.72656,3.56543a1.49949,1.49949,0,0,1,0,1.91016C39.94815,42.2564,37.08194,45.67632,33.3417,45.67632ZM29.911,41.15581a5.814,5.814,0,0,0,3.43066,1.52051,5.72118,5.72118,0,0,0,3.43066-1.52148A5.81856,5.81856,0,0,0,33.3417,39.6353,5.8138,5.8138,0,0,0,29.911,41.15581Z" style="fill:#3778ff"/></svg>