<svg xmlns="http://www.w3.org/2000/svg" viewBox="0 0 141.73228 141.73228"><title>Artboard 15</title><path d="M109.11235,94.13823H32.62016a2.50263,2.50263,0,0,1-2.5-2.5v-55.521a2.50263,2.50263,0,0,1,2.5-2.5h76.49219a2.50263,2.50263,0,0,1,2.5,2.5v55.521A2.50263,2.50263,0,0,1,109.11235,94.13823Zm-75.99219-3h75.49219v-54.521H33.12016Z" style="fill:#3778ff"/><path d="M85.84574,108.1148h-29.959a1.50008,1.50008,0,0,1-1.5-1.5V92.63823a1.50008,1.50008,0,0,1,1.5-1.5h29.959a1.50007,1.50007,0,0,1,1.5,1.5V106.6148A1.50007,1.50007,0,0,1,85.84574,108.1148Zm-28.459-3h26.959V94.13823h-26.959Z" style="fill:#3778ff"/><path d="M110.11235,80.02105H31.62016a1.5,1.5,0,0,1,0-3h78.49219a1.5,1.5,0,0,1,0,3Z" style="fill:#3778ff"/><circle cx="70.86614" cy="84.94114" r="1.77775" style="fill:#3778ff"/><path d="M93.60258,108.1148H48.12992a1.5,1.5,0,0,1,0-3H93.60258a1.5,1.5,0,0,1,0,3Z" style="fill:#3778ff"/><path d="M101.31157,67.53521,93.21,56.30767a.49987.49987,0,0,0-.90234.23779l-1.50977,13.7627a.49991.49991,0,0,0,.82813.4292l3.97949-3.52051,5.19727,1.1001a.4999.4999,0,0,0,.50879-.78174Z" style="fill:#3778ff"/><path d="M75.19926,58.72124H40.78032a1.5,1.5,0,0,1,0-3H75.19926a1.5,1.5,0,0,1,0,3Z" style="fill:#3778ff"/><path d="M63.67387,64.9815H40.78032a1.5,1.5,0,0,1,0-3H63.67387a1.5,1.5,0,0,1,0,3Z" style="fill:#3778ff"/><rect x="39.28032" y="46.89165" width="50.22949" height="5.20215" rx="1.5" style="fill:#3778ff"/></svg>