<svg xmlns="http://www.w3.org/2000/svg" viewBox="0 0 141.73228 141.73228"><title>Artboard 18</title><path d="M116.67539,106.669H25.05722a2.50264,2.50264,0,0,1-2.5-2.5V37.56353a2.50263,2.50263,0,0,1,2.5-2.5h91.61817a2.50263,2.50263,0,0,1,2.5,2.5V104.169A2.50264,2.50264,0,0,1,116.67539,106.669Zm-91.11817-3h90.61817V38.06353H25.55722Z" style="fill:#3778ff"/><path d="M117.67539,89.83111H24.05722a1.5,1.5,0,0,1,0-3h93.61817a1.5,1.5,0,0,1,0,3Z" style="fill:#3778ff"/><path d="M70.86582,61.60552a9.27173,9.27173,0,1,1,9.27246-9.272A9.2821,9.2821,0,0,1,70.86582,61.60552Zm0-15.54346a6.27173,6.27173,0,1,0,6.27246,6.27149A6.27872,6.27872,0,0,0,70.86582,46.06206Z" style="fill:#3778ff"/><path d="M86.274,83.73687a1.50008,1.50008,0,0,1-1.5-1.5v-2.333A12.75582,12.75582,0,0,0,72.03281,67.16265h-2.333A12.75582,12.75582,0,0,0,56.95859,79.90386v2.333a1.5,1.5,0,0,1-3,0v-2.333A15.75909,15.75909,0,0,1,69.6998,64.16265h2.333A15.75909,15.75909,0,0,1,87.774,79.90386v2.333A1.50007,1.50007,0,0,1,86.274,83.73687Z" style="fill:#3778ff"/><path d="M36.43125,96.57085l-5.57032-4.022a.5.5,0,0,0-.793.40527v8.04444a.50009.50009,0,0,0,.793.40527l5.57032-4.02246a.50019.50019,0,0,0,0-.81055Z" style="fill:#3778ff"/><path d="M43.96054,100.52886a.99974.99974,0,0,1-1-1V94.42534a1,1,0,0,1,2,0v5.10352A.99973.99973,0,0,1,43.96054,100.52886Z" style="fill:#3778ff"/><path d="M47.899,100.52886a.99974.99974,0,0,1-1-1V94.42534a1,1,0,0,1,2,0v5.10352A.99974.99974,0,0,1,47.899,100.52886Z" style="fill:#3778ff"/><path d="M110.45078,97.97612H54.46445a1,1,0,1,1,0-2h55.98633a1,1,0,0,1,0,2Z" style="fill:#3778ff"/><circle cx="77.9032" cy="96.97632" r="3.33643" style="fill:#3778ff"/><circle cx="31.03054" cy="43.54835" r="2.32284" style="fill:#3778ff"/><path d="M35.767,45.87132V41.3212h2.01269a1.29272,1.29272,0,0,1,.58005.131,1.50569,1.50569,0,0,1,.45775.34651,1.64249,1.64249,0,0,1,.30167.48687,1.47191,1.47191,0,0,1,.10833.548,1.519,1.519,0,0,1-.22014.80426,1.27347,1.27347,0,0,1-.59985.5224l1.039,1.711h-.99354l-.92947-1.52524h-.8724v1.52524Zm.884-2.301h1.10884a.47139.47139,0,0,0,.2283-.05766.59329.59329,0,0,0,.18286-.15666.79469.79469,0,0,0,.12114-.23411.89544.89544,0,0,0,.04542-.28828.8282.8282,0,0,0-.05125-.29468.77881.77881,0,0,0-.1386-.23412.6114.6114,0,0,0-.198-.15375.52567.52567,0,0,0-.22829-.05474H36.65105Z" style="fill:#3778ff"/><path d="M43.25288,45.0956v.77572h-3.16V41.3212h3.10175v.77515H40.977v1.096h1.91719v.71808H40.977V45.0956Z" style="fill:#3778ff"/><path d="M43.63725,43.56394a2.36372,2.36372,0,0,1,.15026-.82348,2.20878,2.20878,0,0,1,1.14379-1.24629,2.17089,2.17089,0,0,1,.94811-.19859,2.06992,2.06992,0,0,1,1.08672.27546,1.75767,1.75767,0,0,1,.68254.71749l-.67905.46824a1.18551,1.18551,0,0,0-.21781-.32381,1.11929,1.11929,0,0,0-.276-.20849,1.21686,1.21686,0,0,0-.30749-.11181,1.47926,1.47926,0,0,0-.31449-.03553,1.19848,1.19848,0,0,0-.58.13453,1.28219,1.28219,0,0,0-.41.34943,1.56714,1.56714,0,0,0-.24693.48686,1.871,1.871,0,0,0-.0827.54162,1.76631,1.76631,0,0,0,.09551.58,1.54164,1.54164,0,0,0,.27256.49037,1.36059,1.36059,0,0,0,.4228.33952,1.16045,1.16045,0,0,0,.54162.12813,1.43944,1.43944,0,0,0,.32147-.03844,1.19807,1.19807,0,0,0,.59519-.336.98105.98105,0,0,0,.205-.3174l.72447.4164a1.35285,1.35285,0,0,1-.311.45193,1.99971,1.99971,0,0,1-.45425.33021,2.33764,2.33764,0,0,1-.54161.205,2.36617,2.36617,0,0,1-.56491.07047,1.935,1.935,0,0,1-.88987-.205,2.29455,2.29455,0,0,1-.69536-.5352,2.46861,2.46861,0,0,1-.45542-.7501A2.32678,2.32678,0,0,1,43.63725,43.56394Z" style="fill:#3778ff"/></svg>