<svg xmlns="http://www.w3.org/2000/svg" viewBox="0 0 141.73228 141.73228"><title>Artboard 19</title><path d="M113.16881,110.17486h-8a1.5,1.5,0,1,1,0-3h7.5V16.55718H47.06334v7.5a1.5,1.5,0,1,1-3,0v-8a2.50263,2.50263,0,0,1,2.5-2.5h66.60547a2.50263,2.50263,0,0,1,2.5,2.5v91.61768A2.50264,2.50264,0,0,1,113.16881,110.17486Z" style="fill:#3778ff"/><path d="M104.16881,119.17486H37.56334a2.50263,2.50263,0,0,1-2.5-2.5V25.05718a2.50263,2.50263,0,0,1,2.5-2.5H91.91588a1.49977,1.49977,0,0,1,1.5,1.49853l.01269,11.7417,11.74219.0127a1.50029,1.50029,0,0,1,1.498,1.5v79.36475A2.50264,2.50264,0,0,1,104.16881,119.17486Zm-66.10547-3h65.60547V38.80864L91.92857,38.796a1.5,1.5,0,0,1-1.498-1.49854l-.0127-11.74023H38.06334Z" style="fill:#3778ff"/><path d="M105.16881,38.81011a1.49518,1.49518,0,0,1-1.06055-.43945L90.85533,25.11773a1.49984,1.49984,0,0,1,2.12109-2.1211l13.25293,13.25293a1.5,1.5,0,0,1-1.06054,2.56055Z" style="fill:#3778ff"/><path d="M96.59166,47.147H62.17271a1.5,1.5,0,1,1,0-3h34.419a1.5,1.5,0,0,1,0,3Z" style="fill:#3778ff"/><path d="M85.06627,53.40777H62.17271a1.5,1.5,0,1,1,0-3H85.06627a1.5,1.5,0,0,1,0,3Z" style="fill:#3778ff"/><path d="M48.5399,53.40777a1.49759,1.49759,0,0,1-.92676-.32081L43.3192,49.7105a1.4998,1.4998,0,0,1,1.85351-2.3584l2.85254,2.24268L52.81432,40.085A1.50018,1.50018,0,1,1,55.494,41.43462L49.87974,52.58257a1.49825,1.49825,0,0,1-1.33984.8252Z" style="fill:#3778ff"/><path d="M96.59166,71.67974H62.17271a1.5,1.5,0,0,1,0-3h34.419a1.5,1.5,0,0,1,0,3Z" style="fill:#3778ff"/><path d="M85.06627,77.94H62.17271a1.5,1.5,0,1,1,0-3H85.06627a1.5,1.5,0,0,1,0,3Z" style="fill:#3778ff"/><path d="M48.5399,77.94a1.49764,1.49764,0,0,1-.92676-.3208l-4.29394-3.376a1.49979,1.49979,0,0,1,1.85351-2.35839L48.02525,74.127l4.78907-9.50976A1.50018,1.50018,0,1,1,55.494,65.96685l-5.61426,11.148A1.49817,1.49817,0,0,1,48.5399,77.94Z" style="fill:#3778ff"/><path d="M96.59166,96.21245H62.17271a1.5,1.5,0,0,1,0-3h34.419a1.5,1.5,0,0,1,0,3Z" style="fill:#3778ff"/><path d="M85.06627,102.47271H62.17271a1.5,1.5,0,1,1,0-3H85.06627a1.5,1.5,0,0,1,0,3Z" style="fill:#3778ff"/><path d="M48.5399,102.47271a1.49764,1.49764,0,0,1-.92676-.3208L43.3192,98.77544a1.4998,1.4998,0,0,1,1.85351-2.3584l2.85254,2.24268L52.81432,89.15A1.50018,1.50018,0,1,1,55.494,90.49956l-5.61426,11.14795a1.49825,1.49825,0,0,1-1.33984.8252Z" style="fill:#3778ff"/></svg>