<svg xmlns="http://www.w3.org/2000/svg" viewBox="0 0 141.73228 141.73228"><title>Artboard 20</title><path d="M85.84582,108.1148h-29.959a1.50007,1.50007,0,0,1-1.5-1.5V92.63823a1.50007,1.50007,0,0,1,1.5-1.5h29.959a1.50007,1.50007,0,0,1,1.5,1.5V106.6148A1.50007,1.50007,0,0,1,85.84582,108.1148Zm-28.459-3h26.959V94.13823h-26.959Z" style="fill:#3778ff"/><path d="M80.18615,80.02105H31.05906c-.51831,0-.93883-.67139-.93883-1.5s.42052-1.5.93883-1.5H80.18615c.51832,0,.93883.67138.93883,1.5S80.70447,80.02105,80.18615,80.02105Z" style="fill:#3778ff"/><circle cx="70.86614" cy="84.94114" r="1.77775" style="fill:#3778ff"/><path d="M93.60168,108.1148H48.13a1.5,1.5,0,1,1,0-3H93.60168a1.5,1.5,0,0,1,0,3Z" style="fill:#3778ff"/><line x1="40.78023" y1="57.22122" x2="75.19878" y2="57.22122" style="fill:none;stroke:#3778ff;stroke-linecap:round;stroke-miterlimit:10;stroke-width:3px"/><line x1="40.78023" y1="63.48161" x2="63.6737" y2="63.48161" style="fill:none;stroke:#3778ff;stroke-linecap:round;stroke-miterlimit:10;stroke-width:3px"/><rect x="40.78023" y="48.39149" width="47.22978" height="2.20229" style="fill:#3778ff;stroke:#3778ff;stroke-linecap:round;stroke-linejoin:round;stroke-width:3px"/><path d="M108.61242,85.84124v5.297H33.12023v-54.521h75.49219V61.32561h3V36.11724a2.50263,2.50263,0,0,0-2.5-2.5H32.62023a2.50263,2.50263,0,0,0-2.5,2.5v55.521a2.50263,2.50263,0,0,0,2.5,2.5h76.49219a2.50263,2.50263,0,0,0,2.5-2.5v-5.797Z" style="fill:#3778ff"/><path d="M133.63635,61.32561H92.81457l-6.84228-5.13476a1.49986,1.49986,0,0,0-2.40039,1.1997v3.93506H81.3385a1.50007,1.50007,0,0,0-1.5,1.5V84.34124a1.50007,1.50007,0,0,0,1.5,1.5h52.29785a1.50008,1.50008,0,0,0,1.5-1.5V62.82561A1.50008,1.50008,0,0,0,133.63635,61.32561ZM86.31213,81.36419a1.6709,1.6709,0,1,1,1.66992-1.6709A1.673,1.673,0,0,1,86.31213,81.36419Zm0-6.10987a1.6709,1.6709,0,1,1,1.66992-1.6709A1.673,1.673,0,0,1,86.31213,75.25432Zm0-6.11035a1.6709,1.6709,0,1,1,1.66992-1.6709A1.673,1.673,0,0,1,86.31213,69.144Zm38.26074,11.54932H90.54748a1,1,0,0,1,0-2h34.02539a1,1,0,0,1,0,2ZM89.54748,73.58342a.99974.99974,0,0,1,1-1h27.63574a1,1,0,0,1,0,2H90.54748A.99974.99974,0,0,1,89.54748,73.58342Zm38.81543-5.11035H90.54748a1,1,0,0,1,0-2h37.81543a1,1,0,0,1,0,2Z" style="fill:#3778ff"/></svg>