<svg xmlns="http://www.w3.org/2000/svg" viewBox="0 0 626 117.91389"><title>Artboard 111</title><path d="M165.89818,19.34781a7.69558,7.69558,0,0,0-1.1377-.84814,13.94182,13.94182,0,0,0-2.0083-1.04834,17.47223,17.47223,0,0,0-2.5664-.87061,11.21992,11.21992,0,0,0-2.81153-.35693,6.30624,6.30624,0,0,0-3.79345.937,3.10179,3.10179,0,0,0-1.24952,2.6333A2.70418,2.70418,0,0,0,152.8,21.423a4.0401,4.0401,0,0,0,1.36084,1.13818,11.44605,11.44605,0,0,0,2.25391.89258q1.36084.40137,3.14648.84766,2.31959.62548,4.21729,1.33886a11.44384,11.44384,0,0,1,3.21289,1.78516,7.37937,7.37937,0,0,1,2.03076,2.56641,8.51447,8.51447,0,0,1,.71436,3.68164,9.16775,9.16775,0,0,1-.96,4.35107,8.06,8.06,0,0,1-2.58838,2.92334,11.24539,11.24539,0,0,1-3.74854,1.62891,18.835,18.835,0,0,1-4.44043.51318,23.85208,23.85208,0,0,1-7.05127-1.0708,21.76087,21.76087,0,0,1-6.248-3.03516l2.72216-5.31054a8.57075,8.57075,0,0,0,1.45069,1.04882,21.91271,21.91271,0,0,0,2.47656,1.29395,19.22941,19.22941,0,0,0,3.169,1.09375,14.29494,14.29494,0,0,0,3.56982.44629q5.08813,0,5.08789-3.25781a2.67534,2.67534,0,0,0-.58008-1.74073,4.93242,4.93242,0,0,0-1.65137-1.24951,15.84865,15.84865,0,0,0-2.58837-.98193q-1.51758-.44532-3.39161-.98194a28.78531,28.78531,0,0,1-3.9497-1.36083,10.39007,10.39007,0,0,1-2.78955-1.74073A6.512,6.512,0,0,1,146.552,23.922a8.0212,8.0212,0,0,1-.55811-3.146,9.849,9.849,0,0,1,.89258-4.28467,8.65033,8.65033,0,0,1,2.477-3.12354,11.21937,11.21937,0,0,1,3.68164-1.897,15.23989,15.23989,0,0,1,4.50781-.647,17.50231,17.50231,0,0,1,6.15869,1.04883,22.97763,22.97763,0,0,1,4.90918,2.47656Z" style="fill:#fff"/><path d="M196.37914,37.33316v5.39991H174.37767V11.047h21.6001v5.3999H180.53636v7.63135h13.34375v4.99854H180.53636v8.25634Z" style="fill:#fff"/><path d="M201.199,42.73307V11.047h6.15869V37.33316h16.15527v5.39991Z" style="fill:#fff"/><path d="M238.77562,42.95621a14.38733,14.38733,0,0,1-6.31494-1.36133,15.49123,15.49123,0,0,1-4.86426-3.61474,16.76446,16.76446,0,0,1-4.26221-11.09033,15.92677,15.92677,0,0,1,1.18262-6.06934,16.75024,16.75024,0,0,1,3.2583-5.13233,15.546,15.546,0,0,1,4.93115-3.54785,14.64926,14.64926,0,0,1,6.20362-1.3164,13.917,13.917,0,0,1,6.27,1.40576,15.6652,15.6652,0,0,1,4.84228,3.68164,16.96,16.96,0,0,1,3.124,5.17725,16.30456,16.30456,0,0,1,1.11573,5.89062,16.02494,16.02494,0,0,1-1.16065,6.04736,16.42986,16.42986,0,0,1-3.21289,5.08741,15.45829,15.45829,0,0,1-4.90918,3.52588A14.63618,14.63618,0,0,1,238.77562,42.95621Zm-9.19336-16.0664a12.73228,12.73228,0,0,0,.625,3.97216,10.58964,10.58964,0,0,0,1.80713,3.3916,8.97678,8.97678,0,0,0,2.90088,2.36524,8.98786,8.98786,0,0,0,7.855-.022,8.99038,8.99038,0,0,0,2.90039-2.43262,10.82781,10.82781,0,0,0,1.78516-3.41406,12.66937,12.66937,0,0,0,.60253-3.86035,12.35432,12.35432,0,0,0-.647-3.97168,10.974,10.974,0,0,0-1.82959-3.39161,8.74383,8.74383,0,0,0-2.90088-2.34326,9.03919,9.03919,0,0,0-7.83252.04492,8.80642,8.80642,0,0,0-2.90088,2.40967,10.82635,10.82635,0,0,0-1.76269,3.3916A12.67843,12.67843,0,0,0,229.58226,26.88981Z" style="fill:#fff"/><path d="M269.70287,42.73307V11.047h11.51367a17.21357,17.21357,0,0,1,6.80615,1.24951,13.67962,13.67962,0,0,1,7.832,8.4126,18.88832,18.88832,0,0,1,.98193,6.13623,18.5535,18.5535,0,0,1-1.09326,6.53809,13.96892,13.96892,0,0,1-3.14648,4.99853,14.1628,14.1628,0,0,1-4.93115,3.21289,17.41125,17.41125,0,0,1-6.44922,1.13819Zm20.93066-15.8877a13.48241,13.48241,0,0,0-.625-4.19482,9.39262,9.39262,0,0,0-1.82959-3.30274,8.16154,8.16154,0,0,0-2.96777-2.14209,10.01528,10.01528,0,0,0-3.99463-.75879h-5.355V37.33316h5.355a9.65079,9.65079,0,0,0,4.03906-.80322,8.27032,8.27032,0,0,0,2.94531-2.20947,9.83314,9.83314,0,0,0,1.80762-3.32471A13.32817,13.32817,0,0,0,290.63353,26.84537Z" style="fill:#fff"/><path d="M323.65794,37.33316v5.39991H301.65648V11.047h21.6001v5.3999H307.81517v7.63135h13.34375v4.99854H307.81517v8.25634Z" style="fill:#fff"/><path d="M352.5764,37.51139a7.06613,7.06613,0,0,0,3.68213-.89258,7.19847,7.19847,0,0,0,2.40967-2.32031,9.6061,9.6061,0,0,0,1.29443-3.28028,18.99843,18.99843,0,0,0,.3794-3.81591V11.047h6.11377V27.20231a23.12233,23.12233,0,0,1-.78077,6.11425,14.032,14.032,0,0,1-2.45459,4.99854,11.764,11.764,0,0,1-4.30664,3.3916,14.5678,14.5678,0,0,1-6.29248,1.24951,14.40156,14.40156,0,0,1-6.44922-1.3164,12.024,12.024,0,0,1-4.30664-3.481,13.88394,13.88394,0,0,1-2.3872-5.021,23.66112,23.66112,0,0,1-.73633-5.93554V11.047h6.15869V27.20231a19.19235,19.19235,0,0,0,.37891,3.86035,9.56286,9.56286,0,0,0,1.29443,3.28027,6.71178,6.71178,0,0,0,6.00244,3.16846Z" style="fill:#fff"/><path d="M391.53685,19.34781a7.69558,7.69558,0,0,0-1.1377-.84814,13.94129,13.94129,0,0,0-2.0083-1.04834,17.47223,17.47223,0,0,0-2.5664-.87061,11.21992,11.21992,0,0,0-2.81153-.35693,6.30626,6.30626,0,0,0-3.79345.937A3.10179,3.10179,0,0,0,377.97,19.7941a2.70418,2.70418,0,0,0,.46875,1.62891,4.0399,4.0399,0,0,0,1.36084,1.13818,11.44594,11.44594,0,0,0,2.2539.89258q1.36085.40137,3.14649.84766,2.31957.62548,4.21728,1.33886a11.44384,11.44384,0,0,1,3.21289,1.78516,7.37937,7.37937,0,0,1,2.03076,2.56641,8.51447,8.51447,0,0,1,.71436,3.68164,9.16763,9.16763,0,0,1-.96,4.35107,8.05994,8.05994,0,0,1-2.58838,2.92334,11.24539,11.24539,0,0,1-3.74854,1.62891,18.835,18.835,0,0,1-4.44043.51318,23.85208,23.85208,0,0,1-7.05127-1.0708,21.761,21.761,0,0,1-6.248-3.03516l2.72217-5.31054a8.57014,8.57014,0,0,0,1.45068,1.04882,21.91357,21.91357,0,0,0,2.47656,1.29395A19.22941,19.22941,0,0,0,380.157,37.11a14.295,14.295,0,0,0,3.56982.44629q5.08814,0,5.08789-3.25781a2.67534,2.67534,0,0,0-.58008-1.74073,4.93237,4.93237,0,0,0-1.65136-1.24951,15.84914,15.84914,0,0,0-2.58838-.98193q-1.51758-.44532-3.3916-.98194a28.785,28.785,0,0,1-3.94971-1.36083,10.39022,10.39022,0,0,1-2.78955-1.74073,6.512,6.512,0,0,1-1.67334-2.3208,8.0212,8.0212,0,0,1-.55811-3.146,9.84917,9.84917,0,0,1,.89258-4.28467,8.65033,8.65033,0,0,1,2.47705-3.12354,11.21956,11.21956,0,0,1,3.68164-1.897,15.23991,15.23991,0,0,1,4.50782-.647,17.50239,17.50239,0,0,1,6.15869,1.04883,22.9781,22.9781,0,0,1,4.90918,2.47656Z" style="fill:#fff"/><path d="M408.49583,11.047h5.44483L425.99,42.73307h-6.33691l-2.9458-7.89942H405.63988L402.739,42.73307h-6.3374Zm7.09571,19.458L411.218,18.05338,406.66624,30.505Z" style="fill:#fff"/><path d="M454.99828,34.56607a7.1852,7.1852,0,0,1-3.0127,6.06934,10.324,10.324,0,0,1-3.25781,1.562,14.16019,14.16019,0,0,1-3.94971.53565H429.47093V11.047h16.9585a6.25921,6.25921,0,0,1,2.99023.71387,7.467,7.467,0,0,1,2.27588,1.85205,8.50564,8.50564,0,0,1,1.45068,2.58838,8.732,8.732,0,0,1,.51319,2.92334,8.62792,8.62792,0,0,1-1.16065,4.35107,7.0648,7.0648,0,0,1-3.3916,3.0127,8.15148,8.15148,0,0,1,4.30664,2.87842A8.32339,8.32339,0,0,1,454.99828,34.56607ZM435.62962,16.31314v7.98829h8.21143a3.65536,3.65536,0,0,0,2.65527-1.0708,3.93439,3.93439,0,0,0,1.09326-2.94581,4.0724,4.0724,0,0,0-1.0039-2.90087,3.2612,3.2612,0,0,0-2.47705-1.07081Zm13.165,17.09278a4.642,4.642,0,0,0-.29-1.62891,4.55375,4.55375,0,0,0-.78076-1.36133,3.6561,3.6561,0,0,0-1.16064-.915,3.24574,3.24574,0,0,0-1.47266-.33447h-9.46094v8.34522h9.14844a4.01134,4.01134,0,0,0,1.58447-.312,3.78643,3.78643,0,0,0,1.272-.87061,4.23953,4.23953,0,0,0,1.16015-2.92285Z" style="fill:#fff"/><path d="M459.8181,42.73307V11.047h6.15869v31.686Z" style="fill:#fff"/><path d="M472.58177,42.73307V11.047h6.15869V37.33316h16.15528v5.39991Z" style="fill:#fff"/><path d="M498.64476,42.73307V11.047h6.15869v31.686Z" style="fill:#fff"/><path d="M511.40794,42.73307V11.047h11.51368a17.21357,17.21357,0,0,1,6.80615,1.24951,13.67962,13.67962,0,0,1,7.832,8.4126,18.88832,18.88832,0,0,1,.98193,6.13623,18.5535,18.5535,0,0,1-1.09326,6.53809A13.96892,13.96892,0,0,1,534.302,38.382a14.16284,14.16284,0,0,1-4.93116,3.21289,17.41116,17.41116,0,0,1-6.44921,1.13819Zm20.93067-15.8877a13.48241,13.48241,0,0,0-.625-4.19482,9.39262,9.39262,0,0,0-1.82959-3.30274,8.16149,8.16149,0,0,0-2.96778-2.14209,10.01523,10.01523,0,0,0-3.99462-.75879h-5.355V37.33316h5.355a9.65082,9.65082,0,0,0,4.03906-.80322,8.27032,8.27032,0,0,0,2.94531-2.20947,9.83314,9.83314,0,0,0,1.80762-3.32471A13.32817,13.32817,0,0,0,532.33861,26.84537Z" style="fill:#fff"/><path d="M551.26048,11.047h5.44483l12.04931,31.686h-6.33691l-2.9458-7.89942H548.40453l-2.90088,7.89942h-6.33741Zm7.09571,19.458-4.37354-12.45166L549.43089,30.505Z" style="fill:#fff"/><path d="M572.23607,42.73307V11.047h11.51367a17.21354,17.21354,0,0,1,6.80615,1.24951,13.67962,13.67962,0,0,1,7.832,8.4126,18.88832,18.88832,0,0,1,.98194,6.13623,18.55373,18.55373,0,0,1-1.09326,6.53809,13.96894,13.96894,0,0,1-3.14649,4.99853,14.1628,14.1628,0,0,1-4.93115,3.21289,17.41121,17.41121,0,0,1-6.44922,1.13819Zm20.93066-15.8877a13.48212,13.48212,0,0,0-.625-4.19482,9.39246,9.39246,0,0,0-1.82959-3.30274,8.16154,8.16154,0,0,0-2.96777-2.14209,10.01528,10.01528,0,0,0-3.99463-.75879h-5.355V37.33316h5.355a9.65079,9.65079,0,0,0,4.03906-.80322,8.27036,8.27036,0,0,0,2.94532-2.20947,9.83329,9.83329,0,0,0,1.80761-3.32471A13.32788,13.32788,0,0,0,593.16673,26.84537Z" style="fill:#fff"/><path d="M626.19115,37.33316v5.39991H604.18968V11.047h21.6001v5.3999H610.34837v7.63135h13.34375v4.99854H610.34837v8.25634Z" style="fill:#fff"/><path d="M169.0222,101.33316v5.39991H147.02074V75.047h21.60009v5.3999h-15.4414v7.63135h13.34375v4.99854H153.17943v8.25634Z" style="fill:#fff"/><path d="M192.18431,75.047h5.44483l12.04931,31.686h-6.33691l-2.9458-7.89942H189.32835l-2.90088,7.89942h-6.3374ZM199.28,94.505l-4.37353-12.45166L190.35472,94.505Z" style="fill:#fff"/><path d="M210.0808,90.66666a16.41064,16.41064,0,0,1,1.04882-5.73437,15.37878,15.37878,0,0,1,7.96631-8.68018,15.16632,15.16632,0,0,1,6.605-1.38379,14.40694,14.40694,0,0,1,7.56446,1.919,12.26682,12.26682,0,0,1,4.75293,4.99853l-4.73047,3.25781a8.10406,8.10406,0,0,0-1.51758-2.25341,7.597,7.597,0,0,0-1.91895-1.45069,8.62671,8.62671,0,0,0-2.14209-.78076,10.1666,10.1666,0,0,0-2.187-.24561,8.30783,8.30783,0,0,0-4.03857.937,8.887,8.887,0,0,0-2.85645,2.43261,10.72879,10.72879,0,0,0-1.71826,3.39161,12.84031,12.84031,0,0,0-.58008,3.771,12.30171,12.30171,0,0,0,.66944,4.03906,10.74134,10.74134,0,0,0,1.897,3.41407,9.48247,9.48247,0,0,0,2.94531,2.36523,8.05281,8.05281,0,0,0,3.771.89258,9.91,9.91,0,0,0,2.23144-.26807,8.47557,8.47557,0,0,0,2.209-.84765,8.37041,8.37041,0,0,0,1.9414-1.49512,6.89251,6.89251,0,0,0,1.42823-2.209l5.043,2.90088a9.52677,9.52677,0,0,1-2.16455,3.146,13.89966,13.89966,0,0,1-3.16845,2.29834,16.17836,16.17836,0,0,1-3.771,1.42822,16.51548,16.51548,0,0,1-3.92725.49072,13.497,13.497,0,0,1-6.20361-1.42773,16.14446,16.14446,0,0,1-4.84228-3.72656,17.28283,17.28283,0,0,1-3.16846-5.22168A16.289,16.289,0,0,1,210.0808,90.66666Z" style="fill:#fff"/><path d="M264.616,101.33316v5.39991H242.61449V75.047h21.60009v5.3999h-15.4414v7.63135h13.34375v4.99854H248.77318v8.25634Z" style="fill:#fff"/><path d="M287.64427,83.34781a7.69536,7.69536,0,0,0-1.13769-.84814,13.94235,13.94235,0,0,0-2.0083-1.04834,17.47277,17.47277,0,0,0-2.56641-.87061,11.21978,11.21978,0,0,0-2.81152-.35693,6.3063,6.3063,0,0,0-3.79346.937,3.10179,3.10179,0,0,0-1.24951,2.6333,2.70418,2.70418,0,0,0,.46875,1.62891,4.0399,4.0399,0,0,0,1.36084,1.13818,11.44594,11.44594,0,0,0,2.2539.89258q1.36085.40137,3.14649.84766,2.31957.62548,4.21728,1.33886a11.44384,11.44384,0,0,1,3.21289,1.78516,7.37951,7.37951,0,0,1,2.03077,2.56641,8.51463,8.51463,0,0,1,.71435,3.68164,9.16763,9.16763,0,0,1-.96,4.35107,8.05994,8.05994,0,0,1-2.58838,2.92334,11.24534,11.24534,0,0,1-3.74853,1.62891,18.83513,18.83513,0,0,1-4.44043.51318,23.852,23.852,0,0,1-7.05127-1.0708,21.76105,21.76105,0,0,1-6.248-3.03516l2.72217-5.31054a8.57057,8.57057,0,0,0,1.45068,1.04882,21.91357,21.91357,0,0,0,2.47656,1.294,19.22941,19.22941,0,0,0,3.16895,1.09375,14.29505,14.29505,0,0,0,3.56982.44629q5.08813,0,5.08789-3.25781a2.67534,2.67534,0,0,0-.58007-1.74073,4.93242,4.93242,0,0,0-1.65137-1.24951,15.84914,15.84914,0,0,0-2.58838-.98193q-1.51758-.44532-3.3916-.98194a28.785,28.785,0,0,1-3.94971-1.36083,10.39022,10.39022,0,0,1-2.78955-1.74073,6.512,6.512,0,0,1-1.67334-2.3208,8.0212,8.0212,0,0,1-.55811-3.146,9.84917,9.84917,0,0,1,.89258-4.28467,8.65033,8.65033,0,0,1,2.47705-3.12354,11.21956,11.21956,0,0,1,3.68164-1.897,15.23991,15.23991,0,0,1,4.50782-.647,17.50235,17.50235,0,0,1,6.15869,1.04883,22.9781,22.9781,0,0,1,4.90918,2.47656Z" style="fill:#fff"/><path d="M315.00072,83.34781a7.69558,7.69558,0,0,0-1.1377-.84814,13.94182,13.94182,0,0,0-2.0083-1.04834,17.472,17.472,0,0,0-2.56641-.87061,11.21978,11.21978,0,0,0-2.81152-.35693,6.3063,6.3063,0,0,0-3.79346.937,3.10181,3.10181,0,0,0-1.24951,2.6333,2.70418,2.70418,0,0,0,.46875,1.62891,4.04,4.04,0,0,0,1.36084,1.13818,11.44605,11.44605,0,0,0,2.25391.89258q1.36085.40137,3.14648.84766,2.31959.62548,4.21729,1.33886a11.44384,11.44384,0,0,1,3.21289,1.78516,7.37937,7.37937,0,0,1,2.03076,2.56641,8.51447,8.51447,0,0,1,.71436,3.68164,9.16775,9.16775,0,0,1-.96,4.35107,8.06,8.06,0,0,1-2.58838,2.92334,11.24539,11.24539,0,0,1-3.74854,1.62891,18.835,18.835,0,0,1-4.44043.51318,23.852,23.852,0,0,1-7.05127-1.0708,21.76105,21.76105,0,0,1-6.248-3.03516l2.72217-5.31054a8.57075,8.57075,0,0,0,1.45069,1.04882,21.91271,21.91271,0,0,0,2.47656,1.294,19.22962,19.22962,0,0,0,3.16894,1.09375,14.29507,14.29507,0,0,0,3.56983.44629q5.08813,0,5.08789-3.25781a2.67534,2.67534,0,0,0-.58008-1.74073,4.93242,4.93242,0,0,0-1.65137-1.24951,15.84844,15.84844,0,0,0-2.58838-.98193q-1.51757-.44532-3.3916-.98194a28.78531,28.78531,0,0,1-3.9497-1.36083,10.39007,10.39007,0,0,1-2.78955-1.74073,6.51193,6.51193,0,0,1-1.67334-2.3208,8.0212,8.0212,0,0,1-.55811-3.146,9.849,9.849,0,0,1,.89258-4.28467,8.65022,8.65022,0,0,1,2.47705-3.12354,11.21937,11.21937,0,0,1,3.68164-1.897,15.23989,15.23989,0,0,1,4.50781-.647,17.50231,17.50231,0,0,1,6.15869,1.04883,22.97763,22.97763,0,0,1,4.90918,2.47656Z" style="fill:#fff"/><path d="M323.48021,106.73307V75.047h6.15869v31.686Z" style="fill:#fff"/><path d="M361.77122,98.56607a7.18515,7.18515,0,0,1-3.01269,6.06934,10.324,10.324,0,0,1-3.25781,1.562,14.16019,14.16019,0,0,1-3.94971.53565H336.24388V75.047h16.9585a6.25921,6.25921,0,0,1,2.99023.71387,7.467,7.467,0,0,1,2.27588,1.852,8.50564,8.50564,0,0,1,1.45068,2.58838,8.732,8.732,0,0,1,.51319,2.92334,8.62792,8.62792,0,0,1-1.16065,4.35107,7.0648,7.0648,0,0,1-3.3916,3.0127,8.15152,8.15152,0,0,1,4.30664,2.87842A8.32339,8.32339,0,0,1,361.77122,98.56607ZM342.40257,80.31314v7.98829H350.614a3.65536,3.65536,0,0,0,2.65527-1.0708,3.93439,3.93439,0,0,0,1.09326-2.94581,4.0724,4.0724,0,0,0-1.0039-2.90087,3.2612,3.2612,0,0,0-2.47705-1.07081Zm13.165,17.09278a4.642,4.642,0,0,0-.29-1.62891,4.554,4.554,0,0,0-.78076-1.36133,3.6561,3.6561,0,0,0-1.16064-.915,3.24577,3.24577,0,0,0-1.47266-.33447h-9.46094v8.34522H351.551a4.01134,4.01134,0,0,0,1.58447-.312,3.78643,3.78643,0,0,0,1.272-.87061,4.23953,4.23953,0,0,0,1.16015-2.92285Z" style="fill:#fff"/><path d="M366.59056,106.73307V75.047h6.15869v31.686Z" style="fill:#fff"/><path d="M379.35423,106.73307V75.047h6.15869v26.28613H401.6682v5.39991Z" style="fill:#fff"/><path d="M405.41722,106.73307V75.047h6.15869v31.686Z" style="fill:#fff"/><path d="M418.1804,106.73307V75.047h11.51368a17.21357,17.21357,0,0,1,6.80615,1.24951,13.67962,13.67962,0,0,1,7.832,8.4126,18.88832,18.88832,0,0,1,.98193,6.13623,18.5535,18.5535,0,0,1-1.09326,6.53809,13.96892,13.96892,0,0,1-3.14648,4.99853,14.1628,14.1628,0,0,1-4.93115,3.21289,17.41125,17.41125,0,0,1-6.44922,1.13819Zm20.93067-15.8877a13.48241,13.48241,0,0,0-.625-4.19482,9.39262,9.39262,0,0,0-1.82959-3.30274,8.16154,8.16154,0,0,0-2.96777-2.14209,10.01531,10.01531,0,0,0-3.99463-.75879h-5.355v20.88623h5.355a9.65082,9.65082,0,0,0,4.03906-.80322,8.27032,8.27032,0,0,0,2.94531-2.20947,9.83314,9.83314,0,0,0,1.80762-3.32471A13.32817,13.32817,0,0,0,439.11107,90.84537Z" style="fill:#fff"/><path d="M458.03343,75.047h5.44483l12.04931,31.686h-6.33691l-2.9458-7.89942H455.17747l-2.90087,7.89942h-6.33741Zm7.09571,19.458L460.7556,82.05338,456.20384,94.505Z" style="fill:#fff"/><path d="M479.00853,106.73307V75.047H490.5222a17.21351,17.21351,0,0,1,6.80615,1.24951,13.67968,13.67968,0,0,1,7.832,8.4126,18.88859,18.88859,0,0,1,.98193,6.13623,18.55373,18.55373,0,0,1-1.09326,6.53809,13.96894,13.96894,0,0,1-3.14649,4.99853,14.1627,14.1627,0,0,1-4.93115,3.21289,17.41121,17.41121,0,0,1-6.44922,1.13819Zm20.93066-15.8877a13.48212,13.48212,0,0,0-.625-4.19482,9.39246,9.39246,0,0,0-1.82959-3.30274,8.16146,8.16146,0,0,0-2.96777-2.14209,10.01528,10.01528,0,0,0-3.99463-.75879h-5.355v20.88623h5.355a9.65079,9.65079,0,0,0,4.03906-.80322,8.27036,8.27036,0,0,0,2.94532-2.20947,9.83329,9.83329,0,0,0,1.80761-3.32471A13.32788,13.32788,0,0,0,499.93919,90.84537Z" style="fill:#fff"/><path d="M532.96361,101.33316v5.39991H510.96214V75.047h21.6001v5.3999H517.12083v7.63135h13.34375v4.99854H517.12083v8.25634Z" style="fill:#fff"/><path d="M50.19107,29.97537c-8.69033,0-15.76044-6.72252-15.76044-14.98677C34.43063,6.72246,41.50074,0,50.19107,0s15.764,6.72246,15.764,14.9886c0,8.26425-7.07377,14.98677-15.764,14.98677m0-24.78564c-5.82874,0-10.57066,4.39794-10.57066,9.79887,0,5.40455,4.74192,9.797,10.57066,9.797,5.83041,0,10.57422-4.39244,10.57422-9.797,0-5.40093-4.74381-9.79887-10.57422-9.79887" style="fill:#fff"/><path d="M99.741,36.3323a8.23458,8.23458,0,0,0-9.45481-5.76141c-28.59194,5.106-68.50456.87567-81.17027-.54243a8.13073,8.13073,0,0,0-8.998,6.5077A7.55159,7.55159,0,0,0,1.52332,42.414,8.262,8.262,0,0,0,7.1954,45.64318c6.20918.72094,9.56762,2.02967,23.26562,2.70149,1.6146.07822,4.68188,1.26148,4.65825,2.69038l-.17116,10.6872a22.50769,22.50769,0,0,1-1.19953,6.888L26.0121,107.498a7.53565,7.53565,0,0,0,.426,5.87421,8.12738,8.12738,0,0,0,4.96944,4.072A8.23988,8.23988,0,0,0,41.647,112.64765l8.79568-28.87214,9.981,29.21071a8.12808,8.12808,0,0,0,7.547,4.92767,8.5253,8.5253,0,0,0,2.88532-.506l.33137-.11656a7.75327,7.75327,0,0,0,4.89841-9.82984L67.25707,71.38625a36.67244,36.67244,0,0,1-2.01856-12.58937l.12-7.47787a2.80789,2.80789,0,0,1,2.89439-2.614c11.55725-.242,16.38291-1.154,25.11506-2.71776a8.11875,8.11875,0,0,0,5.421-3.58967A7.5622,7.5622,0,0,0,99.741,36.3323ZM94.41276,39.607a2.88526,2.88526,0,0,1-1.95864,1.27244,127.40809,127.40809,0,0,1-24.3087,2.63406,7.97559,7.97559,0,0,0-7.97664,7.72178l-.11828,7.48146a41.90849,41.90849,0,0,0,2.29909,14.36606L71.18,109.15811a2.60533,2.60533,0,0,1-1.72944,3.24391l-.33309.1164a3.09552,3.09552,0,0,1-3.9101-1.54L54.25811,79.4577a4.14836,4.14836,0,0,0-3.86253-2.53393h-.08386a4.15258,4.15258,0,0,0-3.84454,2.67583l-9.6787,31.22052a3.13909,3.13909,0,0,1-3.98645,1.62195,2.86218,2.86218,0,0,1-1.73663-1.42,2.34426,2.34426,0,0,1-.13659-1.85664L38.6653,70.27777a27.85426,27.85426,0,0,0,1.4727-8.4701l.171-10.68892c.06915-4.24318-5.16782-7.7418-9.59484-7.95849C17.17089,42.49768,13.93965,41.19973,7.7943,40.488A3.05243,3.05243,0,0,1,5.6864,39.3176a2.43719,2.43719,0,0,1-.45685-1.90217,2.91338,2.91338,0,0,1,3.30931-2.22822c16.463,1.84225,54.18215,5.57571,82.65925.49158a3.0246,3.0246,0,0,1,3.526,1.98775A2.41372,2.41372,0,0,1,94.41276,39.607Z" style="fill:#fff"/></svg>