<svg xmlns="http://www.w3.org/2000/svg" xmlns:xlink="http://www.w3.org/1999/xlink" viewBox="0 0 50 50"><defs><clipPath id="clip-path"><polygon points="-484 -704.09 -1506.5 -673.42 -1506.5 -910.41 -484 -910.41 -484 -704.09" style="fill:none"/></clipPath></defs><title>icon-photo@2x</title><g style="isolation:isolate"><g id="Layer_1" data-name="Layer 1"><g style="clip-path:url(#clip-path)"><polygon points="-948.8 -320.58 118.72 -817.23 496.81 -439.58 -570.71 57.07 -948.8 -320.58" style="fill:#39BEC3;opacity:0.2;mix-blend-mode:multiply"/></g><circle cx="25" cy="28" r="7" style="fill:none;stroke:#39BEC3;stroke-miterlimit:10;stroke-width:2px"/><path d="M28.68,10A3.44,3.44,0,0,1,32,13.5h0c0,2.5,1,2.5,2.57,2.5h2.56A5.77,5.77,0,0,1,43,21.67V35.33A5.77,5.77,0,0,1,37.17,41H12.83A5.77,5.77,0,0,1,7,35.33V21.67A5.77,5.77,0,0,1,12.83,16h2.91c1.55,0,2.57,0,2.57-2.5h0A3.45,3.45,0,0,1,21.67,10h7Z" style="fill:none;stroke:#39BEC3;stroke-miterlimit:10;stroke-width:2px"/></g></g></svg>