<svg xmlns="http://www.w3.org/2000/svg" viewBox="0 0 115 28"><defs><style>.a{fill:#8d8d8e;}</style></defs><title>logo_ama</title><path class="a" d="M27.93123,24.11987h1.23666a.9331.9331,0,0,1,.64328.20666.72757.72757,0,0,1,.23181.57222.84.84,0,0,1-.23181.629.88027.88027,0,0,1-.64328.227q-.54059-.002-.854.00373v1.18864h-.38266Zm.38266,1.30773h.75975a.63525.63525,0,0,0,.43661-.12586.50973.50973,0,0,0,.13848-.3952.4199.4199,0,0,0-.13848-.34912.69835.69835,0,0,0-.43661-.11062h-.75973Z"/><path class="a" d="M30.56608,24.11987h1.31553a1.04681,1.04681,0,0,1,.68469.19514.70218.70218,0,0,1,.23469.57222.72477.72477,0,0,1-.24427.58085.8826.8826,0,0,1-.13272.09232l.06344.03083a.54655.54655,0,0,1,.26739.498l.01533.51547a.45579.45579,0,0,0,.03269.18277.23566.23566,0,0,0,.11163.09605v.06166h-.47057a.81223.81223,0,0,1-.03075-.18092q-.01537-.1461-.02312-.32489l-.00856-.22309a.51721.51721,0,0,0-.12882-.37606.5719.5719,0,0,0-.396-.11248h-.90779v1.2193h-.38275Zm.38275,1.27707h.94624a.55075.55075,0,0,0,.3885-.11638.48627.48627,0,0,0,.12316-.36826.45109.45109,0,0,0-.12984-.35776.61458.61458,0,0,0-.41061-.1135h-.91744Z"/><path class="a" d="M33.40293,26.94706V24.11987h2.06745v.33846H33.78559v.86357h1.53869v.33845H33.78559v.94827h1.706v.33845Z"/><path class="a" d="M37.714,24.93923a.56478.56478,0,0,0-.21064-.41264.78861.78861,0,0,0-.499-.14517.81151.81151,0,0,0-.4904.125.42772.42772,0,0,0-.16727.36538.28167.28167,0,0,0,.11154.24427,1.40308,1.40308,0,0,0,.44814.15974l.49243.11722a1.10172,1.10172,0,0,1,.56552.27882.82.82,0,0,1-.12163,1.12715,1.26141,1.26141,0,0,1-.7898.225,1.31371,1.31371,0,0,1-.86577-.25968.866.866,0,0,1-.304-.69994v-.02118H36.235a.59328.59328,0,0,0,.22326.475.94243.94243,0,0,0,.59474.16736.97307.97307,0,0,0,.535-.12112.39979.39979,0,0,0,.18286-.35589.36657.36657,0,0,0-.12027-.30186,1.34074,1.34074,0,0,0-.48133-.18278l-.493-.11739a1.12861,1.12861,0,0,1-.53334-.24614.587.587,0,0,1-.159-.43653.80512.80512,0,0,1,.27586-.64336,1.1028,1.1028,0,0,1,.74491-.23749,1.139,1.139,0,0,1,.7594.23851.87009.87009,0,0,1,.30178.65776Z"/><path class="a" d="M38.6766,24.11987h.38266v2.82719H38.6766Z"/><path class="a" d="M39.73243,24.11987h1.16171a1.05565,1.05565,0,0,1,.85679.38368,1.56557,1.56557,0,0,1,.3183,1.03178,1.53432,1.53432,0,0,1-.326,1.02907,1.09631,1.09631,0,0,1-.87983.38266h-1.131Zm.38275,2.50026h.7001a.76411.76411,0,0,0,.63566-.28271,1.26429,1.26429,0,0,0,.224-.80208,1.30844,1.30844,0,0,0-.21538-.80479.72255.72255,0,0,0-.6116-.28374h-.7328Z"/><path class="a" d="M42.59622,26.94706V24.11987h2.06746v.33846H42.97887v.86357h1.53869v.33845H42.97887v.94827h1.706v.33845Zm1.2597-3.65807.39046.55392h-.31355l-.2596-.36928-.25968.36928h-.31346l.39046-.55392h.36537Z"/><path class="a" d="M45.55418,26.94706H45.1849V24.11987h.45973l1.41546,2.2975v-2.2975h.36928v2.82719h-.41925l-1.45594-2.30647Z"/><path class="a" d="M50.41241,25.90664a1.3076,1.3076,0,0,1-.401.82021,1.18951,1.18951,0,0,1-.83.29712,1.168,1.168,0,0,1-.93184-.40282,1.60741,1.60741,0,0,1-.34709-1.08582,1.575,1.575,0,0,1,.36056-1.08751,1.36891,1.36891,0,0,1,1.755-.15872,1.01567,1.01567,0,0,1,.36928.67894h-.36928a.67383.67383,0,0,0-.26062-.43365.87089.87089,0,0,0-.53173-.153.8245.8245,0,0,0-.677.31253,1.30223,1.30223,0,0,0-.252.84139,1.352,1.352,0,0,0,.23368.856.81442.81442,0,0,0,.678.29423.76868.76868,0,0,0,.54612-.20293,1.02385,1.02385,0,0,0,.28848-.57594Z"/><path class="a" d="M50.93169,24.11987h.38266v2.82719h-.38266Z"/><path class="a" d="M52.79147,24.11987h.43661l1.01552,2.82719h-.41078l-.28814-.81936H52.41575l-.297.81936h-.39469Zm-.2541,1.66938h.88983l-.436-1.254h.0011Z"/><path class="a" d="M55.709,24.11987h1.16171a1.05565,1.05565,0,0,1,.85679.38368,1.56557,1.56557,0,0,1,.3183,1.03178,1.53432,1.53432,0,0,1-.326,1.02907,1.09631,1.09631,0,0,1-.87983.38266H55.709Zm.38275,2.50026h.7001a.76411.76411,0,0,0,.63566-.28271,1.26429,1.26429,0,0,0,.224-.80208,1.30838,1.30838,0,0,0-.21539-.80479.72253.72253,0,0,0-.61159-.28374h-.7328Z"/><path class="a" d="M58.769,26.61336a1.72042,1.72042,0,0,1,0-2.15894,1.41541,1.41541,0,0,1,1.99546,0,1.724,1.724,0,0,1,0,2.15894A1.41748,1.41748,0,0,1,58.769,26.61336Zm1.70987-.24529a1.41852,1.41852,0,0,0,0-1.66836.95674.95674,0,0,0-1.42512,0,1.41852,1.41852,0,0,0,0,1.66836.95845.95845,0,0,0,1.42512,0Z"/><path class="a" d="M65.07552,25.90664a1.3077,1.3077,0,0,1-.40112.82021,1.18885,1.18885,0,0,1-.82987.29712,1.16785,1.16785,0,0,1-.93184-.40282,1.60735,1.60735,0,0,1-.3471-1.08581,1.57417,1.57417,0,0,1,.36065-1.08752,1.36881,1.36881,0,0,1,1.75492-.15871,1.01534,1.01534,0,0,1,.36928.67893h-.36928a.67409.67409,0,0,0-.26053-.43365.87125.87125,0,0,0-.5319-.153.82442.82442,0,0,0-.6769.31253,1.30185,1.30185,0,0,0-.25189.84138,1.35153,1.35153,0,0,0,.2336.856.81449.81449,0,0,0,.67792.29424.76911.76911,0,0,0,.54629-.20294,1.02436,1.02436,0,0,0,.28848-.57594Z"/><path class="a" d="M65.77156,26.61336a1.72042,1.72042,0,0,1,0-2.15894,1.41542,1.41542,0,0,1,1.99547,0,1.724,1.724,0,0,1,0,2.15894A1.4175,1.4175,0,0,1,65.77156,26.61336Zm1.70987-.24529a1.41852,1.41852,0,0,0,0-1.66836.95674.95674,0,0,0-1.42512,0,1.41852,1.41852,0,0,0,0,1.66836.95845.95845,0,0,0,1.42512,0Z"/><path class="a" d="M68.97007,26.94706H68.6008V24.11987h.45973l1.41546,2.2975v-2.2975h.36928v2.82719H70.426l-1.45594-2.30647Z"/><path class="a" d="M73.16766,24.93923a.56527.56527,0,0,0-.21056-.41264.78928.78928,0,0,0-.499-.14517.812.812,0,0,0-.49057.125.42788.42788,0,0,0-.16719.36538.28158.28158,0,0,0,.11146.24427,1.40385,1.40385,0,0,0,.44822.15974l.49243.11722a1.1014,1.1014,0,0,1,.56544.27882.82016.82016,0,0,1-.12146,1.12715,1.262,1.262,0,0,1-.78988.225,1.31374,1.31374,0,0,1-.86578-.25968.8663.8663,0,0,1-.30406-.69994v-.02118h.352a.59328.59328,0,0,0,.22326.475.94231.94231,0,0,0,.59475.16736.97359.97359,0,0,0,.53512-.12112.39994.39994,0,0,0,.18278-.35589.36689.36689,0,0,0-.12027-.30186,1.34088,1.34088,0,0,0-.48142-.18278l-.49294-.11739a1.12893,1.12893,0,0,1-.53342-.24614.58757.58757,0,0,1-.15889-.43653.8056.8056,0,0,1,.27577-.64336,1.10315,1.10315,0,0,1,.745-.23749,1.13881,1.13881,0,0,1,.7594.23851.87044.87044,0,0,1,.30186.65776Z"/><path class="a" d="M74.11085,26.94706V24.11987h2.06762v.33846H74.49368v.86357h1.53861v.33845H74.49368v.94827h1.706v.33845Z"/><path class="a" d="M76.6997,26.94706V24.11987h.38282v2.48874h1.43274v.33845Z"/><path class="a" d="M78.8942,24.11987h.38267v1.15967h1.47525V24.11987h.38266v2.82719h-.38266V25.618H79.27687v1.32907H78.8942Z"/><path class="a" d="M81.96939,26.61336a1.72039,1.72039,0,0,1,0-2.15894,1.41542,1.41542,0,0,1,1.99547,0,1.724,1.724,0,0,1,0,2.15894A1.4175,1.4175,0,0,1,81.96939,26.61336Zm1.70987-.24529a1.41852,1.41852,0,0,0,0-1.66836.95674.95674,0,0,0-1.42512,0,1.41852,1.41852,0,0,0,0,1.66836.95845.95845,0,0,0,1.42512,0Z"/><path class="a" d="M85.91221,24.11987h1.16154a1.0559,1.0559,0,0,1,.857.38368,1.56647,1.56647,0,0,1,.3183,1.03178,1.53436,1.53436,0,0,1-.32609,1.02907,1.09619,1.09619,0,0,1-.87983.38266H85.91222Zm.38267,2.50026h.7001a.76357.76357,0,0,0,.63557-.28271,1.26381,1.26381,0,0,0,.22411-.80208,1.309,1.309,0,0,0-.2153-.80479.72268.72268,0,0,0-.61168-.28373h-.7328Z"/><path class="a" d="M88.77582,26.94706V24.11987h2.06763v.33846H89.15866v.86357h1.53861v.33845H89.15866v.94827h1.706v.33845Z"/><path class="a" d="M92.81859,26.94706h-.37114V24.11987h.55l.80869,2.40608H93.806l.80124-2.40608h.55019v2.82719h-.37131V24.55453h-.00136l-.79666,2.39253h-.36928l-.79937-2.38489h-.00085Z"/><path class="a" d="M95.79791,24.11987h.38265v2.82719h-.38265Z"/><path class="a" d="M97.2037,26.94706h-.36928V24.11987h.45974l1.41546,2.2975v-2.2975h.36928v2.82719h-.41925l-1.456-2.30647Z"/><path class="a" d="M99.73666,24.11987h.38265v2.82719h-.38265Z"/><path class="a" d="M102.49575,24.93923a.56524.56524,0,0,0-.21056-.41264.78931.78931,0,0,0-.499-.14517.812.812,0,0,0-.49057.125.42791.42791,0,0,0-.16719.36538.2816.2816,0,0,0,.11146.24427,1.40385,1.40385,0,0,0,.44822.15974l.49243.11722a1.1014,1.1014,0,0,1,.56544.27882.82016.82016,0,0,1-.12146,1.12715,1.262,1.262,0,0,1-.78988.225,1.31372,1.31372,0,0,1-.86578-.25968.8663.8663,0,0,1-.30406-.69994v-.02118h.352a.59328.59328,0,0,0,.22327.475.94224.94224,0,0,0,.59475.16737.97365.97365,0,0,0,.53512-.12112.39994.39994,0,0,0,.18278-.3559.36686.36686,0,0,0-.12027-.30186,1.34088,1.34088,0,0,0-.48142-.18278l-.49294-.11738a1.129,1.129,0,0,1-.53342-.24614.58754.58754,0,0,1-.15889-.43653.80558.80558,0,0,1,.27577-.64337,1.10319,1.10319,0,0,1,.745-.23749,1.13888,1.13888,0,0,1,.75939.23851.87044.87044,0,0,1,.30186.65776Z"/><path class="a" d="M104.11211,24.45833h-.95589v-.33845h2.29445v.33845h-.95573v2.48873h-.38282Z"/><path class="a" d="M105.85281,24.11987h1.31552a1.04715,1.04715,0,0,1,.68469.19514.7024.7024,0,0,1,.23461.57222.7248.7248,0,0,1-.24427.58085.88625.88625,0,0,1-.13263.09232l.06335.03083a.54665.54665,0,0,1,.2673.498l.01542.51547a.45579.45579,0,0,0,.03269.18277.23562.23562,0,0,0,.11163.09605v.06166h-.47057a.82066.82066,0,0,1-.03083-.18092q-.01526-.1461-.023-.32489l-.00864-.22309a.5165.5165,0,0,0-.12874-.37606.572.572,0,0,0-.396-.11248h-.90779v1.2193h-.38266Zm.38266,1.27707h.94624a.55115.55115,0,0,0,.38859-.11638.48657.48657,0,0,0,.123-.36826.45109.45109,0,0,0-.12975-.35776.61455.61455,0,0,0-.41061-.1135h-.91745Z"/><path class="a" d="M108.88565,26.61336a1.72039,1.72039,0,0,1,0-2.15894,1.41541,1.41541,0,0,1,1.99546,0,1.724,1.724,0,0,1,0,2.15894A1.41748,1.41748,0,0,1,108.88565,26.61336Zm1.70986-.24529a1.41849,1.41849,0,0,0,0-1.66836.95674.95674,0,0,0-1.42511,0,1.41849,1.41849,0,0,0,0,1.66836.95844.95844,0,0,0,1.42511,0Z"/><path class="a" d="M113.43727,24.93923a.56524.56524,0,0,0-.21056-.41264.78931.78931,0,0,0-.499-.14517.812.812,0,0,0-.49057.125.42791.42791,0,0,0-.16719.36538.2816.2816,0,0,0,.11146.24427,1.40385,1.40385,0,0,0,.44822.15974l.49243.11722a1.1014,1.1014,0,0,1,.56544.27882A.82016.82016,0,0,1,113.566,26.799a1.262,1.262,0,0,1-.78988.225,1.31372,1.31372,0,0,1-.86578-.25968.8663.8663,0,0,1-.30406-.69994v-.02118h.352a.59328.59328,0,0,0,.22326.475.9423.9423,0,0,0,.59475.16736.97357.97357,0,0,0,.53512-.12112.39992.39992,0,0,0,.18278-.35589.36686.36686,0,0,0-.12027-.30186,1.34088,1.34088,0,0,0-.48142-.18278l-.49294-.11739a1.12893,1.12893,0,0,1-.53342-.24614.58753.58753,0,0,1-.15889-.43653.80557.80557,0,0,1,.27577-.64336,1.10314,1.10314,0,0,1,.745-.23749,1.13877,1.13877,0,0,1,.75939.23851.8704.8704,0,0,1,.30186.65776Z"/><path class="a" d="M72.18009,6.4711h-.56764l-.46956-1.2H69.432l-.46279,1.2h-.56138l1.62178-4.14644h.52868ZM70.95435,4.77215l-.66673-1.688-.6603,1.688Z"/><path class="a" d="M75.6254,4.20189v2.2692h-.46921V6.03152a1.21546,1.21546,0,0,1-.99214.493,1.483,1.483,0,0,1-1.31874-.71281,2.55444,2.55444,0,0,1-.33269-1.41385,2.55616,2.55616,0,0,1,.33269-1.41377,1.50394,1.50394,0,0,1,1.34245-.71289,1.46263,1.46263,0,0,1,.70993.16338,2.47276,2.47276,0,0,1,.65641.58508l-.39791.32677a1.95634,1.95634,0,0,0-.48413-.44847.98925.98925,0,0,0-.4843-.10994,1.0096,1.0096,0,0,0-.90287.47523,2.087,2.087,0,0,0-.24952,1.1346,2.08649,2.08649,0,0,0,.24952,1.13461.98827.98827,0,0,0,.87916.47523A.81913.81913,0,0,0,74.88889,5.58a1.76044,1.76044,0,0,0,.21377-.8673H74.075v-.5108Z"/><path class="a" d="M79.15389,6.4711H76.457V2.32466H79.1539v.51089h-2.186V4.05926h1.9128v.51089h-1.9128V5.9602h2.186Zm-.392-4.6038h-.61778l-.37436-.61185-.3742.61185h-.61778L77.46689,1h.60592Z"/><path class="a" d="M82.80721,6.4711h-.4931l-1.895-3.10644V6.4711h-.52275V2.32466h.49379L82.29631,5.438V2.32466h.51089Z"/><path class="a" d="M86.5615,3.01969l-.40383.32676a1.95652,1.95652,0,0,0-.4843-.44847.97515.97515,0,0,0-.4782-.10994,1.00962,1.00962,0,0,0-.90288.47523,2.08691,2.08691,0,0,0-.24951,1.1346,2.08641,2.08641,0,0,0,.24951,1.13461,1.00928,1.00928,0,0,0,.90288.47523.9547.9547,0,0,0,.4782-.11282,2.05272,2.05272,0,0,0,.4843-.44559l.3979.32676a2.40227,2.40227,0,0,1-.65047.58509,1.46168,1.46168,0,0,1-.70993.16338,1.50367,1.50367,0,0,1-1.34245-.71281A2.55418,2.55418,0,0,1,83.52,4.39787a2.556,2.556,0,0,1,.3327-1.41376,1.50373,1.50373,0,0,1,1.34245-.7129,1.46263,1.46263,0,0,1,.70993.16338A2.47558,2.47558,0,0,1,86.5615,3.01969Z"/><path class="a" d="M87.84466,6.4711H87.304V2.32466h.5407Z"/><path class="a" d="M92.15152,6.4711h-.56764l-.46956-1.2H89.40344l-.46279,1.2h-.56138l1.62178-4.14644h.52868ZM90.92578,4.77215l-.66674-1.688-.6603,1.688Z"/><path class="a" d="M97.28383,3.50686a1.07891,1.07891,0,0,1-.49887.992,1.75084,1.75084,0,0,1-.909.19607H94.84235V6.4711h-.52276V2.32466H95.876a1.75074,1.75074,0,0,1,.909.19608A1.07343,1.07343,0,0,1,97.28383,3.50686Zm-.52276,0a.60062.60062,0,0,0-.25544-.55248,1.24292,1.24292,0,0,0-.62964-.11883H94.84235V4.184H95.876a1.19257,1.19257,0,0,0,.62964-.12476A.59194.59194,0,0,0,96.76107,3.50686Z"/><path class="a" d="M100.76505,6.4711h-.56764l-.46955-1.2H98.017l-.4628,1.2h-.56137l1.62178-4.14644h.52868ZM99.53931,4.77215l-.66673-1.688-.6603,1.688Z"/><path class="a" d="M104.31742,6.4711h-.60611l-.891-1.45544a1.61236,1.61236,0,0,0-.196-.27916.43261.43261,0,0,0-.309-.12476h-.52276V6.4711h-.52275V2.32466h1.45544a1.67087,1.67087,0,0,1,.87323.19023,1.05215,1.05215,0,0,1,.48718.95691,1.03055,1.03055,0,0,1-.48718.95106,1.28155,1.28155,0,0,1-.43958.16051q.0465.06543.10452.16643Zm-.75448-2.99989a.56228.56228,0,0,0-.24359-.52276,1.17816,1.17816,0,0,0-.6-.1129h-.92675v1.2653h.93268a1.163,1.163,0,0,0,.59407-.11282A.55615.55615,0,0,0,103.56294,3.47121Z"/><path class="a" d="M108.26769,6.4711h-.56764l-.46955-1.2h-1.71088l-.4628,1.2h-.56137l1.62178-4.14644h.52868ZM107.042,4.77215l-.66674-1.688-.6603,1.688Z"/><path class="a" d="M113.822,6.4711h-.56764l-.46955-1.2h-1.71089l-.46279,1.2h-.56138l1.62179-4.14644h.52867Zm-1.22574-1.69895-.66673-1.688-.6603,1.688Z"/><path class="a" d="M72.28682,12.92909h-.52275V10.25587l-.9979,2.67322H70.3088l-.99214-2.65535v2.65535h-.52275V8.78265h.4289l1.31467,3.36646,1.25657-3.36646h.49277Z"/><path class="a" d="M76.59366,10.85587a2.55648,2.55648,0,0,1-.3327,1.41385,1.63189,1.63189,0,0,1-2.69693,0,2.55427,2.55427,0,0,1-.33269-1.41385A2.55613,2.55613,0,0,1,73.564,9.4421a1.63179,1.63179,0,0,1,2.69693,0A2.55692,2.55692,0,0,1,76.59366,10.85587Zm-.52275,0a2.087,2.087,0,0,0-.24952-1.1346,1.10674,1.10674,0,0,0-1.81777,0,2.0869,2.0869,0,0,0-.24952,1.1346,2.08634,2.08634,0,0,0,.24952,1.1346,1.10672,1.10672,0,0,0,1.81777,0A2.086,2.086,0,0,0,76.07091,10.85587Z"/><path class="a" d="M80.56171,10.85587a7.13505,7.13505,0,0,1-.0476.92074,1.15575,1.15575,0,0,1-.588.95047,2.404,2.404,0,0,1-1.11088.202H77.538V8.78265h1.27724a2.46758,2.46758,0,0,1,1.11088.19608,1.17228,1.17228,0,0,1,.588.9564A7.135,7.135,0,0,1,80.56171,10.85587Zm-.52275,0a6.89946,6.89946,0,0,0-.0415-.85544.68588.68588,0,0,0-.32981-.57323,2.03048,2.03048,0,0,0-.85239-.13365h-.75449v3.11871h.75449a2.07152,2.07152,0,0,0,.85239-.13068.677.677,0,0,0,.32981-.57027,6.98605,6.98605,0,0,0,.04151-.85544Z"/><path class="a" d="M84.26266,12.92909H81.56572V8.78265h2.69694v.5109h-2.186v1.2237h1.9128v.51089h-1.9128v1.39h2.186Z"/><path class="a" d="M88.28441,12.92909h-.60609l-.891-1.45544a1.61231,1.61231,0,0,0-.196-.27916.43257.43257,0,0,0-.309-.12476h-.52275v1.85936h-.52275V8.78265h1.45543a1.67073,1.67073,0,0,1,.87323.19023,1.0521,1.0521,0,0,1,.48718.95691,1.03056,1.03056,0,0,1-.48718.95106,1.28125,1.28125,0,0,1-.43958.1605q.0465.06543.10452.16643ZM87.52993,9.9292a.56225.56225,0,0,0-.24359-.52275,1.178,1.178,0,0,0-.6-.11291h-.92676v1.2653h.93268a1.163,1.163,0,0,0,.59407-.11282A.55615.55615,0,0,0,87.52993,9.9292Z"/><path class="a" d="M91.99093,12.92909h-.49311l-1.895-3.10643v3.10643h-.52275V8.78266h.49378L91.48,11.896V8.78265h.51089Z"/><path class="a" d="M93.684,12.92909h-.54071V8.78265H93.684Z"/><path class="a" d="M97.58094,12.92909h-2.9168V12.5233l2.22771-3.22976h-2.0197V8.78265h2.70878V9.2163l-2.21568,3.20189h2.21568Z"/><path class="a" d="M101.96487,12.92909h-.56764l-.46955-1.2H99.2168l-.4628,1.2h-.56137l1.62178-4.14644h.52868Zm-1.22574-1.69895-.66673-1.688-.6603,1.688Z"/><path class="a" d="M105.56467,9.47768l-.40384.32676a1.95635,1.95635,0,0,0-.4843-.44847.9751.9751,0,0,0-.4782-.10994,1.00964,1.00964,0,0,0-.90287.47523,2.08694,2.08694,0,0,0-.24952,1.13461,2.08639,2.08639,0,0,0,.24952,1.1346,1.00925,1.00925,0,0,0,.90287.47523.95464.95464,0,0,0,.4782-.11281,2.05238,2.05238,0,0,0,.4843-.4456l.39791.32643a1.8542,1.8542,0,0,1-1.07193.72382l.13027.36428-.40519.77159H103.64l.5346-.78412-.12468-.3327a1.49974,1.49974,0,0,1-1.19406-.70688,2.55452,2.55452,0,0,1-.3327-1.41385,2.556,2.556,0,0,1,.3327-1.41377,1.50375,1.50375,0,0,1,1.34245-.71289,1.46267,1.46267,0,0,1,.70994.16338A2.47545,2.47545,0,0,1,105.56467,9.47768Z"/><path class="a" d="M109.89541,12.92909h-.56763l-.46956-1.2h-1.71088l-.46279,1.2h-.56138L107.745,8.78265h.52868ZM109.05775,8.046l-.07131.0891a.64224.64224,0,0,1-.52276.29111,1.038,1.038,0,0,1-.39214-.095q-.30288-.13061-.36234-.14551a.42852.42852,0,0,0-.10095-.01491.24646.24646,0,0,0-.18413.107c-.01186.01982-.03777.05548-.07724.10689l-.33862-.27323a.80795.80795,0,0,1,.60592-.38021,1.21649,1.21649,0,0,1,.51682.15449.85565.85565,0,0,0,.32677.10095.2154.2154,0,0,0,.15431-.07131l.10706-.14255Zm-.38808,3.1841-.66674-1.688-.6603,1.688Z"/><path class="a" d="M113.80994,10.85587a2.55648,2.55648,0,0,1-.3327,1.41385,1.63188,1.63188,0,0,1-2.69693,0,2.55435,2.55435,0,0,1-.3327-1.41385,2.556,2.556,0,0,1,.3327-1.41377,1.63179,1.63179,0,0,1,2.69693,0A2.55692,2.55692,0,0,1,113.80994,10.85587Zm-.52275,0a2.087,2.087,0,0,0-.24952-1.1346,1.10674,1.10674,0,0,0-1.81777,0,2.08681,2.08681,0,0,0-.24952,1.1346,2.08625,2.08625,0,0,0,.24952,1.1346,1.10672,1.10672,0,0,0,1.81777,0A2.086,2.086,0,0,0,113.28719,10.85587Z"/><path class="a" d="M72.18009,19.398h-.56764l-.46956-1.2H69.432l-.46279,1.2h-.56138l1.62178-4.14643h.52868Zm-1.22574-1.699-.66673-1.688-.6603,1.688Z"/><path class="a" d="M75.72636,17.32479a7.13635,7.13635,0,0,1-.0476.92083,1.156,1.156,0,0,1-.588.95047,2.40414,2.40414,0,0,1-1.11088.20192H72.70267V15.25157h1.27724a2.469,2.469,0,0,1,1.11088.196,1.17232,1.17232,0,0,1,.588.9564A7.14,7.14,0,0,1,75.72636,17.32479Zm-.52275,0a6.9014,6.9014,0,0,0-.0415-.85544.68564.68564,0,0,0-.32981-.57323,2.03048,2.03048,0,0,0-.85239-.13365h-.75449v3.11871h.75449a2.0732,2.0732,0,0,0,.85239-.1306.67708.67708,0,0,0,.32981-.57035A6.992,6.992,0,0,0,75.20361,17.32479Z"/><path class="a" d="M80.00933,19.398h-.52275V16.7248L78.48867,19.398h-.45736l-.99214-2.65543V19.398h-.52275V15.25157h.4289L78.26,18.61811l1.25657-3.36654h.49277Z"/><path class="a" d="M81.48865,19.398h-.54071V15.25157h.54071Z"/><path class="a" d="M85.338,19.398h-.49311l-1.895-3.10652V19.398h-.52275V15.25157h.49379l1.90619,3.11329V15.25157h.5109Z"/><path class="a" d="M86.81712,19.398h-.54071V15.25157h.54071Z"/><path class="a" d="M90.71387,18.206a1.17215,1.17215,0,0,1-.18414.62879,1.41135,1.41135,0,0,1-1.30687.62862,1.46537,1.46537,0,0,1-1.6455-1.28909l.51682-.08911a.90487.90487,0,0,0,.49311.74246,1.55441,1.55441,0,0,0,.63557.11891.93481.93481,0,0,0,.86137-.37961.67443.67443,0,0,0,.10688-.36182.60427.60427,0,0,0-.3979-.5634,4.49964,4.49964,0,0,0-.76635-.22547,2.36375,2.36375,0,0,1-.98622-.40316.93831.93831,0,0,1-.29695-.70586.99321.99321,0,0,1,.38013-.78887,1.7601,1.7601,0,0,1,2.37626.41281q.02973.05312.11874.23038l-.47515.21869a1.10822,1.10822,0,0,0-.39214-.50022,1.35258,1.35258,0,0,0-.64743-.13535,1.00373,1.00373,0,0,0-.64167.16313.50206.50206,0,0,0-.196.40028.40944.40944,0,0,0,.17227.36182,2.45779,2.45779,0,0,0,.71281.249,4.96561,4.96561,0,0,1,.87323.261A1.08288,1.08288,0,0,1,90.71387,18.206Z"/><path class="a" d="M94.1712,15.76246H92.90583V19.398h-.52275V15.76246H91.1177v-.51089h3.0535Z"/><path class="a" d="M97.80082,19.398h-.6061l-.891-1.45543a1.61624,1.61624,0,0,0-.196-.27916.43249.43249,0,0,0-.309-.12468H95.276V19.398h-.52275V15.25157h1.45544a1.67,1.67,0,0,1,.87323.19023,1.05214,1.05214,0,0,1,.48718.95691,1.03045,1.03045,0,0,1-.48718.951,1.2816,1.2816,0,0,1-.43958.16058q.0465.06531.10452.16635Zm-.75448-3a.56234.56234,0,0,0-.24359-.52275,1.18,1.18,0,0,0-.6-.11282H95.276v1.26537h.93269a1.161,1.161,0,0,0,.59407-.113A.556.556,0,0,0,97.04634,16.398Z"/><path class="a" d="M101.76888,19.398h-.56764l-.46955-1.2H99.0208l-.4628,1.2h-.56137l1.62178-4.14643h.52868Zm-1.22574-1.699-.66673-1.688-.6603,1.688Z"/><path class="a" d="M105.0182,15.76246h-1.26537V19.398h-.52275V15.76246H101.9647v-.51089h3.0535Z"/><path class="a" d="M106.17042,19.398h-.5407V15.25157h.5407Z"/><path class="a" d="M110.002,15.25157l-1.3604,4.14643h-.46939l-1.36025-4.14643h.55019l1.04483,3.20409,1.04482-3.20409Z"/><path class="a" d="M114,19.398h-.56765l-.46955-1.2h-1.71088l-.4628,1.2h-.56137l1.62178-4.14643h.52868Zm-1.22574-1.699-.66673-1.688-.6603,1.688Z"/><rect class="a" x="66.8722" y="2.36181" width="0.1699" height="17.12643"/><path class="a" d="M14.75063,16.52212V7.03361c0-4.22687-4.79416-4.60179-6.12085-4.60179-4.06792,0-6.68522,1.55667-6.81184,5.48805H4.374c.18784-1.26548.631-3.19243,3.79291-3.19243,2.60285,0,3.86575.958,3.86575,2.68281,0,1.65646-.76761,1.86951-1.44438,1.9693l-4.5686.57331C1.41436,10.50117,1,13.73952,1,15.10652c0,2.85642,2.13817,4.75816,5.17165,4.75816a7.49294,7.49294,0,0,0,5.97246-2.68012c.08535,1.2601.47546,2.53453,2.939,2.53453a4.71887,4.71887,0,0,0,1.50182-.3289V17.39481a5.05169,5.05169,0,0,1-.91935.10431C15.10291,17.49912,14.75063,17.22411,14.75063,16.52212Zm-2.763-2.82118c0,2.1858-2.53183,3.87739-5.11044,3.87739-2.08342,0-3.00826-1.07507-3.00826-2.8672,0-2.08881,2.18849-2.49864,3.54213-2.69187,3.43512-.43946,4.13258-.68937,4.57657-1.03638Z"/><path class="a" d="M60.9097,16.647V5.19384l-.00022.00011.00011-.00011h-2.8491V2.36178H46.69256V5.19923h8.52509V8.03669l.05862-.05819-.0569.05733-.00172.00086H46.69892v2.842H43.8551V16.647h2.84382v2.84026H63.73013V16.647Zm-11.37785,0V10.87868h5.68666l.00722,5.76834Z"/><path class="a" d="M39.21829,2.36178H33.52893V2.3635A4.04291,4.04291,0,0,0,30.73824,4.301V4.296a7.00728,7.00728,0,0,0-.46565.82149,4.43977,4.43977,0,0,0-4.378-2.68562,5.74764,5.74764,0,0,0-4.98738,2.82582h-.062V2.91008H18.22616V19.39019h2.78713V10.415c0-4.485,2.76289-5.48988,4.33938-5.48988,2.04744,0,2.59305,1.66551,2.59305,3.06484V19.39019h2.79252V7.625h2.79608V5.19568l.00183-.00184h2.83649V19.48815h5.65983V5.19384H39.21829Z"/></svg>