<?xml version="1.0" encoding="UTF-8" standalone="no"?>
<svg
   xmlns:dc="http://purl.org/dc/elements/1.1/"
   xmlns:cc="http://creativecommons.org/ns#"
   xmlns:rdf="http://www.w3.org/1999/02/22-rdf-syntax-ns#"
   xmlns:svg="http://www.w3.org/2000/svg"
   xmlns="http://www.w3.org/2000/svg"
   xmlns:sodipodi="http://sodipodi.sourceforge.net/DTD/sodipodi-0.dtd"
   xmlns:inkscape="http://www.inkscape.org/namespaces/inkscape"
   viewBox="0 0 32.520957 38.348329"
   style="fill:#000000"
   version="1.1"
   id="svg148"
   sodipodi:docname="logo_selo_favicon.svg"
   inkscape:version="0.92.2 5c3e80d, 2017-08-06"
   width="32.520958"
   height="38.348328">
  <metadata
     id="metadata154">
    <rdf:RDF>
      <cc:Work
         rdf:about="">
        <dc:format>image/svg+xml</dc:format>
        <dc:type
           rdf:resource="http://purl.org/dc/dcmitype/StillImage" />
        <dc:title />
      </cc:Work>
    </rdf:RDF>
  </metadata>
  <defs
     id="defs152" />
  <sodipodi:namedview
     pagecolor="#ffffff"
     bordercolor="#666666"
     borderopacity="1"
     objecttolerance="10"
     gridtolerance="10"
     guidetolerance="10"
     inkscape:pageopacity="0"
     inkscape:pageshadow="2"
     inkscape:window-width="1321"
     inkscape:window-height="718"
     id="namedview150"
     showgrid="false"
     inkscape:zoom="3.5610079"
     inkscape:cx="100.58015"
     inkscape:cy="26.619637"
     inkscape:window-x="90"
     inkscape:window-y="0"
     inkscape:window-maximized="0"
     inkscape:current-layer="svg148" />
  <path
     d="m 16.32269,9.7496837 a 5.01,5.01 0 0 1 -5.12547,-4.87386 5.01007,5.01007 0 0 1 5.12547,-4.87445001 5.01111,5.01111 0 0 1 5.12661,4.87445001 5.011,5.011 0 0 1 -5.12661,4.87386 m 0,-8.06056 a 3.32356,3.32356 0 0 0 -3.43767,3.1867 3.3223,3.3223 0 0 0 3.43769,3.18609 3.323,3.323 0 0 0 3.43884,-3.18609 3.32426,3.32426 0 0 0 -3.43884,-3.1867"
     style="display:inline;fill:#2980b9;fill-opacity:1"
     id="path144"
     inkscape:connector-curvature="0" />
  <path
     d="M 32.43683,11.817024 A 2.678,2.678 0 0 0 29.36202,9.9433737 C 20.06363,11.603904 7.0836198,10.228144 2.9645998,9.7669637 a 2.64421,2.64421 0 0 0 -2.92623995,2.1163503 2.45586,2.45586 0 0 0 0.45706,1.91153 2.68685,2.68685 0 0 0 1.84459995,1.05017 61.53614,61.53614 0 0 0 7.56622,0.87856 c 0.5250902,0.02544 1.5226002,0.41024 1.5149202,0.87494 l -0.05567,3.47559 a 7.31942,7.31942 0 0 1 -0.3901,2.24006 l -2.5160002,12.64669 a 2.45063,2.45063 0 0 0 0.13863,1.91035 2.64312,2.64312 0 0 0 1.6161102,1.32427 2.6797,2.6797 0 0 0 3.33,-1.55989 l 2.86045,-9.38953 3.24592,9.49963 a 2.64332,2.64332 0 0 0 2.45437,1.60253 2.77235,2.77235 0 0 0 0.93833,-0.16455 l 0.10777,-0.0379 a 2.52144,2.52144 0 0 0 1.593,-3.19677 l -2.87124,-11.73206 a 11.92608,11.92608 0 0 1 -0.65646,-4.0942 l 0.039,-2.43188 a 0.91315,0.91315 0 0 1 0.94128,-0.85011 42.58749,42.58749 0 0 0 8.16769,-0.88384 2.64029,2.64029 0 0 0 1.763,-1.1674 2.45931,2.45931 0 0 0 0.30959,-1.97248 z m -1.73278,1.065 a 0.93833,0.93833 0 0 1 -0.637,0.41381 41.43439,41.43439 0 0 1 -7.90544,0.85662 2.59375,2.59375 0 0 0 -2.59409,2.5112 l -0.03846,2.43305 a 13.62922,13.62922 0 0 0 0.74768,4.672 l 2.87175,11.73206 a 0.84728,0.84728 0 0 1 -0.56244,1.05495 l -0.10832,0.03786 a 1.0067,1.0067 0 0 1 -1.2716,-0.50082 l -3.5608,-10.2509 a 1.34911,1.34911 0 0 0 -1.25614,-0.82406 h -0.02727 a 1.35047,1.35047 0 0 0 -1.25028,0.87021 l -3.14762,10.15324 a 1.02087,1.02087 0 0 1 -1.29643,0.52748 0.93078,0.93078 0 0 1 -0.56477,-0.46179 0.76236,0.76236 0 0 1 -0.04442,-0.6038 l 2.516,-12.64669 a 9.0583,9.0583 0 0 0 0.47894,-2.75456 l 0.05561,-3.47615 c 0.02249,-1.37993 -1.68063,-2.51772 -3.1203402,-2.58819 a 60.17364,60.17364 0 0 1 -7.45378,-0.869 0.99266,0.99266 0 0 1 -0.68551,-0.38063 0.79258,0.79258 0 0 1 -0.14857,-0.61861 0.94747,0.94747 0 0 1 1.07622,-0.72464 c 5.35394,0.59912 17.6206002,1.81328 26.8816602,0.15987 a 0.98363,0.98363 0 0 1 1.14669,0.64644 0.785,0.785 0 0 1 -0.1013,0.63103 z"
     style="display:inline;fill:#2980b9;fill-opacity:1"
     id="path146"
     inkscape:connector-curvature="0" />
</svg>
