<svg xmlns="http://www.w3.org/2000/svg" viewBox="0 0 183 37"><title>Artboard 1 copy1</title><path d="M16.70207,9.89749A4.57271,4.57271,0,0,1,12.02395,5.449,4.57279,4.57279,0,0,1,16.70207,1a4.57375,4.57375,0,0,1,4.67917,4.449,4.57367,4.57367,0,0,1-4.67917,4.44847m0-7.357A3.03349,3.03349,0,0,0,13.56441,5.449a3.03234,3.03234,0,0,0,3.13766,2.908,3.033,3.033,0,0,0,3.13871-2.908,3.03413,3.03413,0,0,0-3.13871-2.90857" style="fill:#fff"/><path d="M31.4098,11.7844a2.44424,2.44424,0,0,0-2.80644-1.71014c-8.48686,1.5156-20.334.25992-24.09351-.161A2.41341,2.41341,0,0,0,1.839,11.84491a2.24147,2.24147,0,0,0,.41716,1.74469,2.45239,2.45239,0,0,0,1.68363.95852,56.167,56.167,0,0,0,6.90586.80187c.47926.02322,1.38971.37445,1.38269.79858l-.0508,3.17225a6.68084,6.68084,0,0,1-.35606,2.04455L9.5251,32.90828a2.23679,2.23679,0,0,0,.12645,1.74362,2.41249,2.41249,0,0,0,1.47507,1.20869A2.44583,2.44583,0,0,0,14.166,34.43684l2.61079-8.57,2.96262,8.67052A2.41262,2.41262,0,0,0,21.97952,36a2.53039,2.53039,0,0,0,.85645-.15019l.09835-.03459a2.30137,2.30137,0,0,0,1.454-2.91776L21.76771,22.18935a10.88521,10.88521,0,0,1-.59916-3.73686l.03562-2.21963a.83346.83346,0,0,1,.85913-.77592,38.87071,38.87071,0,0,0,7.45482-.8067,2.40986,2.40986,0,0,0,1.60909-1.06551A2.24467,2.24467,0,0,0,31.4098,11.7844Zm-1.58155.972a.85643.85643,0,0,1-.58138.37769,37.81831,37.81831,0,0,1-7.21547.78186,2.36737,2.36737,0,0,0-2.36768,2.292l-.03511,2.2207a12.43945,12.43945,0,0,0,.68243,4.26423l2.6211,10.70811a.77333.77333,0,0,1-.51334.96288l-.09887.03455a.91883.91883,0,0,1-1.16062-.4571l-3.25-9.35621a1.23133,1.23133,0,0,0-1.1465-.75213h-.02489a1.23257,1.23257,0,0,0-1.14116.79425l-2.8729,9.26709a.93178.93178,0,0,1-1.18329.48144.84963.84963,0,0,1-.51548-.42149.69586.69586,0,0,1-.04054-.5511l2.2964-11.54291a8.2677,8.2677,0,0,0,.43713-2.51415l.05076-3.17276c.02053-1.25949-1.534-2.298-2.848-2.36229a54.923,54.923,0,0,1-6.80323-.79319.906.906,0,0,1-.62568-.34741.72343.72343,0,0,1-.13561-.56462.86477.86477,0,0,1,.9823-.66139c4.88666.54683,16.08271,1.655,24.53547.14591a.89777.89777,0,0,1,1.04661.59A.71647.71647,0,0,1,29.82825,12.75643Z" style="fill:#fff"/><path d="M47.11493,8.48389a2.18372,2.18372,0,0,0-.331-.24707,3.97332,3.97332,0,0,0-.585-.30567,5.16533,5.16533,0,0,0-.748-.2539,3.25812,3.25812,0,0,0-.81836-.10352,1.84174,1.84174,0,0,0-1.10547.27246.90679.90679,0,0,0-.36426.76758.791.791,0,0,0,.13672.47461,1.17141,1.17141,0,0,0,.39649.331,3.27463,3.27463,0,0,0,.65722.25977c.26368.07812.56934.16113.916.24707q.6753.1831,1.22852.39062a3.31667,3.31667,0,0,1,.93554.51954,2.14149,2.14149,0,0,1,.5918.748,2.47553,2.47553,0,0,1,.208,1.07227,2.6702,2.6702,0,0,1-.2793,1.26758,2.35368,2.35368,0,0,1-.75391.85156,3.27787,3.27787,0,0,1-1.09179.47461,5.49173,5.49173,0,0,1-1.294.14941,6.945,6.945,0,0,1-2.05371-.3125,6.33014,6.33014,0,0,1-1.82031-.88379l.793-1.54687a2.50732,2.50732,0,0,0,.42285.30566,6.49079,6.49079,0,0,0,.72168.377,5.6096,5.6096,0,0,0,.92285.31835,4.15751,4.15751,0,0,0,1.04.12989q1.481,0,1.48144-.94922a.77989.77989,0,0,0-.16894-.50684,1.434,1.434,0,0,0-.48047-.36425,4.60969,4.60969,0,0,0-.75391-.28516q-.44238-.13038-.98828-.28613A8.54786,8.54786,0,0,1,42.78,10.99951a3.01561,3.01561,0,0,1-.8125-.50781,1.87867,1.87867,0,0,1-.4873-.67578,2.31679,2.31679,0,0,1-.16309-.916,2.87774,2.87774,0,0,1,.25977-1.248,2.53114,2.53114,0,0,1,.72168-.91016A3.28344,3.28344,0,0,1,43.37079,6.189a4.45752,4.45752,0,0,1,1.31348-.18847,5.10546,5.10546,0,0,1,1.79394.30566,6.69777,6.69777,0,0,1,1.42969.72168Z" style="fill:#fff"/><path d="M55.99384,13.72217v1.57324H49.58466V6.06592h6.292V7.63818h-4.498V9.86182h3.8877v1.456H51.3786v2.4043Z" style="fill:#fff"/><path d="M57.39814,15.29541V6.06592h1.79394v7.65625h4.70606v1.57324Z" style="fill:#fff"/><path d="M68.34443,15.36084a4.19307,4.19307,0,0,1-1.83985-.39648,4.53284,4.53284,0,0,1-1.417-1.05274,4.88985,4.88985,0,0,1-1.24121-3.23144A4.62289,4.62289,0,0,1,64.1911,8.9126a4.88787,4.88787,0,0,1,.94825-1.49512,4.54413,4.54413,0,0,1,1.43652-1.0332,4.26288,4.26288,0,0,1,1.80762-.38379,4.06082,4.06082,0,0,1,1.82617.40918,4.55468,4.55468,0,0,1,1.41016,1.07324A4.91906,4.91906,0,0,1,72.53,8.99072a4.74434,4.74434,0,0,1,.3252,1.71582,4.66614,4.66614,0,0,1-.33789,1.76172,4.78866,4.78866,0,0,1-.93555,1.48145,4.50489,4.50489,0,0,1-1.43066,1.02734A4.26163,4.26163,0,0,1,68.34443,15.36084Zm-2.67774-4.68066a3.71573,3.71573,0,0,0,.18164,1.15722,3.08578,3.08578,0,0,0,.52637.98828,2.62782,2.62782,0,0,0,.84473.68946,2.4382,2.4382,0,0,0,1.13769.25976,2.40688,2.40688,0,0,0,1.15039-.2666,2.62625,2.62625,0,0,0,.8457-.709,3.15692,3.15692,0,0,0,.51954-.99414,3.68817,3.68817,0,0,0,.17578-1.125,3.60874,3.60874,0,0,0-.18848-1.15625,3.19941,3.19941,0,0,0-.5332-.98829,2.54624,2.54624,0,0,0-.84473-.68261,2.64116,2.64116,0,0,0-2.28223.01269,2.57245,2.57245,0,0,0-.84472.70215,3.16245,3.16245,0,0,0-.51367.98828A3.71511,3.71511,0,0,0,65.66669,10.68018Z" style="fill:#fff"/><path d="M77.35321,15.29541V6.06592h3.35352a5.01849,5.01849,0,0,1,1.98242.36328,3.98751,3.98751,0,0,1,2.28223,2.45117,5.50143,5.50143,0,0,1,.28613,1.78711,5.38711,5.38711,0,0,1-.31933,1.9043,4.05,4.05,0,0,1-.916,1.456,4.1347,4.1347,0,0,1-1.43652.93653,5.07828,5.07828,0,0,1-1.87891.33105Zm6.09668-4.62793a3.93726,3.93726,0,0,0-.18164-1.22168,2.73419,2.73419,0,0,0-.5332-.96191,2.38158,2.38158,0,0,0-.86426-.624,2.918,2.918,0,0,0-1.16406-.22168H79.14716v6.084h1.55957a2.80642,2.80642,0,0,0,1.17676-.2334,2.42229,2.42229,0,0,0,.8584-.64356,2.87932,2.87932,0,0,0,.52636-.96875A3.88672,3.88672,0,0,0,83.44989,10.66748Z" style="fill:#fff"/><path d="M93.07,13.72217v1.57324H86.66083V6.06592h6.292V7.63818h-4.498V9.86182H92.3415v1.456H88.45478v2.4043Z" style="fill:#fff"/><path d="M101.49384,13.7749a2.0616,2.0616,0,0,0,1.07226-.25976,2.10766,2.10766,0,0,0,.70215-.67676,2.78212,2.78212,0,0,0,.377-.95508,5.55645,5.55645,0,0,0,.11035-1.11133v-4.706h1.78125v4.706a6.72927,6.72927,0,0,1-.22754,1.78028,4.07772,4.07772,0,0,1-.71484,1.456,3.42153,3.42153,0,0,1-1.25489.98828,4.23536,4.23536,0,0,1-1.833.36426,4.19162,4.19162,0,0,1-1.87793-.38379,3.51,3.51,0,0,1-1.25488-1.01367,4.05152,4.05152,0,0,1-.69531-1.46289,6.871,6.871,0,0,1-.21484-1.72852v-4.706h1.79394v4.706a5.619,5.619,0,0,0,.11035,1.124,2.79892,2.79892,0,0,0,.377.956,1.96019,1.96019,0,0,0,1.749.92285Z" style="fill:#fff"/><path d="M112.84247,8.48389a2.18372,2.18372,0,0,0-.33105-.24707,3.97332,3.97332,0,0,0-.585-.30567,5.16616,5.16616,0,0,0-.74805-.2539,3.25818,3.25818,0,0,0-.81836-.10352,1.84174,1.84174,0,0,0-1.10547.27246.90679.90679,0,0,0-.36426.76758.791.791,0,0,0,.13672.47461,1.17141,1.17141,0,0,0,.39649.331,3.27415,3.27415,0,0,0,.65722.25977c.26368.07812.56934.16113.916.24707q.67529.1831,1.22851.39062a3.3166,3.3166,0,0,1,.93555.51954,2.14149,2.14149,0,0,1,.5918.748,2.47553,2.47553,0,0,1,.208,1.07227,2.6702,2.6702,0,0,1-.2793,1.26758,2.35368,2.35368,0,0,1-.75391.85156,3.27787,3.27787,0,0,1-1.09179.47461,5.49173,5.49173,0,0,1-1.29395.14941,6.945,6.945,0,0,1-2.05371-.3125,6.33014,6.33014,0,0,1-1.82031-.88379l.793-1.54687a2.50732,2.50732,0,0,0,.42285.30566,6.49079,6.49079,0,0,0,.72168.377,5.6096,5.6096,0,0,0,.92285.31835,4.15751,4.15751,0,0,0,1.04.12989q1.48095,0,1.48144-.94922a.77989.77989,0,0,0-.16894-.50684,1.434,1.434,0,0,0-.48047-.36425,4.60969,4.60969,0,0,0-.75391-.28516q-.44238-.13038-.98828-.28613a8.54786,8.54786,0,0,1-1.15039-.39649,3.01561,3.01561,0,0,1-.8125-.50781,1.87855,1.87855,0,0,1-.4873-.67578,2.31679,2.31679,0,0,1-.16309-.916,2.8776,2.8776,0,0,1,.25977-1.248,2.531,2.531,0,0,1,.72168-.91016,3.28334,3.28334,0,0,1,1.07226-.55274,4.45747,4.45747,0,0,1,1.31348-.18847,5.1055,5.1055,0,0,1,1.79394.30566,6.698,6.698,0,0,1,1.42969.72168Z" style="fill:#fff"/><path d="M117.7829,6.06592h1.58594l3.50976,9.22949h-1.8457l-.8584-2.30078h-3.22363l-.84473,2.30078h-1.84668Zm2.06641,5.668-1.27344-3.627-1.32617,3.627Z" style="fill:#fff"/><path d="M131.3288,12.9165a2.09495,2.09495,0,0,1-.87793,1.76856,3.01406,3.01406,0,0,1-.94922.45508,4.14,4.14,0,0,1-1.15039.15527h-4.459V6.06592h4.94043a1.822,1.822,0,0,1,.87109.208,2.18825,2.18825,0,0,1,.66309.53906,2.47812,2.47812,0,0,1,.42187.7539,2.54045,2.54045,0,0,1,.14942.85157,2.5102,2.5102,0,0,1-.3379,1.26758,2.05976,2.05976,0,0,1-.9873.87792,2.37137,2.37137,0,0,1,1.25391.8379A2.42536,2.42536,0,0,1,131.3288,12.9165Zm-5.64258-5.3164V9.92627h2.39258a1.06562,1.06562,0,0,0,.77344-.31152,1.14811,1.14811,0,0,0,.31836-.8584,1.18544,1.18544,0,0,0-.293-.84473.94643.94643,0,0,0-.7207-.31152Zm3.835,4.97851a1.3644,1.3644,0,0,0-.31152-.87109,1.07593,1.07593,0,0,0-.33789-.2666.95348.95348,0,0,0-.42871-.09766h-2.75684V13.7749h2.665a1.174,1.174,0,0,0,.46192-.09082,1.10236,1.10236,0,0,0,.37011-.2539,1.23432,1.23432,0,0,0,.33789-.85157Z" style="fill:#fff"/><path d="M132.73212,15.29541V6.06592h1.79395v9.22949Z" style="fill:#fff"/><path d="M136.44989,15.29541V6.06592h1.79395v7.65625h4.70605v1.57324Z" style="fill:#fff"/><path d="M144.04267,15.29541V6.06592h1.79394v9.22949Z" style="fill:#fff"/><path d="M147.76044,15.29541V6.06592H151.114a5.01853,5.01853,0,0,1,1.98242.36328,3.98745,3.98745,0,0,1,2.28222,2.45117,5.50144,5.50144,0,0,1,.28614,1.78711,5.38711,5.38711,0,0,1-.31934,1.9043,4.05,4.05,0,0,1-.916,1.456,4.13465,4.13465,0,0,1-1.43653.93653,5.07819,5.07819,0,0,1-1.8789.33105Zm6.09668-4.62793a3.93755,3.93755,0,0,0-.18164-1.22168,2.73435,2.73435,0,0,0-.5332-.96191,2.38167,2.38167,0,0,0-.86426-.624,2.918,2.918,0,0,0-1.16406-.22168h-1.55957v6.084H151.114a2.80634,2.80634,0,0,0,1.17675-.2334,2.4222,2.4222,0,0,0,.8584-.64356,2.87934,2.87934,0,0,0,.52637-.96875A3.887,3.887,0,0,0,153.85712,10.66748Z" style="fill:#fff"/><path d="M159.36884,6.06592h1.58594l3.51074,9.22949h-1.84668l-.85742-2.30078h-3.22461l-.84473,2.30078h-1.8457Zm2.06738,5.668-1.27441-3.627-1.3252,3.627Z" style="fill:#fff"/><path d="M165.47919,15.29541V6.06592h3.35352a5.01853,5.01853,0,0,1,1.98242.36328,3.98745,3.98745,0,0,1,2.28222,2.45117,5.50144,5.50144,0,0,1,.28614,1.78711,5.38711,5.38711,0,0,1-.31934,1.9043,4.05,4.05,0,0,1-.916,1.456,4.13465,4.13465,0,0,1-1.43653.93653,5.07819,5.07819,0,0,1-1.8789.33105Zm6.09668-4.62793a3.93755,3.93755,0,0,0-.18164-1.22168,2.73435,2.73435,0,0,0-.5332-.96191,2.38167,2.38167,0,0,0-.86426-.624,2.918,2.918,0,0,0-1.16406-.22168h-1.55957v6.084h1.55957a2.80634,2.80634,0,0,0,1.17675-.2334,2.4222,2.4222,0,0,0,.8584-.64356,2.87934,2.87934,0,0,0,.52637-.96875A3.887,3.887,0,0,0,171.57587,10.66748Z" style="fill:#fff"/><path d="M181.196,13.72217v1.57324h-6.40918V6.06592h6.292V7.63818h-4.49805V9.86182h3.8877v1.456h-3.8877v2.4043Z" style="fill:#fff"/><path d="M48.02509,29.32275V30.896H41.61591V21.66553h6.292v1.57324h-4.498v2.22266h3.8877v1.45605h-3.8877v2.40527Z" style="fill:#fff"/><path d="M54.77216,21.66553H56.3581L59.86786,30.896h-1.8457l-.8584-2.30079H53.94013L53.0954,30.896H51.24872Zm2.06641,5.668-1.27344-3.627L54.239,27.3335Z" style="fill:#fff"/><path d="M59.98505,26.21533a4.79526,4.79526,0,0,1,.30566-1.66992,4.55431,4.55431,0,0,1,.89063-1.47559A4.4958,4.4958,0,0,1,62.611,22.01709a4.42109,4.42109,0,0,1,1.9248-.40332,4.202,4.202,0,0,1,2.20313.55859,3.58128,3.58128,0,0,1,1.38476,1.45606l-1.37793.94922a2.38676,2.38676,0,0,0-.44238-.65625,2.23165,2.23165,0,0,0-.55859-.42285,2.56159,2.56159,0,0,0-.624-.22754,3.01662,3.01662,0,0,0-.63769-.07129,2.40992,2.40992,0,0,0-1.17578.27343,2.57994,2.57994,0,0,0-.832.708,3.1142,3.1142,0,0,0-.501.98828,3.75014,3.75014,0,0,0-.169,1.09864,3.58279,3.58279,0,0,0,.19532,1.17578,3.11662,3.11662,0,0,0,.55273.99511,2.74646,2.74646,0,0,0,.85742.68848,2.34358,2.34358,0,0,0,1.09863.26074,2.90876,2.90876,0,0,0,.65039-.07812,2.528,2.528,0,0,0,.64356-.24707,2.44825,2.44825,0,0,0,.56543-.43555,2.0315,2.0315,0,0,0,.416-.64355l1.46875.84472a2.77613,2.77613,0,0,1-.63085.917,4.04165,4.04165,0,0,1-.92286.66894,4.6582,4.6582,0,0,1-1.09863.416,4.7887,4.7887,0,0,1-1.14355.14355,3.93269,3.93269,0,0,1-1.80762-.416,4.71021,4.71021,0,0,1-1.41016-1.08594,5.02715,5.02715,0,0,1-.92285-1.52051A4.7587,4.7587,0,0,1,59.98505,26.21533Z" style="fill:#fff"/><path d="M75.87177,29.32275V30.896H69.46259V21.66553h6.292v1.57324H71.25653v2.22266h3.88672v1.45605H71.25653v2.40527Z" style="fill:#fff"/><path d="M82.5788,24.0835a2.25341,2.25341,0,0,0-.33105-.24707,4.07267,4.07267,0,0,0-.585-.30469,5.05091,5.05091,0,0,0-.748-.25391,3.2596,3.2596,0,0,0-.81836-.10449,1.8413,1.8413,0,0,0-1.10547.27344.90376.90376,0,0,0-.36426.7666.78693.78693,0,0,0,.13672.47461,1.18461,1.18461,0,0,0,.39648.332,3.39562,3.39562,0,0,0,.65723.25977q.3955.11718.916.24707.67529.18164,1.22851.38964a3.31806,3.31806,0,0,1,.93555.52051,2.14717,2.14717,0,0,1,.5918.74707,2.48157,2.48157,0,0,1,.208,1.07227,2.66748,2.66748,0,0,1-.27929,1.26758,2.33788,2.33788,0,0,1-.75391.85156,3.27792,3.27792,0,0,1-1.0918.47461,5.49171,5.49171,0,0,1-1.29394.14941,6.94382,6.94382,0,0,1-2.05371-.31152A6.35547,6.35547,0,0,1,76.404,29.8042l.793-1.54785a2.45354,2.45354,0,0,0,.42286.30566,6.17612,6.17612,0,0,0,.72168.377,5.5189,5.5189,0,0,0,.92285.31836,4.15818,4.15818,0,0,0,1.04.13086q1.481,0,1.48144-.94922a.77988.77988,0,0,0-.16894-.50683,1.42153,1.42153,0,0,0-.48047-.36426,4.60549,4.60549,0,0,0-.75391-.28613q-.44238-.13038-.98828-.28613a8.28328,8.28328,0,0,1-1.15039-.39649,2.9901,2.9901,0,0,1-.8125-.50683,1.88716,1.88716,0,0,1-.48731-.67579,2.32531,2.32531,0,0,1-.16308-.917,2.87782,2.87782,0,0,1,.25976-1.248,2.53959,2.53959,0,0,1,.72168-.91015,3.26289,3.26289,0,0,1,1.07227-.55176,4.42542,4.42542,0,0,1,1.31348-.18848,5.08333,5.08333,0,0,1,1.79394.30567,6.65179,6.65179,0,0,1,1.42969.7207Z" style="fill:#fff"/><path d="M90.54755,24.0835a2.25341,2.25341,0,0,0-.33105-.24707,4.07267,4.07267,0,0,0-.585-.30469,5.05091,5.05091,0,0,0-.748-.25391,3.2596,3.2596,0,0,0-.81836-.10449,1.8413,1.8413,0,0,0-1.10547.27344.90376.90376,0,0,0-.36426.7666.78693.78693,0,0,0,.13672.47461,1.18461,1.18461,0,0,0,.39648.332,3.39562,3.39562,0,0,0,.65723.25977q.3955.11718.916.24707.67529.18164,1.22851.38964a3.31806,3.31806,0,0,1,.93555.52051,2.14717,2.14717,0,0,1,.5918.74707,2.48157,2.48157,0,0,1,.208,1.07227,2.66748,2.66748,0,0,1-.27929,1.26758,2.33788,2.33788,0,0,1-.75391.85156,3.27792,3.27792,0,0,1-1.0918.47461,5.49171,5.49171,0,0,1-1.29394.14941,6.94382,6.94382,0,0,1-2.05371-.31152,6.35547,6.35547,0,0,1-1.82031-.88379l.793-1.54785a2.45354,2.45354,0,0,0,.42286.30566,6.17612,6.17612,0,0,0,.72168.377,5.5189,5.5189,0,0,0,.92285.31836,4.15818,4.15818,0,0,0,1.04.13086q1.481,0,1.48144-.94922a.77988.77988,0,0,0-.16894-.50683,1.42153,1.42153,0,0,0-.48047-.36426,4.60549,4.60549,0,0,0-.75391-.28613q-.44238-.13038-.98828-.28613a8.28328,8.28328,0,0,1-1.15039-.39649,2.9901,2.9901,0,0,1-.8125-.50683,1.88716,1.88716,0,0,1-.48731-.67579,2.32531,2.32531,0,0,1-.16308-.917,2.87782,2.87782,0,0,1,.25976-1.248,2.53959,2.53959,0,0,1,.72168-.91015,3.26289,3.26289,0,0,1,1.07227-.55176,4.42542,4.42542,0,0,1,1.31348-.18848,5.08333,5.08333,0,0,1,1.79394.30567,6.65179,6.65179,0,0,1,1.42969.7207Z" style="fill:#fff"/><path d="M93.01825,30.896V21.66553h1.794V30.896Z" style="fill:#fff"/><path d="M104.17157,28.51709a2.09081,2.09081,0,0,1-.877,1.76758,3.01333,3.01333,0,0,1-.94922.45508,4.10374,4.10374,0,0,1-1.15039.15625H96.736V21.66553h4.93945a1.81922,1.81922,0,0,1,.87109.208,2.15365,2.15365,0,0,1,.66309.54,2.44891,2.44891,0,0,1,.42285.75391,2.52856,2.52856,0,0,1-.18848,2.11914,2.05582,2.05582,0,0,1-.98828.877,2.37547,2.37547,0,0,1,1.25489.83887A2.423,2.423,0,0,1,104.17157,28.51709ZM98.53,23.19971v2.32715h2.3916a1.0633,1.0633,0,0,0,.77344-.3125,1.14259,1.14259,0,0,0,.31934-.85743,1.18378,1.18378,0,0,0-.293-.84472.95086.95086,0,0,0-.72168-.3125Zm3.835,4.97949a1.34318,1.34318,0,0,0-.085-.47461,1.28374,1.28374,0,0,0-.22754-.39648,1.03838,1.03838,0,0,0-.33789-.26661.93793.93793,0,0,0-.42871-.09765H98.53v2.43066h2.665a1.16917,1.16917,0,0,0,.46094-.09082,1.09251,1.09251,0,0,0,.37109-.2539,1.20731,1.20731,0,0,0,.24707-.38282A1.22063,1.22063,0,0,0,102.36493,28.1792Z" style="fill:#fff"/><path d="M105.57587,30.896V21.66553h1.794V30.896Z" style="fill:#fff"/><path d="M109.29364,30.896V21.66553h1.794v7.65722h4.706V30.896Z" style="fill:#fff"/><path d="M116.88544,30.896V21.66553h1.79395V30.896Z" style="fill:#fff"/><path d="M120.60321,30.896V21.66553h3.3545a5.01822,5.01822,0,0,1,1.98242.36426A3.98408,3.98408,0,0,1,128.22138,24.48a5.51163,5.51163,0,0,1,.28613,1.78809,5.40915,5.40915,0,0,1-.31836,1.90429,4.01128,4.01128,0,0,1-2.35351,2.3916,5.05308,5.05308,0,0,1-1.87793.332Zm6.09766-4.62793a3.93886,3.93886,0,0,0-.18262-1.22266,2.741,2.741,0,0,0-.53222-.96191,2.377,2.377,0,0,0-.86524-.624,2.91314,2.91314,0,0,0-1.16308-.2207h-1.56055v6.084h1.56055a2.80957,2.80957,0,0,0,1.17675-.23437,2.396,2.396,0,0,0,.85743-.64356,2.8577,2.8577,0,0,0,.52636-.96777A3.89113,3.89113,0,0,0,126.70087,26.26807Z" style="fill:#fff"/><path d="M132.21259,21.66553h1.58594l3.50976,9.23047h-1.8457l-.8584-2.30079h-3.22363l-.84473,2.30079h-1.84668Zm2.06641,5.668-1.27344-3.627-1.32617,3.627Z" style="fill:#fff"/><path d="M138.32294,30.896V21.66553h3.35352a5.01822,5.01822,0,0,1,1.98242.36426A3.98912,3.98912,0,0,1,145.9411,24.48a5.51163,5.51163,0,0,1,.28614,1.78809,5.387,5.387,0,0,1-.31934,1.90429,4.06693,4.06693,0,0,1-.916,1.45606,4.11857,4.11857,0,0,1-1.43653.93554,5.05823,5.05823,0,0,1-1.8789.332Zm6.09668-4.62793a3.93942,3.93942,0,0,0-.18164-1.22266,2.743,2.743,0,0,0-.5332-.96191,2.38167,2.38167,0,0,0-.86426-.624,2.918,2.918,0,0,0-1.16406-.2207h-1.55957v6.084h1.55957a2.80639,2.80639,0,0,0,1.17675-.23437,2.3995,2.3995,0,0,0,.8584-.64356,2.87468,2.87468,0,0,0,.52637-.96777A3.89148,3.89148,0,0,0,144.41962,26.26807Z" style="fill:#fff"/><path d="M154.03974,29.32275V30.896h-6.40918V21.66553h6.292v1.57324H149.4245v2.22266h3.88672v1.45605H149.4245v2.40527Z" style="fill:#fff"/></svg>