<svg xmlns="http://www.w3.org/2000/svg" viewBox="0 0 115 35"><defs><style>.a,.c{fill:#8d8d8e;}.b,.d{fill:#fff;}.c,.d{fill-rule:evenodd;}</style></defs><title>logo_republica_portuguesa</title><path class="a" d="M37.48481,15.69374,34.9119,11.75222h-.22337V14.822c.16491.01763.33226.03841.50091.06506a3.49672,3.49672,0,0,1,.47455.10472v.70194H32.386v-.68932a5.59015,5.59015,0,0,1,1.13207-.1824V7.78432A5.54953,5.54953,0,0,1,32.386,7.60191V6.9123H33.4013q.25961,0,.88376-.02579.62409-.02514,1.43081-.02565a5.423,5.423,0,0,1,1.19724.124,2.69931,2.69931,0,0,1,.94309.39646,1.8818,1.8818,0,0,1,.6184.70881,2.58833,2.58833,0,0,1,.03225,2.01541,2.214,2.214,0,0,1-.527.7356,2.73888,2.73888,0,0,1-.80024.50736,3.3332,3.3332,0,0,1-.99509.24658c.09657.12266.19487.25.29546.385.101.13384.19485.27138.283.40909l1.65964,2.4193c.14642.01848.30747.03941.48071.06461.17366.02694.34673.06163.52053.10417v.71655Zm-.5247-7.51941a2.60133,2.60133,0,0,0-1.45717-.338c-.1579,0-.30262.00144-.43314.007-.13211.00443-.25891.01088-.38127.019v2.992c.06963.00875.17048.0152.30174.019.132.00532.28485.007.45979.007a2.2568,2.2568,0,0,0,1.484-.43644,1.40576,1.40576,0,0,0,.52585-1.13767,1.26763,1.26763,0,0,0-.49976-1.13206"/><path class="a" d="M40.048,15.69389v-.68933a5.65451,5.65451,0,0,1,1.13151-.18283V7.78446A5.62562,5.62562,0,0,1,40.048,7.60221V6.913h5.65877V8.94232h-.8329q-.06555-.29874-.10388-.58588c-.02606-.19027-.04742-.35891-.06447-.50736H42.35065v2.88856h1.87326c.0255-.16493.0513-.32066.07753-.46867a3.4822,3.4822,0,0,1,.10415-.42869h.72858v2.66617h-.72858a6.42383,6.42383,0,0,1-.18167-.89781H42.35065V14.7319H44.7181c.017-.17454.04055-.35377.07163-.54046q.04472-.27941.11033-.57957h.83276v2.082Z"/><path class="a" d="M53.114,10.62056a2.81749,2.81749,0,0,1-.70508.92317,3.22663,3.22663,0,0,1-1.06933.60507,4.147,4.147,0,0,1-1.36417.21421H49.61a2.41164,2.41164,0,0,1-.35249-.0252v2.48392a5.67192,5.67192,0,0,1,1.13122.18225v.68991H46.955V15.004a5.68027,5.68027,0,0,1,1.13236-.18225V7.78446a5.63882,5.63882,0,0,1-1.13236-.182V6.9123h.96243c.10388,0,.243-.00171.41666-.00616q.25965-.006.57285-.01905.31164-.01311.65637-.01963c.23011-.00387.45333-.00646.67027-.00646a3.46466,3.46466,0,0,1,2.33491.69508,2.36685,2.36685,0,0,1,.79965,1.88043,2.72219,2.72219,0,0,1-.25417,1.184m-1.4778-2.32874a2.25154,2.25154,0,0,0-1.52883-.44289h-.45721c-.132,0-.26134.005-.3926.01291v3.46125c.11333.01632.23068.03052.35249.03927.12177.00815.24414.01288.3665.01288a2.42381,2.42381,0,0,0,1.57481-.50179A1.63036,1.63036,0,0,0,52.132,9.55356a1.60069,1.60069,0,0,0-.49589-1.26174"/><path class="a" d="M62.11032,7.71955c-.14845.02565-.29916.04787-.45592.06491v4.566a3.50684,3.50684,0,0,1-.87832,2.60786,3.58429,3.58429,0,0,1-2.6209.86556,4.5401,4.5401,0,0,1-1.67123-.25993,2.45126,2.45126,0,0,1-1.00213-.69577,2.41656,2.41656,0,0,1-.48773-.98923,4.94018,4.94018,0,0,1-.13-1.13822V7.78446c-.15588-.017-.31076-.03926-.46106-.06491a3.23239,3.23239,0,0,1-.43631-.10446V6.913h3.10865v.70206a3.88074,3.88074,0,0,1-.50736.10446c-.18182.02565-.35993.04787-.5326.06491v4.86528a3.80065,3.80065,0,0,0,.09071.8518,1.58455,1.58455,0,0,0,1.01142,1.165,3.00236,3.00236,0,0,0,1.08893.16864,2.35979,2.35979,0,0,0,1.70308-.53988,2.54989,2.54989,0,0,0,.55477-1.86625V7.78446c-.17365-.017-.3496-.03926-.52758-.06491a4.48335,4.48335,0,0,1-.51322-.10446V6.913h3.10806v.70206a3.88626,3.88626,0,0,1-.44131.10446M58.0775,6.22313l-.468-.65065,1.84662-1.44341.58544.80608Z"/><path class="a" d="M70.04524,13.92521a2.19343,2.19343,0,0,1-.527.87072,2.92745,2.92745,0,0,1-1.04137.67013,4.50911,4.50911,0,0,1-1.68385.26651c-.26049,0-.59146-.00643-.99582-.01905q-.60345-.02-1.24137-.01978H63.42364v-.68918a5.63437,5.63437,0,0,1,1.13221-.18283V7.78446a5.64542,5.64542,0,0,1-1.13221-.182V6.91289h1.10613c.31122,0,.69377-.00675,1.14454-.01963.45019-.01262.94106-.01935,1.46948-.01935a3.4116,3.4116,0,0,1,2.14608.5598,1.86755,1.86755,0,0,1,.70324,1.54787,2.01193,2.01193,0,0,1-.43559,1.25514,2.25624,2.25624,0,0,1-1.13852.78706v.02606a2.37241,2.37241,0,0,1,.79349.27252,1.858,1.858,0,0,1,.872,1.07376,2.23472,2.23472,0,0,1,.104.66968,2.96085,2.96085,0,0,1-.1433.85941M68.67232,8.643a.98767.98767,0,0,0-.29658-.42872,1.40488,1.40488,0,0,0-.56312-.28023,3.349,3.349,0,0,0-.87947-.09775c-.20975,0-.4178.00273-.62356.00646-.20518.005-.40031.01118-.58316.01963v2.83613c.12237.008.24846.01318.38057.01318h.433a2.82407,2.82407,0,0,0,1.6592-.40407,1.31546,1.31546,0,0,0,.55821-1.13206,1.64139,1.64139,0,0,0-.0851-.53257m.05875,3.74609a1.37473,1.37473,0,0,0-.49463-.46167,2.26637,2.26637,0,0,0-.74762-.24728,5.83279,5.83279,0,0,0-.94309-.07166h-.39c-.07824,0-.15676.00243-.2344.00646-.07824.005-.143.0073-.19488.0073v3.06954c.12181.01775.27511.03307.46168.04628.186.01259.40546.019.6568.019a2.25443,2.25443,0,0,0,1.57407-.4615,1.55655,1.55655,0,0,0,.494-1.19054,1.31239,1.31239,0,0,0-.182-.716"/><path class="a" d="M71.21587,15.69389V15.014a5.63856,5.63856,0,0,1,1.13134-.18026V7.79764a5.57446,5.57446,0,0,1-1.13134-.18255V6.92562H74.65v.68947a5.57416,5.57416,0,0,1-1.13166.18255V14.7319h2.25069c.01747-.17454.04326-.36293.07824-.56654.03409-.204.07306-.40964.11661-.61825h.81928v2.14678Z"/><path class="a" d="M77.33,15.69389v-.68933a5.64414,5.64414,0,0,1,1.13163-.18283V7.78446A5.61536,5.61536,0,0,1,77.33,7.60221V6.913h3.43417v.68918a5.618,5.618,0,0,1-1.13221.18225v7.03727a5.64549,5.64549,0,0,1,1.13221.18283v.68933Z"/><path class="a" d="M87.28145,9.20236q-.06447-.32535-.104-.61769c-.02609-.19514-.04815-.38026-.06535-.55289a4.12969,4.12969,0,0,0-.65677-.12381,6.43457,6.43457,0,0,0-.64393-.03167,2.66074,2.66074,0,0,0-1.23535.26707,2.38713,2.38713,0,0,0-.85856.72917,3.14325,3.14325,0,0,0-.5009,1.09539,5.4087,5.4087,0,0,0-.16336,1.36158,3.89649,3.89649,0,0,0,.72243,2.50244A2.80386,2.80386,0,0,0,86.098,14.731a4.90553,4.90553,0,0,0,1.07262-.12292A4.26644,4.26644,0,0,0,88.14,14.276l.07764,1.09251a7.90532,7.90532,0,0,1-1.14425.31894,6.46659,6.46659,0,0,1-1.2752.12321,3.88259,3.88259,0,0,1-3.0367-1.13148,4.52906,4.52906,0,0,1-1.02217-3.148,6.62522,6.62522,0,0,1,.25447-1.87986,4.03235,4.03235,0,0,1,.7863-1.49585,3.61936,3.61936,0,0,1,1.34627-.98305,4.89135,4.89135,0,0,1,1.94434-.35064,7.70884,7.70884,0,0,1,1.03509.07093q.52567.07052,1.021.18513V9.20236Z"/><path class="a" d="M94.34466,15.69389v-.68933a3.88258,3.88258,0,0,1,.5012-.10417c.17708-.02578.35333-.04756.52643-.06549l-.50665-1.40528H91.18357l-.50692,1.40528q.25961.0269.52641.06549a3.87858,3.87858,0,0,1,.50093.10417v.68933H88.6601V14.9911c.12121-.02653.253-.05317.39716-.08425a3.00907,3.00907,0,0,1,.39606-.059L92.36794,6.913h1.40529l2.92639,7.93478a3.02493,3.02493,0,0,1,.39632.059c.14329.03108.2754.05772.39717.08425v.70279Zm-.923-6.28348c-.08683-.2245-.16134-.44458-.22153-.65709-.06074-.21175-.11661-.43128-.16908-.65752h-.0255c-.05215.21809-.11089.43629-.17624.65752q-.09716.33206-.22754.67027l-1.10553,3.04418H94.553Z"/><path class="a" d="M38.90331,22.60122a2.70889,2.70889,0,0,1-.6829.97043,3.279,3.279,0,0,1-1.08663.64434,4.13,4.13,0,0,1-1.43053.23384h-.25993a1.77028,1.77028,0,0,1-.30031-.02667V26.31c.19989.01764.39474.03871.586.06447q.28668.04023.54618.09129v1.05413H32.3205V26.4658c.17365-.034.35565-.06447.54721-.09129.18985-.02576.38558-.04683.58488-.06447V19.94849c-.1993-.01706-.395-.03868-.58488-.06506-.19156-.02621-.37355-.05559-.54721-.0917V18.73834h1.01474c.10388,0,.249-.00173.43629-.00617q.27854-.00664.61769-.019.33849-.014.70837-.01963c.248-.005.48385-.00617.709-.00617a3.785,3.785,0,0,1,2.47834.709,2.46709,2.46709,0,0,1,.85224,2.0088,3.05955,3.05955,0,0,1-.23381,1.19612M37.0021,20.46846a1.75332,1.75332,0,0,0-1.26977-.39h-.30045c-.09572,0-.19171.00444-.28887.01274v2.92724a3.11591,3.11591,0,0,0,.49747.03942,1.97439,1.97439,0,0,0,1.26978-.41581,1.37731,1.37731,0,0,0,.48356-1.11889,1.42476,1.42476,0,0,0-.39172-1.05468"/><path class="a" d="M47.72343,24.9566a4.46247,4.46247,0,0,1-.917,1.46448,3.9286,3.9286,0,0,1-1.35975.92261,4.40574,4.40574,0,0,1-1.67813.31835,4.63942,4.63942,0,0,1-1.756-.30576,3.17271,3.17271,0,0,1-1.24915-.88417,3.81309,3.81309,0,0,1-.74146-1.39816,6.33673,6.33673,0,0,1-.24747-1.834,5.285,5.285,0,0,1,.33814-1.95136,4.32076,4.32076,0,0,1,.9246-1.45672,3.99812,3.99812,0,0,1,1.36534-.91759,4.37314,4.37314,0,0,1,1.66464-.31838,4.69715,4.69715,0,0,1,1.60661.26565,3.3599,3.3599,0,0,1,1.2689.81312,3.72623,3.72623,0,0,1,.8263,1.37293,5.88434,5.88434,0,0,1,.29174,1.9585,5.308,5.308,0,0,1-.33728,1.9505m-2.0687-4.065a2.07121,2.07121,0,0,0-1.74333-.77444,2.19752,2.19752,0,0,0-.87774.18284,2.05967,2.05967,0,0,0-.742.546,2.76382,2.76382,0,0,0-.51352.9167,3.89916,3.89916,0,0,0-.19543,1.29528,5.44178,5.44178,0,0,0,.13642,1.26834,2.71863,2.71863,0,0,0,.42352.96213,1.98316,1.98316,0,0,0,.72187.61825,2.22439,2.22439,0,0,0,1.02088.22067,2.29255,2.29255,0,0,0,.85239-.16879,2.08047,2.08047,0,0,0,.761-.534,2.73839,2.73839,0,0,0,.54661-.929,3.97966,3.97966,0,0,0,.20805-1.35887,3.61523,3.61523,0,0,0-.59861-2.24509"/><path class="a" d="M53.993,27.51934l-2.14622-3.6286h-.2344V26.31c.12078.017.25145.035.3906.052a2.04506,2.04506,0,0,1,.40245.09126v1.066h-3.616V26.466c.17307-.035.355-.06462.546-.09129.19071-.02521.38558-.04757.586-.06462V19.94863c-.20045-.01705-.39532-.03882-.586-.06432-.191-.02638-.373-.05745-.546-.09129V18.73848h1.01472c.08623,0,.22063-.00114.40262-.00645.1834-.00443.39515-.0106.6373-.01934.24358-.00775.50292-.01417.78146-.01978q.41547-.00687.81929-.00646a5.80431,5.80431,0,0,1,1.314.13657,2.8465,2.8465,0,0,1,1.00113.42983,1.97317,1.97317,0,0,1,.64448.76025,2.60846,2.60846,0,0,1,.2271,1.14483,2.24206,2.24206,0,0,1-.56582,1.55488,2.6852,2.6852,0,0,1-1.50144.8263c.07808.10417.15343.21007.22679.319q.11049.162.21451.3178l1.35329,2.12128c.26.04255.54533.09155.85866.143v1.07919ZM52.26287,20.0786q-.18267,0-.3519.00672a2.03878,2.03878,0,0,0-.2986.03166V22.6538a2.08893,2.08893,0,0,0,.24643.01975c.10476.00517.22181.00646.35219.00646a1.84109,1.84109,0,0,0,1.20915-.35633,1.21112,1.21112,0,0,0,.42942-.98235q0-1.26246-1.58669-1.26273"/><path class="a" d="M63.671,21.21052H62.4221q-.052-.299-.09114-.56582c-.02577-.17753-.04757-.34946-.065-.5141H60.91364v6.1793c.19916.01734.39489.0387.58486.0649q.28586.03958.54648.0913v1.05368H58.09042V26.4661q.26051-.05159.54648-.0913.28628-.0393.58544-.0649V20.1306H57.88208c-.01749.16465-.03838.33657-.06447.5141-.02579.17754-.057.36651-.0914.56582H56.4768V18.73863H63.671Z"/><path class="a" d="M72.03571,19.96181v4.20145a3.42036,3.42036,0,0,1-.93017,2.65385,3.87489,3.87489,0,0,1-2.69886.84552,4.721,4.721,0,0,1-1.69846-.25735,2.5698,2.5698,0,0,1-1.0339-.69633,2.41712,2.41712,0,0,1-.51984-1.01745,4.93086,4.93086,0,0,1-.14329-1.2027v-4.527a5.18735,5.18735,0,0,1-.82013-.14256V18.7511H67.639v1.06815a2.69009,2.69009,0,0,1-.4688.09071c-.16506.0169-.32067.03395-.468.05185v4.42212a3.43755,3.43755,0,0,0,.07823.76154,1.46473,1.46473,0,0,0,.27883.59891,1.29,1.29,0,0,0,.55337.39,2.5,2.5,0,0,0,.89778.13613,1.88873,1.88873,0,0,0,1.41734-.46153,2.2658,2.2658,0,0,0,.44274-1.58026V19.96181Q70.13625,19.935,69.896,19.91a2.66914,2.66914,0,0,1-.46193-.0907V18.7511h3.40782v1.06815a5.2068,5.2068,0,0,1-.80611.14256"/><path class="a" d="M81.41463,24.06569c-.12178.02221-.243.041-.36422.05889V27.104a7.85987,7.85987,0,0,1-1.444.40263,8.74169,8.74169,0,0,1-1.58728.14285,5.37977,5.37977,0,0,1-1.86065-.29934,3.76749,3.76749,0,0,1-1.38439-.85825,3.69605,3.69605,0,0,1-.86571-1.359,5.128,5.128,0,0,1-.29916-1.80234,5.22232,5.22232,0,0,1,.33842-1.91754,4.21377,4.21377,0,0,1,.96944-1.48983,4.33833,4.33833,0,0,1,1.53513-.96988,5.646,5.646,0,0,1,2.02169-.34473,8.92751,8.92751,0,0,1,1.23022.08454,11.28793,11.28793,0,0,1,1.2159.24085v2.35454h-1.3007a5.45384,5.45384,0,0,1-.09716-.53958c-.02206-.16937-.04125-.34045-.05816-.5144a4.71283,4.71283,0,0,0-.54046-.09742,4.82553,4.82553,0,0,0-.54046-.03251,3.34123,3.34123,0,0,0-1.17693.20215,2.58082,2.58082,0,0,0-.92959.59119,2.74386,2.74386,0,0,0-.61212.96255,3.64022,3.64022,0,0,0-.22063,1.31461,3.0574,3.0574,0,0,0,.72873,2.17847,2.69964,2.69964,0,0,0,2.06755.77442,3.80577,3.80577,0,0,0,1.1193-.15676v-1.834c-.19916-.01631-.39518-.03926-.58544-.065a4.71972,4.71972,0,0,1-.53386-.10361V22.91441h3.53875v1.08021c-.12119.02579-.243.05015-.36422.07107"/><path class="a" d="M90.20755,19.96181v4.20145a3.42278,3.42278,0,0,1-.929,2.65385,3.87928,3.87928,0,0,1-2.69972.84552,4.71667,4.71667,0,0,1-1.6979-.25735A2.56515,2.56515,0,0,1,83.8467,26.709a2.41731,2.41731,0,0,1-.52009-1.01745,4.97289,4.97289,0,0,1-.14244-1.2027v-4.527a5.17728,5.17728,0,0,1-.82072-.14256V18.7511h3.44793v1.06815a2.68647,2.68647,0,0,1-.46854.09071q-.24714.02535-.46824.05185v4.42212a3.45492,3.45492,0,0,0,.078.76154,1.46192,1.46192,0,0,0,.27968.59891,1.28889,1.28889,0,0,0,.55307.39,2.50055,2.50055,0,0,0,.89752.13613,1.8878,1.8878,0,0,0,1.41731-.46153,2.25993,2.25993,0,0,0,.44274-1.58026V19.96181q-.23426-.02685-.47455-.05185a2.67176,2.67176,0,0,1-.46164-.0907V18.7511h3.40752v1.06815a5.2018,5.2018,0,0,1-.80666.14256"/><path class="a" d="M91.769,27.51934V26.466c.17365-.035.35562-.06605.54618-.09015.19056-.02635.386-.04871.58488-.0659V19.94922c-.19889-.01849-.39433-.0387-.58488-.06491-.19057-.02667-.37253-.05745-.54618-.09114V18.73848h5.98457v2.2114H96.491c-.02608-.16491-.05015-.32281-.07106-.47511-.02237-.1503-.041-.28728-.05849-.40879H94.59226v2.34107h1.41761a5.987,5.987,0,0,1,.15616-.71511h1.07949v2.64067H96.166a1.977,1.977,0,0,1-.09827-.35061c-.02063-.12236-.041-.243-.05789-.36536H94.59226v2.53679h1.78183c.01719-.14672.037-.29628.05845-.44832.02092-.15232.04959-.31406.08425-.48831h1.26147v2.30254Z"/><path class="a" d="M104.32879,25.9421a2.67539,2.67539,0,0,1-.68316.90655,3.19118,3.19118,0,0,1-1.07376.59921,4.40346,4.40346,0,0,1-1.42421.21477,8.67407,8.67407,0,0,1-2.00249-.21864V25.1138h1.28723c.03469.189.06277.37238.08483.54545.02177.17366.04068.3337.05787.4813a2.89088,2.89088,0,0,0,.61182.06532,2.12067,2.12067,0,0,0,1.13221-.27395.96142.96142,0,0,0,.44187-.8859.82527.82527,0,0,0-.27968-.65825,2.6872,2.6872,0,0,0-.70235-.42311c-.2817-.12148-.58661-.23827-.917-.35189a3.89186,3.89186,0,0,1-.917-.45592A2.43174,2.43174,0,0,1,99.242,22.42a2.21011,2.21011,0,0,1-.27971-1.17963,2.57128,2.57128,0,0,1,.22123-1.07376,2.26488,2.26488,0,0,1,.64448-.83449,3.11365,3.11365,0,0,1,1.03394-.54116,4.57489,4.57489,0,0,1,1.391-.19573,9.31327,9.31327,0,0,1,.94394.04643,7.46216,7.46216,0,0,1,.90409.147v2.23919h-1.28868a9.50461,9.50461,0,0,1-.1427-1.0021c-.05185-.00731-.11949-.01635-.20576-.02521-.08625-.00819-.1682-.01347-.24644-.01347a1.66682,1.66682,0,0,0-1.09121.30016.96013.96013,0,0,0-.35506.76914.79458.79458,0,0,0,.27853.63231,2.68528,2.68528,0,0,0,.707.42325q.42684.18224.913.36437a4.40512,4.40512,0,0,1,.91386.46953,2.45006,2.45006,0,0,1,.70722.72272,2.06538,2.06538,0,0,1,.27857,1.12719,2.69558,2.69558,0,0,1-.24045,1.14639"/><path class="a" d="M110.54064,27.51949V26.466c.13868-.02609.29027-.05129.455-.07709.16451-.02708.32012-.049.46825-.06549l-.3774-1.04137h-3.20006l-.36422,1.04137q.221.02474.468.06549c.16447.02579.31665.051.45562.07709v1.05354h-3.30436V26.466a2.18534,2.18534,0,0,1,.339-.08354,3.19415,3.19415,0,0,1,.35075-.04643l2.67938-7.5975h2.06869l2.73208,7.5975a3.27251,3.27251,0,0,1,.351.04643A2.1727,2.1727,0,0,1,114,26.466v1.05354Zm-.65138-5.72368c-.08624-.2341-.16159-.46093-.22724-.683q-.09671-.33206-.176-.709h-.012c-.05214.226-.11177.46237-.1768.709a7.18691,7.18691,0,0,1-.23986.74763l-.75482,2.09551h2.36816Z"/><path class="a" d="M11.13287,1C4.41042,3.16622,1,8.87882,1,17.69106V31.05541A13.98688,13.98688,0,0,1,11.13286,19.988Z"/><path class="a" d="M11.88183,3.52426A45.72469,45.72469,0,0,1,24.27965,1.17372s-.02271,6.08308-.2173,11.02388c-.61431,15.61377-14.566,7.59156-21.40244,15.895,1.372-3.59416,6.03766-6.15118,9.22192-6.7804Z"/><path class="a" d="M9.995,25.81862s-7.41558.60227-8.04849,4.8312C1.4473,33.96465,9.995,34.05152,9.995,34.05152Z"/><path class="a" d="M1.31738,13.3726a16.91581,16.91581,0,0,1,9.81549-9.55049V1C5.58158,2.78969,2.29592,7.00226,1.31738,13.3726"/><path class="b" d="M5.84839,9.489h0l.00435-.00211h.006c.00225-.00395.00384-.00395.00847-.00395h.0083l.0041-.00186L5.88787,9.479h.002a.11112.11112,0,0,0,.02509-.00422.68826.68826,0,0,1,.09929-.00608h.01212c.02918,0,.06219.00186.09758.0037.00593.00238.01438.00238.02058.00449l.00187.00211c.02083.00211.04356.004.06627.00792a.11183.11183,0,0,1,.02455.00425.6756.6756,0,0,0,.07248.01241l.02519.00605h.00187c.02482.00636.05189.01269.07868.01874.089.02087.18629.04991.28953.0832.00843.00157.01873.00581.0293.00792l.00806.00211a.20305.20305,0,0,0,.02891.01054l.00621.00425c.03115.00792.06192.02058.09.03061l.01755.00424L6.91,9.67967l.01649.00846a.05762.05762,0,0,1,.02482.00792l.03921.01242a.08689.08689,0,0,0,.02087.00843l.02272.00819c.00857.00211.014.00633.02271.00844a.13546.13546,0,0,1,.02482.01c.00844,0,.01241.00425.01874.00636.01451.00632.031.01241.04566.01846l.01031.00425c.01214.00633.0243.00844.037.01452l.01679.00605c.01.00425.02268.00847.0351.01268.0041.004.00819.004.01441.00636l.0475.02031V9.45206c-.0557.01214-.11167.02271-.16515.03485-.04791.01057-.09755.02271-.14522.03328-.01425-.00421-.02891-.01056-.04356-.01452l-.0202-.00608a.09177.09177,0,0,0-.02087-.00844L6.88725,9.483,6.8726,9.479a.08416.08416,0,0,0-.02482-.0103l-.0165-.00449c-.10958-.037-.21309-.06811-.30853-.095H6.51837a.05334.05334,0,0,1-.02428-.00636L6.4879,9.3607a.12691.12691,0,0,1-.02707-.00395L6.459,9.35488H6.459a.21479.21479,0,0,0-.02944-.0066L6.426,9.34645l.00354.00183.03777-.01241.002-.00171V9.334a.30349.30349,0,0,1,.03921-.01029l.00424-.00211a.3518.3518,0,0,1,.04146-.01479c.0289-.00793.05569-.01636.08673-.02428V9.28018a.294.294,0,0,0,.04356-.01241h.00211c.18854-.05573.395-.10932.6205-.15923V8.92238l-.004.00213.004-.00451V8.68236c-.10942.10326-.217.211-.3187.31873a6.59158,6.59158,0,0,0-.6762.21282,6.53435,6.53435,0,0,1,4.72574-2.54883l.02615-.174A6.68684,6.68684,0,0,0,6.0369,9.29893a.39917.39917,0,0,0-.21309.05783l-.00211.00606L5.724,9.539a.15565.15565,0,0,0-.00779.08476A.16062.16062,0,0,1,5.84836,9.489"/><path class="b" d="M6.23971,9.31132l.00806.00211-.00806-.00211"/><path class="b" d="M10.957,7.22564A5.9373,5.9373,0,0,0,7.92578,8.38849H7.64656a6.1028,6.1028,0,0,1,3.33489-1.33867Z"/><path class="b" d="M5.22986,10.61282a.18107.18107,0,0,1,.00646-.11407l.08463-.15923.00211-.00606a.23008.23008,0,0,1,.11356-.03328h.01055a.21612.21612,0,0,1,.03736-.00422,1.45972,1.45972,0,0,1,.14839.01268,2.986,2.986,0,0,1,.38313.09082c.05188.01452.10788.03328.16582.05175.02047.00425.03921.01241.05968.01849a.22682.22682,0,0,1,.03117.01056c.01054.00211.02044.00844.02891.01055a.16818.16818,0,0,0,.031.00792l.00224.00211a.2094.2094,0,0,0,.02893.01057h.00184l.02918.01214h.002c.01057.00421.02047.00635.0305.01056l.00224.00211c.01071.00211.021.00792.03131.01h.00249a.08765.08765,0,0,0,.03077.01268H6.496a.16359.16359,0,0,0,.03117.01214l.00211.00238a.1044.1044,0,0,1,.02891.0103H6.562c.01082.00633.02113.00844.02918.01452l.00645.00184a.23045.23045,0,0,1,.029.00846l.00425.00422a.18129.18129,0,0,0,.02863.00819l.00622.004.0285.01056.00621.00422.02945.01.00779.00238c.01081.00609.01927.0082.02758.01241l.00819.00184a.17078.17078,0,0,0,.02666.01057l.01057.00395a.05726.05726,0,0,0,.02679.01056l.00833.004a.20118.20118,0,0,0,.02931.0124l.00779.00395a.196.196,0,0,1,.02706.01057l.0103.00394.02482.01057.01187.00605a.11108.11108,0,0,1,.0255.01057l.01425.00394a.11437.11437,0,0,0,.02494.01031l.01241.00608c.00857.00449.01677.00633.02482.01056l.01241.00844.025.00819.01425.00606a.14339.14339,0,0,0,.02441.01056l.01507.00846.02271.01c.0054,0,.0103.00421.01649.00632a.087.087,0,0,1,.02271.01.04136.04136,0,0,1,.01677.00633.18583.18583,0,0,1,.029.01268l.00965.00608a.17094.17094,0,0,0,.042.01425v.19884a12.38892,12.38892,0,0,0-1.20812-.47793c-.05624-.0206-.11248-.0375-.166-.05175h.00238a2.79577,2.79577,0,0,0-.38313-.085.04694.04694,0,0,1-.01625-.00184H5.53614L5.52176,10.472H5.505l-.00422-.00238H5.482l-.0099-.00159H5.42658c-.01863,0-.03974,0-.05862.00159-.06351.00633-.11948.03564-.13811.14311"/><path class="b" d="M7.2596,17.39507a5.9636,5.9636,0,0,0,3.69555,1.74453l.02628.17613a6.14132,6.14132,0,0,1-4.46514-2.52691,1.24561,1.24561,0,0,1,.22417.01057,6.44421,6.44421,0,0,0,.50472.58353l.01441.01214"/><path class="b" d="M11.7041,6.47891V6.3733a.01431.01431,0,0,1,.006-.01241l.01057-.00449h.14271c.01241,0,.01862.00633.01862.0169V6.485a6.71028,6.71028,0,0,1,5.12088,2.85723,1.07732,1.07732,0,0,1,.20306.11986l.00595.00211s.1035.174.1324.21125a.06368.06368,0,0,1-.0194.08794l-.0095.005c.02217-.01636.033-.037-.03328-.09293a.55586.55586,0,0,0-.06812-.04964L17.199,9.61524c-.00779-.00368-.01187-.00793-.0202-.01214a2.60048,2.60048,0,0,0-.3104-.151c-.01252-.00633-.02322-.00843-.033-.01452l-.00436-.00211c-.0103-.00449-.0206-.00819-.033-.01241l-.00435-.00211c-.01017-.00422-.02047-.00819-.03287-.01214a.24778.24778,0,0,1-.03526-.01268L16.7194,9.394a.34111.34111,0,0,1-.03512-.01241.1962.1962,0,0,0-.03512-.01241l-.00436-.00211a.20461.20461,0,0,1-.03512-.01216l-.00619-.00422c-.025-.00633-.04951-.01479-.07446-.02271l-.00649-.00211a.171.171,0,0,1-.037-.01241h-.00224c-.01214-.00449-.02731-.00871-.037-.01266h-.00224l-.03975-.01241-.00568-.00213c-.01241-.00211-.02666-.00793-.03947-.01A.225.225,0,0,1,16.32,9.26141h-.00449c-.01438-.00394-.0285-.00792-.04091-.01l-.00516-.00211c-.11078-.03325-.2222-.06443-.33849-.09082a.40816.40816,0,0,0-.05889-.01268c-.01757-.00633-.03631-.01056-.05467-.0169a.4614.4614,0,0,1-.056-.01h-.00211c-.01979-.00632-.0371-.0103-.0544-.01479h-.00132v-.4238c.10945.10351.21308.20887.31448.31659.25137.06627.4799.13836.67238.20914A6.52413,6.52413,0,0,0,11.882,6.663v.37653a6.13765,6.13765,0,0,1,3.49066,1.35535h-.28147A5.95672,5.95672,0,0,0,11.882,7.21537v1.175h-.17786V6.47891Z"/><path class="b" d="M17.39562,9.95059a.48219.48219,0,0,1,.13689.09082s.08079.1389.09915.17191a.06513.06513,0,0,1-.03467.08535l-.01259.00387c.02482-.00843.05162-.03934-.01676-.08106l-.0581-.03087-.00817-.004a4.68888,4.68888,0,0,0-.7887-.2899v.00211c-.08082-.02271-.16307-.04543-.25205-.06841V9.82859c-.22945-.05808-.48426-.11775-.757-.17585v-.184c.033.00608.06786.01427.09928.02246h.00622l.02666.00633.01056.00422.02469.00186.00857.00211.02655.00606.01055.00238.02244.00608.01452.00211.02271.00606a.03117.03117,0,0,1,.01465.00238.06612.06612,0,0,0,.02061.0037c.01043.00449.023.00633.03316.01057l.00792.00211a.13919.13919,0,0,1,.02942.00421l.0103.00422.02482.004.01056.00448c.0082.00157.01622.00157.02469.00371l.01017.00422.02494.00632.0083.00211.02893.00582.00633.00211.031.00659h.00408a.1023.1023,0,0,0,.03485.01031c.08952.02271.17823.04542.26311.06813.01268.00422.02668.00633.03723.0103a.80677.80677,0,0,1,.07871.02084c.0392.01241.07433.0206.11166.03117.12.037.22907.07419.32876.10718a2.40622,2.40622,0,0,1,.261.1035l.01241.00425Z"/><path class="b" d="M11.12679,6.485a.20341.20341,0,0,1-.02918.004c.00738-.00211.02084-.00211.02918-.004"/><path class="b" d="M4.70668,13.03356v-.17374l.00129-.00423a.31065.31065,0,0,1,.106-.13254,6.65543,6.65543,0,0,1,.46158-2.03368l.0029-.01056a.10091.10091,0,0,0,.01135-.02058.27859.27859,0,0,1,.01466-.03485V10.621c.00832-.02087.0186-.0457.02839-.06841a.04575.04575,0,0,1,.00884-.01636,1.21239,1.21239,0,0,1,.16093.056A6.44434,6.44434,0,0,0,4.99832,12.599a3.13389,3.13389,0,0,1,.39911-.18827,6.13356,6.13356,0,0,1,.4305-1.60961,1.45214,1.45214,0,0,1,.13033.13863c-.03737.08925-.07038.17769-.10391.27089l-.0037.01057a5.90138,5.90138,0,0,0-.26906,1.11927,10.1362,10.1362,0,0,1,1.5044-.39949c.07222-.01636.14866-.029.22337-.04118v.18613c-.06416.01241-.12633.02271-.18851.03512-.01625.00422-.03077.00636-.04951.01031H7.06923a.23767.23767,0,0,0-.04542.00846l-.00622.00211a.15267.15267,0,0,0-.04567.01H6.96784a.35855.35855,0,0,0-.04951.01054H6.91569c-.016.00187-.03064.00609-.04819.0082l-.00291.00211a.46008.46008,0,0,1-.04567.0103l-.00622.00211c-.01438.004-.03142.00608-.0474.0103H6.76292c-.01438.00422-.033.00846-.0495.01241H6.71156a.27727.27727,0,0,0-.04791.01056H6.65954a.40088.40088,0,0,1-.04726.01214H6.6099l-.05175.01241c-.01677.00422-.031.00844-.04964.01268h-.002c-.01676.00422-.031.01027-.04567.01266l-.0041.00159a.362.362,0,0,0-.04938.01268.415.415,0,0,0-.04977.01215H6.35536a.393.393,0,0,0-.04754.01452H6.30347c-.01425.0021-.0289.00819-.04515.01241H6.25594c-.03272.00846-.066.02087-.099.029-.01676.00608-.033.00846-.0475.01452H6.10717c-.01652.004-.03155.01029-.04754.01451H6.05739a.3594.3594,0,0,1-.0457.01428c-.01676.00422-.033.01055-.04726.01479H5.96232c-.01649.00395-.03115.01-.0458.01425h-.0016c-.031.0103-.06218.01874-.09109.03115H5.82172a.30766.30766,0,0,0-.0458.01452H5.77354c-.014.004-.02628.0103-.04079.01454H5.73c-.02836.01214-.0594.02034-.08885.03088l-.00146.00187-.03945.01265-.00265.00211c-.01387.004-.02839.01006-.04053.01427-.06443.023-.12226.04567-.18034.07236l-.0268.01054-.0041.00211c-.0083.00211-.01677.0082-.02272.0082l-.00435.00238c-.0186.00792-.03509.01635-.05162.02428H5.265l-.02733.01268H5.23634l-.0252.01241-.02455.01241-.02272.0103-.00435.00211c-.00622.004-.01676.00819-.02271.01241H5.1347a.497.497,0,0,1-.04542.02271h-.002l-.02074.01479h-.002c-.01452.00792-.02917.01636-.04159.02428l-.0206.01056H5.00029a.13785.13785,0,0,1-.02139.01452.90247.90247,0,0,0-.16688.13016c-.00421.00214-.00619.00663-.01043.01057-.0371.037-.091.08687-.06005.122a.04622.04622,0,0,1-.03486-.04331"/><path class="b" d="M11.13274,7.03949V6.3733a.01678.01678,0,0,1,.01666-.0169h.147c.01016,0,.01451.00633.01451.0169v2.017l-.1782-.00187Z"/><path class="b" d="M16.95517,17.17168a.111.111,0,0,1-.01425.10139s-.05386.09082-.075.11989a.14761.14761,0,0,1-.11567.07233c.01428-.00817.12213-.01636.06022-.18008a.23736.23736,0,0,0-.02074-.0491.81926.81926,0,0,0-.07246-.11618h.0021a2.98,2.98,0,0,0-.25878-.28569c-.0392-.03936-.08052-.0787-.12621-.11988-.25849-.23974-.61652-.536-1.06528-.875.02866-.056.05573-.11619.08238-.174a12.96751,12.96751,0,0,1,1.24379,1.02212.80841.80841,0,0,1,.06219.06444l.00408.00367c.00408.00636.01214.01057.01649.01666l.00438.00394a.07214.07214,0,0,1,.01425.0169l.00409.00184.014.01666.00462.00422c.00409.00632.01055.0103.01241.01478l.00409.00606a.04622.04622,0,0,1,.01438.01428l.00424.00238.01466.01822v.00211a.2568.2568,0,0,1,.02995.03326l.00252.004.01517.01663.00186.00211.01055.01452.004.00608a.84558.84558,0,0,1,.10337.16767l.00435.01054.00175.00187h.00009l.00214.00819.002.00633.0083.02693"/><path class="b" d="M16.76455,17.34332a.57345.57345,0,0,1-.04726.05808l-.00252.00184c-.01214.01665-.02641.03512-.04108.05388a6.69022,6.69022,0,0,1-4.78949,2.42154v.10326a.01875.01875,0,0,1-.00649.01452c-.002,0-.00592.00633-.01438.00633h-.14271a.01882.01882,0,0,1-.01652-.02084V18.17531c.06219,0,.12-.00449.18011-.0103v.98938a5.98913,5.98913,0,0,0,3.82942-1.72185l.0086-.00659a.498.498,0,0,1,.04144-.043l.00371-.00425c.12224-.12435.23961-.25242.35209-.38918.06191.01663.12186.03747.17759.056A6.139,6.139,0,0,1,11.88421,19.326v.38286a6.52214,6.52214,0,0,0,4.75227-2.48124.82853.82853,0,0,1,.12808.11567"/><path class="b" d="M18.19684,13.619c-.00224.03115-.00224.06229-.00632.0932a6.66472,6.66472,0,0,1-.66647,2.42922.265.265,0,0,1,.02524.22761s-.056.08079-.08305.12408c-.02679.03909-.03736.0581-.0833.06391a.14914.14914,0,0,0,.06243-.178.32158.32158,0,0,0-.014-.05175h-.00251a.32473.32473,0,0,0-.04726-.08477,2.12949,2.12949,0,0,0-.178-.23369h-.00211c-.00516-.00843-.0103-.01214-.01438-.019h-.00238a.09825.09825,0,0,0-.01625-.02217v-.00211c-.08052-.08715-.17-.18007-.27341-.27752l-.00449-.00184c-.00765-.01056-.01822-.01876-.02628-.029h-.00213c-.03114-.03115-.06416-.05992-.09768-.09109l-.00371-.00395a.3643.3643,0,0,1-.029-.02693l-.00424-.0021c-.03272-.03118-.07009-.06233-.10548-.093l-.00184-.00633c-.01254-.00846-.023-.01849-.03328-.02693l-.00462-.00424c-.03683-.03088-.07379-.06206-.11116-.09294l-.00646-.00635a.20319.20319,0,0,0-.03077-.02479l-.00632-.00609c-.01241-.01056-.02326-.01873-.037-.0293v-.00186c-.02733-.02088-.05188-.04359-.07684-.06416l-.00806-.00636c-.01268-.00792-.023-.01635-.03379-.02455l-.00793-.0066a.20693.20693,0,0,0-.03563-.02852l-.00357-.00422c-.01241-.01056-.02693-.02271-.04186-.03328a.35943.35943,0,0,0-.03644-.02876c-.00436-.00449-.00949-.00633-.01055-.01057a.168.168,0,0,1-.03117-.02454l-.0103-.00633-.03326-.02693c-.00238-.00425-.00595-.00425-.00857-.00636-.01414-.01-.02866-.02057-.04108-.03114l-.002-.00211-.03975-.03275-.01214-.00846a.36157.36157,0,0,0-.02866-.02268l-.01241-.01057c-.01055-.00792-.02084-.01425-.03115-.02271a.01913.01913,0,0,0-.01081-.00819c-.01374-.0103-.02839-.02272-.04079-.033l-.00411-.00424c-.01241-.00817-.02506-.01847-.03972-.02693l-.01-.01c-.01017-.00843-.02074-.01452-.03182-.02295-.0033-.004-.00952-.00609-.01388-.0103a.181.181,0,0,1-.02944-.02271c-.00343-.00423-.00976-.00636-.01374-.01057a.17415.17415,0,0,1-.04144-.03325c.01189-.07209.02271-.14471.02893-.221a13.95352,13.95352,0,0,1,1.33433,1.086,5.93552,5.93552,0,0,0,.42233-1.54334.18623.18623,0,0,0,.00411-.033V13.944c.00408-.02482.00592-.04567.01055-.06837v-.01242l.00594-.06021c.00184-.00792.00184-.02033.00409-.03088.001-.01452.001-.03117.00343-.04542a.2737.2737,0,0,1,.0049-.04145V13.6586a.2165.2165,0,0,0,.00408-.03958c0-.0103.00211-.02271.00211-.033,0-.01056.002-.0206.002-.03114l.00619-.07633a1.111,1.111,0,0,1,.17191,0,6.11921,6.11921,0,0,1-.50883,2.17441,2.98163,2.98163,0,0,1,.27093.31053,6.47176,6.47176,0,0,0,.6102-2.4147,1.09687,1.09687,0,0,1,.1699.07025"/><path class="b" d="M18.30035,12.85559v.178a.04233.04233,0,0,1-.03537.04332c.02693-.02693-.0066-.07025-.0371-.1035l-.01676-.01639c-.006-.00422-.00833-.01054-.01428-.01268a.78086.78086,0,0,0-.1699-.132h-.0021l-.0165-.01268-.00411-.00211-.01676-.00846-.00395-.00157-.01849-.01056-.00211-.00211-.01863-.01-.002-.00238a.097.097,0,0,1-.021-.01241h-.002l-.02047-.01031-.00224-.00211-.02047-.0103-.00435-.00211-.0206-.0103-.00409-.00211-.02349-.0103-.00133-.00211a.09557.09557,0,0,1-.02087-.0103h-.00211l-.02547-.01241h-.00316l-.023-.01268h-.00224a.14675.14675,0,0,0-.02455-.01h-.00211a.10589.10589,0,0,0-.025-.01425l-.00238-.00228v-.0001a.05156.05156,0,0,1-.02442-.00819l-.00213-.002V12.628c-.066-.02693-.13649-.056-.209-.0829-.01438-.00422-.02945-.00819-.04159-.01241l-.00408-.00187-.03923-.01476-.00184-.00186a.34392.34392,0,0,1-.04356-.01453h-.00224a.39154.39154,0,0,1-.04318-.01635h-.002c-.01268-.00425-.02774-.01057-.04372-.01455a.27971.27971,0,0,0-.04329-.01452h-.00408l-.08925-.03115h-.004c-.01649-.00421-.03114-.0103-.04328-.01241l-.00436-.00184c-.01454-.00424-.031-.01056-.04542-.01479H16.9985a.38381.38381,0,0,1-.04542-.01427h-.002c-.017-.00422-.03077-.01055-.04542-.01452h-.00646c-.01214-.00606-.02863-.00844-.04329-.01452h-.004c-.03115-.00817-.06417-.02058-.09572-.029h-.00357l-.04567-.01241h-.00435c-.01625-.00609-.03077-.00819-.04754-.01452h-.002a.32856.32856,0,0,0-.04964-.01214.30868.30868,0,0,0-.04951-.01268l-.00225-.0016a.39379.39379,0,0,1-.04753-.01265h-.00463a.4544.4544,0,0,0-.047-.01057l-.00279-.0021c-.01584-.004-.03261-.00793-.04885-.01031l-.00225-.00211a.19532.19532,0,0,1-.04778-.01214h-.0041a.35539.35539,0,0,0-.04727-.01056h-.00408l-.04978-.01241h-.00211c-.01516-.00422-.03114-.00633-.04766-.0103l-.00487-.00211a.35533.35533,0,0,1-.04451-.0103l-.00686-.00211c-.01585-.00211-.0305-.00633-.04516-.00819h-.0021a.48577.48577,0,0,0-.05162-.01055h-.00226a.19524.19524,0,0,0-.04754-.01l-.00408-.00211a.30627.30627,0,0,0-.04781-.00846h-.0017c-.01731-.00395-.03316-.00608-.04964-.0103-.06008-.01241-.12227-.02272-.18419-.03326v-.188c.07433.01214.14682.02693.21931.04118a9.80434,9.80434,0,0,1,1.506.40163,5.89422,5.89422,0,0,0-.55647-1.80635c-.06021-.12013-.12383-.24028-.19-.358l-.00224-.002v-.00014c-.004-.00214-.00649-.01057-.00832-.01428.03077,0,.10139-.00449.19656-.00238a6.11885,6.11885,0,0,1,.74488,2.25126,3.22261,3.22261,0,0,1,.39911.18826,6.47892,6.47892,0,0,0-.695-2.398q.10833.01861.22125.04961v-.00184c.00833.0206.01863.03934.027.06a6.58672,6.58672,0,0,1,.62894,2.41443.30534.30534,0,0,1,.10574.13254"/><path class="b" d="M18.30035,13.43281V13.619c0,.02905-.03142.04567-.04461.056.03407-.03723-.00329-.089-.01979-.10748a.30464.30464,0,0,0-.03315-.03961l-.01849-.01847-.00422-.004-.0268-.02482a1.36118,1.36118,0,0,0-.12013-.08474,2.452,2.452,0,0,0-.37231-.19065c-.01291-.00635-.02482-.01-.03723-.01663-.03921-.01665-.08093-.0309-.12225-.04753l-.01216-.00609a10.63525,10.63525,0,0,0-1.59125-.43883c-.06668-.01-.13057-.02271-.19435-.03723v-.18616c.07432.01452.14681.02693.22114.04332.01677.0021.0354.00632.05413.01054l.01625.00211a.24607.24607,0,0,0,.03748.00819c.006,0,.01465.004.02009.004a.2196.2196,0,0,0,.03563.00632l.02084.00633.0305.00609a.04857.04857,0,0,0,.023.00394c.01056.00449.02033.00449.02839.00847a.03869.03869,0,0,1,.02363.00421l.031.00609.02272.00633a.1988.1988,0,0,1,.03114.00608l.02271.00633a.06364.06364,0,0,1,.02867.00632c.0083.00214.01649.00214.02271.00425l.02812.00792a.08921.08921,0,0,1,.02377.00449l.0289.00606.02084.00635a.15833.15833,0,0,1,.03077.00817.07363.07363,0,0,0,.019.00186.12153.12153,0,0,0,.03485.01055.04035.04035,0,0,1,.017.004.32436.32436,0,0,1,.04108.01241l.00793.00211a.41291.41291,0,0,1,.05029.01056h.00622a.32408.32408,0,0,0,.041.01214l.01466.00422c.01213.004.02271.00633.03288.0103a.03943.03943,0,0,1,.01676.00422.0831.0831,0,0,0,.0309.00608l.01861.00844a.09251.09251,0,0,1,.02866.00819l.01874.004.0272.00633.01846.00632a.14957.14957,0,0,0,.027.00847l.01874.00394a.14593.14593,0,0,0,.02679.01031.05326.05326,0,0,1,.01809.00421l.02733.00819a.03193.03193,0,0,1,.01558.00609.0758.0758,0,0,1,.03009.00843.03374.03374,0,0,1,.016.00422.219.219,0,0,0,.02944.00793l.01453.00635a.164.164,0,0,1,.0309.01055.03182.03182,0,0,1,.0116.00186.28779.28779,0,0,1,.0359.01241l.00622.00211c.02707.00844.05573.01874.083.02905l.00622.00211a.21811.21811,0,0,0,.03512.0103l.01028.00609a.09607.09607,0,0,1,.02892.01054.02525.02525,0,0,1,.01228.00211l.02509.01006.01438.00422c.00725.00421.01676.00632.02482.01054.06627.02271.13058.04754.19038.07236l.01241.00581.0186.0066.01255.00608.02074.01055.00816.00186.02669.01241.01055.00422.01876.00819.00806.00449.01808.00792.01109.00422.0165.0082.00976.00394.01519.01057.01017.0021.01822.01057.00674.00184.02454.01241.00844.00422.01428.00819.01054.00608.01241.00633.00925.00633.01347.00608.00819.00395.01241.00846.0103.00606a1.15827,1.15827,0,0,1,.1781.12437l.01255.01241a.24826.24826,0,0,1,.07457.10959"/><path class="b" d="M4.80582,13.52786h0c-.01241.01479-.02271.02482-.03328.03961-.01241.01849-.05372.07025-.0186.10748-.01466-.0103-.04727-.02693-.04727-.056v-.18193l.0013-.00422a.2691.2691,0,0,1,.07079-.10561.06726.06726,0,0,0,.01467-.01455,1.05143,1.05143,0,0,1,.17769-.12408l.00646-.004.01625-.01056.00646-.00422a.04288.04288,0,0,0,.016-.00792L5.023,13.1577a.03845.03845,0,0,1,.0165-.00609l.00645-.00632.01863-.0082.00595-.00421.01874-.01031h.00622c.016-.00819.033-.01663.05056-.02692l.00725-.00395.02087-.00846.0083-.00422.01782-.01.00873-.00238.02084-.0082.00779-.00421a.16636.16636,0,0,1,.02509-.01057l.00435-.00395.06192-.02509.00224-.00159c.064-.02506.13058-.052.20081-.07657l.02244-.01055.01466-.00421.02509-.01006a.03342.03342,0,0,1,.01438-.00211.14282.14282,0,0,1,.03723-.01452c.01438-.00395.02652-.01031.04118-.01452l.01056-.00211a.17365.17365,0,0,1,.031-.01214l.01442-.00635c.0083-.00211.01649-.00633.02692-.00844l.0165-.00633a.10723.10723,0,0,0,.02441-.00819l.017-.004.02641-.00844.017-.00636a.15687.15687,0,0,0,.02625-.00792.05377.05377,0,0,1,.0189-.00422.06342.06342,0,0,1,.02415-.00844c.00884-.00186.01322-.00608.01941-.00608l.02655-.00633.01939-.00608a.13622.13622,0,0,0,.02444-.0103.066.066,0,0,0,.021-.00395.14188.14188,0,0,0,.02652-.00846l.0189-.00633.02707-.00632.01846-.004a.08971.08971,0,0,1,.02839-.00819l.01914-.00633a.2253.2253,0,0,0,.03329-.00819l.014-.00422c.01414-.004.02733-.00819.03736-.0103l.01057-.00211a.37851.37851,0,0,1,.04975-.01425h.00567a.34.34,0,0,1,.04345-.01056l.017-.00609c.00793-.00211.02058-.0066.03088-.00843l.01863-.004a.09033.09033,0,0,0,.03326-.01054.03116.03116,0,0,0,.01863-.00422l.03088-.00582.02087-.00635.0289-.00605a.09132.09132,0,0,1,.02217-.00449c.01112-.00211.02139-.00609.02972-.00793.00806-.00211.016-.00211.02193-.00424a.12717.12717,0,0,1,.02969-.00633l.02244-.00633a.18752.18752,0,0,1,.03142-.00608l.02244-.00633.03131-.00608a.03906.03906,0,0,1,.02244-.00422c.01-.004.01873-.004.02917-.00846a.0402.0402,0,0,0,.02166-.00395l.0322-.00608.02217-.00633a.16.16,0,0,0,.0338-.00633c.006,0,.01428-.004.02271-.004.01-.00211.02166-.00422.03512-.00819l.01874-.00211a.48376.48376,0,0,1,.05375-.01055c.07222-.01639.14866-.0288.22336-.04332v.18616c-.06627.01452-.13254.02483-.19656.03723a10.54134,10.54134,0,0,0-1.591.43884c-.05808.02271-.11619.04542-.16977.06813a2.35379,2.35379,0,0,0-.37694.19275.89656.89656,0,0,0-.14244.10746c-.00806.00819-.01863.01662-.0268.02455"/><path class="b" d="M5.88787,16.88389a.05569.05569,0,0,0,.01848.09108.13475.13475,0,0,1-.07843-.0515c-.017-.029-.07471-.12014-.07471-.12014V16.793a.14969.14969,0,0,1,.03921-.07446l.00435-.00633.00184-.0021h.00013a.72434.72434,0,0,1,.13482-.11353l.01411-.01056h.00184c.00649-.00422.01056-.0082.01492-.0082l.00187-.00394a.31939.31939,0,0,0,.03326-.02115H6.0018l.01649-.01.00214-.00211c.00592-.00422.01-.00843.0165-.00843l.00132-.00211a.16527.16527,0,0,1,.03972-.02033l.00214-.00238.01873-.01.00238-.00211a.6372.6372,0,0,1,.09082-.04754.63726.63726,0,0,0,.07447-.0375c.04964-.02087.10323-.04332.1608-.06627.0189-.00819.04-.01663.06246-.02669.01056-.00211.02083-.00843.03142-.01027l.00159-.00238c.023-.00819.04383-.01639.06655-.02482h.00183a.16421.16421,0,0,1,.03142-.01l.00595-.00211c.0202-.00846.04356-.01666.06573-.02509h.00622a.13944.13944,0,0,1,.02945-.0103l.00778-.00211c.0235-.00846.04542-.01639.06892-.02271l.00817-.00422a.14381.14381,0,0,1,.02893-.0082l.00843-.00394c.02455-.00425.04754-.01479.07235-.02061l.01-.00211a.103.103,0,0,0,.02706-.01056h.01268a.31985.31985,0,0,1,.03709-.0127c.26655-.076.5269-.14047.79055-.1983.0309.05783.06191.11591.0952.17164-.292.05783-.57126.128-.84284.20727a2.82,2.82,0,0,0-1.16642.5582"/><path class="b" d="M5.59756,16.464a.06892.06892,0,0,1-.057-.02694c-.00844-.01663-.07868-.14073-.07868-.14073l-.003-.00819a.19169.19169,0,0,1,.04845-.09927A6.64909,6.64909,0,0,1,4.812,13.619a1.13276,1.13276,0,0,1,.16688-.06814,6.63459,6.63459,0,0,0,.66223,2.52453,2.14268,2.14268,0,0,1,.3376-.18007,6.10633,6.10633,0,0,1-.62054-2.41681.865.865,0,0,1,.17178.00211,5.94716,5.94716,0,0,0,.60835,2.34816,6.86989,6.86989,0,0,1,.7116-.24c.22985-.06627.46565-.128.70791-.18191.01993.0578.04318.11564.06811.17161-.25254.05573-.49666.11778-.73243.18827a.135.135,0,0,0-.03947.00819l-.0082.00238a.19881.19881,0,0,1-.03723.01214l-.00435.00211a.31356.31356,0,0,0-.03737.0103l-.004.00211c-.01214.0021-.0252.00632-.03921.00846l-.00619.00422c-.0268.00819-.05386.01635-.07844.02639H6.63261c-.01228.00635-.02734.00846-.03893.01479H6.59116a.24733.24733,0,0,0-.0392.01479H6.55009c-.01465.00581-.02731.00792-.04158.01427-.02931.01-.0557.01847-.0825.02876H6.4235c-.06814.0272-.13625.04991-.19843.07868-.05784.02509-.10946.04569-.16134.07052l-.02271.01054H6.03826l-.0222.01-.02455.01268c-.03921.01823-.07657.037-.11194.05573l-.01863.01241H5.8587a.06217.06217,0,0,0-.0186.01H5.8385l-.01874.01054c-.03328.02061-.06218.037-.08979.05573a.54461.54461,0,0,0-.13571.12435c0,.00424-.00264.00581-.00489.00819l-.00157.00608H5.58594a.11751.11751,0,0,0-.02084.05176c.00184.01479.01054.02295.03247.03114"/><path class="b" d="M11.06409,19.87418h0a6.68442,6.68442,0,0,1-5.09779-2.9095c-.00805-.01242-.02046-.02905-.02866-.04332V16.919a1.64766,1.64766,0,0,1,.16358-.06416,6.52585,6.52585,0,0,0,4.93856,2.84985Z"/><path class="b" d="M11.31094,19.88685v.09508c0,.01027-.00435.02083-.01451.02083H11.1495a.021.021,0,0,1-.01676-.02083V18.1666c.06032.00422.12013.00871.1782.01269Z"/><path class="a" d="M6.3122,9.21391a6.53527,6.53527,0,0,1,4.72574-2.54883l-.05651.38473A6.1008,6.1008,0,0,0,7.64654,8.38848H7.3071v.29388c-.10942.10326-.217.211-.3187.31846a6.65843,6.65843,0,0,0-.6762.21309m11.00525.987a2.8654,2.8654,0,0,0-.449-.04121,6.116,6.116,0,0,1,.74487,2.251,3.22344,3.22344,0,0,1,.39911.18827,6.47868,6.47868,0,0,0-.695-2.398M11.882,7.03949a6.1358,6.1358,0,0,1,3.49066,1.35535h.331V8.68c.10946.10375.21309.20912.31449.31683.25137.066.47989.13863.67238.20914A6.5245,6.5245,0,0,0,11.882,6.66269ZM6.51629,16.78882a1.52372,1.52372,0,0,0-.41506.06654,6.52686,6.52686,0,0,0,4.93855,2.84931l-.05835-.38867a6.14249,6.14249,0,0,1-4.46514-2.52718M11.8842,19.3263v.38259a6.52122,6.52122,0,0,0,4.75227-2.48124,1.51115,1.51115,0,0,0-.33941-.18218,6.13931,6.13931,0,0,1-4.41285,2.28083M5.97872,15.895a6.10414,6.10414,0,0,1-.62054-2.41681,1.41729,1.41729,0,0,0-.37929.07262,6.63208,6.63208,0,0,0,.66222,2.52426,2.18756,2.18756,0,0,1,.3376-.18007m11.1671-.24213a2.95438,2.95438,0,0,1,.27092.31054,6.47186,6.47186,0,0,0,.6102-2.41471,1.49835,1.49835,0,0,0-.37229-.07051,6.12075,6.12075,0,0,1-.50883,2.17469M5.39742,12.41069a6.13071,6.13071,0,0,1,.4305-1.60962,1.12719,1.12719,0,0,0-.32529-.20886A6.44421,6.44421,0,0,0,4.99831,12.599a3.1352,3.1352,0,0,1,.39911-.18826"/><path class="a" d="M17.21408,9.62581a5.407,5.407,0,0,0-1.51034-.52176v.36439a9.22661,9.22661,0,0,1,1.69849.48637Z"/><path class="a" d="M6.99686,9.52019c.09942-.02271.20279-.04753.31038-.06813V9.10881a8.839,8.839,0,0,0-.87768.23948"/><path class="c" d="M7.30924,12.08589c-.064.01241-.12622.02271-.18839.03512a5.88043,5.88043,0,0,0-2.30882.82356.17385.17385,0,0,1-.033.02879v.35408a5.87744,5.87744,0,0,1,2.307-.81139c.07246-.01639.1489-.02906.22325-.04331Z"/><path class="c" d="M18.197,12.94458a5.87433,5.87433,0,0,0-2.30907-.82355c-.06034-.01268-.12226-.02272-.18418-.033v.38473c.07433.01452.14655.02693.22114.04356a5.91572,5.91572,0,0,1,2.30315.80877v-.35169a.27386.27386,0,0,1-.03105-.0288"/><path class="c" d="M7.62607,15.57842q-.37884.0836-.73272.18827a3.04078,3.04078,0,0,0-1.30386.60836l-.00371.00608.20677.33744a2.846,2.846,0,0,1,1.21895-.57351c.26654-.076.52689-.14046.79027-.1983a3.22962,3.22962,0,0,1-.17572-.36834"/><rect class="b" x="11.31094" y="6.44776" width="0.39305" height="1.94259"/><path class="d" d="M11.49935,18.18323c-.06243,0-.12687-.00184-.18851-.00394v1.763H11.704V18.175c-.06946.00636-.13652.00819-.20465.00819"/><path class="c" d="M17.38162,16.24251a8.14638,8.14638,0,0,0-1.73175-1.58506,4.16487,4.16487,0,0,1-.29823,1.00785,5.60828,5.60828,0,0,1,1.59523,1.47945l.49864-.76572a.33394.33394,0,0,0-.06389-.13651"/><path class="c" d="M7.30724,9.83281a4.14571,4.14571,0,0,0-1.28075-.36437H6.01422a.60334.60334,0,0,0-.166.02084l-.41337.81087c.01428,0,.03287-.00421.04938-.00421a6.066,6.066,0,0,1,1.82508.59621Z"/><path class="a" d="M15.7036,10.05409v.7615c.45508-.09136.85446-.19065,1.16894-.27936-.06191-.12859-.13032-.2527-.20068-.37443a2.86267,2.86267,0,0,1,.86685.08871v-.00184c.00846.02061.01863.03935.02706.05995l.01217-.00422.01241-.00424c.02083-.01.04356-.03907-.02271-.07868-.01836-.01-.037-.02058-.0581-.03088a5.34159,5.34159,0,0,0-1.04879-.36018c.00622.0082.01217.01877.01863.0288-.21744.06443-.47581.13465-.77578.19486M18.265,13.07687c.02706-.02693-.00646-.07024-.0371-.1035v.10983a.12229.12229,0,0,0,.04118-.00633Zm-.94148-3.31455c.01679-.01452.01836-.03723-.04131-.08687a.548.548,0,0,0-.06825-.04964l.08275.14681a.06249.06249,0,0,0,.0268-.0103m.00544,6.79678h.01939a.11963.11963,0,0,0,.03923-.004.15682.15682,0,0,0,.05794-.1761Zm.92957-2.96285h-.00278v-.0021l-.00106-.004-.0021-.00211-.002-.00211v-.00421h-.004v-.00187l-.00252-.00238V13.5754l-.00183-.00211v-.00186h-.00409l-.00214-.004-.00619-.00843-.023-.02483a.33377.33377,0,0,0-.0474-.04753,2.209,2.209,0,0,0-.53614-.2981c-.04131-.01876-.08871-.03485-.13413-.05362v.07025a15.22214,15.22214,0,0,1-1.78561.40768v.38286c0,.11778-.00673.23607-.01676.35171a16.33352,16.33352,0,0,0,1.74864-.36834c.02244-.16555.037-.333.04726-.50064a1.38816,1.38816,0,0,1,.71411.1405c-.00211.03114-.00211.06229-.00619.0932a.616.616,0,0,0,.07-.04145.076.076,0,0,0,0-.07052l-.00211-.00395m-1.43983,3.71406h0l-.00214-.01241-.00592-.01268a.2516.2516,0,0,0-.02087-.0491,2.19429,2.19429,0,0,0-.45535-.52176l-.00395-.00633-.00408-.00159V16.708a13.42059,13.42059,0,0,0-1.05753-.86871,4.23563,4.23563,0,0,1-2.1249,2.00886,15.92468,15.92468,0,0,0,1.75472-.244c.178-.02692.4778-.09109.815-.17215.14087-.14046.27739-.28728.40583-.44253a1.3184,1.3184,0,0,1,.64494.35382c-.03036.03962-.06365.07868-.098.122h.04846a.135.135,0,0,0,.04131-.00422c.02323-.00792.097-.02271.06443-.14893l-.002-.00183"/><path class="a" d="M5.7388,9.70238A.31051.31051,0,0,1,5.718,9.62159.15626.15626,0,0,1,5.8484,9.489ZM4.779,13.08321v-.10983c-.03114.03536-.06216.07659-.03734.1035a.09752.09752,0,0,0,.03734.00633M11.133,6.485a.41611.41611,0,0,1-.069.004l-.10893.74064c.06008-.0103.11791-.01425.178-.01873ZM5.26723,10.71182c.02469-.05967.0474-.11775.07446-.17558a1.17653,1.17653,0,0,1,.61642.40347,3.8115,3.8115,0,0,0-.13625.37018c.2338.20279.53747.43461.91254.70343.11538-.02693.23091-.04965.35145-.07236.07246-.01635.149-.029.22338-.04118v-.809c-.451-.20068-.84826-.36018-1.17105-.46736H6.13634l-.01519-.00449-.016-.00608H6.10109a2.41,2.41,0,0,0-.6745-.14471c-.01876,0-.03947,0-.05848.00159l-.00782.00238h-.0124l-.01055.00211V10.476c-.04978.01268-.09085.046-.10734.13679a.06081.06081,0,0,1-.00225-.01874.10143.10143,0,0,0,.00225.02482.58085.58085,0,0,0,.03723.09293m2.042,3.27549v-.37443a15.201,15.201,0,0,1-1.78563-.40768V13.135c-.07009.02693-.13438.05362-.19684.08079-.05546.02271-.10918.04754-.159.07025l-.00408.00421-.0103.00425a1.40584,1.40584,0,0,0-.32068.20857.21989.21989,0,0,0-.03131.02907A.25.25,0,0,1,4.779,13.559l-.00646.00844-.002.004H4.76846v.00184h-.002l-.00214.00422v.00424H4.76027V13.586l-.00238.00211H4.75633v.00211l-.00251.00184v.00424H4.75171v.004h-.0028v.00422l-.00105.00424-.00211.00211V13.615l-.00225.00184v.00238l-.00184.0037v.00449H4.73929v.02482l.00238.00184v.00449H4.7435l.00225.004v.00211h.00211l.00105.00421v.004a.60772.60772,0,0,0,.06933.03934l-.00622-.093a1.378,1.378,0,0,1,.71808-.13862c.00806.16742.02272.333.0454.49853a15.71779,15.71779,0,0,0,1.75049.36835,3.29884,3.29884,0,0,1-.01676-.36015M11.064,19.87418c.02363.0021.04356.00448.069.00635v-.724c-.06005-.00449-.11789-.01054-.178-.0169Zm-2.5215-2.93432L8.501,16.89865c-.63318-.09531-1.28075-.21731-1.951-.37072a.22819.22819,0,0,1-.02083-.02428,1.56721,1.56721,0,0,0-.641.38024.05552.05552,0,0,0,.01809.09109H5.9024c.033.01452.06627.0272.0952.03934-.02087-.03328-.03948-.06206-.06008-.09534a1.49823,1.49823,0,0,1,.80282-.11959,5.33478,5.33478,0,0,0,.51939.59569,17.64572,17.64572,0,0,0,2.56349.42828,4.37932,4.37932,0,0,1-1.28074-.8835m-2.95666-.55871a.12417.12417,0,0,0-.02083.05175c.00224.01479.01054.023.03274.03115l-.014-.00211a.2525.2525,0,0,0,.05624.00422Z"/><path class="b" d="M11.48469,18.24107a4.25606,4.25606,0,0,1-4.2395-4.15661V8.36577h8.481v5.71869a4.25647,4.25647,0,0,1-4.24148,4.15661"/><path class="a" d="M7.52852,8.64938v5.43508a3.958,3.958,0,0,0,7.91409,0V8.64938Zm6.3108,5.43508a2.35423,2.35423,0,0,1-4.70527,0V10.2529h4.70527Z"/><path class="d" d="M8.86723,9.89459H8.85071L8.813,9.53444a.09167.09167,0,0,0,.08515-.08871.08909.08909,0,0,0-.08917-.089l-.00165,0H8.797l-.0103-.16345h.03921a.01618.01618,0,0,0,.01675-.01561V9.06311H8.78852V9.121H8.71633V9.06311H8.65639V9.121H8.58391V9.06311H8.53229v.1117a.0194.0194,0,0,0,.01623.01848H8.588l-.00816.16345H8.47816L8.459,9.00925h.02972c.01027,0,.016-.00449.016-.01663V8.87908H8.45137V8.9324h-.073V8.87908H8.32329V8.9324H8.24857V8.87908H8.19668v.11354a.02007.02007,0,0,0,.017.01663h.026l-.01784.34749H8.12048l-.01055-.16345h.03948a.0183.0183,0,0,0,.0186-.01638V9.0631H8.11612v.05784H8.03955V9.0631h-.0557v.05784H7.90742V9.0631H7.85553v.1117a.02015.02015,0,0,0,.02044.01848h.03526l-.0082.16345h-.0083a.08925.08925,0,0,0-.09146.087l0,.002a.09026.09026,0,0,0,.08279.08716l-.03461.36171H7.83493a.09161.09161,0,0,0-.08926.08925.08931.08931,0,0,0,.08926.08661H8.86722a.08965.08965,0,0,0,.09109-.08661.09189.09189,0,0,0-.09109-.08925m-.7598,0a.38124.38124,0,0,1,.24477-.37229.38053.38053,0,0,1,.24227.37229Z"/><path class="d" d="M12.01845,9.89459h-.02268l-.03329-.36015a.08964.08964,0,0,0,.08305-.08871.0885.0885,0,0,0-.088-.089h-.01338l-.01027-.16345h.04105c.00871,0,.01414-.00608.01414-.01638V9.06311H11.94V9.121h-.07895V9.06311H11.8075V9.121h-.0767V9.06311h-.05033v.1117a.02262.02262,0,0,0,.01732.01848h.0392l-.01054.16345h-.09929l-.01864-.34749h.026c.00939,0,.02-.00449.02-.01663V8.87908H11.6026V8.9324H11.526V8.87908h-.05349V8.9324h-.07682V8.87908H11.3441v.11354c0,.00608.0082.01452.01874.01663h.02893l-.01928.34749h-.1009l-.01241-.16345h.0371c.0086,0,.02074-.00608.02074-.01638V9.0631h-.056v.05784h-.07433V9.0631h-.05188v.05784h-.07844V9.0631h-.04975v.1117a.01974.01974,0,0,0,.01677.01848h.0392l-.01056.16345h-.0083a.0887.0887,0,0,0-.09083.08652l0,.00246a.09014.09014,0,0,0,.08265.08716l-.03723.36171h-.01241a.08833.08833,0,0,0-.08872.08793v.00132a.08614.08614,0,0,0,.08565.08664l.00306,0h1.03254a.08711.08711,0,0,0,.08674-.08661.08942.08942,0,0,0-.08674-.08925m-.76334,0a.383.383,0,0,1,.24423-.37229.387.387,0,0,1,.246.37229Z"/><path class="d" d="M15.13658,9.89459h-.01652l-.03723-.36015a.09107.09107,0,0,0,.08265-.08871.089.089,0,0,0-.089-.089l-.00182,0H15.0641L15.056,9.1933h.0371a.01635.01635,0,0,0,.01676-.01592V9.06311h-.052V9.121h-.07646V9.06311h-.056V9.121h-.07433V9.06311h-.052v.1117a.01991.01991,0,0,0,.01877.01848h.03723l-.00806.16345h-.09758l-.02336-.34749H14.756c.01017,0,.0186-.00449.0186-.01663V8.87908H14.723V8.9324H14.6456V8.87908h-.05321V8.9324h-.07658V8.87908h-.05217v.11354c0,.00608.00857.01452.01914.01663h.0268l-.0186.34749h-.10363l-.00622-.16345H14.418c.00646,0,.01914-.00608.01914-.01638V9.0631h-.056v.05784H14.3068V9.0631H14.253v.05784h-.07643V9.0631H14.1249v.1117a.0196.0196,0,0,0,.01676.01848h.03894l-.0103.16345h-.00844a.08822.08822,0,0,0-.00857.17613l-.0325.36171h-.01861a.08944.08944,0,0,0-.08687.08926.08713.08713,0,0,0,.08687.0866h1.0344a.08646.08646,0,0,0,.08895-.0839l0-.0027a.08864.08864,0,0,0-.088-.08925h-.00094m-.76191,0a.38377.38377,0,0,1,.24278-.37228h.00411a.3887.3887,0,0,1,.24383.37228Z"/><path class="d" d="M8.86723,13.141H8.85071L8.813,12.779a.08571.08571,0,0,0,.08515-.08627v-.00033a.09077.09077,0,0,0-.09017-.09137H8.797l-.0103-.15947h.03921a.01692.01692,0,0,0,.01683-.017l-.00007-.00145v-.11354H8.78852v.05757H8.71633v-.05757H8.65639v.05757H8.58391v-.05757H8.53229v.11354a.01963.01963,0,0,0,.01623.01848H8.588l-.00816.15947H8.47816L8.459,12.2557h.02972a.015.015,0,0,0,.016-.01386l-.00008-.003v-.11356H8.45137V12.181h-.073v-.05573H8.32329V12.181H8.24857v-.05573H8.19668v.11169a.02013.02013,0,0,0,.017.01877h.026l-.01784.34536H8.12048l-.01055-.15947h.03948a.01882.01882,0,0,0,.0186-.01849v-.11353H8.11612v.05756H8.03955v-.05756h-.0557v.05756H7.90742v-.05756H7.85553v.11353a.02036.02036,0,0,0,.02044.01849h.03526l-.0082.15947h-.0083a.08911.08911,0,0,0-.0087.178l-.03461.362H7.83493a.08857.08857,0,0,0-.08926.08786V13.23a.08622.08622,0,0,0,.08926.0829H8.86722a.08663.08663,0,0,0,.091-.082l.00005-.0009a.08892.08892,0,0,0-.08882-.089l-.00227,0m-.7598,0a.38183.38183,0,0,1,.24477-.37259.38115.38115,0,0,1,.24227.37259Z"/><path class="d" d="M15.13658,13.141h-.01652l-.03723-.362a.085.085,0,0,0,.08265-.0866.09068.09068,0,0,0-.09-.09137h-.0114l-.00806-.15947h.0371a.01709.01709,0,0,0,.01682-.01734l-.00006-.00114v-.11354h-.052v.05757h-.07646v-.05757h-.056v.05757h-.07433v-.05757h-.052v.11354a.02014.02014,0,0,0,.01877.01848h.03723l-.00806.15947h-.09758l-.02336-.34536H14.756a.01713.01713,0,0,0,.01854-.01558l.00006-.00132v-.11356H14.723V12.181H14.6456v-.05573h-.05321V12.181h-.07658v-.05573h-.05217v.11169a.02246.02246,0,0,0,.01914.01877h.0268l-.0186.34536h-.10363l-.00622-.15947H14.418a.02018.02018,0,0,0,.01914-.01849v-.11353h-.056v.05756H14.3068v-.05756H14.253v.05756h-.07643v-.05756H14.1249v.11353a.01984.01984,0,0,0,.01676.01849h.03894l-.0103.15947h-.00844a.08917.08917,0,0,0-.00857.178l-.0325.362h-.01861a.0865.0865,0,0,0-.0869.08613l0,.00285a.084.084,0,0,0,.08511.08294l.00176,0h1.0344a.08353.08353,0,0,0,.08881-.0779l.00017-.005a.08591.08591,0,0,0-.08274-.089h-.00624m-.76191,0a.3844.3844,0,0,1,.24278-.37259h.00411a.38934.38934,0,0,1,.24383.37259Z"/><path class="d" d="M9.78332,15.97159l-.01187.01452-.27739-.22972a.0891.0891,0,0,0-.00619-.122.09445.09445,0,0,0-.12794,0l-.00858.01027-.11764-.10534.006-.00633.02074-.02271c.00632-.00424.00816-.01479,0-.02482l-.07857-.08082-.03737.03539.03923.04543-.05386.05386-.039-.04383-.04159.0375.04159.04118-.05651.05386-.03458-.03934L8.9603,15.626l.07684.07841a.02309.02309,0,0,0,.02863,0l.0181-.01819.009-.01057.10537.118-.07076.06814-.26035-.22734.02506-.01638c.006-.00844.00793-.02113,0-.0272L8.813,15.51032l-.04079.037.04079.04145-.05322.052-.0392-.03962-.04.03962.04.037-.05386.05784-.03948-.04094-.03842.037.07974.07868a.0219.0219,0,0,0,.02679,0l.02113-.02057.22907.25822-.06984.0726-.12224-.1035.00633-.0082.02074-.01846a.02238.02238,0,0,0,.002-.02693l-.08279-.08082-.03512.0375.03947.037-.052.05811L8.613,15.9716l-.04172.04145.04172.03937-.052.05148-.04132-.037-.03709.03485.07841.08079a.02559.02559,0,0,0,.02706,0l.02061-.02271.00622-.00422.10574.11564-.00411.00846a.085.085,0,0,0-.00612.12009l.00612.00612a.09615.09615,0,0,0,.122.00817l.22734.27752-.01241.01452a.08669.08669,0,0,0-.00151.12259l.00151.00151a.09145.09145,0,0,0,.12845,0l.7305-.7306a.0895.0895,0,0,0,0-.12359.0884.0884,0,0,0-.12473-.00847l-.00427.004m-.5372.54209a.384.384,0,0,1-.08925-.43672.37775.37775,0,0,1,.43675.089Z"/><path class="d" d="M13.11082,15.97583a.08981.08981,0,0,0,0,.12384l.7306.73059a.09125.09125,0,0,0,.12833,0,.0901.0901,0,0,0,0-.1241l-.01452-.01452.23171-.27752a.09368.09368,0,0,0,.11973-.00817.085.085,0,0,0,.00618-.12l-.00618-.00619-.00409-.00846.10364-.11564.00939.00422.01952.02271a.02419.02419,0,0,0,.02655,0l.079-.08079-.03709-.03512-.04.03723-.05321-.05148.03723-.03937-.03723-.0417-.03921.04383-.05386-.0581.03921-.03723-.03512-.03723-.08066.08082a.01935.01935,0,0,0,0,.02693l.02061.01846.00619.00847-.12186.10323-.06852-.07209.22958-.25875.02115.02057c.00778.00609.02057.00609.02455,0l.07868-.07867-.03512-.03724-.03948.04148-.05386-.0581.0392-.037-.0392-.03962-.03723.03962-.05784-.05229.04109-.04118-.0371-.037-.08055.08052c-.00816.00608-.00408.01876.00238.0272l.02006.01638-.26035.22761-.06837-.06841.10537-.118.00646.01057.01873.01847c.00806.00635.0222.00635.02458,0l.08275-.07869-.03893-.0375-.04.03962L13.932,15.5742l.03974-.04118-.03974-.0375-.039.04383-.05386-.05387.04134-.04542-.03909-.03539-.079.08081a.016.016,0,0,0-.00227.02256l.00227.00227.01862.02271.00858.00633-.11591.10509-.01031-.01a.09543.09543,0,0,0-.1287,0,.08985.08985,0,0,0-.00594.122l-.27909.22972-.01044-.01477a.08817.08817,0,0,0-.12467.00043l-.00379.00406m.3187.19011a.374.374,0,0,1,.43461-.089.386.386,0,0,1-.089.43672Z"/><path class="d" d="M11.77435,15.16255a.10245.10245,0,0,0-.09915.10139.10116.10116,0,0,0,.09464.1073l.00451.00018a.10464.10464,0,0,0,.1034-.10588l0-.0016a.10642.10642,0,0,0-.10337-.10139"/><path class="d" d="M11.20968,15.1668a.10249.10249,0,1,0,.0057,0h-.0057"/><path class="a" d="M11.48469,12.13317a.53951.53951,0,0,0,.52353-.555l0-.001V10.832h-1.045v.74515a.53922.53922,0,0,0,.52148.55607"/><path class="d" d="M11.33762,11.12586a.12137.12137,0,0,0-.11975-.12016.12017.12017,0,0,0,0,.24029.12137.12137,0,0,0,.11975-.12013"/><path class="d" d="M11.60458,11.39492a.12037.12037,0,0,0-.11989-.12016.119.119,0,1,0,.11989.12016"/><path class="d" d="M11.87166,11.65948a.119.119,0,1,0,0,.00235v-.00235"/><path class="d" d="M11.75375,11.246a.12015.12015,0,1,0-.12013-.12016v0a.11966.11966,0,0,0,.1192.12013h.00093"/><path class="d" d="M11.21788,11.77989a.12143.12143,0,0,0,.11975-.12041.11971.11971,0,0,0-.11975-.118.11768.11768,0,0,0-.11789.11746v.00056a.1194.1194,0,0,0,.11789.12041"/><path class="a" d="M11.48469,13.93556a.53979.53979,0,0,0,.52352-.55559l0-.00077v-.747h-1.045v.747a.5395.5395,0,0,0,.52148.55636"/><path class="d" d="M11.33762,12.92795a.12115.12115,0,0,0-.11975-.11988.11914.11914,0,0,0-.11789.11988.11746.11746,0,0,0,.11717.11775h.00072a.11948.11948,0,0,0,.11975-.11775"/><path class="d" d="M11.60458,13.1949a.11856.11856,0,0,0-.11907-.118h-.00082a.11611.11611,0,0,0-.11592.11631v.00171a.11433.11433,0,0,0,.11272.11591h.00319a.11679.11679,0,0,0,.11985-.11365l0-.00226"/><path class="d" d="M11.87166,13.464a.119.119,0,1,0-.12013.11778h.00222a.11955.11955,0,0,0,.11791-.11778"/><path class="d" d="M11.75375,13.0457a.11778.11778,0,0,0,.11778-.11775.119.119,0,1,0-.12016.11775h.00238"/><path class="d" d="M11.21788,13.58174a.119.119,0,1,0,.00165-.23791h-.00165a.119.119,0,0,0,0,.23791"/><path class="a" d="M10.04461,13.93556a.5386.5386,0,0,0,.52152-.55516l0-.0012v-.747H9.52139v.747a.53823.53823,0,0,0,.51957.55625l.00364.00011"/><path class="d" d="M9.89357,12.92795a.11813.11813,0,0,0-.11639-.11987H9.77566a.12.12,0,0,0-.11867.11988.11838.11838,0,0,0,.11867.11775.11648.11648,0,0,0,.11791-.11506v-.00269"/><path class="d" d="M10.1625,13.1949a.11884.11884,0,1,0-.11644.11644.11883.11883,0,0,0,.11644-.11644"/><path class="d" d="M10.42944,13.464a.11816.11816,0,0,0-.11644-.11985h-.00252a.11882.11882,0,1,0,.119.12083v-.001"/><path class="d" d="M10.31061,13.0457a.117.117,0,0,0,.11895-.115l0-.00278a.11861.11861,0,0,0-.11732-.11988h-.00165a.12.12,0,0,0-.11934.11988.11838.11838,0,0,0,.119.11776h.00035"/><path class="d" d="M9.77566,13.58174a.119.119,0,1,0-.11895-.119.119.119,0,0,0,.11895.119h0"/><path class="a" d="M12.92677,13.93556a.5414.5414,0,0,0,.5256-.55636v-.747h-1.0447v.747a.53647.53647,0,0,0,.51593.55625l.00316.00011"/><path class="d" d="M12.77785,12.92795a.118.118,0,1,0-.11855.11775.11671.11671,0,0,0,.11854-.11485v-.0029"/><path class="d" d="M13.04693,13.1949a.11914.11914,0,1,0-.11576.11577.11909.11909,0,0,0,.11576-.11577"/><path class="d" d="M13.31321,13.464a.11755.11755,0,0,0-.1152-.11984l-.00242,0a.11882.11882,0,0,0-.00162.23764h.00162a.11726.11726,0,0,0,.11762-.11688V13.464"/><path class="d" d="M13.19569,13.0457a.11626.11626,0,0,0,.11764-.11486v-.00289a.11792.11792,0,0,0-.1159-.11987h-.00174a.1199.1199,0,0,0-.12.11981v.00007a.11826.11826,0,0,0,.11878.11776h.00122"/><path class="d" d="M12.65942,13.58174a.119.119,0,1,0-.11751-.11752.119.119,0,0,0,.11751.11752"/><path class="a" d="M11.48469,15.73792a.54117.54117,0,0,0,.5235-.55687v-.74461h-1.045v.74461a.54088.54088,0,0,0,.52148.55687"/><path class="d" d="M11.33762,14.73032a.12077.12077,0,0,0-.11975-.118.1179.1179,0,0,0,0,.2358.12092.12092,0,0,0,.11975-.11778"/><path class="d" d="M11.60458,14.99911a.12011.12011,0,0,0-.11989-.11986.11882.11882,0,1,0,.11989.11986"/><path class="d" d="M11.87166,15.26394a.119.119,0,1,0,0,.00235v-.00235"/><path class="d" d="M11.75375,14.8481a.11805.11805,0,1,0-.12013-.11778.11806.11806,0,0,0,.12013.11778"/><path class="d" d="M11.21788,15.3841a.12138.12138,0,0,0,.11975-.12016.11955.11955,0,0,0-.11975-.118.11753.11753,0,0,0-.11789.11715v.00087a.11935.11935,0,0,0,.11789.12016"/></svg>