<svg xmlns="http://www.w3.org/2000/svg" viewBox="0 0 257.34579 38.50712" style="fill:black;"><path d="M51.02743,3.86649a3.40582,3.40582,0,0,0-.50977-.37988,6.29814,6.29814,0,0,0-.90039-.46973,7.69792,7.69792,0,0,0-1.14941-.38964,5.03455,5.03455,0,0,0-1.25977-.16016A2.82221,2.82221,0,0,0,45.5079,2.887a1.38907,1.38907,0,0,0-.56055,1.17969,1.21528,1.21528,0,0,0,.21.73047,1.82073,1.82073,0,0,0,.61035.50976,5.15452,5.15452,0,0,0,1.00977.40039q.61084.18018,1.41016.37989,1.04.27978,1.89062.59961a5.15393,5.15393,0,0,1,1.43945.7998A3.31484,3.31484,0,0,1,52.42782,8.637a3.82238,3.82238,0,0,1,.32031,1.65039,4.1013,4.1013,0,0,1-.43066,1.94922,3.60109,3.60109,0,0,1-1.16016,1.31055,5.02761,5.02761,0,0,1-1.67968.72949,8.4351,8.4351,0,0,1-1.99024.23047,10.67073,10.67073,0,0,1-3.15918-.48047,9.74188,9.74188,0,0,1-2.80078-1.35937l1.2207-2.37989a3.85313,3.85313,0,0,0,.64942.46973,9.946,9.946,0,0,0,1.11035.58008,8.66117,8.66117,0,0,0,1.41992.49023,6.433,6.433,0,0,0,1.59961.19922q2.28076,0,2.28027-1.46a1.1969,1.1969,0,0,0-.25976-.7793,2.20423,2.20423,0,0,0-.74024-.56054,7.04508,7.04508,0,0,0-1.16015-.43946q-.6797-.20068-1.51953-.44043a12.78424,12.78424,0,0,1-1.77051-.61035,4.645,4.645,0,0,1-1.25-.7793,2.93594,2.93594,0,0,1-.75-1.04,3.59756,3.59756,0,0,1-.25-1.41016A4.41426,4.41426,0,0,1,42.5079,2.5872a3.888,3.888,0,0,1,1.10937-1.40039A5.03586,5.03586,0,0,1,45.26766.3372a6.8188,6.8188,0,0,1,2.02051-.29,7.834,7.834,0,0,1,2.75977.46972,10.29327,10.29327,0,0,1,2.20019,1.11036Z" style="fill:#000"/><path d="M64.68759,11.927V14.347H54.82723V.14677H64.5079V2.56669H57.588V5.98661h5.97949V8.22685H57.588V11.927Z" style="fill:#000"/><path d="M66.84774,14.347V.14677h2.75977V11.927h7.24023V14.347Z" style="fill:#000"/><path d="M83.68759,14.44657a6.45782,6.45782,0,0,1-2.83008-.60937,6.97836,6.97836,0,0,1-2.18067-1.62012,7.52039,7.52039,0,0,1-1.90918-4.96973,7.13611,7.13611,0,0,1,.5293-2.7207,7.53408,7.53408,0,0,1,1.46-2.2998A6.98856,6.98856,0,0,1,80.96688.637,6.55851,6.55851,0,0,1,83.74716.04716,6.2424,6.2424,0,0,1,86.5577.677a7.02669,7.02669,0,0,1,2.16993,1.65039A7.59528,7.59528,0,0,1,90.127,4.64677a7.31124,7.31124,0,0,1,.5,2.64062,7.1825,7.1825,0,0,1-.51953,2.71,7.36556,7.36556,0,0,1-1.44043,2.2793,6.90822,6.90822,0,0,1-2.2002,1.58008A6.55084,6.55084,0,0,1,83.68759,14.44657ZM79.56747,7.24735a5.68482,5.68482,0,0,0,.28027,1.7793,4.74214,4.74214,0,0,0,.80957,1.52051,4.03,4.03,0,0,0,1.29981,1.05957,4.0255,4.0255,0,0,0,3.52051-.00977,4.04177,4.04177,0,0,0,1.2998-1.08984,4.85975,4.85975,0,0,0,.7998-1.53027,5.68652,5.68652,0,0,0,.27051-1.7295,5.56072,5.56072,0,0,0-.29-1.78027,4.91362,4.91362,0,0,0-.82031-1.52051,3.92516,3.92516,0,0,0-1.2998-1.0498,4.05323,4.05323,0,0,0-3.51075.02051A3.94446,3.94446,0,0,0,80.627,3.99735a4.86046,4.86046,0,0,0-.79,1.51953A5.69632,5.69632,0,0,0,79.56747,7.24735Z" style="fill:#000"/><path d="M97.547,14.347V.14677h5.16016a7.71156,7.71156,0,0,1,3.0498.56054,6.1298,6.1298,0,0,1,3.51074,3.76954,8.47532,8.47532,0,0,1,.43946,2.75,8.29755,8.29755,0,0,1-.49024,2.92968,6.25544,6.25544,0,0,1-1.40918,2.24024,6.3551,6.3551,0,0,1-2.21093,1.44043,7.80243,7.80243,0,0,1-2.88965.50976Zm9.37988-7.12011a6.04778,6.04778,0,0,0-.27929-1.87989,4.2222,4.2222,0,0,0-.82032-1.48047,3.66814,3.66814,0,0,0-1.33007-.96,4.48731,4.48731,0,0,0-1.79-.33984H100.3077V11.927h2.39942a4.32356,4.32356,0,0,0,1.81054-.36035,3.6974,3.6974,0,0,0,1.31934-.98926,4.426,4.426,0,0,0,.81055-1.49023A5.97985,5.97985,0,0,0,106.92684,7.22685Z" style="fill:#000"/><path d="M121.72665,11.927V14.347h-9.85938V.14677H121.547V2.56669H114.627V5.98661h5.98047V8.22685H114.627V11.927Z" style="fill:#000"/><path d="M134.68661,12.00712a3.16194,3.16194,0,0,0,1.65039-.40039,3.22943,3.22943,0,0,0,1.08008-1.04,4.308,4.308,0,0,0,.58008-1.46973,8.49837,8.49837,0,0,0,.16992-1.71V.14677h2.74023V7.387a10.3498,10.3498,0,0,1-.35058,2.74024,6.27838,6.27838,0,0,1-1.09961,2.23925,5.2614,5.2614,0,0,1-1.93067,1.52051,6.528,6.528,0,0,1-2.81933.55957,6.45571,6.45571,0,0,1-2.89063-.58984,5.38685,5.38685,0,0,1-1.92968-1.55957,6.23788,6.23788,0,0,1-1.07032-2.25,10.62861,10.62861,0,0,1-.33008-2.66016V.14677h2.76075V7.387a8.60046,8.60046,0,0,0,.16992,1.72949,4.29345,4.29345,0,0,0,.58008,1.47071,3.00939,3.00939,0,0,0,2.68945,1.41992Z" style="fill:#000"/><path d="M152.14657,3.86649a3.40559,3.40559,0,0,0-.50976-.37988,6.29884,6.29884,0,0,0-.9004-.46973,7.69753,7.69753,0,0,0-1.14941-.38964,5.03455,5.03455,0,0,0-1.25977-.16016A2.82221,2.82221,0,0,0,146.627,2.887a1.38907,1.38907,0,0,0-.56055,1.17969,1.21535,1.21535,0,0,0,.21.73047,1.82068,1.82068,0,0,0,.61036.50976,5.15415,5.15415,0,0,0,1.00976.40039q.61084.18018,1.41016.37989,1.04.27978,1.89062.59961a5.15413,5.15413,0,0,1,1.43946.7998A3.31493,3.31493,0,0,1,153.547,8.637a3.82238,3.82238,0,0,1,.32031,1.65039,4.1013,4.1013,0,0,1-.43066,1.94922,3.60109,3.60109,0,0,1-1.16016,1.31055,5.02752,5.02752,0,0,1-1.67968.72949,8.4351,8.4351,0,0,1-1.99024.23047,10.67078,10.67078,0,0,1-3.15918-.48047,9.74188,9.74188,0,0,1-2.80078-1.35937l1.2207-2.37989a3.85313,3.85313,0,0,0,.64942.46973,9.946,9.946,0,0,0,1.11035.58008,8.66117,8.66117,0,0,0,1.41992.49023,6.433,6.433,0,0,0,1.59961.19922q2.28077,0,2.28027-1.46a1.1969,1.1969,0,0,0-.25976-.7793,2.20423,2.20423,0,0,0-.74024-.56054,7.04508,7.04508,0,0,0-1.16015-.43946q-.6797-.20068-1.51953-.44043a12.78424,12.78424,0,0,1-1.77051-.61035,4.645,4.645,0,0,1-1.25-.7793,2.93594,2.93594,0,0,1-.75-1.04,3.59756,3.59756,0,0,1-.25-1.41016A4.41426,4.41426,0,0,1,143.627,2.5872a3.888,3.888,0,0,1,1.10937-1.40039,5.03582,5.03582,0,0,1,1.6504-.84961,6.81868,6.81868,0,0,1,2.0205-.29,7.834,7.834,0,0,1,2.75977.46972,10.29327,10.29327,0,0,1,2.20019,1.11036Z" style="fill:#000"/><path d="M159.76669.14677h2.43945L167.60653,14.347h-2.83984l-1.32031-3.54h-4.96l-1.2998,3.54h-2.83984Zm3.17969,8.71972-1.96-5.5791-2.04,5.5791Z" style="fill:#000"/><path d="M180.60653,10.68681a3.21929,3.21929,0,0,1-1.35058,2.71972,4.61264,4.61264,0,0,1-1.46.7002,6.33042,6.33042,0,0,1-1.76953.24023H169.1661V.14677h7.60059a2.80847,2.80847,0,0,1,1.33984.32031,3.338,3.338,0,0,1,1.01953.83008,3.7945,3.7945,0,0,1,.65039,1.16015,3.89266,3.89266,0,0,1-.29,3.25977,3.1652,3.1652,0,0,1-1.5205,1.34961,3.654,3.654,0,0,1,1.93066,1.29A3.7342,3.7342,0,0,1,180.60653,10.68681Zm-8.67969-8.17969V6.0872h3.67969a1.63428,1.63428,0,0,0,1.18945-.48047,1.75943,1.75943,0,0,0,.49024-1.31934,1.82315,1.82315,0,0,0-.4502-1.30078,1.46228,1.46228,0,0,0-1.10937-.47949Zm5.89942,7.66016a2.07463,2.07463,0,0,0-.12988-.73047,2.02561,2.02561,0,0,0-.34961-.60938,1.62669,1.62669,0,0,0-.52051-.41015,1.4481,1.4481,0,0,0-.66016-.1504h-4.23926v3.74024h4.09961a1.79224,1.79224,0,0,0,.71-.14063,1.69365,1.69365,0,0,0,.57032-.38964,1.8967,1.8967,0,0,0,.51953-1.30957Z" style="fill:#000"/><path d="M182.76669,14.347V.14677h2.75976V14.347Z" style="fill:#000"/><path d="M188.48641,14.347V.14677h2.75977V11.927h7.24023V14.347Z" style="fill:#000"/><path d="M200.1661,14.347V.14677h2.76074V14.347Z" style="fill:#000"/><path d="M205.88583,14.347V.14677H211.046a7.71161,7.71161,0,0,1,3.04981.56054,6.1298,6.1298,0,0,1,3.51074,3.76954,8.47531,8.47531,0,0,1,.43945,2.75,8.29755,8.29755,0,0,1-.49023,2.92968,6.25544,6.25544,0,0,1-1.40918,2.24024,6.35523,6.35523,0,0,1-2.21094,1.44043,7.80236,7.80236,0,0,1-2.88965.50976Zm9.37988-7.12011a6.04748,6.04748,0,0,0-.2793-1.87989,4.22234,4.22234,0,0,0-.82031-1.48047,3.6681,3.6681,0,0,0-1.33008-.96,4.48724,4.48724,0,0,0-1.79-.33984h-2.39941V11.927H211.046a4.3236,4.3236,0,0,0,1.81055-.36035,3.6974,3.6974,0,0,0,1.31934-.98926,4.4262,4.4262,0,0,0,.81054-1.49023A5.97955,5.97955,0,0,0,215.26571,7.22685Z" style="fill:#000"/><path d="M223.76571.14677h2.44043L231.60556,14.347h-2.83985l-1.31933-3.54h-4.96l-1.30078,3.54h-2.83984Zm3.18067,8.71972-1.96-5.5791-2.04,5.5791Z" style="fill:#000"/><path d="M233.1661,14.347V.14677h5.16016a7.71828,7.71828,0,0,1,3.0498.56054,6.12986,6.12986,0,0,1,3.51075,3.76954,8.47558,8.47558,0,0,1,.43945,2.75,8.31947,8.31947,0,0,1-.49024,2.92968,6.24431,6.24431,0,0,1-1.41015,2.24024,6.34211,6.34211,0,0,1-2.21,1.44043,7.80605,7.80605,0,0,1-2.88965.50976ZM242.547,7.22685a6.01852,6.01852,0,0,0-.28125-1.87989,4.17655,4.17655,0,0,0-.82031-1.48047,3.65634,3.65634,0,0,0-1.3291-.96,4.494,4.494,0,0,0-1.79-.33984h-2.40039V11.927h2.40039a4.31584,4.31584,0,0,0,1.80957-.36035,3.7009,3.7009,0,0,0,1.32031-.98926,4.40735,4.40735,0,0,0,.80957-1.49023A5.951,5.951,0,0,0,242.547,7.22685Z" style="fill:#000"/><path d="M257.34579,11.927V14.347h-9.85938V.14677h9.67969V2.56669h-6.91992V5.98661h5.97949V8.22685h-5.97949V11.927Z" style="fill:#000"/><path d="M52.42782,35.927V38.347H42.56747V24.14677h9.68066v2.41992H45.32821v3.41992H51.3077v2.24024H45.32821V35.927Z" style="fill:#000"/><path d="M62.82723,24.14677h2.44043L70.66708,38.347H67.82723l-1.31933-3.54h-4.96l-1.30078,3.54H57.40731Zm3.18067,8.71972-1.96-5.5791-2.04,5.5791Z" style="fill:#000"/><path d="M70.84774,31.14677a7.34906,7.34906,0,0,1,.46973-2.56934,6.892,6.892,0,0,1,3.57031-3.89062,6.79427,6.79427,0,0,1,2.96-.62012,6.45311,6.45311,0,0,1,3.38965.86035,5.49479,5.49479,0,0,1,2.12988,2.24024l-2.12011,1.46a3.623,3.623,0,0,0-.67969-1.01075,3.42405,3.42405,0,0,0-.86035-.64941,3.89508,3.89508,0,0,0-.96-.35059,4.618,4.618,0,0,0-.9795-.10937,3.72311,3.72311,0,0,0-1.81054.41992,3.99219,3.99219,0,0,0-1.2793,1.08984,4.78231,4.78231,0,0,0-.77051,1.52051,5.73386,5.73386,0,0,0-.25976,1.68946,5.51042,5.51042,0,0,0,.2998,1.81054,4.82948,4.82948,0,0,0,.84961,1.5293,4.24944,4.24944,0,0,0,1.32031,1.06055,3.61389,3.61389,0,0,0,1.69043.39941,4.45233,4.45233,0,0,0,1-.12012,3.74006,3.74006,0,0,0,1.85938-1.0498,3.07757,3.07757,0,0,0,.64062-.99024l2.25977,1.30079a4.275,4.275,0,0,1-.96973,1.41015,6.23438,6.23438,0,0,1-1.41992,1.0293,7.25526,7.25526,0,0,1-1.69043.64062,7.4019,7.4019,0,0,1-1.75976.21973,6.04754,6.04754,0,0,1-2.78028-.63965,7.22921,7.22921,0,0,1-2.16992-1.6709,7.73911,7.73911,0,0,1-1.41992-2.33984A7.30191,7.30191,0,0,1,70.84774,31.14677Z" style="fill:#000"/><path d="M95.2872,35.927V38.347H85.42684V24.14677h9.68067v2.41992H88.18759v3.41992h5.97949v2.24024H88.18759V35.927Z" style="fill:#000"/><path d="M105.627,27.86649a3.40582,3.40582,0,0,0-.50977-.37988,6.29814,6.29814,0,0,0-.90039-.46973,7.69792,7.69792,0,0,0-1.14941-.38964,5.0346,5.0346,0,0,0-1.25977-.16016,2.82221,2.82221,0,0,0-1.70019.41992,1.389,1.389,0,0,0-.56055,1.17969,1.21528,1.21528,0,0,0,.21.73047,1.82073,1.82073,0,0,0,.61035.50976,5.15452,5.15452,0,0,0,1.00977.40039q.61085.18018,1.41016.37989,1.04.27978,1.89062.59961a5.15393,5.15393,0,0,1,1.43945.7998,3.31484,3.31484,0,0,1,.91016,1.15039,3.82238,3.82238,0,0,1,.32031,1.65039,4.1013,4.1013,0,0,1-.43066,1.94922,3.60109,3.60109,0,0,1-1.16016,1.31055,5.02757,5.02757,0,0,1-1.67969.72949,8.435,8.435,0,0,1-1.99023.23047,10.67073,10.67073,0,0,1-3.15918-.48047A9.74188,9.74188,0,0,1,96.127,36.66728l1.2207-2.37989a3.85313,3.85313,0,0,0,.64942.46973,9.946,9.946,0,0,0,1.11035.58008,8.66117,8.66117,0,0,0,1.41992.49023,6.43293,6.43293,0,0,0,1.59961.19922q2.28077,0,2.28027-1.46a1.1969,1.1969,0,0,0-.25976-.7793,2.20423,2.20423,0,0,0-.74024-.56054,7.04508,7.04508,0,0,0-1.16015-.43946q-.67969-.20069-1.51953-.44043a12.78424,12.78424,0,0,1-1.77051-.61035,4.645,4.645,0,0,1-1.25-.7793,2.93594,2.93594,0,0,1-.75-1.04,3.59756,3.59756,0,0,1-.25-1.41016,4.41426,4.41426,0,0,1,.40039-1.91992,3.888,3.888,0,0,1,1.10937-1.40039,5.03586,5.03586,0,0,1,1.65039-.84961,6.8188,6.8188,0,0,1,2.02051-.29,7.834,7.834,0,0,1,2.75977.46972,10.29327,10.29327,0,0,1,2.20019,1.11036Z" style="fill:#000"/><path d="M117.88681,27.86649a3.40636,3.40636,0,0,0-.50977-.37988,6.29868,6.29868,0,0,0-.90039-.46973,7.69805,7.69805,0,0,0-1.14942-.38964,5.03447,5.03447,0,0,0-1.25976-.16016,2.82225,2.82225,0,0,0-1.7002.41992,1.38906,1.38906,0,0,0-.56054,1.17969,1.21528,1.21528,0,0,0,.21.73047,1.82063,1.82063,0,0,0,.61035.50976,5.15427,5.15427,0,0,0,1.00977.40039q.61083.18018,1.41015.37989,1.04.27978,1.89063.59961a5.15421,5.15421,0,0,1,1.43945.7998,3.315,3.315,0,0,1,.91016,1.15039,3.82238,3.82238,0,0,1,.32031,1.65039,4.1013,4.1013,0,0,1-.43067,1.94922,3.60116,3.60116,0,0,1-1.16015,1.31055,5.02766,5.02766,0,0,1-1.67969.72949,8.435,8.435,0,0,1-1.99023.23047,10.67073,10.67073,0,0,1-3.15918-.48047,9.74176,9.74176,0,0,1-2.80078-1.35937l1.2207-2.37989a3.85338,3.85338,0,0,0,.64941.46973,9.94775,9.94775,0,0,0,1.11035.58008,8.6613,8.6613,0,0,0,1.41993.49023,6.43293,6.43293,0,0,0,1.59961.19922q2.28075,0,2.28027-1.46a1.1969,1.1969,0,0,0-.25977-.7793,2.20429,2.20429,0,0,0-.74023-.56054,7.04487,7.04487,0,0,0-1.16016-.43946q-.67968-.20069-1.51953-.44043a12.78471,12.78471,0,0,1-1.77051-.61035,4.645,4.645,0,0,1-1.25-.7793,2.93618,2.93618,0,0,1-.75-1.04,3.59756,3.59756,0,0,1-.25-1.41016,4.41426,4.41426,0,0,1,.40039-1.91992,3.888,3.888,0,0,1,1.10938-1.40039,5.03577,5.03577,0,0,1,1.65039-.84961,6.8187,6.8187,0,0,1,2.02051-.29,7.83394,7.83394,0,0,1,2.75976.46972,10.29312,10.29312,0,0,1,2.2002,1.11036Z" style="fill:#000"/><path d="M121.68661,38.347V24.14677h2.76074V38.347Z" style="fill:#000"/><path d="M138.84677,34.68681a3.21933,3.21933,0,0,1-1.35059,2.71972,4.61258,4.61258,0,0,1-1.46.7002,6.33052,6.33052,0,0,1-1.76953.24023h-6.86035V24.14677h7.60058a2.80848,2.80848,0,0,1,1.33985.32031,3.33826,3.33826,0,0,1,1.01953.83008,3.79471,3.79471,0,0,1,.65039,1.16015,3.89276,3.89276,0,0,1-.29,3.25977,3.16522,3.16522,0,0,1-1.52051,1.34961,3.654,3.654,0,0,1,1.93067,1.29A3.73427,3.73427,0,0,1,138.84677,34.68681Zm-8.67969-8.17969V30.0872h3.67969a1.6343,1.6343,0,0,0,1.18945-.48047,1.75942,1.75942,0,0,0,.49023-1.31934,1.82319,1.82319,0,0,0-.45019-1.30078,1.46231,1.46231,0,0,0-1.10938-.47949Zm5.89941,7.66016a2.07463,2.07463,0,0,0-.12988-.73047,2.0254,2.0254,0,0,0-.34961-.60938,1.62659,1.62659,0,0,0-.52051-.41015,1.44806,1.44806,0,0,0-.66015-.1504h-4.23926v3.74024h4.09961a1.79227,1.79227,0,0,0,.71-.14063,1.69351,1.69351,0,0,0,.57031-.38964,1.8967,1.8967,0,0,0,.51953-1.30957Z" style="fill:#000"/><path d="M141.00692,38.347V24.14677h2.75977V38.347Z" style="fill:#000"/><path d="M146.72665,38.347V24.14677h2.75976V35.927h7.24024V38.347Z" style="fill:#000"/><path d="M158.40634,38.347V24.14677h2.76074V38.347Z" style="fill:#000"/><path d="M164.12606,38.347V24.14677h5.16016a7.71153,7.71153,0,0,1,3.0498.56054,6.12986,6.12986,0,0,1,3.51075,3.76954,8.47558,8.47558,0,0,1,.43945,2.75,8.29755,8.29755,0,0,1-.49024,2.92968,6.25556,6.25556,0,0,1-1.40917,2.24024,6.35523,6.35523,0,0,1-2.21094,1.44043,7.80239,7.80239,0,0,1-2.88965.50976Zm9.37989-7.12011a6.04778,6.04778,0,0,0-.2793-1.87989,4.22234,4.22234,0,0,0-.82031-1.48047,3.66818,3.66818,0,0,0-1.33008-.96,4.48731,4.48731,0,0,0-1.79-.33984h-2.39941V35.927h2.39941a4.32364,4.32364,0,0,0,1.81055-.36035,3.69736,3.69736,0,0,0,1.31933-.98926,4.426,4.426,0,0,0,.81055-1.49023A5.97984,5.97984,0,0,0,173.506,31.22685Z" style="fill:#000"/><path d="M182.006,24.14677h2.44043L189.84579,38.347H187.006l-1.31934-3.54h-4.96l-1.30078,3.54H176.586Zm3.18066,8.71972-1.96-5.5791-2.04,5.5791Z" style="fill:#000"/><path d="M191.40634,38.347V24.14677h5.16015a7.71837,7.71837,0,0,1,3.04981.56054,6.13178,6.13178,0,0,1,3.50976,3.76954,8.47565,8.47565,0,0,1,.44043,2.75,8.3197,8.3197,0,0,1-.49023,2.92968,6.25771,6.25771,0,0,1-1.41016,2.24024,6.34211,6.34211,0,0,1-2.21,1.44043,7.806,7.806,0,0,1-2.88965.50976Zm9.37988-7.12011A6.04753,6.04753,0,0,0,200.506,29.347a4.20709,4.20709,0,0,0-.82032-1.48047,3.65617,3.65617,0,0,0-1.3291-.96,4.494,4.494,0,0,0-1.79-.33984H194.1661V35.927h2.40039a4.3158,4.3158,0,0,0,1.80957-.36035,3.701,3.701,0,0,0,1.32032-.98926,4.42452,4.42452,0,0,0,.80957-1.49023A5.97978,5.97978,0,0,0,200.78622,31.22685Z" style="fill:#000"/><path d="M215.586,35.927V38.347h-9.86035V24.14677h9.68067v2.41992h-6.91993v3.41992h5.9795v2.24024h-5.9795V35.927Z" style="fill:#000"/><path d="M16.32267,9.74831A5.01,5.01,0,0,1,11.1972,4.87445,5.01007,5.01007,0,0,1,16.32267,0a5.01111,5.01111,0,0,1,5.12661,4.87445,5.011,5.011,0,0,1-5.12661,4.87386m0-8.06056A3.32356,3.32356,0,0,0,12.885,4.87445a3.3223,3.3223,0,0,0,3.43769,3.18609,3.323,3.323,0,0,0,3.43884-3.18609,3.32426,3.32426,0,0,0-3.43884-3.1867" style="fill:#000"/><path d="M32.43681,11.81565A2.678,2.678,0,0,0,29.362,9.942c-9.29839,1.66053-22.2784.28477-26.39742-.17641A2.64421,2.64421,0,0,0,.03834,11.88194,2.45586,2.45586,0,0,0,.4954,13.79347,2.68685,2.68685,0,0,0,2.34,14.84364a61.53614,61.53614,0,0,0,7.56622.87856c.52509.02544,1.5226.41024,1.51492.87494l-.05567,3.47559a7.31942,7.31942,0,0,1-.3901,2.24006l-2.516,12.64669A2.45063,2.45063,0,0,0,8.598,36.86983a2.64312,2.64312,0,0,0,1.61611,1.32427,2.6797,2.6797,0,0,0,3.33-1.55989l2.86045-9.38953,3.24592,9.49963a2.64332,2.64332,0,0,0,2.45437,1.60253,2.77235,2.77235,0,0,0,.93833-.16455l.10777-.0379a2.52144,2.52144,0,0,0,1.593-3.19677L21.87271,23.21556a11.92608,11.92608,0,0,1-.65646-4.0942l.039-2.43188a.91315.91315,0,0,1,.94128-.85011,42.58749,42.58749,0,0,0,8.16769-.88384,2.64029,2.64029,0,0,0,1.763-1.1674A2.45931,2.45931,0,0,0,32.43681,11.81565Zm-1.73278,1.065a.93833.93833,0,0,1-.637.41381,41.43439,41.43439,0,0,1-7.90544.85662,2.59375,2.59375,0,0,0-2.59409,2.5112l-.03846,2.43305a13.62922,13.62922,0,0,0,.74768,4.672l2.87175,11.73206a.84728.84728,0,0,1-.56244,1.05495l-.10832.03786a1.0067,1.0067,0,0,1-1.2716-.50082L17.64531,25.84048a1.34911,1.34911,0,0,0-1.25614-.82406H16.3619a1.35047,1.35047,0,0,0-1.25028.87021L11.964,36.03987a1.02087,1.02087,0,0,1-1.29643.52748.93078.93078,0,0,1-.56477-.46179.76236.76236,0,0,1-.04442-.6038l2.516-12.64669a9.0583,9.0583,0,0,0,.47894-2.75456l.05561-3.47615c.02249-1.37993-1.68063-2.51772-3.12034-2.58819a60.17364,60.17364,0,0,1-7.45378-.869.99266.99266,0,0,1-.68551-.38063.79258.79258,0,0,1-.14857-.61861.94747.94747,0,0,1,1.07622-.72464c5.35394.59912,17.6206,1.81328,26.88166.15987a.98363.98363,0,0,1,1.14669.64644A.785.785,0,0,1,30.704,12.88063Z" style="fill:#000"/></svg>