<svg xmlns="http://www.w3.org/2000/svg" viewBox="0 0 115 30"><defs><style>.a{fill:#8d8d8e;}</style></defs><title>logo_eportugal</title><path class="a" d="M1.26422,15.04312A4.68806,4.68806,0,0,0,1.042,16.82138a5.75514,5.75514,0,0,0,5.28,5.33559c.1951.01507.38662.02853.57622.04119l.53149-2.239c-.3081-.01818-.62257-.03895-.94674-.064A3.56151,3.56151,0,0,1,3.212,16.673,2.27694,2.27694,0,0,1,5.311,14.24018c1.77041-.38378,2.78062-.59576,3.65825-.76712.42591-.08316.821-.15681,1.25617-.23581h0c.3541-.06429.73467-.13212,1.181-.21167.6282-.11209,1.38424-.24673,2.37516-.42659a4.94718,4.94718,0,0,0,4.06819-5.39759,6.54251,6.54251,0,0,0-4.84047-5.6921l-.52574,2.21484a4.32467,4.32467,0,0,1,3.19705,3.63849,2.73138,2.73138,0,0,1-2.272,3.002c-.98837.1794-1.7423.31363-2.36879.42525l-.24388.04349h0c-.47194.08415-.87286.156-1.25385.22606-1.20511.22175-2.2153.42746-4.67378.96057a5.5722,5.5722,0,0,0-1.54769.57988,18.07619,18.07619,0,0,1,.18257-5.663c.45575-1.895,1.57579-3.81443,6.4081-3.66028a9.62518,9.62518,0,0,1,1.44205.15243l.52459-2.2099a11.79731,11.79731,0,0,0-1.90123-.20965C5.11056.8545,2.328,2.58762,1.39406,6.38543a28.42405,28.42405,0,0,0-.12984,8.65768"/><path class="a" d="M16.76678,20.28093a1.58119,1.58119,0,0,0-.88616-.24187L8.895,20.01515c-.09556-.00033-.18393-.00447-.277-.00612l-.53526,2.2549c.34408.01475.69636.02529,1.0667.02657v-.00025l6.6325.0227a1.87254,1.87254,0,0,0,1.02406-.21212q.31917-.21485.32175-.96549A.94239.94239,0,0,0,16.76678,20.28093Z"/><path class="a" d="M30.17842,10.13161a3.91287,3.91287,0,0,0-1.5035-1.57567,4.84876,4.84876,0,0,0-2.45155-.56012c-.51382,0-1.06129.021-1.62722.06226-.56675.04127-1.13541.10627-1.69018.19339a14.12957,14.12957,0,0,0-1.60521.34643,6.83873,6.83873,0,0,0-1.35606.525,3.2568,3.2568,0,0,0-.94977.73048,1.48474,1.48474,0,0,0-.3747.99208v15.809a1.25146,1.25146,0,0,0,.16591.69034,1.12005,1.12005,0,0,0,.41211.38041,1.43751,1.43751,0,0,0,.52135.15873,4.45438,4.45438,0,0,0,.47392.02851,1.89313,1.89313,0,0,0,.31815-.02281.46392.46392,0,0,0,.26706-.14391.644.644,0,0,0,.14139-.309,2.3505,2.3505,0,0,0,.03706-.4657V21.58581a5.8718,5.8718,0,0,0,1.05731.34939,12.42675,12.42675,0,0,0,1.406.24083c.47664.05405.96446.08894,1.45013.10309.48143.01368.93687.02053,1.35377.02053a5.273,5.273,0,0,0,2.51632-.52386,3.80512,3.80512,0,0,0,1.49712-1.44272,5.87037,5.87037,0,0,0,.70175-2.11984,18.17518,18.17518,0,0,0,.17275-2.57824v-.1373a20.73516,20.73516,0,0,0-.20011-2.99012A7.34739,7.34739,0,0,0,30.17842,10.13161Zm-1.403,6.2651a8.0732,8.0732,0,0,1-.24186,2.08744,2.914,2.914,0,0,1-.61452,1.19,1.82092,1.82092,0,0,1-.90243.53913,4.03165,4.03165,0,0,1-.96505.11061c-.06979,0-.1406-.00159-.21587-.00456-.58634-.00889-1.18045-.04333-1.76565-.1024a15.95493,15.95493,0,0,1-1.57887-.23171A5.38643,5.38643,0,0,1,21.36,19.64431c-.175-.0796-.387-.20913-.40276-.36056V11.42381a.63616.63616,0,0,1,.31107-.4714,3.55882,3.55882,0,0,1,.95216-.47528,8.16375,8.16375,0,0,1,1.43143-.3446,11.27753,11.27753,0,0,1,1.74274-.12886c.25862,0,.52739.01141.7988.034a2.83356,2.83356,0,0,1,.77358.17721,2.23528,2.23528,0,0,1,.69935.43468,2.56543,2.56543,0,0,1,.57255.82376,5.42543,5.42543,0,0,1,.39432,1.36085,12.27447,12.27447,0,0,1,.1422,2.025Z"/><path class="a" d="M44.72045,11.63979a5.33266,5.33266,0,0,0-.6616-1.46348,4.21532,4.21532,0,0,0-1.14715-1.162,5.45876,5.45876,0,0,0-1.73715-.75352,9.90349,9.90349,0,0,0-2.44141-.265H38.651a9.82291,9.82291,0,0,0-2.43479.265A5.54259,5.54259,0,0,0,34.48,9.01411,4.09,4.09,0,0,0,33.33149,10.177a5.44345,5.44345,0,0,0-.65408,1.4628,9.001,9.001,0,0,0-.29967,1.67831c-.05029.58611-.07583,1.19459-.07583,1.809v.055c0,.6144.02554,1.2231.07583,1.80922a8.98175,8.98175,0,0,0,.29967,1.67808,5.43807,5.43807,0,0,0,.65408,1.46279A4.08352,4.08352,0,0,0,34.48,21.29526a5.54177,5.54177,0,0,0,1.73623.75305,9.822,9.822,0,0,0,2.43479.265h.0821a9.903,9.903,0,0,0,2.44141-.265A5.45285,5.45285,0,0,0,42.9117,21.295a4.21536,4.21536,0,0,0,1.14715-1.162,5.3186,5.3186,0,0,0,.6616-1.4637,8.9992,8.9992,0,0,0,.29945-1.67808c.05041-.58658.07595-1.19528.07595-1.80922v-.055c0-.61394-.02554-1.22242-.07595-1.809A8.98142,8.98142,0,0,0,44.72045,11.63979ZM42.75866,15.36a14.688,14.688,0,0,1-.14207,2.16339,3.80487,3.80487,0,0,1-.5558,1.54809,2.56186,2.56186,0,0,1-1.16972.93664,5.428,5.428,0,0,1-2.06169.32477h-.27459a5.333,5.333,0,0,1-2.061-.33115,2.601,2.601,0,0,1-1.17042-.94418,3.72557,3.72557,0,0,1-.54825-1.54694A15.2253,15.2253,0,0,1,34.6392,15.36v-.42421a15.2253,15.2253,0,0,1,.13593-2.15062,3.73126,3.73126,0,0,1,.54825-1.54718,2.56261,2.56261,0,0,1,1.16951-.93687,5.43741,5.43741,0,0,1,2.0619-.32477h.27459a5.43526,5.43526,0,0,1,2.06169.32477,2.563,2.563,0,0,1,1.1695.93664,3.80655,3.80655,0,0,1,.556,1.54831,14.58,14.58,0,0,1,.14207,2.14972Z"/><path class="a" d="M55.29158,8.558a3.47634,3.47634,0,0,0-.956-.38633A6.39307,6.39307,0,0,0,52.9804,7.996q-.15428-.003-.31062-.003c-.37014,0-.75193.01255-1.13461.03764a13.67664,13.67664,0,0,0-1.455.1731,9.57452,9.57452,0,0,0-1.3499.3341,5.71457,5.71457,0,0,0-1.12411.499,2.70093,2.70093,0,0,0-.78568.67894,1.43777,1.43777,0,0,0-.3015.88259V21.59083a.589.589,0,0,0,.40231.59775,2.23767,2.23767,0,0,0,.77312.12474,3.57824,3.57824,0,0,0,.392-.02143,1.16375,1.16375,0,0,0,.372-.10149.79653.79653,0,0,0,.27869-.21415.59362.59362,0,0,0,.11905-.38542V11.20237a.64851.64851,0,0,1,.12429-.28736,1.30482,1.30482,0,0,1,.52363-.40413,4.97233,4.97233,0,0,1,1.18866-.37288,10.55966,10.55966,0,0,1,2.06556-.1617,4.37013,4.37013,0,0,1,1.01716.09192,3.00222,3.00222,0,0,1,.58406.20274q.23034.11552.39934.20959a.97583.97583,0,0,0,.48326.11335.9206.9206,0,0,0,.41645-.08279.63225.63225,0,0,0,.25839-.22646.889.889,0,0,0,.11289-.26638,1.12655,1.12655,0,0,0,.031-.2568,1.24256,1.24256,0,0,0-.19112-.65248A1.735,1.735,0,0,0,55.29158,8.558Z"/><path class="a" d="M66.44017,19.37224a.787.787,0,0,0-.46319.17948,4.28337,4.28337,0,0,1-.51246.31678,4.6008,4.6008,0,0,1-.78.31769,3.93036,3.93036,0,0,1-1.16745.14665,5.58644,5.58644,0,0,1-1.273-.1268,2.02549,2.02549,0,0,1-.8509-.40482,1.66324,1.66324,0,0,1-.489-.73938,3.60838,3.60838,0,0,1-.164-1.16607V10.12728H65.6098c.23991,0,.40366-.00479.49375-.01391a.67031.67031,0,0,0,.55328-.3665,1.32552,1.32552,0,0,0,.19021-.68532.79159.79159,0,0,0-.22989-.62055,1.14163,1.14163,0,0,0-.49558-.2559,1.98973,1.98973,0,0,0-.47-.05427c-.036,0-.07275.00068-.10992.00251q-.28439.01346-.4876.01345H60.74023V6.01509a.60247.60247,0,0,0-.11654-.37561.70276.70276,0,0,0-.28622-.2194,1.28413,1.28413,0,0,0-.36673-.09236,3.50448,3.50448,0,0,0-.39227-.02168,2.48632,2.48632,0,0,0-.76833.1097.57179.57179,0,0,0-.40709.59935V8.1477c-.18542.00206-.34939.0089-.489.02007a1.32561,1.32561,0,0,0-.45818.109.61147.61147,0,0,0-.29534.29534,1.12861,1.12861,0,0,0-.08871.48942,1.23967,1.23967,0,0,0,.12634.606.83563.83563,0,0,0,.35008.34848,1.253,1.253,0,0,0,.475.13113q.1496.013.307.013l.07275-.00068v8.20635a4.0263,4.0263,0,0,0,.43583,1.98642,3.29856,3.29856,0,0,0,1.14351,1.20714,4.577,4.577,0,0,0,1.56154.59388,9.2887,9.2887,0,0,0,1.71252.16009,6.40389,6.40389,0,0,0,1.56245-.18244,5.33548,5.33548,0,0,0,1.25229-.47209,2.93544,2.93544,0,0,0,.84748-.66206,1.22855,1.22855,0,0,0,.32636-.79207,1.04108,1.04108,0,0,0-.151-.56491A.71888.71888,0,0,0,66.44017,19.37224Z"/><path class="a" d="M80.339,8.07016a2.66052,2.66052,0,0,0-.76583-.10172c-.13136,0-.26021.005-.38724.01415a1.16222,1.16222,0,0,0-.37152.086.7282.7282,0,0,0-.28416.21.57525.57525,0,0,0-.11882.372V19.14646a2.20875,2.20875,0,0,1-.02577.34346.45733.45733,0,0,1-.13.24562,1.02856,1.02856,0,0,1-.37653.22191,4.13234,4.13234,0,0,1-.78316.18518,13.02407,13.02407,0,0,1-1.31045.122c-.53048.02714-1.18616.04082-1.94857.04082a4.00037,4.00037,0,0,1-1.79256-.33571,2.2196,2.2196,0,0,1-.99116-1.03266,5.38714,5.38714,0,0,1-.46046-1.83659c-.07253-.75147-.109-1.66234-.109-2.70664l.02736-5.74329a.55078.55078,0,0,0-.40184-.57974,2.62038,2.62038,0,0,0-.77359-.1024c-.13136,0-.26022.005-.38725.01415a1.15333,1.15333,0,0,0-.37174.086.7342.7342,0,0,0-.28394.20958.57506.57506,0,0,0-.11882.37175v6.44981a19.15407,19.15407,0,0,0,.20776,2.95729,6.19084,6.19084,0,0,0,.77907,2.26466,3.87672,3.87672,0,0,0,1.5832,1.45594A5.74188,5.74188,0,0,0,73.329,22.286c1.00963,0,1.97206-.021,2.86058-.062a14.29409,14.29409,0,0,0,2.33422-.27755,4.20611,4.20611,0,0,0,1.60123-.65363,1.465,1.465,0,0,0,.62352-1.239V8.6499A.55334.55334,0,0,0,80.339,8.07016Z"/><path class="a" d="M92.22876,17.2784a4.4733,4.4733,0,0,0,1.70363-.88488,3.40316,3.40316,0,0,0,.97816-1.47009,6.38341,6.38341,0,0,0,.30217-2.07423,6.09641,6.09641,0,0,0-.3097-2.04139,3.42865,3.42865,0,0,0-.99208-1.46209,4.67584,4.67584,0,0,0-1.71526-.89788,10.49626,10.49626,0,0,0-2.3349-.38885V7.25006a.65028.65028,0,0,0-.40093-.63538,1.84884,1.84884,0,0,0-.76082-.15577,1.86957,1.86957,0,0,0-.78225.15622.6509.6509,0,0,0-.39318.63493v.80756a10.34214,10.34214,0,0,0-2.355.36946,4.4801,4.4801,0,0,0-1.69655.89195,3.42433,3.42433,0,0,0-.97041,1.46941,6.3231,6.3231,0,0,0-.30264,2.06077,6.37439,6.37439,0,0,0,.30241,2.07422,3.41879,3.41879,0,0,0,.97063,1.46941,4.4715,4.4715,0,0,0,1.7034.89218,10.43047,10.43047,0,0,0,2.36182.36946V19.0087a10.44608,10.44608,0,0,0-2.36159.36925,4.4768,4.4768,0,0,0-1.70362.89217,3.42488,3.42488,0,0,0-.97041,1.46918,6.32117,6.32117,0,0,0-.30264,2.06076,6.10616,6.10616,0,0,0,.3592,2.21676,3.39109,3.39109,0,0,0,1.156,1.51273,5.17293,5.17293,0,0,0,2.02087.8395,17.25649,17.25649,0,0,0,5.93464,0,5.177,5.177,0,0,0,2.0277-.8395,3.391,3.391,0,0,0,1.15605-1.51273A6.95285,6.95285,0,0,0,94.903,21.7589a3.47964,3.47964,0,0,0-.99139-1.4685,4.54944,4.54944,0,0,0-1.70956-.89856,10.68621,10.68621,0,0,0-2.3276-.382V17.64055A10.58273,10.58273,0,0,0,92.22876,17.2784Zm-1.6213,3.78333a3.50533,3.50533,0,0,1,1.28285.501,2.05432,2.05432,0,0,1,.72911.87735,3.38742,3.38742,0,0,1,.24243,1.35993,4.01392,4.01392,0,0,1-.198,1.34808,1.84356,1.84356,0,0,1-.65362.87143,3.18691,3.18691,0,0,1-1.26506.50515,12.92239,12.92239,0,0,1-4.07867,0,3.12158,3.12158,0,0,1-1.25731-.50447,1.86242,1.86242,0,0,1-.6477-.87211,4.01386,4.01386,0,0,1-.19795-1.34807,4.0715,4.0715,0,0,1,.19818-1.35516,1.856,1.856,0,0,1,.64747-.87849,3.12505,3.12505,0,0,1,1.25731-.5047,10.69124,10.69124,0,0,1,2.03248-.16193A9.77307,9.77307,0,0,1,90.60746,21.06173Zm-3.94091-5.48787a3.12291,3.12291,0,0,1-1.25731-.5047,1.86022,1.86022,0,0,1-.6477-.87211,4.01082,4.01082,0,0,1-.19795-1.34785,4.01386,4.01386,0,0,1,.19795-1.34807,1.86237,1.86237,0,0,1,.6477-.87211,3.12158,3.12158,0,0,1,1.25731-.50447A10.67317,10.67317,0,0,1,88.699,9.96262a10.18675,10.18675,0,0,1,1.90957.15531,3.42264,3.42264,0,0,1,1.28171.49376,2.05432,2.05432,0,0,1,.72911.87735,3.39013,3.39013,0,0,1,.24243,1.36016,4.01082,4.01082,0,0,1-.198,1.34785,1.84257,1.84257,0,0,1-.65362.87143,3.18678,3.18678,0,0,1-1.26506.50538A12.923,12.923,0,0,1,86.66655,15.57386Z"/><path class="a" d="M107.95181,9.49851a4.3269,4.3269,0,0,0-1.21717-.76469,7.82588,7.82588,0,0,0-1.46576-.45362,12.59555,12.59555,0,0,0-1.59506-.22213c-.54416-.04128-1.08534-.06226-1.60875-.06226a5.99985,5.99985,0,0,0-2.49089.47186A4.20794,4.20794,0,0,0,97.8603,9.89785a6.4669,6.4669,0,0,0-.97474,2.36045,15.46629,15.46629,0,0,0-.30515,3.25308v.13728a19.66725,19.66725,0,0,0,.15919,2.57665,5.53169,5.53169,0,0,0,.70357,2.12257,3.81573,3.81573,0,0,0,1.56975,1.443,6.02071,6.02071,0,0,0,2.72261.52248,25.90563,25.90563,0,0,0,2.628-.12429c.77381-.07982,1.45047-.14367,2.01173-.19l.88648.24563h.018a4.40471,4.40471,0,0,0,.67233-.04949,1.5929,1.5929,0,0,0,.58315-.203,1.16,1.16,0,0,0,.40231-.40254,1.254,1.254,0,0,0,.14892-.64382V12.21793a3.78441,3.78441,0,0,0-.307-1.57843A3.47676,3.47676,0,0,0,107.95181,9.49851ZM106.74924,19.9846c-.02326-.003-.04835-.00571-.07549-.00822-.05428-.00479-.10628-.0073-.15554-.0073a1.29528,1.29528,0,0,0-.14186.0073c-.53138.04584-1.13643.1154-1.79758.20685a18.16553,18.16553,0,0,1-2.26672.14961,6.19742,6.19742,0,0,1-1.49107-.16079,2.123,2.123,0,0,1-1.0411-.595,2.86512,2.86512,0,0,1-.64062-1.24841,8.54153,8.54153,0,0,1-.22167-2.15041V14.77678a9.3865,9.3865,0,0,1,.16876-1.91024,5.19722,5.19722,0,0,1,.44723-1.326,2.67722,2.67722,0,0,1,.64656-.832,2.886,2.886,0,0,1,.80027-.47322,3.42133,3.42133,0,0,1,.88534-.21165,9.18531,9.18531,0,0,1,.92662-.04744,8.2117,8.2117,0,0,1,1.60623.13456,4.70956,4.70956,0,0,1,1.09424.34666,2.21962,2.21962,0,0,1,.68031.48508,2.1343,2.1343,0,0,1,.38132.57541,2.05745,2.05745,0,0,1,.16146.59342,5.48044,5.48044,0,0,1,.03331.57676Z"/><path class="a" d="M113.84608,3.08632a1.1264,1.1264,0,0,0-.38064-.34962,1.627,1.627,0,0,0-.49261-.17949,2.60331,2.60331,0,0,0-.49193-.05062.98306.98306,0,0,0-.6347.14823.72179.72179,0,0,0-.184.57449V21.5769a.58844.58844,0,0,0,.4023.59775,2.23548,2.23548,0,0,0,.77313.125,3.58243,3.58243,0,0,0,.39227-.02143,1.16679,1.16679,0,0,0,.37151-.10127.7938.7938,0,0,0,.27892-.21438.59372.59372,0,0,0,.11905-.38565V3.65465A.99621.99621,0,0,0,113.84608,3.08632Z"/></svg>