<svg data-name="Layer 1" xmlns="http://www.w3.org/2000/svg" xmlns:xlink="http://www.w3.org/1999/xlink" viewBox="0 0 23.21 25.03"><defs><clipPath id="clip-path"><rect x="-2146.52" y="-249.54" width="1366" height="205" style="fill:#f6921e"></rect></clipPath><clipPath id="clip-path-2"><rect x="-3065.47" y="-781.41" width="2286.77" height="1268.5" transform="translate(0.27 -3.58) rotate(-0.11)" style="fill:#f6921e"></rect></clipPath></defs><rect x="-2146.52" y="-249.54" width="1366" height="205" style="fill:#f6921e"></rect><g style="clip-path:url(#clip-path)"><rect x="-3065.47" y="-781.41" width="2286.77" height="1268.5" transform="translate(0.27 -3.58) rotate(-0.11)" style="fill:#f6921e"></rect><g style="clip-path:url(#clip-path-2)"><polygon points="-796.22 517.31 38.1 -572.83 -402.1 -572.01 -1236.41 518.13 -796.22 517.31" style="fill:#f6921e"></polygon></g></g><path d="M21.76,9.94A10.35,10.35,0,1,0,3.31,16.77L11.42,25l8.11-8.26A10.29,10.29,0,0,0,21.76,9.94ZM11.42,14.61a4.34,4.34,0,1,1,4.33-4.34A4.33,4.33,0,0,1,11.42,14.61Z" style="fill:rgba(41, 128, 185, 1)"></path></svg>