<svg xmlns="http://www.w3.org/2000/svg" viewBox="0 0 100 117.91389"><title>Artboard 91</title><path d="M50.19107,29.97537c-8.69033,0-15.76044-6.72252-15.76044-14.98677C34.43063,6.72246,41.50074,0,50.19107,0s15.764,6.72246,15.764,14.9886c0,8.26425-7.07377,14.98677-15.764,14.98677m0-24.78564c-5.82874,0-10.57066,4.39794-10.57066,9.79887,0,5.40455,4.74192,9.797,10.57066,9.797,5.83041,0,10.57422-4.39244,10.57422-9.797,0-5.40093-4.74381-9.79887-10.57422-9.79887" style="fill:#fff"/><path d="M99.741,36.3323a8.23458,8.23458,0,0,0-9.45481-5.76141c-28.59194,5.106-68.50456.87567-81.17027-.54243a8.13073,8.13073,0,0,0-8.998,6.5077A7.55159,7.55159,0,0,0,1.52332,42.414,8.262,8.262,0,0,0,7.1954,45.64318c6.20918.72094,9.56762,2.02967,23.26562,2.70149,1.6146.07822,4.68188,1.26148,4.65825,2.69038l-.17116,10.6872a22.50769,22.50769,0,0,1-1.19953,6.888L26.0121,107.498a7.53565,7.53565,0,0,0,.426,5.87421,8.12738,8.12738,0,0,0,4.96944,4.072A8.23988,8.23988,0,0,0,41.647,112.64765l8.79568-28.87214,9.981,29.21071a8.12808,8.12808,0,0,0,7.547,4.92767,8.5253,8.5253,0,0,0,2.88532-.506l.33137-.11656a7.75327,7.75327,0,0,0,4.89841-9.82984L67.25707,71.38625a36.67244,36.67244,0,0,1-2.01856-12.58937l.12-7.47787a2.80789,2.80789,0,0,1,2.89439-2.614c11.55725-.242,16.38291-1.154,25.11506-2.71776a8.11875,8.11875,0,0,0,5.421-3.58967A7.5622,7.5622,0,0,0,99.741,36.3323ZM94.41276,39.607a2.88526,2.88526,0,0,1-1.95864,1.27244,127.40809,127.40809,0,0,1-24.3087,2.63406,7.97559,7.97559,0,0,0-7.97664,7.72178l-.11828,7.48146a41.90849,41.90849,0,0,0,2.29909,14.36606L71.18,109.15811a2.60533,2.60533,0,0,1-1.72944,3.24391l-.33309.1164a3.09552,3.09552,0,0,1-3.9101-1.54L54.25811,79.4577a4.14836,4.14836,0,0,0-3.86253-2.53393h-.08386a4.15258,4.15258,0,0,0-3.84454,2.67583l-9.6787,31.22052a3.13909,3.13909,0,0,1-3.98645,1.62195,2.86218,2.86218,0,0,1-1.73663-1.42,2.34426,2.34426,0,0,1-.13659-1.85664L38.6653,70.27777a27.85426,27.85426,0,0,0,1.4727-8.4701l.171-10.68892c.06915-4.24318-5.16782-7.7418-9.59484-7.95849C17.17089,42.49768,13.93965,41.19973,7.7943,40.488A3.05243,3.05243,0,0,1,5.6864,39.3176a2.43719,2.43719,0,0,1-.45685-1.90217,2.91338,2.91338,0,0,1,3.30931-2.22822c16.463,1.84225,54.18215,5.57571,82.65925.49158a3.0246,3.0246,0,0,1,3.526,1.98775A2.41372,2.41372,0,0,1,94.41276,39.607Z" style="fill:#fff"/></svg>