<svg xmlns="http://www.w3.org/2000/svg" viewBox="0 0 115 37"><defs><style>.a{fill:#8d8d8e;}</style></defs><title>logo_2020</title><path class="a" d="M29.02037,32.34367l7.764-6.59537c.77543-.63987,1.42752-1.22732,1.96359-1.74876a11.14681,11.14681,0,0,0,1.30409-1.49829,5.23638,5.23638,0,0,0,.72476-1.38112,4.52378,4.52378,0,0,0,.22783-1.45065,3.25623,3.25623,0,0,0-1.04662-2.58518,3.79012,3.79012,0,0,0-2.59494-.92083,4.58972,4.58972,0,0,0-2.72124.8353,12.64251,12.64251,0,0,0-2.4954,2.54729L29.344,17.35414a19.49187,19.49187,0,0,1,1.64059-2.01973,8.58049,8.58049,0,0,1,1.82128-1.48866,8.15881,8.15881,0,0,1,2.15778-.93046,10.13538,10.13538,0,0,1,2.69085-.32361,8.99912,8.99912,0,0,1,3.01134.48117,6.86654,6.86654,0,0,1,2.35184,1.364A6.25977,6.25977,0,0,1,44.549,16.56649a6.7989,6.7989,0,0,1,.54644,2.75611v.061a7.7065,7.7065,0,0,1-.35475,2.40324,7.54889,7.54889,0,0,1-1.077,2.07837,13.63838,13.63838,0,0,1-1.84079,2.01247q-1.10835,1.01118-2.59256,2.24081l-4.63793,3.86615H45.31949v3.47175H29.02037Z"/><path class="a" d="M58.91454,35.45642a12.11251,12.11251,0,0,1-4.76672-.91108,11.22988,11.22988,0,0,1-6.12222-6.1911,11.66476,11.66476,0,0,1-.86882-4.489v-.06465a11.68933,11.68933,0,0,1,.86882-4.49137,11.28756,11.28756,0,0,1,2.44964-3.70746,11.77219,11.77219,0,0,1,8.50281-3.46562,12.017,12.017,0,0,1,4.76735.922,11.307,11.307,0,0,1,3.70671,2.496,11.47248,11.47248,0,0,1,2.4155,3.68308,11.74008,11.74008,0,0,1,.86882,4.50112v.06227a11.68379,11.68379,0,0,1-.86882,4.4925,11.34669,11.34669,0,0,1-2.44839,3.70383,11.73486,11.73486,0,0,1-8.5047,3.4595m.06353-3.63056a7.3524,7.3524,0,0,0,3.06385-.63248,7.26052,7.26052,0,0,0,2.38737-1.70961,7.86873,7.86873,0,0,0,1.55693-2.529,8.437,8.437,0,0,0,.56045-3.08949v-.06465a8.63956,8.63956,0,0,0-.56045-3.11149,7.86822,7.86822,0,0,0-1.57042-2.54605A7.69985,7.69985,0,0,0,61.993,16.42244a7.288,7.288,0,0,0-3.07849-.64362,7.4139,7.4139,0,0,0-3.06384.62775,7.18051,7.18051,0,0,0-2.3891,1.71074A7.88345,7.88345,0,0,0,51.90512,20.639a8.59854,8.59854,0,0,0-.56233,3.09937v.06227a8.64888,8.64888,0,0,0,.56233,3.10413,7.517,7.517,0,0,0,3.99509,4.26792,7.30659,7.30659,0,0,0,3.07784.65323"/><path class="a" d="M72.28124,32.34367l7.76944-6.59537c.76878-.63987,1.42026-1.22732,1.96308-1.74876a11.49721,11.49721,0,0,0,1.30348-1.49829,5.30852,5.30852,0,0,0,.72051-1.38112,4.49037,4.49037,0,0,0,.229-1.45065A3.25983,3.25983,0,0,0,83.2208,17.0843a3.79674,3.79674,0,0,0-2.59193-.92083,4.58491,4.58491,0,0,0-2.72437.8353A12.59755,12.59755,0,0,0,75.408,19.54606l-2.805-2.19191a20.16022,20.16022,0,0,1,1.64422-2.01973,8.64292,8.64292,0,0,1,1.822-1.48867,8.18451,8.18451,0,0,1,2.15655-.93045,10.11142,10.11142,0,0,1,2.68707-.32362,8.97345,8.97345,0,0,1,3.01384.48117,6.83565,6.83565,0,0,1,2.35122,1.364,6.26678,6.26678,0,0,1,1.53132,2.12965,6.7708,6.7708,0,0,1,.5483,2.75611v.061a7.55039,7.55039,0,0,1-.35713,2.40324,7.43648,7.43648,0,0,1-1.07649,2.07837A13.41732,13.41732,0,0,1,85.088,25.87771q-1.11471,1.01118-2.59493,2.24081l-4.63791,3.86615h10.7235v3.47175H72.28124Z"/><path class="a" d="M102.17841,35.45642a12.12853,12.12853,0,0,1-4.76909-.91108,11.251,11.251,0,0,1-6.12222-6.1911,11.62955,11.62955,0,0,1-.86769-4.489v-.06465a11.654,11.654,0,0,1,.86769-4.49137,11.32312,11.32312,0,0,1,2.449-3.70746,11.76148,11.76148,0,0,1,8.50406-3.46562,12.02761,12.02761,0,0,1,4.76784.922,11.30221,11.30221,0,0,1,3.7056,2.496,11.53423,11.53423,0,0,1,2.41662,3.68308,11.7523,11.7523,0,0,1,.86957,4.50112v.06227a11.696,11.696,0,0,1-.86957,4.4925,11.41145,11.41145,0,0,1-2.44774,3.70383,11.75978,11.75978,0,0,1-8.50409,3.4595m.06178-3.63056a7.31745,7.31745,0,0,0,5.45172-2.34208,7.9136,7.9136,0,0,0,1.55819-2.529,8.436,8.436,0,0,0,.55933-3.08949V23.8006a8.639,8.639,0,0,0-.55933-3.11149,7.94357,7.94357,0,0,0-1.57031-2.54605,7.69431,7.69431,0,0,0-2.424-1.72061,7.30186,7.30186,0,0,0-3.07736-.64362,7.41457,7.41457,0,0,0-3.065.62774,7.21314,7.21314,0,0,0-2.39285,1.71074A7.92427,7.92427,0,0,0,95.16914,20.639a8.53184,8.53184,0,0,0-.56171,3.09936v.06228a8.58175,8.58175,0,0,0,.56171,3.10411,7.50216,7.50216,0,0,0,3.99006,4.26792,7.34159,7.34159,0,0,0,3.081.65323"/><path class="a" d="M31.45962,5.21652a3.81231,3.81231,0,0,1-.40552-.01576V6.56051a5.79229,5.79229,0,0,1,.817.10978v.75715H29.02037V6.67029a5.82994,5.82994,0,0,1,.81629-.10978V1.9751a6.6358,6.6358,0,0,1-.81629-.11416V1.10016h.73514c.29788,0,1.12215-.033,1.77789-.033,1.54608,0,2.39961.72113,2.39961,1.95745A2.23515,2.23515,0,0,1,31.45962,5.21652Zm.01526-3.156c-.14781,0-.27785,0-.42079.00487V4.17489a2.15974,2.15974,0,0,0,.35537.03114,1.12611,1.12611,0,0,0,1.26021-1.10565C32.66968,2.4629,32.31193,2.06051,31.47488,2.06051ZM37.354,7.5306c-1.93182,0-2.877-1.22781-2.877-3.18464A3.0895,3.0895,0,0,1,37.56958,1c1.68636,0,2.87881,1.00924,2.87881,3.17489A3.08958,3.08958,0,0,1,37.354,7.5306Zm.10441-5.43221c-.87244,0-1.67785.69426-1.67785,2.11439,0,1.34086.52456,2.21393,1.66072,2.21393.82193,0,1.70112-.63987,1.70112-2.15228,0-1.40738-.59709-2.176-1.684-2.176Zm7.16446,5.329L43.07756,4.81789h-.16793V6.56052a2.80237,2.80237,0,0,1,.57145.1v.7669H40.87579V6.67029a5.86214,5.86214,0,0,1,.81579-.10978V1.9751a6.6789,6.6789,0,0,1-.81579-.11416V1.10016h.73152c.24484,0,1.12166-.033,1.90131-.033,1.3964,0,2.297.4823,2.297,1.77864a1.739,1.739,0,0,1-1.491,1.71749c.11667.14656.223.309.32.45729L45.609,6.5495c.17767.02439.398.06165.6197.10316v.77479ZM43.37555,2.06051a3.2844,3.2844,0,0,0-.46592.0245v1.831c.083.0055.24359.01713.4274.01713.74364,0,1.18505-.37426,1.18505-.96535,0-.60809-.36812-.90732-1.14653-.90732Zm7.17784.82242c-.04214-.29-.09278-.54032-.11054-.77841H49.4654v4.456a5.86963,5.86963,0,0,1,.81877.10978v.75715H47.434V6.67029a5.87658,5.87658,0,0,1,.81442-.10978v-4.456h-.96473c-.017.23809-.06465.48843-.11229.77841h-.8982V1.10016h5.1795V2.88293Zm7.05453-.90783V5.00344A2.30074,2.30074,0,0,1,54.9916,7.5306c-1.99959,0-2.44413-1.08552-2.44413-2.29207V1.9751a3.5421,3.5421,0,0,1-.591-.10379V1.10016h2.48067v.77115a4.08924,4.08924,0,0,1-.67589.10379V5.16038c0,.79928.25647,1.36223,1.3066,1.36223.93361,0,1.33961-.39814,1.33961-1.4739V1.97511a3.82568,3.82568,0,0,1-.67462-.10379V1.10016h2.45566v.77115a3.47274,3.47274,0,0,1-.5806.10379Zm6.28642,3.00946V7.132a6.089,6.089,0,0,1-2.18454.39014,2.89669,2.89669,0,0,1-3.17929-3.109,3.25288,3.25288,0,0,1,3.50714-3.40274,6.93058,6.93058,0,0,1,1.76326.23571V2.94032H62.8607c-.05377-.2716-.08-.51281-.11116-.75828a2.9874,2.9874,0,0,0-.77665-.097,2.01513,2.01513,0,0,0-2.118,2.20954A1.89309,1.89309,0,0,0,61.86972,6.4267a2.64788,2.64788,0,0,0,.80419-.11417v-1.32a5.1393,5.1393,0,0,1-.80419-.12029V4.10962h2.54982v.77966c-.16857.03851-.34926.066-.52518.09528Zm4.39919,2.44288V6.67029c.19658-.03776.45117-.083.66424-.10128l-.2692-.74852H66.38122l-.2631.74852a6.69667,6.69667,0,0,1,.66727.10128v.75715h-2.38V6.67029a2.48221,2.48221,0,0,1,.49643-.09642l1.92757-5.47372H68.3222l1.97031,5.47372a2.3772,2.3772,0,0,1,.49218.09643v.75714Zm-.46766-4.114a8.21053,8.21053,0,0,1-.28886-.99285h-.01163a8.80105,8.80105,0,0,1-.29673,1.03925L66.681,4.87227h1.70474Zm3.24754,4.114V6.67029a5.83135,5.83135,0,0,1,.817-.10978V1.9751a6.6324,6.6324,0,0,1-.817-.11416V1.10016h2.8508v.76078a6.61553,6.61553,0,0,1-.81819.11416V6.42671h1.21144c.01825-.22834.06527-.49756.11354-.77778h.89445V7.42744Z"/><path class="a" d="M10.048,1.26684C4.46925,3.474,1,9.294,1,18.25534V31.865s1.14054-8.74828,9.048-11.26631Z"/><path class="a" d="M12.74863,21.94568c-3.24155.64348-7.99062,3.242-9.387,6.89936,6.95689-8.45143,21.15939-.282,21.79262-16.174.19657-5.03231.21733-11.22542.21733-11.22542A46.34587,46.34587,0,0,0,12.74863,3.83915Z"/><path class="a" d="M11.84368,26.5347s-7.55208.60572-8.1932,4.92115c-.50621,3.37285,8.1932,3.45713,8.1932,3.45713Z"/></svg>