<svg xmlns="http://www.w3.org/2000/svg" viewBox="0 0 115 21"><defs><style></style></defs><title>logo_usabilidade</title><path style="fill:#8d8d8e;" d="M3.482,7.41145V12.181a1.60325,1.60325,0,0,0,.31808,1.06436,1.17975,1.17975,0,0,0,.95467.37676,1.90955,1.90955,0,0,0,.878-.2085,3.06886,3.06886,0,0,0,.7753-.57425V7.41145H8.21493v7.50546H7.11043a.44406.44406,0,0,1-.461-.3292l-.12425-.59981a5.22706,5.22706,0,0,1-.48279.42788,2.92034,2.92034,0,0,1-.53035.32919,2.97873,2.97873,0,0,1-.60726.21217,3.03635,3.03635,0,0,1-.69859.07679,2.66343,2.66343,0,0,1-1.08627-.2085,2.17592,2.17592,0,0,1-.79373-.5888,2.57931,2.57931,0,0,1-.48656-.90345A3.82754,3.82754,0,0,1,1.67515,12.181V7.41145Z"/><path style="fill:#8d8d8e;"  d="M14.60112,8.87445a.48157.48157,0,0,1-.15359.1646.39724.39724,0,0,1-.20472.04757.64355.64355,0,0,1-.28162-.07313q-.15024-.07308-.34763-.16459a3.18032,3.18032,0,0,0-.44989-.1646,2.15631,2.15631,0,0,0-.59614-.07313,1.39034,1.39034,0,0,0-.84131.22672.70386.70386,0,0,0-.3072.59258.56482.56482,0,0,0,.15737.406,1.41245,1.41245,0,0,0,.41678.289,4.06418,4.06418,0,0,0,.589.22307q.32908.09883.673.21581.34355.11709.67285.26706a2.34824,2.34824,0,0,1,.589.38032,1.67427,1.67427,0,0,1,.57414,1.32776,2.49248,2.49248,0,0,1-.19738.99857,2.19629,2.19629,0,0,1-.57792.79,2.70835,2.70835,0,0,1-.94.51946,4.37626,4.37626,0,0,1-2.04093.117,4.46552,4.46552,0,0,1-.70971-.19384,3.91918,3.91918,0,0,1-.629-.29261,3.0533,3.0533,0,0,1-.50836-.36575l.41678-.68772a.59035.59035,0,0,1,.19026-.19016.533.533,0,0,1,.27806-.06581.585.585,0,0,1,.31808.095q.15.09523.34765.20483a3.09347,3.09347,0,0,0,.46433.20482,2.04221,2.04221,0,0,0,.67682.09512,1.75369,1.75369,0,0,0,.55215-.07679,1.16621,1.16621,0,0,0,.38052-.20116.75517.75517,0,0,0,.2194-.289.86734.86734,0,0,0,.06956-.34018.607.607,0,0,0-.15736-.43155,1.37645,1.37645,0,0,0-.417-.29263,4.04112,4.04112,0,0,0-.59236-.22315q-.33318-.0987-.68038-.21584a6.24576,6.24576,0,0,1-.68038-.27429,2.31543,2.31543,0,0,1-.59258-.39865,1.80592,1.80592,0,0,1-.417-.5926,2.06827,2.06827,0,0,1-.15715-.84851,2.16194,2.16194,0,0,1,.18292-.87788,2.05462,2.05462,0,0,1,.53769-.72784A2.66694,2.66694,0,0,1,11.313,7.4809a3.686,3.686,0,0,1,1.22517-.18648,3.75373,3.75373,0,0,1,1.4119.25594,3.19005,3.19005,0,0,1,1.0607.67306Z"/><path style="fill:#8d8d8e;" d="M22.4212,14.9169h-.812a.8738.8738,0,0,1-.40232-.07679.49415.49415,0,0,1-.21959-.311l-.16093-.534a6.16071,6.16071,0,0,1-.55946.44989,3.39813,3.39813,0,0,1-.567.32561,2.89651,2.89651,0,0,1-.62172.19749,3.74274,3.74274,0,0,1-.7317.06581,2.87607,2.87607,0,0,1-.87777-.12835,1.88907,1.88907,0,0,1-.69128-.38535,1.747,1.747,0,0,1-.44989-.63856,2.272,2.272,0,0,1-.16093-.88815,1.75661,1.75661,0,0,1,.22316-.84047,2.10083,2.10083,0,0,1,.74241-.74849,4.741,4.741,0,0,1,1.38256-.55413,8.83128,8.83128,0,0,1,2.14339-.22032v-.44225A1.67817,1.67817,0,0,0,20.34,9.06379a1.16217,1.16217,0,0,0-.92555-.36492,2.24108,2.24108,0,0,0-.73151.10246,2.83375,2.83375,0,0,0-.50834.23038q-.21594.1281-.39876.23051a.80866.80866,0,0,1-.40232.10236.52274.52274,0,0,1-.31452-.095.74749.74749,0,0,1-.21206-.23416l-.32919-.5779a4.46293,4.46293,0,0,1,3.12363-1.18507,3.02043,3.02043,0,0,1,1.17406.21583,2.49748,2.49748,0,0,1,.87421.59981,2.57179,2.57179,0,0,1,.545.91811,3.53044,3.53044,0,0,1,.18648,1.17039Zm-3.51127-1.1266a2.43,2.43,0,0,0,.5119-.0504,1.95639,1.95639,0,0,0,.44255-.15119,2.35466,2.35466,0,0,0,.40254-.2484,3.639,3.639,0,0,0,.3912-.3493V11.7348a7.33387,7.33387,0,0,0-1.32032.09944,3.48726,3.48726,0,0,0-.85221.25416,1.09544,1.09544,0,0,0-.4572.36105.80236.80236,0,0,0-.13537.44936.79258.79258,0,0,0,.28162.6852A1.21324,1.21324,0,0,0,18.90993,13.7903Z"/><path style="fill:#8d8d8e;" d="M24.22074,14.9169V4.04643h1.80687V8.33311A3.56031,3.56031,0,0,1,27.037,7.576a2.9098,2.9098,0,0,1,1.31676-.28162,2.43463,2.43463,0,0,1,2.00091.98756,3.531,3.531,0,0,1,.57058,1.19239,6.00455,6.00455,0,0,1,.20116,1.63129,5.13785,5.13785,0,0,1-.22693,1.55815,3.81239,3.81239,0,0,1-.64727,1.24363,2.99384,2.99384,0,0,1-1.01691.823,2.95921,2.95921,0,0,1-1.335.29619,2.65822,2.65822,0,0,1-.629-.06945,2.15842,2.15842,0,0,1-.95467-.49746,3.69534,3.69534,0,0,1-.38408-.39865l-.08046.50477a.4544.4544,0,0,1-.15005.27064.46647.46647,0,0,1-.28894.08047Zm3.51129-6.218a1.84626,1.84626,0,0,0-.962.23783,2.77747,2.77747,0,0,0-.74242.66927v3.365a1.7171,1.7171,0,0,0,.66929.53035,2.03331,2.03331,0,0,0,.7864.15,1.72722,1.72722,0,0,0,.73885-.15359,1.44871,1.44871,0,0,0,.55969-.46821,2.31722,2.31722,0,0,0,.35475-.79374,4.5418,4.5418,0,0,0,.12426-1.13017,5.02446,5.02446,0,0,0-.106-1.11561,2.15411,2.15411,0,0,0-.30361-.7425,1.20048,1.20048,0,0,0-.479-.417A1.49555,1.49555,0,0,0,27.732,8.69887Z"/><path style="fill:#8d8d8e;"  d="M34.73261,5.22414a1.02736,1.02736,0,0,1-.09514.43888,1.19234,1.19234,0,0,1-.62172.60359,1.13247,1.13247,0,0,1-.45343.09136,1.08977,1.08977,0,0,1-.44277-.09136,1.17458,1.17458,0,0,1-.36209-.24506,1.18751,1.18751,0,0,1-.245-.35853,1.063,1.063,0,0,1-.09158-.43888,1.15621,1.15621,0,0,1,.69862-1.06436,1.09173,1.09173,0,0,1,.44277-.09147,1.13466,1.13466,0,0,1,.45343.09147,1.21041,1.21041,0,0,1,.36942.24506,1.18066,1.18066,0,0,1,.25229.36576A1.09488,1.09488,0,0,1,34.73261,5.22414Zm-.27053,2.18731v7.50546H32.6552V7.41145Z"/><path style="fill:#8d8d8e;" d="M38.42682,4.04643V14.9169H36.61994V4.04643Z"/><path style="fill:#8d8d8e;" d="M42.66227,5.22414a1.03058,1.03058,0,0,1-.09512.43888,1.19377,1.19377,0,0,1-.62194.60359,1.1327,1.1327,0,0,1-.45345.09136,1.089,1.089,0,0,1-.44255-.09136A1.1656,1.1656,0,0,1,40.442,5.663a1.06314,1.06314,0,0,1-.09137-.43888A1.13338,1.13338,0,0,1,40.442,4.7706a1.16164,1.16164,0,0,1,.24514-.36575,1.17655,1.17655,0,0,1,.36209-.24507,1.09107,1.09107,0,0,1,.44255-.09147,1.13472,1.13472,0,0,1,.45345.09147,1.208,1.208,0,0,1,.36943.24507,1.18126,1.18126,0,0,1,.25251.36575A1.09839,1.09839,0,0,1,42.66227,5.22414Zm-.27073,2.18731v7.50546H40.58467V7.41145Z"/><path style="fill:#8d8d8e;" d="M49.71419,14.9169a.44405.44405,0,0,1-.461-.32919l-.14625-.72418a4.5,4.5,0,0,1-.49012.47545,3.08875,3.08875,0,0,1-.55235.36576,2.86681,2.86681,0,0,1-.63637.23772,3.05883,3.05883,0,0,1-.73529.08413,2.44432,2.44432,0,0,1-2.008-.99846,3.55942,3.55942,0,0,1-.57059-1.20339,6.07762,6.07762,0,0,1-.20116-1.63861A5.11348,5.11348,0,0,1,44.14,9.6353a3.771,3.771,0,0,1,.651-1.24363,3.03531,3.03531,0,0,1,1.0167-.823,2.93589,2.93589,0,0,1,1.33143-.2963,2.60692,2.60692,0,0,1,1.07536.20116,2.82308,2.82308,0,0,1,.7973.53769V4.04643h1.80688V14.9169Zm-2.4068-1.32409a1.84727,1.84727,0,0,0,.95823-.234,2.84314,2.84314,0,0,0,.74617-.66573V9.328a1.77672,1.77672,0,0,0-.66926-.52668,1.97359,1.97359,0,0,0-.77909-.15359,1.7504,1.7504,0,0,0-.74261.15359,1.45172,1.45172,0,0,0-.56324.46454,2.27838,2.27838,0,0,0-.35476.79,4.53211,4.53211,0,0,0-.12425,1.13027,5.00992,5.00992,0,0,0,.106,1.11559,2.193,2.193,0,0,0,.30361.74617,1.15442,1.15442,0,0,0,.48278.41689,1.53646,1.53646,0,0,0,.6364.128Z"/><path style="fill:#8d8d8e;" d="M58.65342,14.9169h-.81219a.87514.87514,0,0,1-.40232-.07679.49379.49379,0,0,1-.21937-.311l-.16093-.534a6.16379,6.16379,0,0,1-.55969.44989,3.40415,3.40415,0,0,1-.56681.32561,2.90217,2.90217,0,0,1-.62193.19749,3.73935,3.73935,0,0,1-.73151.06581,2.87545,2.87545,0,0,1-.87777-.12835,1.88759,1.88759,0,0,1-.69128-.38535,1.7448,1.7448,0,0,1-.44986-.63856,2.268,2.268,0,0,1-.16093-.88815,1.75625,1.75625,0,0,1,.22294-.84047,2.10337,2.10337,0,0,1,.74263-.74849,4.73626,4.73626,0,0,1,1.38254-.55413,8.83144,8.83144,0,0,1,2.14341-.22032v-.44225a1.67734,1.67734,0,0,0-.3183-1.12407,1.16135,1.16135,0,0,0-.92533-.36492,2.24064,2.24064,0,0,0-.73152.10246,2.83266,2.83266,0,0,0-.50834.23038q-.21593.1281-.39876.23051a.80928.80928,0,0,1-.40231.10236.52283.52283,0,0,1-.31455-.095.74822.74822,0,0,1-.21225-.23416l-.32919-.5779a4.46359,4.46359,0,0,1,3.12363-1.18507,3.02115,3.02115,0,0,1,1.17428.21583,2.49954,2.49954,0,0,1,.8742.59981,2.56784,2.56784,0,0,1,.54482.91811,3.52555,3.52555,0,0,1,.18669,1.17039Zm-3.51151-1.1266a2.433,2.433,0,0,0,.51214-.0504,1.96,1.96,0,0,0,.44255-.15119,2.36065,2.36065,0,0,0,.40232-.2484,3.65973,3.65973,0,0,0,.39142-.3493V11.7348a7.33612,7.33612,0,0,0-1.32053.09944,3.4897,3.4897,0,0,0-.85221.25416,1.09813,1.09813,0,0,0-.45721.36105.80218.80218,0,0,0-.13516.44936.792.792,0,0,0,.28163.6852A1.21249,1.21249,0,0,0,55.14191,13.7903Z"/><path style="fill:#8d8d8e;"  d="M65.71266,14.9169a.44384.44384,0,0,1-.46079-.32919l-.14646-.72418a4.47815,4.47815,0,0,1-.49013.47545,3.0946,3.0946,0,0,1-.55213.36576,2.87257,2.87257,0,0,1-.63659.23772,3.057,3.057,0,0,1-.73507.08413,2.44356,2.44356,0,0,1-2.008-.99846,3.55225,3.55225,0,0,1-.57059-1.20339,6.06962,6.06962,0,0,1-.20116-1.63861,5.113,5.113,0,0,1,.22674-1.55083,3.77052,3.77052,0,0,1,.651-1.24363,3.0349,3.0349,0,0,1,1.01668-.823,2.93647,2.93647,0,0,1,1.33143-.2963,2.60627,2.60627,0,0,1,1.07536.20116,2.82023,2.82023,0,0,1,.79732.53769V4.04643h1.80688V14.9169Zm-2.40679-1.32409a1.84846,1.84846,0,0,0,.95844-.234,2.84586,2.84586,0,0,0,.746-.66573V9.328a1.77671,1.77671,0,0,0-.66928-.52668,1.97275,1.97275,0,0,0-.77907-.15359,1.74872,1.74872,0,0,0-.74241.15359,1.45029,1.45029,0,0,0-.56325.46454,2.2745,2.2745,0,0,0-.355.79,4.53352,4.53352,0,0,0-.12426,1.13027,5.01228,5.01228,0,0,0,.106,1.11559,2.19261,2.19261,0,0,0,.30364.74617,1.15442,1.15442,0,0,0,.48278.41689A1.53717,1.53717,0,0,0,63.30587,13.59281Z"/><path style="fill:#8d8d8e;"  d="M71.87192,7.29442a3.64649,3.64649,0,0,1,1.30585.22672,2.85942,2.85942,0,0,1,1.02782.662,3.02588,3.02588,0,0,1,.673,1.068A4.03374,4.03374,0,0,1,75.12,10.696a2.65759,2.65759,0,0,1-.01824.34018.54353.54353,0,0,1-.066.21206.26643.26643,0,0,1-.128.1098.5463.5463,0,0,1-.20472.03291h-4.638a2.58408,2.58408,0,0,0,.62191,1.69717,1.93763,1.93763,0,0,0,1.43369.54125,2.48274,2.48274,0,0,0,.75728-.10237,3.54306,3.54306,0,0,0,.55591-.22682q.23762-.1243.417-.22671a.69967.69967,0,0,1,.34744-.10248.39263.39263,0,0,1,.19025.0439.42185.42185,0,0,1,.13894.12436l.52676.65839a3.01094,3.01094,0,0,1-.673.58891,3.77261,3.77261,0,0,1-.77906.38041,4.26923,4.26923,0,0,1-.82665.20116,5.92446,5.92446,0,0,1-.81573.05847A4.012,4.012,0,0,1,70.504,14.767a3.25828,3.25828,0,0,1-1.17051-.76816,3.60164,3.60164,0,0,1-.78264-1.2582,4.868,4.868,0,0,1-.28538-1.73742,4.1565,4.1565,0,0,1,.24871-1.44468,3.47423,3.47423,0,0,1,.7133-1.17782,3.35945,3.35945,0,0,1,1.1338-.79365A3.73549,3.73549,0,0,1,71.87192,7.29442Zm.03667,1.29474a1.67109,1.67109,0,0,0-1.23629.44622,2.20173,2.20173,0,0,0-.57059,1.26554h3.39436A2.2557,2.2557,0,0,0,73.401,9.639a1.52728,1.52728,0,0,0-.29274-.545,1.38417,1.38417,0,0,0-.49746-.36943,1.69377,1.69377,0,0,0-.70216-.13537Z"/><path style="fill:#8d8d8e;"  d="M76.50216,14.5658a.47691.47691,0,0,1,.13535-.34018.4409.4409,0,0,1,.333-.14269.48724.48724,0,0,1,.48278.48287.44049.44049,0,0,1-.14269.33276.47736.47736,0,0,1-.34009.13537.46229.46229,0,0,1-.46832-.45617q-.00008-.006,0-.012Z"/><path style="fill:#8d8d8e;"  d="M81.91545,7.63083a2.85342,2.85342,0,0,1,.86686.12436,2.49086,2.49086,0,0,1,.69862.34387H85.222v.02923a.09021.09021,0,0,1-.03646.07323.12645.12645,0,0,1-.08046.02922L83.67119,8.26a2.04651,2.04651,0,0,1,.501.72426,2.41558,2.41558,0,0,1,.172.929,2.44246,2.44246,0,0,1-.172.93268,2.03191,2.03191,0,0,1-.49012.72061,2.21778,2.21778,0,0,1-.76441.46446,2.87893,2.87893,0,0,1-1.00223.1646,2.77722,2.77722,0,0,1-1.2581-.27064,2.07177,2.07177,0,0,0-.33651.234,1.75392,1.75392,0,0,0-.2634.278,1.33323,1.33323,0,0,0-.17183.3.78.78,0,0,0-.06223.29263.69493.69493,0,0,0,.22672.55958,1.46457,1.46457,0,0,0,.59991.289,4.39484,4.39484,0,0,0,.84844.12069q.47556.02576.97311.04755.49725.022.97291.07315a3.18994,3.18994,0,0,1,.84843.20127,1.474,1.474,0,0,1,.59992.4242,1.13069,1.13069,0,0,1,.22672.74252,1.63944,1.63944,0,0,1-.223.823,2.28475,2.28475,0,0,1-.62926.695,3.23279,3.23279,0,0,1-.98022.48279,4.30149,4.30149,0,0,1-1.28386.17925,4.82245,4.82245,0,0,1-1.28008-.15359,3.07145,3.07145,0,0,1-.93645-.417,1.82365,1.82365,0,0,1-.57415-.61446,1.52,1.52,0,0,1-.19381-.74619,1.48758,1.48758,0,0,1,.417-1.057,2.71415,2.71415,0,0,1,1.12649-.68405,1.48881,1.48881,0,0,1-.65482-.32552.82126.82126,0,0,1-.245-.64.85247.85247,0,0,1,.06222-.30731,1.50471,1.50471,0,0,1,.17183-.31819,1.77963,1.77963,0,0,1,.267-.29984,1.89256,1.89256,0,0,1,.35475-.2524,1.99852,1.99852,0,0,1-.76441-.79007,2.38987,2.38987,0,0,1-.267-1.14851,2.46824,2.46824,0,0,1,.16827-.92542,1.995,1.995,0,0,1,.48635-.72053,2.2687,2.2687,0,0,1,.76462-.46821A2.84593,2.84593,0,0,1,81.91545,7.63083Zm3.04316,7.85666a1,1,0,0,0-.20116-.65472,1.31333,1.31333,0,0,0-.53767-.38043,3.01156,3.01156,0,0,0-.768-.18649q-.43184-.05106-.89976-.07679-.46832-.02562-.92911-.04757a6.1747,6.1747,0,0,1-.84865-.09514,4.50318,4.50318,0,0,0-.63637.28529,2.14941,2.14941,0,0,0-.501.3731,1.63212,1.63212,0,0,0-.32563.46821,1.36731,1.36731,0,0,0,.08046,1.26187,1.82012,1.82012,0,0,0,.55968.56691,2.95913,2.95913,0,0,0,.88154.38041,4.53224,4.53224,0,0,0,1.17029.13905,4.09507,4.09507,0,0,0,1.112-.15,3.40005,3.40005,0,0,0,.94357-.417,2.22022,2.22022,0,0,0,.65481-.64A1.47478,1.47478,0,0,0,84.95861,15.48749Zm-3.04316-3.43817a2.74192,2.74192,0,0,0,.9511-.15359,1.97488,1.97488,0,0,0,.70594-.43532,1.88679,1.88679,0,0,0,.44255-.6766,2.38153,2.38153,0,0,0,.15361-.87056,2.33153,2.33153,0,0,0-.15737-.87053,1.90113,1.90113,0,0,0-.44989-.67661,2.01046,2.01046,0,0,0-.7095-.43532,2.931,2.931,0,0,0-1.87268,0,2.01126,2.01126,0,0,0-.70971.43532,1.904,1.904,0,0,0-.44989.67661,2.48973,2.48973,0,0,0,0,1.74109,1.904,1.904,0,0,0,.44989.6766,2.00961,2.00961,0,0,0,.70971.43532A2.694,2.694,0,0,0,81.91545,12.04932Z"/><path style="fill:#8d8d8e;" d="M89.47927,7.63083A3.19344,3.19344,0,0,1,90.818,7.8979a2.72652,2.72652,0,0,1,.98381.74984,3.29233,3.29233,0,0,1,.60348,1.16672,5.27751,5.27751,0,0,1,.20493,1.51792,5.20117,5.20117,0,0,1-.20493,1.51068,3.2986,3.2986,0,0,1-.60348,1.15941,2.65346,2.65346,0,0,1-.98381.7425,3.58916,3.58916,0,0,1-2.68107,0,2.658,2.658,0,0,1-.98022-.7425,3.29148,3.29148,0,0,1-.60348-1.15941,5.2005,5.2005,0,0,1-.20494-1.51068,5.27643,5.27643,0,0,1,.20494-1.51792,3.2854,3.2854,0,0,1,.60348-1.16672,2.73168,2.73168,0,0,1,.98022-.74984A3.1854,3.1854,0,0,1,89.47927,7.63083Zm0,7.2275a3.04743,3.04743,0,0,0,1.28742-.25594,2.516,2.516,0,0,0,.92552-.717,3.13969,3.13969,0,0,0,.55594-1.11192,5.6755,5.6755,0,0,0,0-2.8858,3.21632,3.21632,0,0,0-.55594-1.12293,2.51913,2.51913,0,0,0-.92552-.72785,3.33011,3.33011,0,0,0-2.57862,0,2.52547,2.52547,0,0,0-.92178.72785,3.21265,3.21265,0,0,0-.55591,1.12293,5.67484,5.67484,0,0,0,0,2.8858,3.13631,3.13631,0,0,0,.55591,1.11192,2.52219,2.52219,0,0,0,.92178.717A3.04092,3.04092,0,0,0,89.47927,14.85833Z"/><path style="fill:#8d8d8e;"  d="M93.48821,7.748h.10246a.11124.11124,0,0,1,.08781.03291.23538.23538,0,0,1,.04379.06946l2.85312,6.56911c.01927.04391.0377.08781.05489.13171a.85562.85562,0,0,1,.04023.139.81445.81445,0,0,1,.04023-.139q.02546-.06585.0547-.13171l2.85312-6.56911c.034-.06821.078-.10237.1316-.10237h.10246l-3.11629,7.169h-.13181Z"/><path style="fill:#8d8d8e;"  d="M100.072,14.5658a.47691.47691,0,0,1,.13535-.34018.4409.4409,0,0,1,.333-.14269.48727.48727,0,0,1,.48278.48287.44044.44044,0,0,1-.14271.33276.47721.47721,0,0,1-.34007.13537.46229.46229,0,0,1-.46832-.45618q-.00008-.006,0-.012Z"/><path style="fill:#8d8d8e;"  d="M103.18808,17.55041V7.748h.044c.06811,0,.10246.03909.10246.117l.0218,1.36065a3.80153,3.80153,0,0,1,1.16694-1.16681,2.77792,2.77792,0,0,1,1.50324-.428,2.6017,2.6017,0,0,1,2.12873.89622,4.29136,4.29136,0,0,1,.73885,2.76144,5.0991,5.0991,0,0,1-.20116,1.45946,3.4892,3.4892,0,0,1-.59614,1.17771,2.81239,2.81239,0,0,1-.984.79009,3.06069,3.06069,0,0,1-1.36433.289,2.63708,2.63708,0,0,1-2.38477-1.28022v3.82592Zm2.83844-9.77321a2.65964,2.65964,0,0,0-1.48146.44623,3.96979,3.96979,0,0,0-1.18138,1.23629v4.03072a2.86558,2.86558,0,0,0,1.046,1.06071,2.80971,2.80971,0,0,0,1.33875.30718,2.92712,2.92712,0,0,0,1.30943-.27429,2.59065,2.59065,0,0,0,.92534-.75707,3.32511,3.32511,0,0,0,.55235-1.13393,5.17422,5.17422,0,0,0,.18292-1.40456,4.23235,4.23235,0,0,0-.68394-2.64808A2.40913,2.40913,0,0,0,106.02652,7.7772Z"/><path style="fill:#8d8d8e;"  d="M112.581,15.03393a1.36763,1.36763,0,0,1-.98756-.34376,1.519,1.519,0,0,1-.35852-1.13392V8.20152h-1.185c-.06851,0-.10246-.02442-.10246-.07324v-.0439l1.28743-.02922.05844-2.88224a.13986.13986,0,0,1,.01846-.06948.059.059,0,0,1,.05488-.03289h.0438V8.05516h2.44325v.14636h-2.44325v5.35473a1.825,1.825,0,0,0,.09136.61813,1.07269,1.07269,0,0,0,.25251.40966.9825.9825,0,0,0,.373.23039,1.38073,1.38073,0,0,0,.45365.07323,1.40082,1.40082,0,0,0,.53769-.09512,2.14926,2.14926,0,0,0,.3912-.20483,2.0105,2.0105,0,0,0,.25982-.20483c.06581-.06327.11338-.09514.14271-.09514a.08472.08472,0,0,1,.05845.02936L114,14.34632a1.56439,1.56439,0,0,1-.267.27429,1.791,1.791,0,0,1-.34384.2195,1.94809,1.94809,0,0,1-.395.14258A1.72648,1.72648,0,0,1,112.581,15.03393Z"/><rect style="fill:rgba(141,141,142, 0.6)"  x="1" y="1" width="74.45591" height="0.21457"/><rect style="fill:rgba(141,141,142, 0.6)"  x="1" y="19.88219" width="74.45591" height="0.21457"/></svg>