<svg xmlns="http://www.w3.org/2000/svg" viewBox="0 0 115 33"><defs><style>.a,.b{fill:#8d8d8e;}.a{opacity:0.8;isolation:isolate;}</style></defs><title>logo_uniao_europeia</title><path class="a" d="M53.66269,2.18309h.46169V4.20062a2.48971,2.48971,0,0,1-.11649.83752,1.06014,1.06014,0,0,1-.43421.50176,1.518,1.518,0,0,1-.81334.19506,1.64862,1.64862,0,0,1-.80352-.16973.94986.94986,0,0,1-.44625-.48859,2.336,2.336,0,0,1-.13306-.876V2.18309h.46285V4.19836a2.01434,2.01434,0,0,0,.08349.67048.63972.63972,0,0,0,.28906.33305,1.005,1.005,0,0,0,.50456.11593.97656.97656,0,0,0,.72868-.22972,1.34765,1.34765,0,0,0,.21655-.88974Z"/><path class="a" d="M54.88718,5.67452V2.18309h.476l1.829,2.74182V2.18309h.44729V5.67452h-.47475L55.33017,2.92888V5.67452Z"/><path class="a" d="M58.49679,5.67452V2.18309h.46167V5.67452Z"/><path class="a" d="M59.38606,5.67452l1.34423-3.49143h.49681l1.43,3.49143h-.5254l-.40993-1.05734H60.25992l-.38144,1.05734Zm.84088-3.70528a.56953.56953,0,0,1,.13406-.39675.45613.45613,0,0,1,.34846-.1479.97806.97806,0,0,1,.4034.12978.55355.55355,0,0,0,.22094.07192.17085.17085,0,0,0,.122-.04119.372.372,0,0,0,.056-.16759h.311a.60666.60666,0,0,1-.13957.40722.43227.43227,0,0,1-.32753.1363.88154.88154,0,0,1-.39686-.13518.59219.59219,0,0,0-.23411-.083.17794.17794,0,0,0-.13405.05436.27154.27154,0,0,0-.0484.172Zm.1703,2.27145h1.18047L61.21618,3.274c-.11323-.29456-.19235-.53475-.24739-.72485a4.23159,4.23159,0,0,1-.189.66711Z"/><path class="a" d="M62.88469,3.97529a1.90031,1.90031,0,0,1,.466-1.36247,1.59877,1.59877,0,0,1,1.20692-.49129,1.66416,1.66416,0,0,1,.87049.23084,1.48691,1.48691,0,0,1,.59248.64348,2.08007,2.08007,0,0,1,.20226.93982,2.04083,2.04083,0,0,1-.2143.94917,1.4311,1.4311,0,0,1-.60453.63525,1.736,1.736,0,0,1-.8464.21487,1.64537,1.64537,0,0,1-.88265-.23682,1.54213,1.54213,0,0,1-.59024-.65461A1.97045,1.97045,0,0,1,62.88469,3.97529Zm.477.0054a1.4185,1.4185,0,0,0,.33744.99644A1.12387,1.12387,0,0,0,64.55,5.3382a1.10907,1.10907,0,0,0,.86056-.36434,1.48465,1.48465,0,0,0,.33643-1.042,1.83174,1.83174,0,0,0-.1407-.74409,1.12006,1.12006,0,0,0-1.04866-.66947,1.18315,1.18315,0,0,0-.84191.33743,1.50581,1.50581,0,0,0-.354,1.125Z"/><path class="a" d="M68.187,5.67452V2.18309h2.52481v.41219h-2.062V3.66477h1.93446v.4099H68.6498V5.26459h2.14v.40993Z"/><path class="a" d="M73.72239,2.18309H74.184V4.20062a2.34258,2.34258,0,0,1-.12088.83752,1.00771,1.00771,0,0,1-.42861.50176,1.5263,1.5263,0,0,1-.81343.19506,1.64625,1.64625,0,0,1-.80352-.16973.9565.9565,0,0,1-.44729-.48859,2.33911,2.33911,0,0,1-.13191-.876V2.18309h.45832V4.19836a2.02435,2.02435,0,0,0,.0869.67048.64621.64621,0,0,0,.29017.33305,1.22424,1.22424,0,0,0,1.2344-.11379,1.36285,1.36285,0,0,0,.21428-.88975Z"/><path class="a" d="M74.96005,5.67452V2.18309h1.54874a2.036,2.036,0,0,1,.709.09343.80007.80007,0,0,1,.39236.33192,1.02153,1.02153,0,0,1,.14283.52766.88081.88081,0,0,1-.23951.62647,1.23415,1.23415,0,0,1-.74533.32427,1.15034,1.15034,0,0,1,.27925.17367,2.472,2.472,0,0,1,.38582.46271l.60453.95131h-.58044l-.46271-.72485c-.13405-.20991-.24515-.37154-.33305-.4815a1.07151,1.07151,0,0,0-.233-.233.64435.64435,0,0,0-.21216-.09342,1.27835,1.27835,0,0,0-.25719-.017h-.53642V5.67453Zm.46268-1.95045h.99475a1.48354,1.48354,0,0,0,.49242-.066.51266.51266,0,0,0,.27485-.20935.56585.56585,0,0,0,.09444-.31267.5219.5219,0,0,0-.18245-.40677.83194.83194,0,0,0-.5693-.15938H75.42273Z"/><path class="a" d="M78.33667,3.97529a1.88371,1.88371,0,0,1,.47144-1.36247,1.58089,1.58089,0,0,1,1.20253-.49129,1.65809,1.65809,0,0,1,.86948.23084,1.50578,1.50578,0,0,1,.59462.64348,2.11018,2.11018,0,0,1,.20226.93982,2.1227,2.1227,0,0,1-.2089.94917,1.51314,1.51314,0,0,1-.61105.63525,1.75464,1.75464,0,0,1-.84641.21487,1.65252,1.65252,0,0,1-.88478-.23682,1.53718,1.53718,0,0,1-.58809-.65461A1.97116,1.97116,0,0,1,78.33667,3.97529Zm.47585.0054a1.41944,1.41944,0,0,0,.33969.99644,1.192,1.192,0,0,0,1.68562.02373l.02688-.027a1.47969,1.47969,0,0,0,.33744-1.042,1.63444,1.63444,0,0,0-.15172-.74409,1.06369,1.06369,0,0,0-.41767-.49468,1.1174,1.1174,0,0,0-.62211-.17479,1.184,1.184,0,0,0-.843.33743,1.50127,1.50127,0,0,0-.3551,1.125Z"/><path class="a" d="M82.2738,5.67452V2.18309h1.319a3.18378,3.18378,0,0,1,.52867.033,1.04691,1.04691,0,0,1,.431.16377.84444.84444,0,0,1,.2824.33687,1.10777,1.10777,0,0,1,.10332.47644,1.06233,1.06233,0,0,1-.28464.75411,1.35155,1.35155,0,0,1-1.0178.30941h-.89911V5.67452Zm.4628-1.83058h.90234a.97775.97775,0,0,0,.63863-.16658.61256.61256,0,0,0,.18583-.47047.60307.60307,0,0,0-.11323-.372A.51152.51152,0,0,0,84.0589,2.625a2.18092,2.18092,0,0,0-.42987-.02971h-.89244Z"/><path class="a" d="M85.53942,5.67452V2.18309h2.52694v.41219H85.99773V3.66477h1.93571v.4099H85.99773V5.26459H88.139v.40993Z"/><path class="a" d="M88.86325,5.67452V2.18309h.45505V5.67452Z"/><path class="a" d="M89.75254,5.67452l1.34211-3.49143h.49679l1.431,3.49143H92.4982l-.40994-1.05733H90.62742l-.378,1.05733Zm1.01008-1.43383h1.185L91.57928,3.274c-.111-.29456-.19234-.53475-.24514-.72485a4.35063,4.35063,0,0,1-.18785.66711Z"/><path class="a" d="M51.3918,23.23968V19.74656h2.361v.41431H51.85237v1.07827h1.641v.41329h-1.641v1.58725Z"/><path class="a" d="M55.95113,23.23968v-.37482a.91317.91317,0,0,1-.80014.432.99639.99639,0,0,1-.41882-.088.69361.69361,0,0,1-.289-.211.90358.90358,0,0,1-.12977-.322,1.91949,1.91949,0,0,1-.02848-.39675V20.71047h.42973v1.40141a2.25916,2.25916,0,0,0,.02746.45292.46266.46266,0,0,0,.167.26821.55568.55568,0,0,0,.32652.0978.71.71,0,0,0,.36051-.10006.55592.55592,0,0,0,.2429-.27261,1.38239,1.38239,0,0,0,.06709-.49129V20.71046h.432v2.52919Z"/><path class="a" d="M57.00745,23.23968V20.71049h.38471v.35938a.9226.9226,0,0,1,.80791-.421,1.03734,1.03734,0,0,1,.421.0869.68459.68459,0,0,1,.288.2143.93707.93707,0,0,1,.13293.31876,2.98326,2.98326,0,0,1,.02208.41442v1.55638h-.432V21.703a1.11574,1.11574,0,0,0-.04626-.3945.40678.40678,0,0,0-.17468-.20451.55681.55681,0,0,0-.30007-.078.68574.68574,0,0,0-.476.17367.8534.8534,0,0,0-.2.65731v1.38272Z"/><path class="a" d="M61.36227,23.23968v-.31876a.785.785,0,0,1-.70445.37593,1.01848,1.01848,0,0,1-.5584-.166,1.07418,1.07418,0,0,1-.39248-.465,1.58833,1.58833,0,0,1-.13957-.688,1.73587,1.73587,0,0,1,.12753-.687.98927.98927,0,0,1,.94083-.64189.83817.83817,0,0,1,.69806.354V19.74657h.42748v3.49311Zm-1.3574-1.26185a1.07373,1.07373,0,0,0,.20992.72654.60733.60733,0,0,0,.47812.23962.625.625,0,0,0,.48153-.22859,1.07031,1.07031,0,0,0,.19222-.70459,1.19388,1.19388,0,0,0-.19888-.765.62324.62324,0,0,0-.4913-.23962.59946.59946,0,0,0-.47812.233,1.1605,1.1605,0,0,0-.19349.73869Z"/><path class="a" d="M62.27576,21.97558a1.30064,1.30064,0,0,1,.39237-1.03978,1.17613,1.17613,0,0,1,.79248-.28689,1.1417,1.1417,0,0,1,.85295.34407,1.298,1.298,0,0,1,.333.94636,1.75585,1.75585,0,0,1-.14393.77054,1.09036,1.09036,0,0,1-.42761.43412,1.34082,1.34082,0,0,1-.61443.15285,1.12344,1.12344,0,0,1-.85957-.34295A1.36121,1.36121,0,0,1,62.27576,21.97558Zm.4418,0a1.06375,1.06375,0,0,0,.21214.72766.67115.67115,0,0,0,.53092.24075.66259.66259,0,0,0,.532-.24514,1.07691,1.07691,0,0,0,.2143-.73757,1.05432,1.05432,0,0,0-.2143-.7155.69288.69288,0,0,0-.532-.23963.67716.67716,0,0,0-.53092.23963A1.07005,1.07005,0,0,0,62.71756,21.97558Z"/><path class="a" d="M64.97852,22.48567l.42107-.066a.58605.58605,0,0,0,.2.39237.72628.72628,0,0,0,.45393.13191.64559.64559,0,0,0,.43863-.12314.34362.34362,0,0,0,.14722-.277.27038.27038,0,0,0-.12753-.233,2.10724,2.10724,0,0,0-.43738-.14294,3.676,3.676,0,0,1-.654-.20665.63437.63437,0,0,1-.37593-.58033.65463.65463,0,0,1,.07913-.3111.8031.8031,0,0,1,.21-.2429.9731.9731,0,0,1,.27587-.122,1.32677,1.32677,0,0,1,.366-.056,1.439,1.439,0,0,1,.52539.09016.662.662,0,0,1,.33305.233.94833.94833,0,0,1,.14947.38471l-.41992.06483a.46768.46768,0,0,0-.16592-.30446.59352.59352,0,0,0-.3891-.11311.69342.69342,0,0,0-.41994.09995.29.29,0,0,0-.1264.22972.21666.21666,0,0,0,.05392.14733.38047.38047,0,0,0,.16051.11323c.045.0197.1714.05268.38131.111a5.9598,5.9598,0,0,1,.63311.1946.72629.72629,0,0,1,.2825.22748.63428.63428,0,0,1,.10332.37266.69129.69129,0,0,1-.12639.39675.75623.75623,0,0,1-.35939.29681,1.28038,1.28038,0,0,1-.53317.10332,1.21271,1.21271,0,0,1-.75073-.20113A.95982.95982,0,0,1,64.97852,22.48567Z"/><path class="a" d="M69.00694,23.23968V19.74656h2.5248v.41431h-2.062V21.226h1.93334v.40891H69.46975v1.19363h2.14438v.41117Z"/><path class="a" d="M73.85318,23.23968v-.37482a.91743.91743,0,0,1-.80353.432.98454.98454,0,0,1-.41543-.088.67.67,0,0,1-.288-.211.86948.86948,0,0,1-.13292-.322,2.0147,2.0147,0,0,1-.02746-.39675V20.71047h.42975v1.40141a1.98134,1.98134,0,0,0,.0297.45292.43651.43651,0,0,0,.17029.26821.53809.53809,0,0,0,.321.0978.70864.70864,0,0,0,.36164-.10006.54894.54894,0,0,0,.24179-.27261,1.32811,1.32811,0,0,0,.06919-.49129V20.71046H74.239v2.52919Z"/><path class="a" d="M74.90285,23.23968V20.71049h.388v.38257a1.09923,1.09923,0,0,1,.27486-.354.46854.46854,0,0,1,.27362-.09015.81775.81775,0,0,1,.44188.14294l-.14944.39788a.58275.58275,0,0,0-.31214-.09668.422.422,0,0,0-.25392.08678.467.467,0,0,0-.16163.23411,1.73121,1.73121,0,0,0-.07032.49794v1.32779Z"/><path class="a" d="M76.37572,21.97558a1.29706,1.29706,0,0,1,.39237-1.03978,1.17576,1.17576,0,0,1,.79474-.28689,1.13743,1.13743,0,0,1,.85181.34407,1.30263,1.30263,0,0,1,.33305.94636,1.72145,1.72145,0,0,1-.14622.77054,1.07933,1.07933,0,0,1-.42645.43412,1.34186,1.34186,0,0,1-.61218.15285,1.1261,1.1261,0,0,1-.86071-.34295A1.35226,1.35226,0,0,1,76.37572,21.97558Zm.44077,0a1.06388,1.06388,0,0,0,.21216.72766.70641.70641,0,0,0,1.06622-.00439,1.10646,1.10646,0,0,0,.20879-.73757,1.05947,1.05947,0,0,0-.21329-.7155.70782.70782,0,0,0-1.06172,0A1.07017,1.07017,0,0,0,76.81649,21.97558Z"/><path class="a" d="M79.25,24.20583V20.71047h.38911V21.038a.95638.95638,0,0,1,.31324-.289.82033.82033,0,0,1,.42106-.10006,1.01025,1.01025,0,0,1,.94635.6419,1.78578,1.78578,0,0,1,.12416.66508,1.72574,1.72574,0,0,1-.13518.69795,1.0939,1.0939,0,0,1-.40554.477,1.07087,1.07087,0,0,1-.56063.166.845.845,0,0,1-.38246-.088.9371.9371,0,0,1-.28251-.233v1.23Zm.388-2.216a1.0995,1.0995,0,0,0,.19686.72.61237.61237,0,0,0,.9683-.00665,1.15519,1.15519,0,0,0,.20226-.74848,1.17119,1.17119,0,0,0-.19562-.72878.59616.59616,0,0,0-.96176.0198A1.12284,1.12284,0,0,0,79.638,21.98987Z"/><path class="a" d="M83.69174,22.42185l.443.05831a1.05867,1.05867,0,0,1-.38472.60565,1.19448,1.19448,0,0,1-.72653.211,1.136,1.136,0,0,1-.87826-.34295,1.32871,1.32871,0,0,1-.32316-.95626,1.39533,1.39533,0,0,1,.32967-.99363,1.18091,1.18091,0,0,1,1.67-.01836l.01182.01172a1.38729,1.38729,0,0,1,.32089.96943c0,.02858-.00437.0682-.00437.11649H82.265a.92953.92953,0,0,0,.23749.63863.68461.68461,0,0,0,.52542.22207.65135.65135,0,0,0,.4-.12314A.75692.75692,0,0,0,83.69174,22.42185Zm-1.40468-.68692h1.4157a.8307.8307,0,0,0-.16714-.47925.64764.64764,0,0,0-.53081-.25167.67879.67879,0,0,0-.49577.2A.77014.77014,0,0,0,82.28706,21.73493Z"/><path class="a" d="M86.33743,23.23968v-.37482a.9273.9273,0,0,1-.80792.432.97973.97973,0,0,1-.41431-.088.72561.72561,0,0,1-.29354-.211.92145.92145,0,0,1-.12527-.322,1.80107,1.80107,0,0,1-.03082-.39675V20.71047h.42983v1.40141a2.45015,2.45015,0,0,0,.02746.45292.46333.46333,0,0,0,.17141.26821.53792.53792,0,0,0,.32314.0978.7033.7033,0,0,0,.3595-.10006.5293.5293,0,0,0,.23966-.27261,1.29439,1.29439,0,0,0,.07358-.49129V20.71046h.4276v2.52919Z"/><path class="a" d="M87.21782,22.48567l.42647-.066a.59522.59522,0,0,0,.20011.39237.69414.69414,0,0,0,.45392.13191.65608.65608,0,0,0,.43964-.12314.355.355,0,0,0,.1407-.277.26562.26562,0,0,0-.12964-.233,1.99473,1.99473,0,0,0-.43641-.14294,3.71709,3.71709,0,0,1-.65292-.20665.67451.67451,0,0,1-.27813-.23738.68477.68477,0,0,1-.09116-.343.63922.63922,0,0,1,.07586-.3111.73269.73269,0,0,1,.2143-.2429.9321.9321,0,0,1,.27036-.122,1.31955,1.31955,0,0,1,.36929-.056,1.4475,1.4475,0,0,1,.52327.09016.67109.67109,0,0,1,.33307.233.81128.81128,0,0,1,.145.38471l-.41769.06483a.45534.45534,0,0,0-.16264-.30446.60673.60673,0,0,0-.38809-.11311.68515.68515,0,0,0-.42208.09995.29262.29262,0,0,0-.12853.22972.20915.20915,0,0,0,.056.14733.37109.37109,0,0,0,.16151.11323c.04513.0197.16714.05268.38032.111.3012.08238.51336.14621.63314.1946a.67348.67348,0,0,1,.28034.22748.59619.59619,0,0,1,.10107.37266.71708.71708,0,0,1-.11874.39675.81153.81153,0,0,1-.36377.29681,1.27109,1.27109,0,0,1-.53205.10332,1.21671,1.21671,0,0,1-.754-.20113A1.01234,1.01234,0,0,1,87.21782,22.48567Z"/><path class="a" d="M51.37975,29.09044V25.60172h2.52146v.41H51.84246v1.07275h1.93132v.40891H51.84246v1.18812h2.14123v.4089Z"/><path class="a" d="M54.398,28.33645l.42208-.066a.57079.57079,0,0,0,.20125.39135.67206.67206,0,0,0,.4528.13956.68053.68053,0,0,0,.443-.12313.36625.36625,0,0,0,.14285-.2825.25775.25775,0,0,0-.12969-.22634,1.6,1.6,0,0,0-.43421-.14509,4.44813,4.44813,0,0,1-.65394-.20664.58089.58089,0,0,1-.277-.243.60533.60533,0,0,1-.09891-.33957.669.669,0,0,1,.07685-.3111.7117.7117,0,0,1,.21329-.23963.92638.92638,0,0,1,.27376-.1264,1.29826,1.29826,0,0,1,.36814-.04941,1.44352,1.44352,0,0,1,.52428.08577.71909.71909,0,0,1,.332.23186.92769.92769,0,0,1,.15161.3891l-.42208.0583a.44227.44227,0,0,0-.167-.30345.58781.58781,0,0,0-.388-.10872.70647.70647,0,0,0-.42208.09668.2846.2846,0,0,0-.12539.22747.22839.22839,0,0,0,.05507.15172.38075.38075,0,0,0,.16149.111,3.60609,3.60609,0,0,0,.38032.11109,4.59541,4.59541,0,0,1,.6375.20226.61018.61018,0,0,1,.277.222.6007.6007,0,0,1,.10659.366.72674.72674,0,0,1-.12966.40666.79313.79313,0,0,1-.35939.29027,1.30643,1.30643,0,0,1-.532.10434,1.1764,1.1764,0,0,1-.75288-.20665A.92452.92452,0,0,1,54.398,28.33645Z"/><path class="a" d="M57.945,28.71125l.06045.37807a1.78685,1.78685,0,0,1-.32427.04187.78926.78926,0,0,1-.36265-.07587.40353.40353,0,0,1-.17705-.19786,1.37536,1.37536,0,0,1-.05492-.50447V26.89654h-.31549v-.33518h.31549v-.6222l.42649-.26157v.88377h.432v.33518h-.432V28.3782a.88118.88118,0,0,0,.022.23524.18453.18453,0,0,0,.07688.08238.29157.29157,0,0,0,.144.02859A1.15725,1.15725,0,0,0,57.945,28.71125Z"/><path class="a" d="M58.3606,29.09044V26.56136H58.743v.38685a1.04374,1.04374,0,0,1,.277-.35388.45572.45572,0,0,1,.27477-.08576.85952.85952,0,0,1,.43973.13405l-.1506.40013a.62087.62087,0,0,0-.3111-.0923.395.395,0,0,0-.2528.08352.44646.44646,0,0,0-.16162.23737,1.6313,1.6313,0,0,0-.07249.49907v1.32Z"/><path class="a" d="M61.64478,29.09044v-.367a.91338.91338,0,0,1-.799.42748,1.0249,1.0249,0,0,1-.42109-.08351.66638.66638,0,0,1-.28679-.21655.73856.73856,0,0,1-.133-.3209,2.3125,2.3125,0,0,1-.02746-.39574V26.56136H60.406v1.40793a2.25835,2.25835,0,0,0,.02971.45292.42846.42846,0,0,0,.16929.26371.5342.5342,0,0,0,.32539.09355.67266.67266,0,0,0,.35939-.09792.54114.54114,0,0,0,.2429-.26811,1.37993,1.37993,0,0,0,.0682-.4958V26.56137h.42973v2.52908Z"/><path class="a" d="M63.63868,28.71125l.06044.37807a1.76565,1.76565,0,0,1-.322.04187.76609.76609,0,0,1-.36054-.07587.41492.41492,0,0,1-.18244-.19786,1.42466,1.42466,0,0,1-.055-.50447V26.89654h-.31437v-.33518h.31437v-.6222l.42646-.26157v.88377h.43311v.33518h-.43311V28.3782a.88079.88079,0,0,0,.02206.23524.19354.19354,0,0,0,.078.08238.30539.30539,0,0,0,.14508.02859A1.15383,1.15383,0,0,0,63.63868,28.71125Z"/><path class="a" d="M65.71609,29.09044v-.367a.91824.91824,0,0,1-.80353.42748,1.00416,1.00416,0,0,1-.41656-.08351.67447.67447,0,0,1-.289-.21655.75134.75134,0,0,1-.13192-.3209,2.3125,2.3125,0,0,1-.02746-.39574V26.56136h.42861v1.40793a2.42993,2.42993,0,0,0,.02647.45292.43221.43221,0,0,0,.17253.26371.53015.53015,0,0,0,.32539.09355.68179.68179,0,0,0,.36051-.09792.53226.53226,0,0,0,.2385-.26811,1.395,1.395,0,0,0,.07035-.4958V26.56137h.42761v2.52908Z"/><path class="a" d="M66.76577,29.09044V26.56136h.3847v.38685a1.02989,1.02989,0,0,1,.27486-.35388.46285.46285,0,0,1,.27249-.08576.85825.85825,0,0,1,.443.13405l-.14734.40013a.64676.64676,0,0,0-.31211-.0923.39781.39781,0,0,0-.25606.08352.44783.44783,0,0,0-.15834.23737,1.59721,1.59721,0,0,0-.07138.49907v1.32Z"/><path class="a" d="M70.04784,28.77945a1.50726,1.50726,0,0,1-.46046.28792,1.2732,1.2732,0,0,1-.47272.08351.9177.9177,0,0,1-.64077-.20439.67373.67373,0,0,1-.22421-.51989.72864.72864,0,0,1,.30884-.58809.96631.96631,0,0,1,.30773-.13957,3.29378,3.29378,0,0,1,.38144-.06044,3.99706,3.99706,0,0,0,.765-.14947v-.11109a.48.48,0,0,0-.122-.37042.71214.71214,0,0,0-.48691-.144.748.748,0,0,0-.44737.10332.64852.64852,0,0,0-.21107.37155l-.41983-.05167a.991.991,0,0,1,.188-.43524.80049.80049,0,0,1,.37694-.2528,1.62273,1.62273,0,0,1,.57492-.09015,1.46442,1.46442,0,0,1,.52642.078.71235.71235,0,0,1,.30007.18582.74538.74538,0,0,1,.12977.29118,2.36318,2.36318,0,0,1,.02195.399v.57605a5.39042,5.39042,0,0,0,.02858.75063.88423.88423,0,0,0,.10772.30119H70.1336A.75771.75771,0,0,1,70.04784,28.77945Zm-.03512-.953a3.29687,3.29687,0,0,1-.70233.15713,1.94071,1.94071,0,0,0-.37155.0869.35465.35465,0,0,0-.1715.14181.35076.35076,0,0,0-.06046.2044.376.376,0,0,0,.13191.288.56691.56691,0,0,0,.37818.10985.93049.93049,0,0,0,.44076-.10546.69383.69383,0,0,0,.28468-.29793,1.0619,1.0619,0,0,0,.07032-.42973Z"/><path class="a" d="M71.11079,26.09415v-.49242h.42649v.49242Zm0,2.99629V26.56136h.42649v2.52908Z"/><path class="a" d="M72.023,28.33645l.42208-.066a.57421.57421,0,0,0,.20011.39135.67648.67648,0,0,0,.45506.13956.66738.66738,0,0,0,.43738-.12313.35863.35863,0,0,0,.14508-.2825.25544.25544,0,0,0-.12964-.22634,1.564,1.564,0,0,0-.43752-.14509,4.49327,4.49327,0,0,1-.6518-.20664.604.604,0,0,1-.278-.243.638.638,0,0,1-.09353-.33957.61072.61072,0,0,1,.08025-.3111.65133.65133,0,0,1,.20668-.23963.90367.90367,0,0,1,.27585-.1264,1.27659,1.27659,0,0,1,.365-.04941,1.45157,1.45157,0,0,1,.52642.08577.69672.69672,0,0,1,.332.23186.85835.85835,0,0,1,.1461.3891l-.4187.0583a.45737.45737,0,0,0-.1649-.30345.58327.58327,0,0,0-.38583-.10872.71306.71306,0,0,0-.42321.09668.27629.27629,0,0,0-.123.22747.24652.24652,0,0,0,.04727.15172.418.418,0,0,0,.167.111,3.4299,3.4299,0,0,0,.38032.11109,4.48359,4.48359,0,0,1,.63312.20226.6.6,0,0,1,.28138.222.63859.63859,0,0,1,.10444.366.69825.69825,0,0,1-.1264.40666.80575.80575,0,0,1-.36163.29027,1.31592,1.31592,0,0,1-.53092.10434,1.18772,1.18772,0,0,1-.75512-.20665A.9365.9365,0,0,1,72.023,28.33645Z"/><path class="a" d="M77.72334,28.28152l.44076.0538a1.06743,1.06743,0,0,1-.38906.60126,1.14818,1.14818,0,0,1-.72555.2143,1.16389,1.16389,0,0,1-.87927-.33844,1.33928,1.33928,0,0,1-.32539-.96076,1.38583,1.38583,0,0,1,.32866-.99025,1.11492,1.11492,0,0,1,.85519-.35286,1.06373,1.06373,0,0,1,.82547.344,1.3773,1.3773,0,0,1,.322.97393c0,.02521,0,.06044-.00113.111H76.289a.98489.98489,0,0,0,.23738.643.70575.70575,0,0,0,.52653.22094.66044.66044,0,0,0,.40227-.12639A.84418.84418,0,0,0,77.72334,28.28152Zm-1.40918-.69693h1.41133a.88064.88064,0,0,0-.16266-.47915.65172.65172,0,0,0-.52765-.244.68443.68443,0,0,0-.50121.19776A.75788.75788,0,0,0,76.31416,27.58459Z"/><path class="a" d="M81.70009,29.09044v-.31762a.78888.78888,0,0,1-.71009.37806.97655.97655,0,0,1-.55613-.1659,1.14279,1.14279,0,0,1-.39135-.46384,1.6084,1.6084,0,0,1-.1407-.69355,1.78981,1.78981,0,0,1,.1264-.68592.99919.99919,0,0,1,.94534-.63311.8299.8299,0,0,1,.40441.09556.86455.86455,0,0,1,.29354.25279v-1.2552h.42421v3.48872Zm-1.35751-1.26285a1.125,1.125,0,0,0,.20552.73194.63177.63177,0,0,0,.48263.24187.60684.60684,0,0,0,.48027-.233,1.05637,1.05637,0,0,0,.19787-.70019,1.21433,1.21433,0,0,0-.2-.76278.618.618,0,0,0-.49679-.24188.58752.58752,0,0,0-.47714.23524A1.14286,1.14286,0,0,0,80.34258,27.82759Z"/><path class="a" d="M84.50291,28.28152l.443.0538a1.05969,1.05969,0,0,1-.39135.60126,1.14288,1.14288,0,0,1-.721.2143,1.17913,1.17913,0,0,1-.8815-.33844,1.35284,1.35284,0,0,1-.32314-.96076,1.38615,1.38615,0,0,1,.32967-.99025,1.103,1.103,0,0,1,.85191-.35286,1.08193,1.08193,0,0,1,.82874.344,1.37248,1.37248,0,0,1,.32314.97393c0,.02521,0,.06044-.00439.111H83.07181a1.00254,1.00254,0,0,0,.23524.643.71722.71722,0,0,0,.53089.22094.67584.67584,0,0,0,.40114-.12639A.82241.82241,0,0,0,84.50291,28.28152Zm-1.40906-.69693h1.41458a.86363.86363,0,0,0-.16163-.47915.655.655,0,0,0-.53081-.244.69522.69522,0,0,0-.50131.19776A.77827.77827,0,0,0,83.09385,27.58459Z"/><path class="a" d="M86.97269,29.09044V25.60172h.46285v3.48872Z"/><path class="a" d="M88.195,29.09044V26.56136h.38684v.36591a.89756.89756,0,0,1,.80353-.4187,1.03119,1.03119,0,0,1,.42208.08026.65627.65627,0,0,1,.2869.21756.76092.76092,0,0,1,.133.31223,2.62473,2.62473,0,0,1,.022.41982v1.552h-.42649V27.55274a1.12476,1.12476,0,0,0-.05054-.39023.37317.37317,0,0,0-.177-.20439.60119.60119,0,0,0-.2967-.08026.70149.70149,0,0,0-.476.17593.864.864,0,0,0-.19561.66159v1.37507Z"/><path class="a" d="M91.61114,29.09044l-.96391-2.52908h.45393l.54408,1.519c.05721.16591.111.33305.166.51111.03512-.13416.089-.29905.15713-.488l.56277-1.5421h.43752l-.95415,2.52908Z"/><path class="a" d="M95.07907,28.28152l.443.0538a1.05456,1.05456,0,0,1-.38808.60126,1.14388,1.14388,0,0,1-.71989.2143,1.18256,1.18256,0,0,1-.88591-.33844,1.36737,1.36737,0,0,1-.32213-.96076,1.40053,1.40053,0,0,1,.32866-.99025,1.10786,1.10786,0,0,1,.85192-.35286,1.04722,1.04722,0,0,1,.8221.344,1.33445,1.33445,0,0,1,.32538.97393c0,.02521,0,.06044-.00225.111H93.649a.98406.98406,0,0,0,.23412.643.72091.72091,0,0,0,.53092.22094.67567.67567,0,0,0,.40339-.12639A.853.853,0,0,0,95.07907,28.28152Zm-1.40369-.69693h1.4103a.90014.90014,0,0,0-.1605-.47915.65.65,0,0,0-.532-.244.67749.67749,0,0,0-.499.19776A.76212.76212,0,0,0,93.67538,27.58459Z"/><path class="a" d="M95.89134,28.33645l.42321-.066a.61528.61528,0,0,0,.19776.39135.68145.68145,0,0,0,.45945.13956.6558.6558,0,0,0,.43424-.12313.35769.35769,0,0,0,.144-.2825.26539.26539,0,0,0-.12525-.22634,1.6362,1.6362,0,0,0-.43966-.14509,4.79356,4.79356,0,0,1-.65406-.20664.61862.61862,0,0,1-.27474-.243.62886.62886,0,0,1-.09454-.33957.60968.60968,0,0,1,.08025-.3111.64457.64457,0,0,1,.212-.23963.92024.92024,0,0,1,.265-.1264,1.3565,1.3565,0,0,1,.37706-.04941,1.41323,1.41323,0,0,1,.51875.08577.69434.69434,0,0,1,.33305.23186.82211.82211,0,0,1,.144.3891l-.4122.0583a.44047.44047,0,0,0-.16929-.30345.5878.5878,0,0,0-.3847-.10872.7084.7084,0,0,0-.42321.09668.27869.27869,0,0,0-.12741.22747.241.241,0,0,0,.056.15172.34819.34819,0,0,0,.1659.111,2.97041,2.97041,0,0,0,.37481.11109,4.507,4.507,0,0,1,.63424.20226.64629.64629,0,0,1,.2858.222.62731.62731,0,0,1,.09567.366.764.764,0,0,1-.12316.40666.81126.81126,0,0,1-.36164.29027,1.29627,1.29627,0,0,1-.53091.10434,1.16665,1.16665,0,0,1-.75175-.20665A.92969.92969,0,0,1,95.89134,28.33645Z"/><path class="a" d="M99.4394,28.71125l.056.37807a1.71087,1.71087,0,0,1-.31763.04187.81148.81148,0,0,1-.366-.07587.44191.44191,0,0,1-.18133-.19786,1.561,1.561,0,0,1-.04952-.50447V26.89654h-.3165v-.33518h.3165v-.6222l.42647-.26157v.88377h.432v.33518h-.432V28.3782a.8255.8255,0,0,0,.01981.23524.18937.18937,0,0,0,.07587.08238.31162.31162,0,0,0,.14508.02859A1.22154,1.22154,0,0,0,99.4394,28.71125Z"/><path class="a" d="M99.85819,26.09415v-.49242h.42762v.49242Zm0,2.99629V26.56136h.42762v2.52908Z"/><path class="a" d="M100.93758,29.09044V26.56136h.3891v.35713a.86879.86879,0,0,1,.765-.40992.85955.85955,0,0,1,.46158.1121.66029.66029,0,0,1,.255.32979.90191.90191,0,0,1,.78034-.44189.75217.75217,0,0,1,.57492.20766.8765.8765,0,0,1,.20879.64088v1.73333h-.43083V27.49893a1.20663,1.20663,0,0,0-.04066-.36828.357.357,0,0,0-.14947-.18245.45564.45564,0,0,0-.25718-.07035.592.592,0,0,0-.44186.17806.76908.76908,0,0,0-.176.56941v1.4651h-.43409V27.44826a.75037.75037,0,0,0-.10121-.42861.4162.4162,0,0,0-.34622-.14181.6552.6552,0,0,0-.33518.09668.54809.54809,0,0,0-.221.27812,1.5788,1.5788,0,0,0-.07035.52867v1.30911Z"/><path class="a" d="M106.73557,28.28152l.443.0538a1.05216,1.05216,0,0,1-.39025.60126,1.30724,1.30724,0,0,1-1.59488-.12414,1.32844,1.32844,0,0,1-.33306-.96076,1.3875,1.3875,0,0,1,.33306-.99025,1.19022,1.19022,0,0,1,1.68279-.0089,1.38688,1.38688,0,0,1,.321.97393c0,.02521,0,.06044-.00326.111h-1.89167a1.05414,1.05414,0,0,0,.23735.643.711.711,0,0,0,.52878.22094.66387.66387,0,0,0,.40339-.12639A.79357.79357,0,0,0,106.73557,28.28152Zm-1.41018-.69693h1.418a.89879.89879,0,0,0-.16489-.47915.65435.65435,0,0,0-.532-.244.68788.68788,0,0,0-.49343.19776A.79346.79346,0,0,0,105.32539,27.58459Z"/><path class="a" d="M107.71716,29.09044V26.56136h.39022v.36591a.90332.90332,0,0,1,.80793-.4187,1.03674,1.03674,0,0,1,.41328.08026.654.654,0,0,1,.28793.21756.90045.90045,0,0,1,.13515.31223,2.59862,2.59862,0,0,1,.02645.41982v1.552H109.345V27.55274a1.11774,1.11774,0,0,0-.05166-.39023.399.399,0,0,0-.17582-.20439.57641.57641,0,0,0-.299-.08026.69923.69923,0,0,0-.47038.17593.85.85,0,0,0-.20011.66159v1.37507Z"/><path class="a" d="M111.36638,28.71125l.0637.37807a1.83994,1.83994,0,0,1-.322.04187.78.78,0,0,1-.36276-.07587.40754.40754,0,0,1-.18132-.19786,1.54224,1.54224,0,0,1-.0549-.50447V26.89654h-.30888v-.33518h.30888v-.6222l.4297-.26157v.88377h.4276v.33518h-.4276V28.3782a.56876.56876,0,0,0,.02533.23524.15172.15172,0,0,0,.066.08238.34109.34109,0,0,0,.155.02859A1.09644,1.09644,0,0,0,111.36638,28.71125Z"/><path class="a" d="M111.62908,27.82759a1.32385,1.32385,0,0,1,.388-1.042,1.19394,1.19394,0,0,1,.79586-.277,1.12652,1.12652,0,0,1,.85294.343,1.28761,1.28761,0,0,1,.33192.94084,1.60317,1.60317,0,0,1-.1506.76717,1.01171,1.01171,0,0,1-.4232.43862,1.25753,1.25753,0,0,1-.61106.15273,1.13053,1.13053,0,0,1-.85519-.33844A1.36948,1.36948,0,0,1,111.62908,27.82759Zm.44188,0a1.073,1.073,0,0,0,.211.73092.704.704,0,0,0,1.064,0,1.13541,1.13541,0,0,0,.21219-.74195,1.06206,1.06206,0,0,0-.21219-.71112.707.707,0,0,0-1.064-.00112A1.03816,1.03816,0,0,0,112.071,27.82759Z"/><path class="b" d="M1,1V31.28108H46.88755V1ZM33.77391,9.83653l.39912-.80877.39913.80877.8926.12969-.6459.62955.15248.889L34.173,11.065l-.79831.41972.15248-.889-.64589-.62955ZM11.6832,17.30442l.15248-.889-.64589-.62956.8926-.12968.39912-.80877.39912.80877.8926.12968-.64589.62956.15248.889-.79831-.41973Zm3.1838,5.55514-.7983-.41972-.79831.41972.15248-.889L12.777,21.341l.89259-.12969.39912-.80877.39912.80877.8926.12969-.64588.62955Zm-.15247-12.2638.15248.889-.7983-.41972-.79831.41972.15248-.889L12.777,9.96621l.89259-.12969.39912-.80877.39912.80877.8926.12969Zm4.385,16.4963-.79831-.41973-.7983.41973.15248-.889-.64589-.62955.8926-.12968.39912-.80877.39913.80878.8926.12968-.64589.62955ZM18.947,6.36327l.15248.889-.7983-.41973-.79831.41973.15248-.889-.64589-.62955.8926-.12969.39912-.80877.39913.80877.8926.12969Zm5.70762,22.5805-.79831-.41972-.7983.41972.15248-.889-.6459-.62955.8926-.12969.39912-.80877.39912.80877.8926.12969-.64589.62955ZM24.7667,4.77609l.15248.889-.7983-.41973-.79833.41972.15248-.889-.64588-.62954.89259-.12969.39912-.80877.39913.80877.89259.12969Zm4.5102,1.09248L29.676,5.0598l.39912.80877.8926.12968-.64589.62956.15248.889L29.676,7.09706l-.79831.41973.15248-.889-.64589-.62955Zm1.462,21.22348-.79831-.41972-.7983.41972.15247-.889-.64588-.62955.89259-.12969.39912-.80877.39912.80877.8926.12969-.64589.62955Zm4.23248-4.23249-.79831-.41972-.79831.41972.15248-.889-.64589-.62955.8926-.12969.39912-.80877.39913.80877.8926.12969-.6459.62955ZM36.294,17.03989l-.79831-.41973-.79831.41973.15248-.889-.64589-.62955.89259-.12968.39913-.80877.39912.80877.8926.12968-.64589.62956Z"/></svg>